<?xml version="1.0" encoding="UTF-8"?>
<svg id="Layer_2" data-name="Layer 2" xmlns="http://www.w3.org/2000/svg" viewBox="0 0 1614.6 1614.6">
  <defs>
    <style>
      .cls-1 {
        fill: #f2f2f2;
        opacity: .32;
      }

      .cls-1, .cls-2, .cls-3, .cls-4, .cls-5, .cls-6, .cls-7, .cls-8, .cls-9, .cls-10, .cls-11, .cls-12, .cls-13, .cls-14, .cls-15, .cls-16 {
        stroke-width: 0px;
      }

      .cls-17 {
        opacity: .58;
      }

      .cls-18 {
        fill: none;
        opacity: .73;
        stroke: #fafafa;
        stroke-miterlimit: 10;
        stroke-width: 31.6px;
      }

      .cls-3 {
        fill: #49572a;
      }

      .cls-4 {
        fill: #78432c;
      }

      .cls-5 {
        fill: #4a738f;
      }

      .cls-6 {
        fill: #558c29;
      }

      .cls-7 {
        fill: #c9e053;
      }

      .cls-8 {
        fill: #ad4040;
      }

      .cls-9 {
        fill: #e0cfa8;
      }

      .cls-10 {
        fill: #89c0cc;
      }

      .cls-11 {
        fill: #ff8c94;
      }

      .cls-12 {
        fill: #7d9447;
      }

      .cls-13 {
        fill: #f0bdad;
      }

      .cls-14 {
        fill: #fbff8c;
      }

      .cls-15 {
        fill: #fafafa;
      }

      .cls-16 {
        fill: #f0f0f0;
      }
    </style>
  </defs>
  <g id="Gacha">
    <g>
      <g>
        <path class="cls-7" d="M1223.19,725.79c43.48-21.44,80.94-60.49,129.35-69.41,78.39,25.77,169.25,97.62,156.34,193.36-10.65,36.76-70.99,119.41-111.65,109.93-63.18-.27-126.34-.91-189.31.92-22.11,5.16-9.63-12.33-2.81-20.79,30.51-64.71,37.01-142.16,9.58-212.68"/>
        <path class="cls-2" d="M1225.72,730.11c31.85-15.86,58.92-39.66,90.64-55.75,7.93-4.02,16.12-7.47,24.64-10.03,3.26-.98,7.99-3.03,11.37-2.78,2.97.22,6.8,2.39,9.6,3.45,14.13,5.33,27.8,11.91,40.88,19.46,52.04,30.05,100.72,80.45,102.23,143.95.17,7.11.49,15.38-1.7,22.21-1.48,4.61-3.43,9.05-5.55,13.4-5.6,11.5-12.4,22.44-19.81,32.85-14.89,20.93-33.68,43.18-57.38,54.35-4.36,2.06-9.17,3.67-14,4.09-2.11.19-4.24.15-6.34-.11-4.68-.58-9.3-.56-14.04-.58-22.27-.11-44.54-.24-66.82-.27-22.58-.03-45.17.03-67.75.33-10.95.14-21.89.34-32.84.61-5.13.13-10.07.35-15.13,1.05-.91.13-2.72-.25-3.48.16.17-.09-.99-.07-.65-.18.07-.02.92.82.78,1.05.29-.45.81-2.77,1.37-3.86,1.21-2.41,2.77-4.66,4.35-6.83,4.43-6.09,7.22-12.71,10.06-19.71,7.37-18.15,12.87-37.05,16.35-56.33,6.91-38.31,5.99-77.96-3.65-115.73-2.52-9.89-5.67-19.59-9.34-29.11-2.29-5.94-11.96-3.36-9.64,2.66,15.15,39.37,20.22,81.78,15.35,123.67-2.41,20.75-7.38,41.26-14.41,60.92-1.55,4.32-3.2,8.61-4.96,12.86s-3.34,9.12-6.16,12.77c-3.23,4.18-6.46,8.57-8.28,13.58-1.65,4.54-1.39,9.95,3.14,12.71,2.23,1.36,4.99,1.63,7.54,1.54,5.27-.18,10.47-1.04,15.78-1.17,23.22-.58,46.46-.85,69.69-.94,23.93-.1,47.85,0,71.78.11,11.64.06,23.27.13,34.91.17,5.74.02,10.92,1.07,16.7.11,11.94-1.99,22.83-8.69,32.27-15.96,11.3-8.7,21.3-18.97,30.4-29.92,9.4-11.32,17.99-23.37,25.44-36.07,5.64-9.61,11.95-20.43,14.55-31.39,3.64-15.38,1.68-33.52-1.55-48.8-3.27-15.5-9.32-30.42-17.22-44.13-16.22-28.13-40.11-51.29-66.59-69.76-13.25-9.24-27.3-17.32-41.91-24.2-7.11-3.35-14.35-6.42-21.7-9.19-3.15-1.19-6.33-2.48-9.57-3.4-4.34-1.23-9.48.71-13.74,1.88-36.21,9.91-65.68,34.5-96.88,54.15-7.72,4.86-15.6,9.43-23.77,13.5-5.76,2.87-.7,11.5,5.05,8.63h0Z"/>
      </g>
      <g>
        <path class="cls-12" d="M1353.4,695.29c60.82.72,127.77,61.66,131.66,119.83,2.97,44.44-52.56,126.15-98.94,115.48-52.68-12.12-76.47-100.75-82.03-150.49-4.85-43.39,6.14-77.99,50.71-85.06l.68,1.25"/>
        <path class="cls-3" d="M1353.4,700.29c47.53.9,93.29,35.72,115.02,76.65,9.42,17.74,14.38,37.65,9.77,57.49s-14.43,38.08-26.5,54.06c-11.18,14.8-26.03,29.83-44.07,35.79-16.15,5.33-32.09-.46-44.58-11.3-14.92-12.96-24.96-30.96-32.56-48.95-8.09-19.14-13.69-39.4-17.65-59.78-4.12-21.24-7.64-44.27-2.14-65.56,2.51-9.72,7.16-18.72,14.64-25.53,8.5-7.75,19.62-11.42,30.78-13.28l-5.65-2.3.68,1.25c3.07,5.66,11.7.62,8.63-5.05l-.68-1.25c-1.14-2.1-3.48-2.66-5.65-2.3-21.54,3.58-40.23,15.14-48.96,35.71-8.55,20.15-7.15,42.83-4.16,64.01,3.06,21.62,8.13,43.08,15.45,63.66,7.41,20.85,17.17,41.57,31.97,58.26,12.3,13.87,30.38,25.94,49.71,24.58,19.99-1.41,37.47-14.47,50.81-28.52,15.5-16.33,27.8-36.16,35.5-57.32s8.16-40.59.97-61.18c-8.46-24.23-24.64-45.57-43.96-62.24-19.62-16.94-43.49-30.32-69.18-35.03-6.01-1.1-12.09-1.74-18.2-1.86-6.44-.12-6.44,9.88,0,10h0Z"/>
      </g>
      <g>
        <path class="cls-9" d="M1315.52,686.84c166.92-240.92,363.33,214.31,78.04,215.37-59.63-7.86-81.81-76.57-89.84-130.47-8.86-31.54-5.05-60.59,11.8-84.9Z"/>
        <path class="cls-4" d="M1320.53,689.77c15.5-22.28,34.41-43.6,58.58-56.66,16.75-9.05,36.16-12.95,53.97-9.59s33.82,12.68,47.07,24.98c14.93,13.86,26.14,30.4,34.91,48.98,17.47,36.99,23.71,81.9,10.35,121.15-6.5,19.09-18.25,36.31-34.41,49.22-19.11,15.26-43.87,23.46-68.15,26.7-7.61,1.02-15.3,1.55-22.98,1.77-9.05.25-17.86-1.84-26.08-5.69-17.59-8.25-30.47-23.13-39.79-39.86-9.73-17.48-15.84-36.8-20.19-56.25-2.32-10.39-3.93-20.9-6.25-31.28-2.91-12.99-3.7-26.7-1.21-39.83,2.32-12.19,7.22-23.4,14.19-33.64,4.21-6.18-5.83-11.99-10.01-5.85-15.56,22.87-20.06,50.22-15.19,77.23,1.1,6.08,2.73,12,3.74,18.09.88,5.32,1.88,10.61,3.01,15.88,2.25,10.46,5.03,20.83,8.51,30.95,6.82,19.78,16.29,39.12,30.59,54.6,13.31,14.41,33.28,26.8,53.44,27.33,52.18,1.38,108.58-19.57,133.96-67.67,21.16-40.09,19.03-89.46,3.8-131.16-14.39-39.42-42.15-78.44-82.99-93.19-19.3-6.97-40.65-6.86-59.98-.05-25.49,8.97-46.58,27.36-63.65,47.87-5.39,6.47-10.45,13.21-15.26,20.12-4.27,6.14,5.78,11.94,10.01,5.85Z"/>
      </g>
      <g>
        <path class="cls-7" d="M968.63,1156.8c159.88-62.77,260.66-158.57,260.34-374.34-32.59-581.78-475.75-466.16-617.23-404.65-79.8,34.69-442.76,193.72-140.42,700.78,152.26,169.41,332.04,146.55,497.3,78.21Z"/>
        <path class="cls-2" d="M970.3,1162.86c51.08-20.1,100.75-45,143.26-80.15,40.38-33.39,71.73-75.84,91.63-124.31,11.1-27.02,18.52-55.44,23.18-84.24,5.45-33.66,8.46-68.68,6.21-102.75-4.12-62.54-13.31-125.27-31.95-185.24-14.25-45.83-34.19-90.39-62.25-129.5-23.13-32.24-51.5-60.44-84.66-82.33-29.67-19.58-62.82-33.76-97.2-42.66-33.27-8.61-67.76-12.44-102.09-12.59-33.13-.15-66.23,3.12-98.85,8.82-29,5.06-57.65,12.14-85.74,20.97-22.12,6.95-43.84,15.05-65.09,24.31-17.69,7.7-35.15,15.9-52.11,25.11-24.9,13.52-48.67,29.03-70.88,46.62-26.34,20.85-50.08,44.82-70.19,71.75-22.66,30.33-40.09,64.47-51.27,100.65-13.34,43.18-17.57,88.9-14.71,133.91,3.75,59.01,18.9,116.85,40,171.91,13.23,34.53,28.78,68.15,45.95,100.88,9.67,18.43,19.85,36.59,30.46,54.5,5.25,8.85,13.64,16.25,20.89,23.51s14.03,13.63,21.38,20.09c51.89,45.66,114.64,77.68,183.29,88.03,63.64,9.59,128.4,1.61,190.06-15.58,30.88-8.61,61.09-19.49,90.71-31.71,3.16-1.3,5.33-4.16,4.39-7.73-.78-2.97-4.59-5.68-7.73-4.39-59.1,24.39-121.25,43.96-185.23,49.49-63.14,5.46-126.98-3.74-184.23-31.63-32.17-15.67-61.64-36.39-88.06-60.46-7.32-6.67-14.41-13.58-21.29-20.71-3.35-3.46-6.75-6.92-9.91-10.56-3.69-4.25-6.26-9.51-9.09-14.38-10.17-17.5-19.91-35.25-29.16-53.25-30.37-59.14-55.62-121.48-69.7-186.61-10.41-48.18-14.39-98.19-7.9-147.21,5.13-38.75,17.03-76.6,35.56-111.03,16.36-30.38,37.26-57.49,61.83-81.65,21.7-21.34,44.57-39.06,70.14-55.34,19.76-12.58,40.41-23.73,61.61-33.67,7.31-3.43,14.68-6.71,22.09-9.93,2.01-.88,4.03-1.75,6.05-2.6-1.52.64,1.75-.73,2.41-1,1.2-.5,2.4-.99,3.6-1.48,5.11-2.07,10.25-4.08,15.42-6.01,24.63-9.23,49.83-16.99,75.36-23.3,30.01-7.42,60.08-12.74,90.23-15.52,32.88-3.03,66.1-3.16,98.92.66,32.35,3.77,66.46,12.16,96.68,25.22,32.92,14.23,63.15,34.15,89,59.02,30.04,28.9,53.69,63.66,71.92,101.04,23.42,48.02,37.88,100.12,47.16,152.59,5.74,32.48,9.41,65.3,11.6,98.21,2.23,33.42-.43,67.83-5.82,100.86-8.79,53.85-27.76,105.83-60.69,149.7-30.37,40.45-71.25,71.58-115.35,95.73-23.58,12.92-48.14,23.97-73.15,33.81-7.44,2.93-4.2,15.08,3.34,12.11Z"/>
      </g>
      <g>
        <path class="cls-12" d="M927.63,1111.45c133.45-52.33,242.79-135.51,247.97-301.49-59.61-141.8-302.84-282.19-433.2-245.08-175.28,31.04-277.67,321.59-222.96,498.96,121.3,126.49,270.16,104.37,408.19,47.62Z"/>
        <path class="cls-3" d="M928.96,1116.28c60.84-23.91,120.52-55.09,167.04-101.87,22.32-22.44,41.21-48.38,54.98-76.91,15.21-31.53,24.09-65.55,27.78-100.3.47-4.47.86-8.94,1.17-13.42s1.59-10.62.5-15.14c-1.57-6.53-5.97-13.37-9.09-19.27-6.98-13.21-15.14-25.78-24.06-37.75-19.88-26.69-43.27-50.61-68.58-72.16-52.69-44.87-113.88-81.16-179.19-104.28-29.41-10.41-60.05-18.06-91.21-20.54-27.05-2.15-52.79,1.45-78.99,7.94-55.05,13.63-100.06,51.96-133.71,96.28-38.17,50.27-63.9,110-79.41,170.94-15.46,60.73-21.31,124.88-12.28,187.1,2.08,14.34,5.02,28.57,9,42.51,1.25,4.37,2.24,7.24,5.48,10.56,4.07,4.16,8.24,8.23,12.51,12.19,7.67,7.12,15.68,13.86,23.98,20.23,30.5,23.41,65.38,40.87,102.7,50.33,72.59,18.4,148.8,6.25,218.84-16.85,17.76-5.86,35.25-12.46,52.55-19.55,5.87-2.41,3.3-12.09-2.66-9.64-67.29,27.6-139.84,48.86-213.3,44.5-35.84-2.13-71.27-10.87-103.59-26.62-17.31-8.43-33.72-18.69-48.98-30.41-8.24-6.33-16.14-13.12-23.72-20.22-3.83-3.59-7.47-7.38-11.25-11.02-2.57-2.47-3.02-6.43-3.95-9.87-15.5-57.12-14.71-118.41-4.99-176.44,10.26-61.25,30.77-121.43,62.45-174.97,28.24-47.71,66.79-92.06,117.43-116.54,11.53-5.57,23.63-9.93,36.06-12.97,12.06-2.95,24.33-5.96,36.71-7.23,27.74-2.85,55.86.5,82.92,6.78,64.28,14.9,125.05,45.62,178.82,83.41,51.44,36.15,100.53,81.5,130.71,137.37,1.61,2.98,3.16,5.99,4.64,9.03s4.03,6.77,4.59,10.05c.11.61-.44,3.43-.5,4.67-.12,2.54-.27,5.08-.44,7.62-.32,4.73-.74,9.45-1.25,14.16-1.9,17.51-5.25,34.88-10.12,51.81-8.73,30.34-22.65,58.95-41.23,84.48-37.03,50.9-90.79,86.77-147.02,113.45-14.44,6.85-29.13,13.12-44.01,18.96-5.92,2.33-3.34,12,2.66,9.64Z"/>
      </g>
      <g>
        <path class="cls-9" d="M911.63,1117.56c84.11-31.24,168.81-76.68,218.66-156.68,42.58-90.31,7.03-164.79-43.42-209.75-65.94-58.76-197.08-207.72-344.46-186.25-14.59,2.13-34.58,6.25-46.54,14.91-170.97,123.82-126.93,226.54-143.31,364.78-9.94,83.91,45.32,162.86,121.93,192.66,90.71,25.61,183.94,2.22,267.17-31.29"/>
        <path class="cls-4" d="M913.17,1123.15c63.99-23.82,127.02-54.91,176.45-102.96,12.41-12.06,23.79-25.14,34-39.11,5.62-7.69,11-15.42,14.8-24.18s7.07-17.61,9.66-26.74c9.21-32.48,9.44-67.25-1.06-99.46-9.33-28.63-26.2-54.41-47.48-75.59-16.43-16.37-34.01-31.78-50.9-47.68-42.25-39.8-86.37-78.58-136.77-107.84-52.83-30.66-113.02-49.56-174.4-39.77-16.44,2.62-33.2,6.69-46.83,16.66-15.47,11.32-30.47,23.33-44.56,36.34-22.48,20.75-42.81,44.24-58.15,70.8-25.13,43.51-33.02,92.3-35.17,141.84-1.09,25.22-1.19,50.46-2.45,75.67-1.48,29.57-7.03,58.89-2.77,88.46,9.01,62.54,52.14,117.77,108.25,145.68,7.3,3.63,14.76,7,22.66,9.06,10.26,2.67,20.66,4.75,31.15,6.27,19.96,2.89,40.12,3.86,60.27,3.01,40.29-1.7,80.08-10.18,118.47-22.25,18.56-5.84,36.83-12.56,54.89-19.81,6.84-2.75,3.85-13.96-3.08-11.18-71.81,28.83-150.46,50.41-228.37,38.91-9.87-1.46-19.66-3.42-29.32-5.9-8-2.06-15.39-5.34-22.73-9.09-13.39-6.84-26.02-15.21-37.44-25-22.99-19.7-41.71-44.76-52.91-72.98-5.58-14.05-9.51-28.91-11.16-43.95s-.64-29.69.94-44.66c2.65-25.15,3.46-50.42,4.1-75.69,1.17-46.58,2.15-93.81,18.45-138.06,21.07-57.19,65.79-101.49,114.03-136.89,13.41-9.84,29.32-13.62,45.53-16.16,14.58-2.29,29.44-2.82,44.16-1.84,28.83,1.92,57.18,9.99,83.55,21.6,53.11,23.39,99.55,59.69,142.47,98.21,18.11,16.25,35.64,33.11,53.35,49.79,17.94,16.9,36.5,32.7,50.39,53.33,16.86,25.04,27.23,54.1,28.21,84.39.55,17.16-1.79,34.22-6.48,50.72-2.57,9.06-5.79,17.95-9.63,26.55-3.57,7.99-8.96,15.2-14.13,22.23-39.76,54.05-97.97,91-158.45,118.01-14.65,6.54-29.56,12.5-44.6,18.1-6.93,2.58-3.93,13.79,3.08,11.18h0Z"/>
      </g>
      <path class="cls-4" d="M883.17,800.22c37.92-6.15,77.85-12.93,110.81-33.94,6.27-4,.47-14.04-5.85-10.01-32.08,20.45-71.13,26.79-108.04,32.77-7.35,1.19-4.23,12.36,3.08,11.18h0Z"/>
      <g>
        <path class="cls-11" d="M733.62,871.65c-4.55-16.93-16.5-31.33-23.34-47.53-4-6.69-32.32-71.3-11.02-60.05,10.76,4.42,20.84,10.47,31.77,14.45,6.02,2.19,12.12,3.62,16.07,9.41,14.57,31.94,19.12,67.33,24.22,101.44,16.56-4.21,24.44-37.24,29.51-52.88,6.72-16.14.77-30.36,22.97-23.13,13.45,2.21,27.16.59,40.53-.11,76.49.2-8.95-17.69-37.19-48.49,10.03-22.57,19.36-48.51,20.72-74.39.22-4.05-1.16-12.92,1.83-15.96,22.37,17.31,30.49,47.82,39.89,73.71,14.67,35.5,22.76-30.57,23.18-41.3,2.12-16.21-2.32-32.76-1.47-48.94,40.31,30.31,50.1,87.38,67.46,132.71,9.25-9.94,6.87-30.71,8.26-43.97,4.41-23.84-1.25-47.92-3.72-71.84,8.12,18.32,24.36,28.95,34.11,46.25,19.22,36.36,26.37,77.48,31.36,117.33,8.31-10.59,8.31-26.12,12.37-38.92,2.68-10.02,6.32-19.45,10.05-29.02,1.11-2.84,2.4-10.8,5.57-11.03,24.02,32.08,17.69,75.67,31.51,110.93,19.42-35.87,42.42-120.74,18.56-161.65-100.65-172.58-258.19-165.43-354.59-154.9-67.36,10.69-157.3,62.17-205.24,111.44-65.91,71.24-116.2,214.76-72.82,314.38,21.38,27.91,121.54,41.36,155.21,42.11-22.43-28.69-39.02-62.85-46.91-98.93-2.79-14.31,21.86-8.53,29.98-10.26,15.96-1.41,33.22.11,48.8-3.02-19.4-25.54-34.29-65.13-37.66-97.02-1.01-15.2-10.19-38.25,16.95-5.84,0,0,42.61,50.98,73.07,65Z"/>
        <path class="cls-8" d="M738.44,870.32c-3.15-11.12-8.93-21.08-14.65-31.03-3.87-6.72-7.28-13.62-10.69-20.57-5.02-10.22-9.24-20.97-12.71-31.8-1.65-5.15-3.4-10.56-3.88-15.98-.09-1.06-.12-2.11-.07-3.17-.01.24.06-1,.15-.92.95.8-3.03,0-.86,1.09,9.86,4.91,20.85,10.25,31.4,14.42,4.57,1.81,10.07,2.86,13.86,6.18,4.44,3.89,6.41,12.93,8.28,18.38,9.26,27.08,13.02,55.59,17.23,83.78.4,2.66,3.8,4.17,6.15,3.49,18.99-5.46,25.46-31.78,30.48-48.21,1.36-4.44,3-8.81,4.29-13.26,1.17-4.04,1.7-8.23,2.87-12.27.83-2.88,1.43-4.12,4.57-4.02,2.65.09,5.07,1.16,7.62,1.74,4.16.94,8.67,1.11,12.91,1.25,8.39.26,16.76-.45,25.13-.96,6.21-.38,12.44-.19,18.66-.49,5.65-.27,14.46.01,18.97-4.22,9.75-9.15-12.19-18.35-17.66-21.12-17.22-8.75-36.39-17.05-49.79-31.41l.78,6.06c6.87-15.54,13.07-31.44,17.05-47.99,1.99-8.28,3.43-16.73,4.11-25.23.24-3.01.23-5.94.16-8.96-.04-1.76-.7-5.7.46-7.16h-7.07c15.22,12.06,23.52,29.76,30.12,47.58,3.2,8.65,5.7,17.69,9.41,26.14,1.81,4.11,4.23,8.93,8.51,10.95,17.71,8.38,21.65-37.55,22.72-46.53.66-5.53,1.26-11.2,1.4-16.75.35-13.86-2.58-27.56-2.02-41.43l-7.52,4.32c39.91,30.48,48.35,85.55,65.16,129.73,1.23,3.23,5.66,5.3,8.36,2.21,11.56-13.28,7.63-32.02,9.87-48.06,3.37-24.09-1.32-47.38-3.87-71.29l-9.32,2.52c5.67,12.33,15.14,21.87,23.86,32.05,9.83,11.47,16.08,24.9,21.29,39,10.7,28.93,15.8,59.53,19.64,90.01.63,5.02,6.23,6.68,9.32,2.52,8.36-11.25,8.77-25.64,12.44-38.68,2.1-7.45,4.51-14.78,7.24-22.03,1.26-3.34,2.71-6.64,3.78-10.05.33-1.06.59-2.13.92-3.19.3-.96,1.62-2.98.62-2.72l-5.65-2.3c23.43,31.99,17.33,74.07,31,109.73,1.43,3.74,6.94,5.29,9.14,1.19,9.76-18.18,16.44-38.19,21.41-58.16,5.66-22.72,9.37-46.68,7.62-70.14-.76-10.17-2.52-20.39-6.37-29.87-4.68-11.52-12.15-22.12-19.11-32.35-14.31-21.02-30.68-40.72-49.31-58.06-31.44-29.26-68.96-51.21-109.89-64.2-35.36-11.23-72.62-15.73-109.63-15.87-34.73-.12-71.17,1.51-104.66,11.19-51.17,14.79-99.94,41.61-142.1,73.9-18.82,14.41-36.35,30.09-50.98,48.81-14.64,18.73-27.09,39.07-37.58,60.38-22.37,45.46-36.95,95.75-38.82,146.55-.89,24.1,1.28,48.54,7.72,71.83,1.6,5.78,3.46,11.48,5.61,17.07,1.73,4.5,3.27,8.65,6.71,12.11,5.23,5.28,11.86,9.18,18.5,12.4,17.99,8.72,37.74,13.79,57.22,17.89,19.71,4.14,39.71,7.14,59.76,9.04,6.89.65,13.79,1.18,20.71,1.34,4.78.12,6.01-5.35,3.54-8.54-11.33-14.6-21.02-30.51-28.86-47.25-3.73-7.97-7-16.14-9.82-24.47-1.48-4.37-2.83-8.79-4.05-13.24-.91-3.32-3.44-8.89-2.94-12.3.82-5.58,18.35-2.82,22.54-3.08,17.51-1.09,35.5-.24,52.79-3.51,2.94-.56,4.85-4.87,2.99-7.34-24.01-31.98-34.48-70.64-39.04-109.75-.12-1.05-.21-2.1-.23-3.16-.05-1.77.28-.6-.24-.43-1.21.38-3.53,2.19-3.77,1.48.15.45,2.63,1.95,2.99,2.28,4.68,4.22,8.64,9.2,12.72,13.98,8.22,9.63,16.88,18.91,25.87,27.82,13.95,13.82,29.26,28.35,47.22,36.8,5.79,2.72,10.87-5.89,5.05-8.63-17.25-8.12-31.79-21.95-45.19-35.23-9.24-9.16-18.14-18.7-26.55-28.62-3.4-4.01-24.1-29.87-27.84-12.36-1.14,5.34.81,11.46,1.55,16.74,1.32,9.51,2.35,18.9,4.59,28.27,6.41,26.86,17.61,53.71,34.25,75.88l2.99-7.34c-16.13,3.05-32.8,1.67-49.1,3.07-8.15.7-16.88-1.27-24.83,1.53-12.4,4.36-8.11,16.9-5.45,26.59,4.16,15.15,9.83,29.89,16.74,43.99,7.9,16.12,17.56,31.21,28.56,45.37l3.54-8.54c-16.03-.39-32.09-2.31-47.94-4.69-19.94-2.99-39.85-6.89-59.19-12.69-14.52-4.36-32.09-9.66-42.76-21.15-2.94-3.17-4.1-8.68-5.51-12.75-1.81-5.24-3.38-10.57-4.73-15.95-2.86-11.44-4.68-23.1-5.58-34.85-3.74-48.78,6.72-98.17,24.61-143.4,16.6-41.95,40.46-83.21,74-113.87,37.97-34.7,84.06-62.48,131.76-81.53,20.42-8.16,42.04-15.39,64.01-17.68,14.8-1.55,29.63-2.79,44.49-3.44,74.07-3.26,148.61,10.17,209.85,54.16,18.65,13.4,35.53,29.23,50.57,46.57,8.1,9.34,15.65,19.13,22.69,29.29s14.84,20.86,19.77,32.27c8.16,18.88,7.49,41.16,5.2,61.18-2.57,22.49-8.32,44.82-16.21,66.01-3.01,8.08-6.41,16.01-10.49,23.61l9.14,1.19c-14.01-36.57-7.93-79.25-32.01-112.12-1.34-1.83-3.34-2.91-5.65-2.3-5.77,1.52-6.99,7.96-8.53,12.89-2.49,7.99-6.02,15.66-8.54,23.66s-4.18,15.53-5.82,23.47-3.41,14.94-8.09,21.24l9.32,2.52c-3.95-31.37-8.97-62.9-19.99-92.67-5.25-14.17-11.35-28.01-20.89-39.84-8.87-11.01-19.27-20.55-25.27-33.59-2.03-4.4-9.84-2.34-9.32,2.52,2.33,21.89,7.38,44.1,4.58,66.19-1.02,8.03-1.29,15.91-1.71,23.99-.38,7.35-.88,16.27-5.95,22.09l8.36,2.21c-17.98-47.27-27.14-103.16-69.75-135.7-3.21-2.45-7.39.94-7.52,4.32-.43,10.73,1.17,21.32,1.8,32.01.41,6.94,0,13.77-.6,20.67-.81,9.1-2.22,18.21-4.3,27.11-.97,4.13-2,8.42-3.78,12.29-.56,1.22-1.59,2.77-1.85,3.25-.43.77-.65.46-.59.54-.37-.47,1.96-.09,1.91.06-.08.24-1.64-1.66-2.06-2.29-1.77-2.72-2.82-5.82-3.9-8.85-2.84-8.03-5.54-16.12-8.62-24.07-6.92-17.87-15.77-35.59-31.08-47.73-1.92-1.53-5.24-2.3-7.07,0-3.85,4.85-3.46,10.69-3.31,16.57.2,7.93-1.15,15.98-2.76,23.71-3.66,17.65-10,34.63-17.27,51.08-.94,2.13-.87,4.29.78,6.06,11.58,12.41,27.4,20.56,42.33,28.18,6.28,3.2,12.66,6.23,18.79,9.71,1.12.64,2.23,1.28,3.31,1.99.31.2,2.1,1.45,1.52,1.02.32.23.6.64.94.83,1.17.68-.25.17.1.03-.66.27.58-3.36.58-3.45.02-.43.7-.36-.62.02-1.21.35-2.47.58-3.72.75-3.96.56-8.02.65-12.01.76-14.35.39-28.97,2.1-43.31,1.1-8.54-.59-19.92-6.54-27.08,1.05-5.15,5.46-4.96,14.67-7.17,21.45-3.2,9.82-6.04,19.84-9.78,29.48-3.19,8.23-8.07,20.63-17.49,23.33l6.15,3.49c-4.17-27.89-7.89-56.1-16.94-82.93-2.04-6.05-4.15-12.34-7.04-18.05s-7.81-8.86-13.61-11.15c-12.72-5.01-24.82-11.01-37.35-16.46-4.6-2-10.16-2.73-13.17,2.27-2.64,4.37-1.58,10.34-.7,15.03,2.56,13.59,8.15,26.82,13.66,39.43,2.42,5.55,5.05,11.04,7.76,16.45,6.72,13.46,15.91,25.71,20.06,40.34,1.75,6.18,11.4,3.55,9.64-2.66Z"/>
      </g>
      <g>
        <path class="cls-14" d="M849.02,522.83c-95.97-25-196.56,18.74-263.24,87.03-11.98,13.22-31.05,39.43-29.62,58.51,4.5,10.99,19.88,14.06,28.48,19.48,49.44,33.85,41.89,10,63.46-29.58,5.49-14.43,17.08-15.51,30.47-13.92,58.73,8.04,54.33,28.36,79.39-37.29,19.1-47.22,65.95,19.03,76.99-3.92,8.83-26.77,14.07-80.33,14.07-80.33Z"/>
        <path class="cls-6" d="M850.35,518.01c-75.34-19.33-154.65,2.46-217.6,45.83-29.1,20.05-58.84,44.74-74.61,77.11-3.55,7.29-6.45,15.07-6.98,23.23-.51,8.02,4.4,13.57,10.81,17.81s13.74,6.19,20.14,10.18c7.44,4.64,14.48,9.76,22.55,13.31,8.84,3.9,18.99,5.71,26.34-2.01,7.5-7.87,10.58-19.96,14.95-29.63,1.61-3.57,3.31-7.1,5.13-10.57s3.15-7.58,6.16-10.36c5.43-5.03,13.83-4.44,20.65-3.63,11.97,1.44,23.64,4.49,35.34,7.26,6.66,1.58,14.13,3.46,20.83,1.07,7.33-2.62,11.71-9.71,15.06-16.31,2.82-5.56,5.2-11.37,7.52-17.15,2.88-7.15,5-15.06,9.18-21.59,5.4-8.44,13.52-9.07,22.36-6.04,9.32,3.19,17.49,8.96,26.41,13.03,7.05,3.22,16.23,6.17,22.35-.47,3.94-4.27,4.86-11.18,6.18-16.62,1.82-7.56,3.28-15.21,4.59-22.87,2.26-13.22,4.05-26.53,5.56-39.86.26-2.3.51-4.59.74-6.89.63-6.4-9.38-6.36-10,0-2.16,22.03-5.17,44.22-10.25,65.77-.97,4.11-1.88,11.6-4.6,14.13-.11.1-.76.37-1.5.42-1.4.1-2.38-.19-4.19-.75-8.4-2.61-15.88-8.06-23.78-11.82-8.3-3.95-17.73-7.48-27.01-5.19-12.18,3-17.39,14.75-21.48,25.37s-7.93,22.26-14.36,31.86c-3.22,4.8-5.84,6.3-10.77,6.11-7.22-.28-15.96-3.3-23.66-5.05-12.67-2.88-27.14-6.7-40.11-4.07-15.25,3.09-20.65,19.29-26.21,31.96-2.4,5.47-4.57,11.06-7.13,16.47-1.6,3.37-3.35,7.29-6.36,9.66-6.28,4.91-19.33-3.83-25.41-7.57-7.08-4.36-13.62-8.56-21.2-12.01-4.97-2.27-14.09-6.23-14.9-11.48-1.11-7.25,3.49-16.4,6.67-22.58,3.8-7.4,8.44-14.41,13.51-20.99,10.37-13.48,23.4-24.95,36.56-35.63,56.22-45.63,129.75-74.08,202.78-64.99,9.13,1.14,18.17,2.96,27.09,5.25,6.24,1.6,8.9-8.04,2.66-9.64Z"/>
      </g>
      <g>
        <path class="cls-7" d="M428.31,1024.45c-46.59,13.41-100.57,9.74-142.38,35.72-40.63,71.81-59.48,186.11,14.51,248.23,32.62,20.02,132.87,40.54,156.56,6.16,46.55-42.72,92.83-85.7,140.63-126.74,19.83-11.06-1.18-15.61-11.91-17.26-66.12-27.32-123.05-80.23-150.23-150.85"/>
        <path class="cls-2" d="M426.98,1019.63c-38.79,10.99-80.23,10.22-118.28,24.13-4.2,1.54-8.35,3.25-12.41,5.14-4.3,2-10.55,4.26-13.9,7.73-2.26,2.34-3.66,6.19-5.15,9.06-1.83,3.51-3.58,7.06-5.25,10.64-6.79,14.54-12.45,29.64-16.8,45.09-17.16,60.95-14.95,133.22,31.54,181.06,4.92,5.06,9.94,9.81,16.24,13.06,5.16,2.66,10.55,4.91,15.98,6.94,12.96,4.85,26.44,8.38,40.02,10.98,26.05,4.99,56.87,8.66,82.22-1.38,5.08-2.01,9.83-4.58,14-8.14,1.98-1.69,3.49-3.65,5.19-5.59,3.66-4.16,8.29-7.74,12.38-11.5,17.5-16.08,34.98-32.18,52.56-48.17s35.68-32.29,53.77-48.16c8.58-7.53,17.28-14.75,26.21-21.8,4.88-3.85,7.81-10.26,2.83-15.39-4.27-4.4-11.42-5.84-17.2-6.93-8.01-1.52-15.51-5.7-22.76-9.38-16.33-8.29-31.94-18.13-46.31-29.49-28.79-22.74-52.92-51.18-69.98-83.69-4.34-8.26-8.19-16.76-11.57-25.46-2.3-5.93-11.98-3.35-9.64,2.66,25.48,65.6,76.86,118.67,140.41,148.49,3.55,1.67,7.14,3.25,10.76,4.78,3.27,1.38,6.69,1.7,10.14,2.52,2.64.63,5.36,2.23,7.92,2.71.12.02,1.06.64,1.03.59-.03-.05-.04-1.28-.29-.57s-2.14,1.85-2.58,2.16c-8.69,6.12-16.54,13.43-24.56,20.45-8.8,7.71-17.55,15.48-26.27,23.29-16.97,15.19-33.8,30.53-50.59,45.92-8.16,7.48-16.31,14.97-24.46,22.46-7.08,6.51-14.58,12.75-20.9,19.97-6.77,7.74-17.46,10.88-27.23,12.61-12.98,2.29-26.48,1.91-39.55.69-25.17-2.35-51.78-8.08-74.61-19.27-12.35-6.06-22.04-17.82-29.69-29.02-8.58-12.54-14.85-26.44-18.9-41.07-8.25-29.73-7.57-61.51-1.71-91.61,2.96-15.19,7.22-30.13,12.62-44.63,2.62-7.02,5.51-13.93,8.7-20.72,2.61-5.56,5.41-14.39,10.36-18.01,7.24-5.29,17.03-8.49,25.46-11.25,9.33-3.05,18.9-5.29,28.54-7.13,19.01-3.63,38.27-5.69,57.33-9.07,9.11-1.62,18.15-3.56,27.06-6.09,6.18-1.75,3.55-11.4-2.66-9.64h0Z"/>
      </g>
      <g>
        <path class="cls-12" d="M311.48,1089.53c-44.5,41.47-52.99,131.6-16.72,177.24,27.71,34.87,123.78,57.92,150.9,18.81,30.8-44.42-11.25-125.99-40.61-166.51-25.62-35.36-57.03-53.55-94.75-28.78l.34,1.38"/>
        <path class="cls-3" d="M307.94,1085.99c-33.37,31.51-45.38,83.05-39.4,127.42,2.84,21.06,10.11,42.7,24.35,58.89,12.42,14.12,30.74,23.01,48.19,29.16,19.7,6.95,41.39,10.92,62.32,9.18,17.57-1.47,35.65-7.25,46.31-22.16,13.01-18.21,13.36-42.22,9.63-63.42-4.31-24.48-14.29-47.97-25.92-69.81-20.13-37.79-55.73-95.15-106.8-78.48-6.68,2.18-12.94,5.41-18.84,9.21-1.92,1.23-2.85,3.42-2.3,5.65l.34,1.38c1.54,6.25,11.19,3.6,9.64-2.66l-.34-1.38-2.3,5.65c10.36-6.67,21.88-11.37,34.4-10.67,10.59.6,20.47,5.34,28.87,11.59,18.02,13.42,30.82,33.66,42.02,52.82,11.64,19.91,21.65,41.04,27.89,63.29,5.41,19.31,8.52,40.97,1.28,60.24-13.63,36.27-61.82,31.86-92.05,23.55-17.22-4.74-34.95-12.03-48.66-23.74s-21.56-29.13-25.71-46.43c-10.7-44.52.06-99.98,34.16-132.18,4.69-4.43-2.39-11.49-7.07-7.07h0Z"/>
      </g>
      <g>
        <path class="cls-9" d="M333.81,1057.78c-285.61-65.84-124.48,403.03,87.23,211.82,38.81-45.95,8.97-111.7-21.36-156.96-14.68-29.29-37.04-48.21-65.87-54.85Z"/>
        <path class="cls-4" d="M335.35,1052.19c-28.2-6.45-58.25-9.65-86.7-2.81-20.28,4.88-39.18,15.55-52.26,32s-19.21,35.24-21.41,55.27c-2.32,21.1.42,42.78,6.28,63.11,6.18,21.4,15.99,41.96,29.03,60.03,13.01,18.04,29.19,33.99,48.49,45.22,19.05,11.08,40.92,17.14,63.01,16.5,26.08-.75,51.08-10.34,72.87-24.31,14.99-9.61,30.68-20.76,39.63-36.45,12.18-21.33,13.06-46.44,7.91-69.98-5.41-24.7-16.86-48.03-30.05-69.45-3.25-5.27-6.69-10.36-9.65-15.79s-6.43-10.81-10.25-15.81c-7.19-9.42-15.69-17.66-25.59-24.2-9.52-6.28-20.23-10.69-31.31-13.33-7.25-1.73-10.35,9.45-3.08,11.18,22.3,5.31,41.01,18.66,53.88,37.59,3.45,5.08,6.1,10.59,9.32,15.78s6.38,9.84,9.38,14.89c6.24,10.51,11.98,21.38,16.69,32.67,8.71,20.84,15.04,44.57,11.04,67.25-2.02,11.43-6.58,22.24-13.64,31.48-4.8,6.28-12.1,11.34-18.42,16.05-19.85,14.78-43.31,26.7-67.53,29.95-20.46,2.74-41.05-.61-59.1-9.16-36.76-17.4-63.35-52.7-77.14-90.09-7.16-19.42-11.12-38.9-10.97-59.22.13-17.99,3.75-36,12.54-51.47,8.72-15.35,22.57-27.36,38.85-33.92,22.79-9.18,48.1-9.45,72.21-6.09,7.69,1.07,15.32,2.56,22.88,4.29s10.36-9.51,3.08-11.18Z"/>
      </g>
      <g>
        <path class="cls-13" d="M978.78,947.23c-25.15-29.65-71.7-42.96-101.04-17.92-12.27,10.47-13.35,25.83-20.07,39.93-11.6,24.34-45.49,13.77-56.31,38.6-11.84,27.12,2.59,77.06,34.55,77.83,26.9.65,45.8-26.17,72.79-29.64,21.03-2.7,43.86-4.17,62.27-14.93,22.12-12.93,31.78-43.29,20.9-71.08-1.88-4.8-3.94-9.02-6.67-13.35-1.75-2.78-1.4-3.61-3.6-5.81-1.56-1.57-2.99-5.19-5.1-5.83"/>
        <path class="cls-4" d="M982.32,943.69c-25.64-29.73-79.05-47.83-110.42-15.77-8.1,8.28-11.32,19.34-15.05,29.98-3.35,9.55-7.3,16.88-16.74,21.3-14.92,6.98-33.25,7.7-41.98,23.88-8.09,14.98-7.17,34.68-2.25,50.49,4.81,15.45,15.04,31.3,31.49,35.85,19.97,5.52,38.38-7.32,54.56-17.11,9.51-5.76,18.98-10.31,30.11-11.71,12.86-1.61,25.84-2.82,38.43-6.05,12.22-3.14,24.49-8.24,33.55-17.27,8.34-8.32,13.91-19.42,16.09-30.96,2.28-12.05,1.32-24.63-2.87-36.17-2.35-6.47-5.67-12.25-8.95-18.27-2.08-3.82-5.32-9.16-9.27-11.18-5.72-2.92-10.79,5.7-5.05,8.63,2.54,1.3,4.86,6.12,6.18,8.6,2.76,5.2,5.73,10,7.7,15.6,3.37,9.6,4.51,20.08,2.61,30.12-1.7,9.02-5.51,17.73-11.68,24.61-6.93,7.72-16.3,12.26-26.1,15.27-20.81,6.39-43.79,4.1-63.63,13.45-16.18,7.62-31.12,22.46-49.72,23.61-31.98,1.97-42.56-44.28-34.43-68.12,5.32-15.62,21.61-17.26,35.05-22.43,6.94-2.66,13.44-6.26,18.14-12.17,6.2-7.8,8.44-18.07,11.83-27.25,3.94-10.67,10.29-18.54,20.44-23.82,9.04-4.71,19.35-6.2,29.44-5.47,21.46,1.54,41.57,13.36,55.43,29.44,4.21,4.88,11.26-2.22,7.07-7.07h0Z"/>
      </g>
      <path class="cls-4" d="M737.01,968.58c8.63,1.66,17.3,4.39,26.18,3.66,5.18-.43,8.68-8.19,2.95-10.88-14.12-6.6-29.49-8.28-44.88-9.26-17.22-1.1-34.47-1.08-51.68.09-6.11.41-8.46,10.37-1.55,11.47,29.69,4.72,59.57,8.15,89.47,11.18,6.66.67,7.75-9.77,1.55-11.47-27.05-7.41-54.98-12.67-83.14-11.71-7.5.26-7.53,11.51,0,11.67,15.85.35,31.69,1.15,47.48,2.7,7.64.75,15.29,1.45,22.85,2.84,7.16,1.32,13.8,4.2,21.17,4.09,6.43-.1,8.12-9.91,1.55-11.47-15.33-3.62-30.8-6.06-46.44-7.86-7.68-.88-15.19-1.08-22.9-1.24s-13.14-.44-19.98,3.31c-4.23,2.32-3.56,9.66,1.39,10.67,26.84,5.43,54.34,4.73,81.45,7.92,6.48.76,8.03-10.35,1.55-11.47-15.86-2.74-31.76-4.89-47.88-5.02-8.39-.07-16.54,1-24.87,1.63-7.26.55-12.55,1.09-18.33,5.99-3.16,2.68-1.66,9.09,2.58,9.76,27.11,4.27,54.6,2.28,81.84,4.9,6.5.63,8.03-10.3,1.55-11.47-13.32-2.4-26.53-5.6-40.06-6.53-12.28-.85-25.14,2.32-37.22-.57l-1.55,11.47c14.11,1.24,28.24,2.11,42.37,2.94,13.27.78,26.82,3.22,40.11,2.14,5-.41,7.75-6.1,4.13-9.96-5.36-5.71-12.5-7.27-18.86-2.58-5.23,3.85-8.42,9.71-11.21,15.44-7.15,14.67-15.6,28.72-22.2,43.67-2.7,6.11,3.88,11.38,9.17,7.07,14.16-11.53,20.84-29.08,29.99-44.33,3.88-6.46-6.17-12.31-10.08-5.89-5.72,9.39-11.69,18.55-17.07,28.15-3.71,6.62-8.98,14.12-8.8,22.03.14,6.26,7.51,7.31,10.88,2.95,13.39-17.38,24.22-36.52,37.24-54.16l-10.08-5.89c-12.58,20.24-25.91,40.27-33.99,62.84-2.07,5.77,5.78,9.42,9.76,5.68,8.26-7.77,13.56-17.66,18.75-27.6,6.04-11.58,12.9-22.73,18.26-34.65,2.61-5.81-4.08-11.91-9.17-7.07-11.43,10.88-18.01,25.05-25.53,38.65-8.1,14.67-19.07,28.76-21.95,45.66-.9,5.27,3.77,8.71,8.57,6.59,7.99-3.53,10.16-10.58,14.46-17.48,5.54-8.89,10.9-17.87,16.16-26.93,8.61-14.81,19.65-29,24.29-45.73,1.45-5.22-6.02-10.48-9.76-5.68-8.52,10.94-15.42,22.81-22.49,34.7-6.81,11.46-14.64,22.39-18.97,35.12-2.09,6.15,5.65,8.87,9.76,5.68,7.8-6.05,11.13-17.66,14.58-26.47,4.79-12.21,13-25.51,15.46-39.63.79-4.52-3.98-9.76-8.57-6.59-10.64,7.34-16.95,18.21-23.54,29.03-7.94,13.04-16.53,25.76-25.25,38.28l10.08,5.89c6.81-9.89,13.03-20.14,19.52-30.25,5.96-9.29,12.21-18.23,16.38-28.52,2.42-5.96-5.83-8.98-9.76-5.68-7.39,6.21-12.26,14.64-18.22,22.1-6.65,8.32-13.62,16.4-18.49,25.95-1.6,3.13-.41,7.78,3.49,8.57,5.22,1.07,9.33-2.45,12.72-5.99,4.77-4.98,8.81-10.73,12.75-16.37,6.76-9.68,12.6-19.97,19.33-29.65,3.97-5.71-4.45-11.23-9.17-7.07-6.69,5.9-12.44,12.63-17.86,19.69-2.7,3.52-5.31,7.1-7.91,10.7-1.27,1.76-2.54,3.53-3.81,5.29-.63.87-1.26,1.73-1.89,2.59.6-.77.66-.86.18-.27-4.47,5.5-17.44,17.91-11.53,25.84,4.44,5.96,14.58.14,10.08-5.89.86,1.16-.83,2.23.36,1.3.53-.41.96-1.83,1.3-2.4,1.16-1.93,2.5-3.77,3.88-5.54,2.22-2.85,4.62-5.53,6.76-8.43,8.93-12.13,17.32-24.59,28.7-34.62l-9.17-7.07c-5.71,8.22-10.7,16.94-16.3,25.24-3.4,5.03-6.85,10.06-10.72,14.74-1.56,1.88-3.17,3.73-4.96,5.4-.74.69-1.05.38-1.45,1.15-.19.38.22-.22,1.82.11,1.16,2.86,2.33,5.72,3.49,8.57,4.67-9.16,11.32-16.8,17.65-24.81,5.59-7.09,10.26-15,17.24-20.87l-9.76-5.68c-3.97,9.78-10.54,18.33-16.14,27.2-6.11,9.66-12.1,19.37-18.58,28.78-4.28,6.21,5.82,12.02,10.08,5.89,8.19-11.77,16.15-23.74,23.77-35.88,6.04-9.61,11.22-20.62,20.83-27.24l-8.57-6.59c-2.39,13.73-9.71,25.39-14.86,38.12-3.03,7.49-5.53,17.68-12.18,22.83l9.76,5.68c3.97-11.68,11.53-21.81,17.79-32.33,6.54-10.99,12.79-22.22,20.67-32.34l-9.76-5.68c-4.18,15.08-14.32,27.92-22.13,41.25-4.63,7.9-9.24,15.8-14.03,23.6-2.31,3.75-5.02,7.42-6.84,11.43-1.59,3.5-2.9,5.28-6.54,6.89l8.57,6.59c2.71-15.9,13.14-29.07,20.77-42.87,7.02-12.71,13.02-26.12,23.7-36.28-3.06-2.36-6.11-4.72-9.17-7.07-5.15,11.47-11.71,22.19-17.56,33.31-4.99,9.49-9.71,19.13-17.63,26.58l9.76,5.68c7.72-21.55,20.81-40.74,32.81-60.06,4.05-6.52-5.72-11.8-10.08-5.89-13.02,17.64-23.85,36.78-37.24,54.16l10.88,2.95c-.14-6.16,5.48-12.93,8.31-18.12,4.9-8.99,10.65-17.43,15.97-26.16l-10.08-5.89c-8.64,14.4-14.81,31.09-28.17,41.97l9.17,7.07c5.43-12.31,12.44-23.73,18.44-35.74,2.14-4.29,3.98-8.73,6.35-12.91,1.13-2,2.32-4.07,3.96-5.71.54-.54,2.23-2.24,3.02-2.27-1.41.06,1.95,2.25,2.17,2.47,1.38-3.32,2.75-6.64,4.13-9.96-13.28,1.08-26.84-1.37-40.11-2.14-14.14-.83-28.27-1.7-42.37-2.94-6.59-.58-7.88,9.95-1.55,11.47,12.04,2.89,24.27.43,36.47.79,13.81.41,27.28,3.88,40.81,6.32l1.55-11.47c-26.17-2.52-52.71-.38-78.73-4.49l2.58,9.76c2.21-1.87,4.57-2.43,7.39-2.51,3.11-.09,6.18-.54,9.3-.85,7.33-.73,14.7-1,22.07-.77,13.82.43,27.36,2.18,40.97,4.53.52-3.82,1.03-7.64,1.55-11.47-26.05-3.07-52.55-2.28-78.34-7.51.46,3.56.93,7.11,1.39,10.67,5.66-3.1,11.63-1.76,17.82-1.77,7.07-.01,14.02.73,21.04,1.5,13.96,1.54,27.79,4.01,41.46,7.24.52-3.82,1.03-7.64,1.55-11.47-3.76.06-6.39-.89-9.92-1.96s-7.31-1.59-10.9-2.19c-7.69-1.29-15.45-2.01-23.2-2.77-15.78-1.54-31.62-2.35-47.48-2.7v11.67c27.19-.93,53.92,4.14,80.03,11.29l1.55-11.47c-28.87-2.92-57.71-6.2-86.37-10.76-.52,3.82-1.03,7.64-1.55,11.47,15.95-1.08,31.94-1.19,47.9-.31,14.39.79,29.52,1.7,42.77,7.89l2.95-10.88c-7.88.65-15.43-1.77-23.08-3.24s-10.48,9.83-3.1,11.26h0Z"/>
      <g>
        <path class="cls-4" d="M972.82,826.08c-10.24,11.72-19.05,24.14-28.37,36.56-4.2,5.58,4.87,12.3,9.58,7.39,8.23-8.58,15.75-17.78,23.61-26.69s16.67-18.25,25.06-27.33c5.43-5.88-2.62-13.49-8.62-8.62-10.02,8.13-18.24,18.05-26.48,27.91-9.07,10.86-17.93,21.86-26.09,33.42-3.95,5.6,5.23,12.8,9.58,7.39,9.01-11.21,19-21.54,28.97-31.89,4.73-4.91,9.47-9.82,14.29-14.65s10.53-9.18,14.63-14.82c3.65-5.03-3.41-11.45-8.34-8.34-12.31,7.75-22.39,17.96-32.04,28.74-5.29,5.9-10.58,11.81-15.88,17.69-4.74,5.26-10.13,9-10.71,16.56-.45,5.87,6.7,7.23,10.41,4.31,10.7-8.42,19.22-18.98,28.01-29.28,9.6-11.26,19.84-21.96,28.95-33.63,4.82-6.18-2.44-13.62-8.62-8.62-11.88,9.61-21.85,21.17-31.98,32.54-10.09,11.32-20.93,22.3-28.75,35.4-3.82,6.4,4.44,11.38,9.58,7.39,6-4.66,10.3-10.8,15.12-16.61,5.5-6.62,11.03-13.24,16.72-19.71,9.57-10.89,20.7-20.79,27.94-33.5,3.54-6.2-4.46-11.87-9.58-7.39-10.82,9.46-19.52,20.79-28.49,31.95-4.52,5.63-9.34,10.98-14.04,16.46-5.26,6.12-9.89,12.95-15.4,18.79l9.58,7.39c9.05-16.9,24.38-30.13,31.71-47.93,2.41-5.85-6.21-9.98-10.19-5.93-12.29,12.5-21.45,27.46-32.48,41l10.19,5.93c6.18-16.41,15.27-31.53,25.1-45.99-3.51-2.05-7.02-4.1-10.53-6.16-5.67,9.86-11.22,19.79-16.76,29.73-4.8,8.6-8.45,18.18-14.37,26.08-4.21,5.62,4.83,12.23,9.58,7.39,1.64-1.67,3.04-3.53,4.6-5.28-3.4-1.98-6.79-3.96-10.19-5.93-2.08,5.35-5.75,8.99-6.41,14.97-.36,3.27,3.08,6.11,6.1,6.1,6.14-.02,12.07-1.9,18.14-2.57,6.57-.73,13.2-1.03,19.81-.87,6.02.14,12.15.57,18.07,1.71s10.94,3.99,16.82,4.33c6.32.37,7.92-8.31,3.08-11.36-7.81-4.92-20.18-3.27-28.99-2.9-8,.34-15.98.87-23.95,1.59-8,.72-15.85,1.04-23.66,3.1-5.48,1.44-6.13,10.74,0,11.76,29.86,4.97,60.48,3.7,90.45,8.2l1.62-11.98c-3.04.12-6.39-1.42-9.34-2.15-3.12-.77-6.24-1.51-9.39-2.17-6.78-1.43-13.65-2.44-20.56-2.99-14.82-1.17-29.71-.48-44.55-.73-7.87-.13-7.82,11.89,0,12.2,17.55.7,35.12.39,52.67.94,16.73.52,33.27,2.72,49.85,4.93,6.05.81,8.23-8.78,3.08-11.36-15.47-7.75-35.33-9.18-52.35-9.8-18.7-.68-37.4-.66-55.97,1.85-6.74.91-5.22,12.7,1.62,11.98,18.09-1.91,36.11-4.37,54.15-6.64,8.94-1.12,17.88-2.25,26.84-3.19,8.09-.85,16.31-.33,24.34-1.3,5.18-.62,9.31-8.6,3.08-11.36-5.66-2.51-11.81-1.24-17.83-1.05-7.34.23-14.65.45-21.98,1.01-14.39,1.1-28.73,2.72-43.13,3.53-7.9.44-7.79,11.54,0,12.2,13.58,1.13,27.45-.23,41.06-.44,7-.11,14.01-.04,21.01-.15,2.91-.04,5.93-.25,8.83.09s5.2.93,8.18.21c7.62-1.84,4.4-13.61-3.24-11.76-1.77.43-4.73-.65-6.66-.73-3.25-.14-6.52,0-9.77.04-6.77.07-13.54.02-20.32.14-12.96.23-26.16,1.49-39.09.41v12.2c13.13-.74,26.2-2.14,39.3-3.23,6.38-.53,12.75-.95,19.14-1.13,3.18-.09,6.36-.15,9.54-.28,1.8-.07,7.14-1.26,8.81-.51l3.08-11.36c-8.03.97-16.25.45-24.34,1.3-8.96.94-17.9,2.07-26.84,3.19-18.04,2.27-36.06,4.73-54.15,6.64l1.62,11.98c16.81-2.28,33.9-2,50.82-1.47,8.12.25,16.24.79,24.27,2.08s16.78,2.59,23.83,6.12l3.08-11.36c-16.58-2.21-33.11-4.42-49.85-4.93-17.55-.54-35.12-.24-52.67-.94v12.2c14.84.25,29.73-.43,44.55.73,6.72.53,13.32,1.64,19.89,3.11,6.14,1.37,13.09,4.45,19.39,4.21s8.73-10.91,1.62-11.98c-15.07-2.27-30.29-3.41-45.47-4.58s-30.12-1.15-44.98-3.62v11.76c6.76-1.78,13.5-2.04,20.42-2.66,7.34-.66,14.69-1.16,22.05-1.5,4.49-.21,9-.34,13.5-.29,3.37.04,8.27-.44,11.24,1.44l3.08-11.36c-2.58-.15-4.87-1.49-7.26-2.32-2.88-1-5.92-1.55-8.92-2.02-6.18-.97-12.45-1.54-18.71-1.7s-12.61.11-18.87.77c-6.33.66-12.75,2.65-19.09,2.68l6.1,6.1c.2-1.82,2-3.94,2.91-5.46,1.2-2.02,2.21-4.06,3.07-6.26,2.22-5.7-6.29-10.32-10.19-5.93-1.56,1.75-2.95,3.6-4.6,5.28l9.58,7.39c5.92-7.9,9.57-17.48,14.37-26.08,5.54-9.94,11.09-19.86,16.76-29.73,3.95-6.88-6.16-12.59-10.53-6.16-10.46,15.39-19.75,31.45-26.33,48.9-2.1,5.58,6.4,10.59,10.19,5.93,11.02-13.54,20.2-28.51,32.48-41l-10.19-5.93c-3.25,7.9-9.34,14.7-14.39,21.48-5.69,7.63-11.58,15.12-16.08,23.54-3.18,5.93,4.66,12.6,9.58,7.39,5.32-5.64,9.73-12.16,14.78-18.06s9.95-11.31,14.67-17.19c8.96-11.16,17.67-22.49,28.49-31.95l-9.58-7.39c-7,12.29-18,21.77-27.19,32.36-5.26,6.06-10.44,12.2-15.56,18.38-4.82,5.8-9.12,11.94-15.12,16.61l9.58,7.39c7.56-12.67,18.18-23.18,27.92-34.14s19.44-22.07,30.9-31.33l-8.62-8.62c-9.11,11.67-19.35,22.38-28.95,33.63-8.79,10.3-17.31,20.86-28.01,29.28,3.47,1.44,6.94,2.87,10.41,4.31.15-1.95,3.98-4.44,5.19-5.78,2.37-2.63,4.74-5.26,7.11-7.89,4.3-4.78,8.56-9.59,12.87-14.35,8.27-9.15,16.93-17.83,27.42-24.43l-8.34-8.34c-1.87,2.58-4.41,4.33-6.74,6.44-2.53,2.29-4.89,4.81-7.3,7.23-4.82,4.84-9.55,9.77-14.29,14.69-9.54,9.88-19.05,19.81-27.66,30.53l9.58,7.39c7.88-11.16,16.47-21.71,25.22-32.2,7.89-9.46,15.84-18.89,25.44-26.67l-8.62-8.62c-8.39,9.08-16.89,18.06-25.06,27.33s-15.38,18.11-23.61,26.69l9.58,7.39c8.7-11.58,16.91-23.15,26.47-34.09,5.15-5.89-3.45-14.55-8.62-8.62h0Z"/>
        <path class="cls-4" d="M958.43,824.05c-8.83,11.1-16.46,23.2-23.99,35.19-3.9,6.21-7.38,12.64-11.2,18.89-2.55,4.19-5.86,9.75-1.23,13.95,4.07,3.69,10.17,2.22,15.09,2.12,7.13-.14,14.32-.65,21.44-.24,6.35.37,12.74.79,19.1.92,7,.15,14.07-.64,21.04-.38,7.85.29,7.84-11.9,0-12.2-12.19-.46-24.41.55-36.64-.27-6.08-.41-12.02-.38-18.11-.13-3.06.13-6.13-.02-9.19.16-1.28.08-2.61.15-3.88.3-1.73.2-2-1.02-.78.43l1.79,4.31c0,.73.1-.2.39-.45.96-.83,1.8-2.87,2.47-4.01,1.43-2.43,2.77-4.92,4.18-7.36,2.92-5.04,6.08-9.93,9.17-14.87,5.9-9.43,12.04-19.05,18.97-27.77,4.84-6.08-3.74-14.77-8.62-8.62h0Z"/>
      </g>
      <path class="cls-2" d="M514.85,720.8c-13.02,2.56-28.61,6.12-40.26-2.41-10-7.32-15.26-19.38-16.56-31.4-1.37-12.65.26-25.67,2.48-38.13,2.4-13.43,5.91-26.73,10.85-39.45,18.13-46.66,56.38-82.6,94.61-113.24,21.6-17.32,44.75-32.3,68.88-45.85,24.46-13.73,49.81-24.29,77.08-30.99,53.08-13.03,112.04-14.31,163.88,4.63,27.27,9.96,54.41,24.38,70.82,49.11,8.77,13.2,12.49,27.34,11.82,43.17-.33,7.77-1.85,15.32-4.29,22.7-1.04,3.13-2.26,6.15-3.75,9.09-.69,1.36-1.9,6.18-3.08,6.94-5.39,3.48-.38,12.14,5.05,8.63,4.15-2.68,5.32-7.73,7.4-11.96,3.14-6.4,5.39-13.36,6.83-20.32,2.93-14.21,2.99-30.08-1.68-43.94-8.88-26.31-30.37-45.87-54.32-58.52-26.27-13.87-53.97-23.03-83.49-26.64-30.12-3.68-60.64-2.81-90.59,1.96-30.24,4.82-59.72,13.63-87.21,27.18-26.74,13.18-52.58,28.98-76.41,46.87-42.95,32.23-86.34,70.96-108.15,121.17-6.63,15.26-11.2,31.34-14.05,47.72-2.55,14.6-4.35,29.72-2.09,44.47,2.2,14.34,9.79,28.33,22.21,36.32,13.99,9,31.43,5.54,46.67,2.54,6.31-1.24,3.64-10.88-2.66-9.64h0Z"/>
      <g>
        <path class="cls-16" d="M475.25,578.03c-8.88-15.13-18.74-30.98-12.98-48.56,9.82-35.14,57.62-59.93,84.46-26.5,3.85,2.55-11.43,11.78-14.64,14.46-20.27,18.83-39.85,39.76-54.09,64.1"/>
        <path class="cls-2" d="M479.57,575.5c-5.15-8.76-10.77-17.66-13.1-27.67-2-8.57-.18-17.23,3.65-25.03,6.24-12.69,17.57-23.4,31.01-28.09,13.51-4.72,27.94-2.63,38.33,7.64.82.81,1.6,1.66,2.36,2.52,1.04,1.18,1.48,3.05,1.01-.03-.41-2.69-.2-1.78-1.64-.49-2.29,2.04-4.73,3.83-7.23,5.59-6.12,4.32-11.38,9.51-16.7,14.78-16.52,16.37-31.71,34.22-43.57,54.29-3.28,5.55,5.36,10.59,8.63,5.05,12.34-20.88,28.37-39.11,45.75-55.92,3.16-3.05,6.08-6.12,9.37-8.46s6.4-4.44,9.36-6.96c2.13-1.81,4.6-4.05,5.3-6.87.99-3.96-1.7-6.42-4.15-9.07-25.58-27.59-67.47-11.59-84.42,17.19-5.46,9.27-8.95,20.27-7.65,31.08,1.56,13.01,8.53,24.44,15.05,35.52,3.26,5.55,11.9.52,8.63-5.05h0Z"/>
      </g>
      <g>
        <path class="cls-16" d="M884.82,414.95c-2.73-17.3-5.16-35.78-20.8-45.8-29.95-21.1-82.78-10.36-82.35,32.39-1.37,4.39,16.35,1.97,20.54,2.04,27.69,1.9,56.18,5.85,82.69,15.81"/>
        <path class="cls-2" d="M889.64,413.62c-1.68-10.65-3.26-21.43-7.9-31.28-4.21-8.95-11.21-15.58-19.76-20.38-14.18-7.96-31.49-10.22-47.31-6.62s-28.9,13.25-34.81,28.08c-1.55,3.88-2.43,7.91-2.89,12.06-.38,3.45-1.24,8,1.33,10.78,4.52,4.88,14.74,2.82,20.55,2.46,12.82-.79,26.65,1.74,39.28,3.78,15.48,2.51,30.72,6.25,45.44,11.69,6.04,2.24,8.65-7.43,2.66-9.64-22.35-8.27-45.86-12.47-69.52-14.79-8.08-.79-15.67-1.05-23.73-.69-1.71.08-3.42.14-5.13.08-.53-.02-2.43-.52-2.82-.28,1.55-.95.44,5.85,1.54,3.32.37-.84.09-2.25.12-3.14.08-1.9.26-3.79.63-5.66,5.66-28.7,41.28-35.32,64.76-25.22,8.64,3.72,16.12,9.47,20.41,17.98,4.66,9.24,5.9,20.02,7.48,30.12,1,6.34,10.64,3.65,9.64-2.66h0Z"/>
      </g>
      <path class="cls-2" d="M502.46,545.1c-2.49-4.85-6.53-13.99-1.65-18.5,2.51-2.31,5.75-3.33,9.08-2.79,2.07.34,6.19,1.3,7.83,2.55l-1.79-6.84c-1.43,2.87-4.86,5.73-6.98,8.24s-4.97,6.95-7.8,8.63l3.85-.5-.84-.33,2.99,2.3c-.89-1.4.55-6.44,2.56-5.31l-2.3-2.99.15.79.5-3.85c-.37.82-1.67,1.66-.14,1.87l3.67,4.82c-.03,1.1-.72.91.33.61.95-.27,1.87-1.12,2.77-1.58,1.73-.88,3.49-1.59,5.02-2.82,2.87-2.31,4.71-5.91,3.31-9.57-3.31-8.66-15.05-7.3-21.79-4.42-7.56,3.22-13.87,10.33-15.83,18.37-2.05,8.44,1.22,16.42,7.39,22.23l3.54-8.54c-2.02-.14-4.51-6.43-4.7-7.85-.61-4.57,3.64-8.34,6.8-11.01,3.68-3.1,7.37-5.91,12.3-6.31,4.68-.38,7.95,1.46,11.88,3.68,5.61,3.16,10.66-5.47,5.05-8.63-6.87-3.87-13.4-6.16-21.37-4.51-7.4,1.54-14.94,7.71-19.6,13.48s-6.66,12.64-3.3,20c2.41,5.28,6.77,10.71,12.93,11.14,4.34.3,6.58-5.67,3.54-8.54-3.77-3.55-6.14-7.98-4.64-13.24,1.4-4.92,5.38-9.14,10.01-11.17,1.31-.57,2.82-1.14,4.23-1.35.68-.1,3.24.49,3.7.23.49-1.58.27-1.98-.68-1.22-.46.26-.94.5-1.42.71-1.19.59-2.39,1.13-3.53,1.83-3.27,2.02-5.85,4.39-5.95,8.45-.05,1.95,1.57,4.53,3.67,4.82,3.94.55,6.86-.72,9.55-3.67,2.39-2.63,3.73-6.74.95-9.65-5.84-6.11-15.78.77-18.27,6.77-2.27,5.48.95,18.01,9.04,13.37,3.59-2.06,6.83-6.86,9.48-9.99s6.68-6.52,8.55-10.26c1.32-2.65.48-5.1-1.79-6.84-3.43-2.63-10.56-4.11-14.8-4.16-5.17-.07-10.48,2.44-14.22,5.96-8.65,8.13-4.6,21.48.08,30.62,2.94,5.73,11.57.68,8.63-5.05h0Z"/>
      <path class="cls-2" d="M817.04,400.41c3.24-7.51,8.97-15.62,18.26-12.37,3.48,1.22,7.12,3.28,9.91,5.7,3.64,3.16,4.63,6.55,5.92,10.96l3.49-6.15c-2.58.64-6.4-.67-9.03-.85-3.66-.25-7.32-.17-10.98-.39-3.9-.24-7.83-.7-11.69-1.31-1.24-.19-2.47-.42-3.7-.67l1,3.3c.15,0,2.47-3.33,2.91-3.72,3.63-3.26,8.48-4.27,11.95-2.3,1.64.93,3.29,1.92,4.76,3.12.61.5,1.37,1.67,2.06,1.96,1.42.6-.38.75.46-.48l6.84-1.79c-6.33-4.28-17.53-9.13-24.4-3.39-2.41,2.01-1.68,6.47,1.01,7.85,3.07,1.58,4.97.93,8.22.57l-1.33-9.82c-3.5,1.26-6.92,1.68-10.59,2.16-2.21.29-4.42.67-6.65.75h-1.8c-1.39-.33-1.48.03-.29,1.09,2.1-2.25,3.29-4.85,6.03-6.63s6.76-3.74,9.94-4.45c5.58-1.24,13.48,2.74,17.51,6.53,2.14,2.02,4.24,4.76,5.58,7.37.66,1.29,2.7,6.05,2.11,7.38-2.62,5.82,5.99,10.91,8.63,5.05,4.06-9.02-2.72-20.75-9.25-26.87-7.99-7.49-20.44-12.13-30.86-7.77-5.3,2.22-10.45,4.56-14.4,8.86-3.19,3.47-7.09,9.04-5.18,13.96s7.39,5.65,11.99,5.47c6.45-.24,13.81-1.07,19.9-3.26,4.9-1.76,4.66-10.48-1.33-9.82-.63.07-4.28.23-3.17.8.34,2.62.67,5.24,1.01,7.85-1.1.92.19.19,1.29.46.87.21,1.77.33,2.64.53,3.31.77,5.59,2.1,8.35,3.96,2.36,1.59,5.38.31,6.84-1.79,4.82-6.96-3.67-13.83-8.92-17.14-7.71-4.86-16.56-4.57-23.94,1.01-3.48,2.63-7.43,6.83-7.78,11.42-.41,5.46,4.51,7.18,8.98,7.95,6.55,1.12,13.21,1.81,19.85,1.99,5.77.16,12.48,2.12,18.09.72,2.59-.64,4.23-3.6,3.49-6.15-1.77-6.07-3.6-11.01-8.49-15.37-4.46-3.98-10.31-7.29-16.1-8.87-12.83-3.49-23.09,6.73-27.77,17.56-2.53,5.85,6.09,10.95,8.63,5.05h0Z"/>
      <g>
        <path class="cls-10" d="M688.53,1042.8c-7.85,7.7-16.5,18.21-12.89,26.07,2.46,5.35,8.01,9.66,17.05,9.06,15.06-1.01,30.07-11.51,31.87-22.47,1.14-6.97,3.68-15.65-6.32-17.35-7.07-1.21-17.42-2.07-25.58,2"/>
        <path class="cls-5" d="M684.76,1039.03c-9.54,9.48-22.04,24.59-10.45,37.38,10.93,12.07,31.17,6.5,42.62-1.82,5.64-4.1,10.77-9.6,12.56-16.54,1.36-5.28,2.59-11.95.52-17.17-2.64-6.67-9.37-7.98-15.77-8.7-8.38-.95-16.54-.21-24.26,3.32-6.24,2.86-.82,12.07,5.39,9.22,4.98-2.28,10.55-2.51,15.93-2.13,2.83.2,8.23-.12,9.05,3.22.68,2.75-.52,7.37-1.34,9.99-1.38,4.41-5.01,7.91-8.74,10.45-6.83,4.66-20.47,10.3-27.62,3.44s4.72-18.19,9.66-23.11-2.67-12.41-7.55-7.55h0Z"/>
      </g>
      <g>
        <path class="cls-10" d="M1042.29,860.62c8.32.1,18.51,1.27,20.34,7.15,1.25,4.01.22,9.01-5.26,13.19-9.13,6.96-22.95,8.97-29.43,4.16-4.12-3.06-9.89-6.31-5.01-12.17,3.45-4.14,8.95-9.74,15.65-11.68"/>
        <path class="cls-5" d="M1042.29,864.56c4.41.09,16.92-.34,16.87,6.37s-10.15,10.94-15.82,12.21c-6.17,1.39-11.76.55-16.52-3.76-3.12-2.83.01-5.11,2.34-7.43,3.02-3.02,6.38-5.52,10.47-6.88,4.8-1.59,2.74-9.21-2.1-7.61-7.76,2.57-24.09,13.1-19.61,23.21,4.26,9.6,16.97,12.09,26.14,10.36,10.15-1.92,23.76-9.12,22.93-21.19-.82-11.98-15.5-12.99-24.71-13.18-5.08-.1-5.08,7.79,0,7.89h0Z"/>
      </g>
      <path class="cls-4" d="M644.85,939.77c30.93-3.2,61.64-8.73,86.12-29.35,5.44-4.58-2.4-12.35-7.8-7.8-21.98,18.52-50.6,23.25-78.31,26.12-6.99.72-7.07,11.77,0,11.04h0Z"/>
    </g>
    <circle class="cls-18" cx="807.3" cy="807.3" r="791.5"/>
    <path class="cls-1" d="M1405.2,558.1c-65.96,154.87-226.42,264.2-413.9,264.2-246.32,0-446-188.71-446-421.5,0-65.13,15.63-126.8,43.54-181.86-259.94,90.35-446.54,337.78-446.54,628.86,0,367.55,297.51,665.5,664.5,665.5s664.5-297.95,664.5-665.5c0-103.84-23.75-202.12-66.1-289.7Z"/>
    <g class="cls-17">
      <path class="cls-15" d="M185.8,1394c269.55,2.21,548.84-108.14,780.43-240.1,89.66-51.73,175.92-109.5,256.76-174.14,80.13-64.41,156.39-135.39,217.92-217.95,19.99-27.32,38.23-55.85,52.56-86.47,13.56-29.38,23.99-61.46,23.52-93.54,0,0,31.6,0,31.6,0-2.65,73.71-44.23,138.81-86.86,195.68-86.35,110.57-195.43,200.76-309.07,281.84-199.64,139.79-420.67,251.62-655.66,317.89-101.47,27.96-205.41,46.51-311.21,48.38,0,0,0-31.6,0-31.6h0Z"/>
      <path class="cls-15" d="M1117.23,1191.19c106.79-77.05,212.51-157.59,305.63-250.72,58.19-58.82,129.88-137.8,149.35-219.49,2.14-9.82,3.54-20.21,3.48-30.18,0,0,26.22,0,26.22,0-.2,19.98-3.96,39.51-9.94,58.46-4.69,14.63-10.71,29.07-17.44,42.88-83.1,164.7-273.09,309.88-434.27,394.27-6.58,3.43-13.23,6.74-19.89,10,0,0-3.14-5.22-3.14-5.22h0Z"/>
    </g>
    <g class="cls-17">
      <path class="cls-15" d="M225.8,1328.8c153.54-5.37,304.48-42.83,449.09-93.9,48.53-17.12,96.6-36.14,144-56.26,63.36-26.94,125.78-56.42,187.84-87.24-201.74,134.99-432.52,236.75-675.57,263.53-34.96,3.35-70.17,5.03-105.36,3.88,0,0,0-30,0-30h0Z"/>
    </g>
  </g>
</svg>