<?xml version="1.0" encoding="UTF-8"?>
<svg id="uuid-9f0d0b74-86e2-4d83-b3a1-b08775ac4367" data-name="Layer 2" xmlns="http://www.w3.org/2000/svg" viewBox="0 0 1614.6 1614.6">
  <defs>
    <style>
      .uuid-e7aa5872-8202-4a4e-98a0-af86578c0a32 {
        fill: #f2f2f2;
        opacity: .32;
      }

      .uuid-e7aa5872-8202-4a4e-98a0-af86578c0a32, .uuid-8894dd93-fd87-4585-b8c0-ac57a3623a2c, .uuid-5a1e4a8f-d62c-4dbe-9d4a-a40f36c6aaff, .uuid-d6e16302-b27f-4f42-9788-698d8743c2b1, .uuid-eb406498-99d7-42df-9dab-fc1246a11f92, .uuid-5df81b55-f035-4929-b04a-862ff7fe3121, .uuid-cb9332e0-a72b-457d-ae44-f787b67052af, .uuid-14752417-4389-4793-ae4d-8cef87357ba5, .uuid-0521cc36-e120-44f3-a8eb-19c7f70dbb4c, .uuid-323a04a5-50ae-4145-9773-4a68e8915317, .uuid-9197e1ee-d5a4-4440-9ce3-df3d38685550, .uuid-d749a494-5825-4fe1-823e-839a7a86e65f, .uuid-8cf43fb6-0ae3-492a-890b-a9f4bfb77886, .uuid-6d00ffc8-e25c-4769-8628-a480a106101a, .uuid-907b176f-ef2e-4bdd-9598-86b164534f96, .uuid-5078e079-3b25-46c3-8269-b3aa77e81b09, .uuid-adcac1ac-48f3-4a09-bc44-34296ae39e8f, .uuid-3f86fbdb-8d36-4ec9-82a8-e3dfe27d2d57, .uuid-f74e43c2-dd16-4d09-94fa-0732d2d474b9, .uuid-73c6391e-af2c-419f-814b-b9bab654e0a1, .uuid-253e6f1f-64b0-466b-9140-09be8ad55cde, .uuid-93d3d2cc-7737-41dc-88c5-5472f1fb0a21, .uuid-98691806-c7dd-4f74-adfe-2ae4495df597, .uuid-434063c8-5c04-463b-b396-b64aef4f203d, .uuid-59f331cc-4ce0-4857-9458-04d5eaf5045c, .uuid-fc0c2097-3438-438e-be56-1d06d5737400, .uuid-5ac1eedb-9bdd-4339-a800-3aa5a0abd5f4, .uuid-d8b447d9-a4bc-499f-b6d3-5503230f853e, .uuid-ff8e4a21-638c-4cb1-8623-58a10dfe565b, .uuid-def10c8f-e94e-4e47-bc7a-5ee07857675e, .uuid-a968357d-e5d2-4011-aaf4-4e6b1e3a056f, .uuid-462a7231-9f2d-4dcc-836e-f93793798377, .uuid-a965ef8c-1b4b-46eb-b9f5-23f66fdf3c06, .uuid-78fea1fc-c000-44b8-83bc-e23a4ef35c5d, .uuid-524ef497-cd17-4fdc-adf1-d7dd68030c75, .uuid-c3b497c0-e361-4044-b5d3-f18eadbea3b7, .uuid-e3fa902a-15a7-4477-8e7b-c76c20bd0614, .uuid-53e9e53e-6639-4265-a5ed-d75d37c8aad1, .uuid-dd2257b5-bea5-44f5-8b24-807b7dca62a7, .uuid-0ff0e0ac-250b-4ffd-8b2d-f572e574b182, .uuid-d09e8f33-149d-4901-a2a7-662cea6a7a8c, .uuid-c5a53dee-b010-4fcc-813c-d80d87be8c2a, .uuid-60f8ddcc-c174-4a1a-a97c-70d319859245, .uuid-c9a22c5a-401e-4b05-8295-3b8632dbacd9, .uuid-2cefefbf-25d1-48e0-9ec2-acc363b61fe7, .uuid-0e1613bb-ecdd-4d0d-af05-a5b25bce99f3, .uuid-7659168b-7a55-41b1-92d1-8bf06154c070, .uuid-cea62216-93a4-464c-a0d7-b63ff7155bc0, .uuid-f844006f-7d49-48d6-9235-4da6ad0463e7, .uuid-5f34d36f-5cfd-4d8a-a0bf-b31b91841dd4, .uuid-f461d9da-5417-4039-b82c-225db738b9e2 {
        stroke-width: 0px;
      }

      .uuid-611ca3e2-121d-442f-ad6b-0d884293855e {
        opacity: .58;
      }

      .uuid-6ee8340e-1df2-40d9-8fe1-0398339e4d22 {
        fill: none;
        opacity: .73;
        stroke: #fafafa;
        stroke-miterlimit: 10;
        stroke-width: 31.6px;
      }

      .uuid-8894dd93-fd87-4585-b8c0-ac57a3623a2c {
        fill: #f8a6d8;
      }

      .uuid-5a1e4a8f-d62c-4dbe-9d4a-a40f36c6aaff {
        fill: #f7f3f6;
      }

      .uuid-d6e16302-b27f-4f42-9788-698d8743c2b1 {
        fill: #f6e7f1;
      }

      .uuid-eb406498-99d7-42df-9dab-fc1246a11f92 {
        fill: #f6edf3;
      }

      .uuid-5df81b55-f035-4929-b04a-862ff7fe3121 {
        fill: #f8e5f1;
      }

      .uuid-cb9332e0-a72b-457d-ae44-f787b67052af {
        fill: #f9a7d9;
      }

      .uuid-14752417-4389-4793-ae4d-8cef87357ba5 {
        fill: #343436;
      }

      .uuid-0521cc36-e120-44f3-a8eb-19c7f70dbb4c {
        fill: #343437;
      }

      .uuid-323a04a5-50ae-4145-9773-4a68e8915317 {
        fill: #282828;
      }

      .uuid-9197e1ee-d5a4-4440-9ce3-df3d38685550 {
        fill: #474748;
      }

      .uuid-d749a494-5825-4fe1-823e-839a7a86e65f {
        fill: #555;
      }

      .uuid-8cf43fb6-0ae3-492a-890b-a9f4bfb77886 {
        fill: #a3a3a3;
      }

      .uuid-6d00ffc8-e25c-4769-8628-a480a106101a {
        fill: #313133;
      }

      .uuid-907b176f-ef2e-4bdd-9598-86b164534f96 {
        fill: #3c3c3c;
      }

      .uuid-5078e079-3b25-46c3-8269-b3aa77e81b09 {
        fill: #0a0a0a;
      }

      .uuid-adcac1ac-48f3-4a09-bc44-34296ae39e8f {
        fill: #111;
      }

      .uuid-3f86fbdb-8d36-4ec9-82a8-e3dfe27d2d57 {
        fill: #111015;
      }

      .uuid-f74e43c2-dd16-4d09-94fa-0732d2d474b9 {
        fill: #0f0e14;
      }

      .uuid-73c6391e-af2c-419f-814b-b9bab654e0a1 {
        fill: #100f15;
      }

      .uuid-253e6f1f-64b0-466b-9140-09be8ad55cde {
        fill: #151419;
      }

      .uuid-93d3d2cc-7737-41dc-88c5-5472f1fb0a21 {
        fill: #070707;
      }

      .uuid-98691806-c7dd-4f74-adfe-2ae4495df597 {
        fill: #0c0c0c;
      }

      .uuid-434063c8-5c04-463b-b396-b64aef4f203d {
        fill: #0b0b0b;
      }

      .uuid-59f331cc-4ce0-4857-9458-04d5eaf5045c {
        fill: #201c1e;
      }

      .uuid-fc0c2097-3438-438e-be56-1d06d5737400 {
        fill: #1e1e23;
      }

      .uuid-5ac1eedb-9bdd-4339-a800-3aa5a0abd5f4 {
        fill: #131313;
      }

      .uuid-d8b447d9-a4bc-499f-b6d3-5503230f853e {
        fill: #121117;
      }

      .uuid-ff8e4a21-638c-4cb1-8623-58a10dfe565b {
        fill: #d7d7d7;
      }

      .uuid-def10c8f-e94e-4e47-bc7a-5ee07857675e {
        fill: #d694bf;
      }

      .uuid-a968357d-e5d2-4011-aaf4-4e6b1e3a056f {
        fill: #d4d4d4;
      }

      .uuid-462a7231-9f2d-4dcc-836e-f93793798377 {
        fill: #acacac;
      }

      .uuid-a965ef8c-1b4b-46eb-b9f5-23f66fdf3c06 {
        fill: #323235;
      }

      .uuid-78fea1fc-c000-44b8-83bc-e23a4ef35c5d {
        fill: #303034;
      }

      .uuid-524ef497-cd17-4fdc-adf1-d7dd68030c75 {
        fill: #333336;
      }

      .uuid-c3b497c0-e361-4044-b5d3-f18eadbea3b7 {
        fill: #999;
      }

      .uuid-e3fa902a-15a7-4477-8e7b-c76c20bd0614 {
        fill: #fdfdfd;
      }

      .uuid-53e9e53e-6639-4265-a5ed-d75d37c8aad1 {
        fill: #f1ebef;
      }

      .uuid-dd2257b5-bea5-44f5-8b24-807b7dca62a7 {
        fill: #f3dae9;
      }

      .uuid-0ff0e0ac-250b-4ffd-8b2d-f572e574b182 {
        fill: #e8e3e6;
      }

      .uuid-d09e8f33-149d-4901-a2a7-662cea6a7a8c {
        fill: #e7d9e2;
      }

      .uuid-c5a53dee-b010-4fcc-813c-d80d87be8c2a {
        fill: #e6dce3;
      }

      .uuid-60f8ddcc-c174-4a1a-a97c-70d319859245 {
        fill: #fafafa;
      }

      .uuid-c9a22c5a-401e-4b05-8295-3b8632dbacd9 {
        fill: #fbfbfb;
      }

      .uuid-2cefefbf-25d1-48e0-9ec2-acc363b61fe7 {
        fill: #fefefe;
      }

      .uuid-0e1613bb-ecdd-4d0d-af05-a5b25bce99f3 {
        fill: #fcfcfc;
      }

      .uuid-7659168b-7a55-41b1-92d1-8bf06154c070 {
        fill: #f5ebf1;
      }

      .uuid-cea62216-93a4-464c-a0d7-b63ff7155bc0 {
        fill: #f4edf2;
      }

      .uuid-f844006f-7d49-48d6-9235-4da6ad0463e7 {
        fill: #030303;
      }

      .uuid-5f34d36f-5cfd-4d8a-a0bf-b31b91841dd4 {
        fill: #010101;
      }

      .uuid-f461d9da-5417-4039-b82c-225db738b9e2 {
        fill: #020202;
      }
    </style>
  </defs>
  <g id="uuid-3ec6a7f6-ed0b-4077-b5e1-18c81ebc85a9" data-name="Gacha">
    <g>
      <path class="uuid-5f34d36f-5cfd-4d8a-a0bf-b31b91841dd4" d="M581.52,1318c-.62,2.61-1.47,3.09-3.87,1.18-14.65-11.62-31.16-17.37-49.92-20.42-21.86-3.54-43.03-11.46-64.39-17.84-6.93-2.07-13.66-4.59-20.95-5.41-22.59-2.54-43.55-11.82-65.82-16.07-13.42-2.56-14.35-10.13-5.2-25.17-20.68-2.3-41.36-2.08-61.84-5.02-20.3-2.92-33.83-14.79-44.7-30.62-3.74-5.44-6.82-11.39-12.09-15.44-12.06-9.26-16.35-25.05-28.89-33.84-.21-.15-.25-.56-.34-.85-3.48-11.87-9.96-17.38-24.73-19.79-12.39-2.02-24.55-4.74-36.2-9.46-14.58-5.9-17.34-12.06-10.59-25.8,3.24-6.59,5.54-13.07,6.33-20.41.96-8.94,3.94-12.74,22.05-32.88-17.63,5.79-33.45,6.82-49.41,6.09-2.63-.12-5.27.15-7.9.03-1.95-.09-4.11-.37-4.39-2.92-.24-2.19.96-3.5,2.93-4.56,7.54-4.04,14.89-8.44,22.48-12.4,31.59-16.48,59.53-37.45,81.5-65.82,1.2-1.55,2.37-3.14,3.44-4.79.32-.49.28-1.23.44-2.09-4.66-1.5-8.94,1.55-13.37,1.16-2.92-.26-7.36,1.32-8.15-3.27-.67-3.92,3.37-4.18,5.9-5.39,11.86-5.68,23.86-11.07,35.56-17.06,36.96-18.93,63.74-47.24,76.94-86.95,5.15-15.5,6.82-32.16,12.06-47.63,14.72-43.47,31.11-86.28,59.77-123.05,3.85.61,2.97,3.65,3.18,6.14-.51,5.62-4.82,9.21-7.38,13.74-22.86,40.53-43.08,82.17-52.83,128.07-7.05,33.21-21.45,62.64-44.31,87.82-16.85,18.56-39.11,28.38-61.32,37.96,8.77,4.62,9.12,6.9,2.38,13.74-12.23,12.41-22.06,27.02-35.54,38.32-19.52,16.35-40.5,30.35-63.61,40.89,1.09.9,2.09-.32,3.1-.06,14.75.34,28.65-4.34,42.9-6.92,4.97-.9,11.5-3.83,14.35,2.19,3,6.35-3.88,9.15-7.89,11.76-14.57,9.49-24.87,21.42-26.19,39.62-.31,4.29-3.14,7.94-5.01,11.78-3.29,6.75-1.28,11.51,5.31,14.43,7.86,3.49,15.99,6.64,24.57,7.29,26.16,1.96,46.31,15.62,55.92,38.19,7.05,16.55,20.36,26.85,29.14,41.26,10.46,17.15,28.38,25.15,48.87,25.44,16.16.22,32.25,1.49,48.37,2.32,4.1.21,8.1.52,10,4.86,1.72,3.95-.73,6.82-2.85,9.85-5.26,7.49-4.59,9.47,3.86,12.77,4.97,1.94,10.22,2.65,15.46,3.26,8.59.99,16.88,2.88,24.62,6.91,2.92,1.52,6.08,3.16,9.35,3.03,16.7-.65,31.41,6.8,46.94,10.97,22.88,6.16,45.36,14.07,69.13,16.56,12.63,1.46,20.95,10.99,31.25,16.8,2.71,1.53,3.73,4.44,1.57,7.5Z"/>
      <path class="uuid-5f34d36f-5cfd-4d8a-a0bf-b31b91841dd4" d="M1259.17,1022.66c15.02,33.7,40.27,58.91,68.09,81.99,1.52,1.26,3.02,2.53,4.51,3.82,1.37,1.19,1.9,2.74,1.3,4.42-.89,2.51-3.01,1.86-4.97,1.75-5.99-.33-10.38-5.27-17.4-6.38,5.6,16.97,13.11,31.8,22.09,45.83,15.37,24.04,35.44,44.08,55.65,63.95,2.22,2.18,6.42,4.16,4.66,7.75-2.29,4.67-6.48,1.27-9.65.46-15.83-4.01-31.21-9.34-46.13-16.85,6.9,14.15,12.48,27.64,7.69,43.56-1.34,4.44,1.89,10.13,2.51,15.31,1.28,10.81-1.75,14.93-12.67,17.24-12.37,2.62-24.9,2.37-37.28.4-8.99-1.43-17.77-.55-26.4,1.34-3.74.82-11.24.14-7.74,8.49.23.55-.56,2.15-1.17,2.36-14.86,5.06-23.68,19.3-38.17,24.95-5.58,2.17-9.86,6.4-14.35,10.33-15.51,13.59-32.89,20.48-54.22,17.14-19.56-3.06-38.5-8.71-57.98-12.14-.28.48-.94,1.09-.82,1.46,5.18,16.35,1.06,23.01-16.12,20.98-23.52-2.79-47.14.62-70.69-3.42-13.68-2.35-28.25,1.01-42.28-.05-19.64-1.48-39.51,1.22-58.92-3.24-11.92-2.74-21.08,6.45-32.22,6.93-1.63.07-3.41,3.09-4.92.54-1.27-2.14-.06-4.44,1.96-6.01-.57-3.26,1.98-3.82,4.08-4.23,11.32-2.2,22.39-6.96,34.32-3.51,2.19.63,4.5.2,6.75-.08,29.27.85,58.54,2.73,87.83.42.66-.05,1.36-.16,1.97.01,20.26,5.73,41.34.02,61.71,4.4,2.9.62,5.89.59,8.87.4,10.72-.68,11.75-2.27,7.57-12.28-1.33-3.19-2.29-6.27.18-9.26,2.41-2.93,5.68-3.11,9.04-2.29,15.03,3.66,30.32,6.21,45.13,10.75,24.83,7.62,46.77,2.9,65.6-15.24.47-.46.89-1.06,1.46-1.33,16.36-7.68,27.93-21.31,41-33.06,14.19-12.75,31.17-14.88,49.04-12.77,10.55,1.24,20.99,1.56,31.52.38,7.44-.83,10.69-4.99,8.97-12.19-1.95-8.16-1.21-16.11-.62-24.38.95-13.19-6.42-23.78-14.14-33.88-3.01-3.93-9.62-7.7-5.29-13.24,4.23-5.4,9.65-.26,14.15,1.79,12.47,5.69,23.63,14.27,37.99,16.58-12.3-11.89-23.29-24.75-33.51-38.34-12.36-16.43-23.02-33.71-29.88-53.17-1.1-3.11-2.11-6.28-4.18-8.91-4.59-5.82-3.59-10.24,3.9-13.26-13.01-13.27-27.94-23.9-37.86-39.24-5.16-7.98-11.28-15.48-13.32-25.13,1.27-3.91-3.22-9.49,3.39-11.88Z"/>
      <path class="uuid-5f34d36f-5cfd-4d8a-a0bf-b31b91841dd4" d="M968.71,496.93c18.09-18.93,41.07-30.73,63.94-42.18,56.08-28.06,115.64-45.92,176.86-59,25.34-5.42,50.59-11.26,76.39-13.23,32.45-2.47,64.98-3.07,97.38,1.85,7.23,1.1,8,4.57,5.84,10.16-3.77,9.74-7.32,19.6-11.69,29.08-11.65,25.28-16.56,52.49-23.44,79.15-5.84,22.63-9.92,45.6-14.28,68.54-2.69,14.18-12.93,25.56-16.42,39.8-8.46,34.49-29.79,62.27-49.2,90.91-9.01,13.3-15.88,27.76-23.79,41.62-5.84,10.22-11.69,20.13-19.49,28.89-4.44-1.7-2.76-5.28-2.62-8.4,16.72-31.33,32.93-62.91,54.17-91.67,14.3-19.36,25.62-40.61,32.42-63.97,2.77-9.5,6.33-18.63,10.99-27.45,5.77-10.91,6.75-23.45,8.89-35.26,5.94-32.77,15.88-64.52,23.01-96.97,3.31-15.08,11.6-28.64,17.35-43,4.62-11.53,3.85-13.22-8.26-14.5-19.69-2.08-39.48-.97-59.23-1.05-39.65-.16-77.65,9.9-115.82,18.55-43.43,9.84-86.09,22.5-126.88,40.66-31.31,13.94-62.23,28.7-88.77,51.01-7.31,3.01-7.98,2.69-7.37-3.55Z"/>
      <path class="uuid-5f34d36f-5cfd-4d8a-a0bf-b31b91841dd4" d="M400.9,651.65c-8.69-12.98-9.63-28.55-12.63-43.01-4.54-21.87-11.21-42.94-17.85-64.14-8.14-26.03-10.52-52.93-13.26-80.07-5.31-52.46,5.51-104.04,4.45-156.09-.35-16.96-3.14-33.87-4.82-50.8-.03-.32-.18-.64-.22-.96-2.26-17.98-1.1-19.3,16.44-16.46,36.5,5.92,71.33,17.08,104.99,32.45,45.74,20.88,89.35,45.75,130.59,74.1,46.06,31.67,89.89,66.59,121.78,113.81,1.55,1.9,2.96,3.83,1.64,6.46-.66.76-1.5,1.22-2.48,1.43-5.71.07-6.87-5.16-9.8-8.35-23.95-33.33-55.1-59.17-86.82-84.64-41.94-33.68-89.21-58.68-135.94-84.4-37.16-20.46-77.67-32.78-119.17-41.41-12.05-2.51-13.04-1.29-11.46,10.53,6.13,45.69,3.63,91.28-.04,137-1.56,19.46-6.25,39.23.38,58.82,1.24,3.67,1.07,7.83.99,11.79-.58,29.04,5.5,56.73,15.37,83.97,10.91,30.1,16.8,61.58,23.1,92.91-.83,3.03-.25,7.13-5.24,7.06Z"/>
      <path class="uuid-f74e43c2-dd16-4d09-94fa-0732d2d474b9" d="M918.61,1349.92c-2.75,1.99-5.76,1.07-8.51.36-12.98-3.35-24.56,2.39-36.59,5.3-18.15,2.11-36.25,4.71-54.44,6.26-79.34,6.75-155.11-7.23-227.6-39.83-3.26-1.47-6.63-2.68-9.95-4.01-.47-1.53-.5-3.96-1.49-4.44-10.79-5.28-18.68-15.98-31.7-17.08,4.81-7,10.5-2.96,15.26-.54,11.16,5.66,22.12,11.7,33.57,16.8,89.12,39.75,181.48,49.99,277.13,30.62,13.15-2.66,26.18-2.19,38.87,2.69,2.16.83,4.38,1.53,5.46,3.87Z"/>
      <path class="uuid-f74e43c2-dd16-4d09-94fa-0732d2d474b9" d="M731.18,467.32c-.27-2.28-.54-4.57-.81-6.85,80.67-8.93,158.22,2.97,232.77,34.91,1.76.75,3.71,1.05,5.58,1.56.44,7.92,3.73,1.69,5.87,1.18,18.39,8.4,36.24,17.78,53.11,28.93,1.93,1.76,4.53,2.13,6.8,3.19,1.8,1.71,3.94,3.08,5.47,5.09.73,2.14,2.02,3.91,3.47,5.63,2.14,2.56.9,3.95-1.89,4.65-7.09.96-12.69-2.4-18.3-6.01-39.33-25.25-81.61-43.76-126.69-56.17-49.71-13.69-100.2-17.51-151.45-13.74-4.76.35-9.91,2.06-13.92-2.36Z"/>
      <path class="uuid-f844006f-7d49-48d6-9235-4da6ad0463e7" d="M1259.17,1022.66c-3.19,3.56.62,7.9-1.31,11.61-4.21.02-4.13-3.66-5.05-6.18-9.69-26.65-14.01-54.15-10.73-82.36,1.77-15.18,1.89-30.36.02-45.25-4.03-32.21-6.05-64.87-17-95.9-1.54-4.37-3.28-8.57-5.81-12.44-1.2-4.9,1.13-8.84,3.61-12.65.81-1.24,2.32-2.58,3.8-.6.88,1.18.2,2.41-.6,3.48,10.38,24.68,15.9,50.43,19.99,76.91,5.59,36.18,6.95,72.22,4.36,108.59-1.35,18.9,4.68,36.71,8.72,54.8Z"/>
      <path class="uuid-323a04a5-50ae-4145-9773-4a68e8915317" d="M1226.1,782.36c-.08-.31-.1-.66-.25-.94-.26-.49-.59-.94-.89-1.41-1.85,4.33-4.39,8.43-4.58,13.33-3.45,3.91-4.27-.17-4.89-1.99-2.31-6.8,7.36-24.19,14.8-27.11.44,2.74-1.51,5.63.53,8.27-1.88,3.13-1.57,7.31-4.71,9.84Z"/>
      <path class="uuid-9197e1ee-d5a4-4440-9ce3-df3d38685550" d="M400.9,651.65c3.41-1.59,1.92-5.15,3.08-7.65.32.08.76.05.94.25,6.06,6.87,2.22,28.15-5.95,33.06-.27-1.93-.53-3.86-.8-5.79,1.47-6.55,5.04-12.81,2.72-19.87Z"/>
      <path class="uuid-e3fa902a-15a7-4477-8e7b-c76c20bd0614" d="M398.97,677.31c4.13-10.73,9.27-21.32,5.01-33.31-7.31-27.64-10.8-56.33-20.61-83.19-8.23-22.54-14.51-45.38-17.85-68.98-1.55-10.92.91-22.57-1.58-33.15-5.95-25.33-.65-50.06.99-75.06,1.35-20.63.75-41.39,2.35-61.99,1.81-23.38-2.68-46.14-4.7-69.15-.49-5.56.19-8.28,7.32-6.95,36.53,6.8,71.81,17.12,105.69,32.66,45.2,20.73,88.31,45.28,129.13,73.32,44.35,30.47,86.78,63.74,118.19,108.61-.68,3.22-3.45,3.8-5.95,4.27-20.28,3.75-40.51,7.75-60.5,12.87-1.9.49-3.9.41-5.82-.23-10.76-10.17-19.48-22.2-29.76-32.84-63.17-65.39-133.42-121.54-214.12-164.05-4.36-2.3-8.39-5.24-14.42-7.39,5.3,6.03,13.95,6.39,16.06,13.97-11.02,64.97-20.49,130-14.85,196.29,2.68,31.45,9.65,61.73,20.76,91.16.79,2.08,1.25,4.54,3.97,5.17,1.78.25,3.3,1.07,4.6,2.23,7.4-5.97,7.62-15.22,10.35-23.18,3.18-9.3,5.63-18.84,9.89-27.76,1.38-2.89,1.89-6.48,6.03-6.99,2.04.08,3.83.95,5.5,1.99,3.78,2.34,5.5.74,5.85-3.08.7-7.58,2.42-15.44,5.64-21.77,7.9-15.56,9.73-33.05,17.31-48.54,1.39-2.83,2.75-6.62,6.83-6.03,3.82.55,4.44,4.39,5.6,7.41,1.48,3.84,1.32,8.41,4.69,11.68,7.32-4.14,6.92-13.84,14.03-17.51,1.74-.16,3.29,2.38,5.26.03,5.21-6.25,6.5,1.68,9.74,2.63,3.83,1.11,6.13-6.53,11.19-2.59,2.62,2.03,2.9,5.95,6.64,7.56,3.56-4.59,4-10.16,5.31-15.47,2.33-9.41,8.46-11.22,15.79-4.8,5.07,4.45,7.57,10.66,11,16.24,3.37,5.5,6.97,10.33,14.71,9.18,3.82-.57,6.68,2.2,9.59,4.39,2.52,1.89,4.13,5.17,7.81,5.41,3.91-13.87,3.98-13.96,15.45-4.94,5.34,4.2,11.72,7.36,14.82,13.96.02,2.31-3.68,3.01-2.66,5.45.53,1.27,2.15.06,3.27-.27,3.38-1.5,7.17-1.47,10.54-2.98,25.54-7.53,51.12-14.85,78.14-14.22h-.05c20.56-.39,41.01-2.6,61.66-1.76,22.71.93,45.37,2.14,67.66,6.5,52.02,10.17,101.51,27.38,147.19,54.71,5.59,3.34,11.27,6.58,16.62,10.28,6.03,4.18,12.17,7.53,19.82,6.69,15.58,1.11,29.7-5.33,44.44-8.58,9.66-2.14,18.86-.71,27.32,4.65.93-.14,1.83-.06,2.72.2,4.02,3.48,8.36,3.2,12.83,1.05,5.34-2.57,11.07-4.11,16.56-6.3,9.68-3.14,19.17-6.96,29.37-8.2,3.26-.4,6.94-1.08,8.97,2.24,1.79,2.93-.44,5.59-1.86,8.17-4.46,8.09-3.52,9.71,5.81,10.22,9.53.52,10.62,2.21,7.1,11.29-1.08,2.79-1.42,5.72-1.89,8.63-.94,5.71-1.77,11.15,7.33,8.08,4.16-1.4,6.28,1.2,6.23,5.18-.12,10.46.93,21.05-2.77,31.21-3.55,9.04-7.21,18.05-6.19,28.07,1.2,9.16-3.66,17.65-3.17,27.74,2.05-3.02,2.02-6.09,3.92-8.16.64-.77,1.31-1.5,2.11-2.09,2.65-1.93,5.64-4.85,8.78-2.93,3.59,2.19,1.95,6.43,1.65,9.98-1.67,19.85-6.63,39.29-7.3,59.2.45.99.03,4.51,2.2,1.64,7.82-10.35,16.52-19.58,19.33-33.68,3.14-15.78,14.04-28.9,22.22-42.77,18.09-30.64,38.07-60.17,52.12-93.1,15.18-35.57,27.51-72.01,35.71-109.81,1.54-7.08,4.1-13.87,5.09-21.13.82-6.02-1.11-7.67-6.9-6.82-18.97,2.79-37.54,7.32-55.99,12.37-62.28,17.07-120.83,43.73-179.56,69.94-21.69,9.68-43.69,18.62-65.73,27.44-2.14.86-4.34,1.61-6.7,1.55-17.42-8.81-33.73-19.69-51.61-27.65-.87-.39-1.12-2.16-1.66-3.29,31.62-25.28,67.74-42.22,104.89-57.57,55.26-22.83,113.3-35.25,171.47-47.24,35.15-7.24,70.88-6.31,106.51-5.89,5.22.06,10.44,2.13,15.64,2.03,10.36-.21,9.88,4.89,6.87,12-5.85,13.81-12.49,27.38-17.14,41.59-5.47,16.75-9.24,34.06-13.63,51.16-6.54,25.49-11.59,51.29-16.63,77.1-2.46,12.57-11.58,22.46-14.51,35.08-8.13,34.95-30.04,62.61-49.6,91.46-14.37,21.19-24.33,44.91-38.17,66.41-8.02,7.63-10.36,17.98-13.23,28.03-.12.42,1.15,1.36,1.92,1.84.22.14.93-.5,1.41-.78,5.27-1.62,4.53,2.94,5.55,5.52,9.19,23.26,11.46,47.94,15.5,72.34,5.06,30.6,5.21,61.16,2.91,91.86-1.5,19.97,3.07,38.8,9.52,57.4,1.57,4.52,2.67,9.2,3.99,13.8,9.09,23.25,26.21,40.2,44.35,56.34,3.66,3.26,7.29,6.56,11.44,10.3-2.71,1.86-5.15.51-7.41.48-4.21-.05-6.11,3.63-4.29,5.69,10.16,11.51,12.06,26.92,19.72,39.64,13.35,22.15,28.98,42.28,47.72,60.05,3,2.84,6.24,5.56,8.11,10.17-10.21.58-18.19-3.95-26.23-7.94-7.87-3.91-15.45-8.42-23.23-12.52-2.71-1.43-5.9-5.18-8.65-1.94-2.85,3.34,1.36,5.8,3.43,8.08,7.12,7.9,13.31,16.42,16.3,26.71,1.89,6.5,3.9,13.14.32,20.03-2.86,5.51,1.33,10.76,1.83,16.2,1.08,11.8.21,13.54-11.7,15.05-9.8,1.24-19.66,1.64-29.39-.29-24.25-4.82-45.87,3.64-59.98,21.1-8.15,10.08-18.55,13.78-27.02,21.39-9.08,8.15-18.54,14.9-30.1,19.75-14.4,6.04-27.88,2.48-41.52-.07-15.48-2.89-30.68-7.28-46-11.05-2.96-.73-6.21-1.63-8.17,1.27-1.8,2.66.79,4.74,2.15,6.96,7.4,12.09,5.83,15.1-8.28,15.75-3.92.18-7.89-.01-11.8-.39-5.25-.51-10.57-2.43-15.67-1.9-27.78,2.87-55.3-3.24-83.14-1.64-17.2.99-34.75.86-52.03-1.56-27.66-11.15-54.75-.82-81.87,2.63-49.68,6.33-98.96,3.65-147.71-6.32-43.4-8.87-84.63-24.47-123.54-45.88-5.32-2.93-10.44-6.98-17.15-3.87-31.07-3.93-60.56-14.02-90.23-23.33-7.02-2.2-14.05-3.28-21.26-3.88-1.96-.16-4.31.5-5.85-.35-16.17-8.91-34.78-9.01-51.84-14.62-9.44-3.1-10.43-7.7-3.64-14.74,2.54-2.63,8.16-4,5.64-8.94-2.14-4.19-7.06-1.89-10.82-2.36-23.42-2.91-47.46.13-70.42-7.17-11.36-3.61-20.37-11.34-26.83-20.46-7.06-9.96-13.96-19.7-22.83-28.17-2.63-2.51-9.56-5.8-3.07-11.63.18-.16-1.16-2.08-1.86-3.12-14.43-21.35-32.79-35.88-59.95-37.54-8.2-.5-16.35-4.56-24.18-7.82-6.09-2.54-9.11-6.77-5.12-14.05,4.36-7.95,6.98-16.5,8.57-25.75,2.16-12.52,11.95-20.65,22.02-27.79,2.69-1.9,5.48-3.66,8.17-5.55,1.83-1.29,4.4-2.45,3.19-5.3-1.18-2.78-3.58-1.84-5.89-1.33-9.23,2.03-18.51,3.8-27.73,5.84-8.35,1.85-16.71,2.99-25.26,1.88-2.01.3-4.23.87-3.38-2.58,23.96-13.05,47.75-26.34,67.83-45.21,9.56-8.98,18.47-18.55,26.35-29.07,1.17-1.56,2.29-3.2,3.63-4.6q8.77-9.11-3.9-12.82c11.2-5.79,21.76-11.6,32.62-16.79,22.47-10.73,38.74-27.69,51.72-48.62,14.15-22.81,21.3-47.7,26.98-73.73,4.71-21.54,13.52-42.16,23.09-62.31,10.31-21.72,19.29-44.06,33.86-63.5.72-.97.68-2.5,1-3.78Z"/>
      <path class="uuid-d749a494-5825-4fe1-823e-839a7a86e65f" d="M135.77,1037.73c.18,2.1,2.36,1.58,3.38,2.58-2.34,1.45-5.11,2.08-6.76-.24-.73-1.03,1.76-2.13,3.38-2.34Z"/>
      <path class="uuid-d8b447d9-a4bc-499f-b6d3-5503230f853e" d="M731.22,467.32c-26.34,4.71-52.91,8.35-78.45,16.76-2.47-2.23-4.13-4.74-2.91-8.26,24.35-5.24,48.69-10.47,73.04-15.71,2.76,2.42,3.03,7.7,8.32,7.21Z"/>
      <path class="uuid-cb9332e0-a72b-457d-ae44-f787b67052af" d="M1119.2,540.95c-.68-.21-1.35-.41-2.03-.62.38-5.25-2.41-6.18-7.17-6.46-17.7-1.02-34.42,4.77-51.66,6.82-7.07.84-13.82,1.03-19.11-4.84-2.28-1.15-7.3.41-5.13-5.16,1.64-2.73,4.42-3.88,7.17-4.97,48.4-19.2,95.42-41.68,143.65-61.23,45.79-18.56,92.28-35.5,141.48-43.23,1.95-.31,3.88-.85,5.85-.97,3.46-.23,7.57-2.15,9.97,1.71,1.92,3.09.04,6.33-1.36,9.35-8.54,18.41-10.28,38.71-16.03,57.91-12.83,42.81-29.92,83.71-53.59,121.67-16.04,25.71-32.26,51.28-46,78.35-3.97,7.82-3.75,17.6-11.19,23.75-3.12.7-5.16-.71-6.58-3.34-.69-7.74,3.72-14.86,2.83-22.63,4.57-11.18,3.5-23.29,5.62-34.88.27-1.49.79-3.59-1.27-4-2.05-.41-3.24,1.82-4.91,2.74-1.72,1-3.5,1.59-5.5,1.03-5.25-4.4-2.44-9.56-1.27-14.49,2.87-12.14,6.7-24.06,8.41-36.47.77-5.55,1.78-11.11.76-16.69-1.01-5.52.97-10.23,4.54-15.85-5.01.62-7.6,3.57-11.01,4.31-2.95.64-5.78,1.68-8.35-.75-2.79-2.64-2.4-5.91-1.67-9.21.75-3.38,3.27-5.63,5.22-8.26,1.51-2.03,4.45-4,2.78-6.77-1.56-2.59-4.79-1.29-7.34-1.22-1.64.04-3.29.3-4.93.26-7.71-.21-9.68-3.21-6.13-9.85,2.16-4.05,4.69-7.9,6.85-13.07-17.9,1.41-34.28,6.24-50.07,13.39-7.53,1.7-14.15,8.97-22.8,3.69Z"/>
      <path class="uuid-5f34d36f-5cfd-4d8a-a0bf-b31b91841dd4" d="M1213.63,712.21c12.81-36.58,34.22-68.47,54.56-101.03,24.29-38.87,42-80.73,54.71-124.83,5.67-19.66,7.36-40.44,16.93-59.06,3.33-6.5-2.56-5.79-6.1-5.1-20.42,3.97-40.82,7.98-60.82,13.84-63.01,18.45-122.38,46.05-182.4,72.07-18.58,8.05-36.94,16.71-56.4,22.6-2.3.27-5.06,2.32-6.25-1.64.85-.91,1.53-2.27,2.57-2.67,59.83-22.66,116.77-52.15,176.66-74.62,41.95-15.74,84.47-29.68,128.9-36.99,8.06-1.33,12.27-1.03,9.72,8.81-4.1,15.86-7.34,31.96-11.6,47.78-13.67,50.76-33.22,99.15-60.72,144.04-14.65,23.92-32.17,46.61-41.54,72.95-5.58,15.67-13.17,28.7-23.59,40.83-1.22,1.42-1.76,5.14-4.76,3.07-3.74-2.58-1.06-5.02.94-7.24,1.06-1.27.53-3.08,1.46-4.41.61-1.09,1.31-2.11,2.02-3.14,1.33-2.39,3.47-3.88,5.72-5.26Z"/>
      <path class="uuid-98691806-c7dd-4f74-adfe-2ae4495df597" d="M1039.24,535.86c13.39,5.63,26.69,1.64,39.56-1.46,12.53-3.02,25.16-2.34,37.69-3.72,1.86-.2,4.22-.23,5.03,2.04,1.47,4.08-1.87,5.67-4.36,7.62-2.51,1.15-3.02,6.06-6.78,4.4-3.17-1.39-.65-3.46.17-5.47.94-2.28-1.41-2.59-2.89-2.61-11.07-.19-23.88-1.95-32.39,4.01-10.99,7.7-20.48,5.45-31.16,3.07-.46-3.35-10.52-.76-4.89-7.89Z"/>
      <path class="uuid-5f34d36f-5cfd-4d8a-a0bf-b31b91841dd4" d="M677.86,795.4c2.28,7.81.92,15.87.29,23.56-3,36.67-5.17,73.53-18.63,108.49-2.39,6.21-3.99,7.59-10.38,4.45-4.77-2.34-10.93-1.79-16.45-2.63-32.26-4.88-64.5-9.94-96.8-14.59-7.28-1.05-10.9-3.92-9.58-11.54,8.06-46.35,18.11-92.07,41.7-133.6,9.46-16.65,23.88-27.26,40.3-36.5,10.75-6.05,21.14-7.18,32.53-4.95,7.38,1.44,13.27,5.43,17.55,11.68,9.02,19.41,21.2,38.11,13.55,62.17.94-3.64,3.53-6.2,5.92-6.54Z"/>
      <path class="uuid-5f34d36f-5cfd-4d8a-a0bf-b31b91841dd4" d="M917.22,970c-10.67,1.97-11.52.71-10.29-15.16,1.89-7.68,1.26-15.5,1.37-23.28.28-19.13,4.27-37.53,10.55-55.59,3.12-8.98,4.95-18.57,5.53-27.99,1.35-22.05,12.51-39.2,26.32-54.84,7.58-8.58,19.93-9.33,29.77-14.38,20.28-3.37,29.84,11.24,40.45,24.1,13.9,23.72,15.54,50.34,19.88,76.68,4.95,30.04,1.32,59.4-.57,89.07-.36,5.6-2.62,8.91-8.45,10.42-9.44,2.44-18.45,2.98-28.13.35-16.91-4.6-34.75-2.33-51.91-5.78-7.08-1.43-14.32-1.96-21.29-4.16-4.36-1.38-8.94-2.28-13.22.57Z"/>
      <path class="uuid-5f34d36f-5cfd-4d8a-a0bf-b31b91841dd4" d="M835.62,1203.96c-6.74,26.29-17.11,50.93-35.28,71.43-28.55,32.22-83.8,31.54-112.18-.83-7.46-8.51-10.7-18.65-12.49-29.43-3.64-21.9-7.11-43.84-10.65-65.76-1.64-4.44,1.16-5.79,4.34-4.67,9.97,3.54,18.48-.23,27.03-4.42,2.88-1.16,5.39-2.92,7.81-4.85,5.75-4.21,11.42-8.55,17.13-12.81,3.15-2.24,6.38-4.38,8.89-7.4,2.92-3.27,6.53-5.74,9.94-8.44,3.76-2.3,6.54-5.87,10.37-8.08,7.72-.15,14.16,2.1,17.83,9.53,1.67,3.54,3.95,6.68,6.46,9.66,2.9,3.27,5.83,6.51,7.15,10.81,1.29,3.24,3.49,5.92,5.53,8.68,1.27,1.72,2.53,3.45,3.83,5.15,2.27,3.09,4.49,6.21,7.7,8.44,9.51,8.78,18.34,18.61,33.13,17.8,2.38-.13,5.11,1.57,3.47,5.17Z"/>
      <path class="uuid-5f34d36f-5cfd-4d8a-a0bf-b31b91841dd4" d="M649.86,475.82c.88,2.79,3.7,4.89,2.91,8.26-2.89,3.25-7.41-.5-10.37,2.43-4.66-1.43-2.72-4.14-1.32-6.75-7.08-7.72-17.24-11.55-24.6-21.54-.58,4.08-.69,6.01-1.16,7.85-.81,3.17,3.6,7.78-1.72,9.44-4.32,1.35-5.43-3.86-8.09-5.97-4.73-3.75-8.26-8.75-16.01-6.46-5.71,1.69-8.07-4.42-10.67-8.3-3.83-5.72-6.85-12-10.81-17.62-1.78-2.53-4.81-4.91-8.42-4.11-3.9.87-4.2,4.56-4.94,7.75-1.26,5.45-2.49,10.9-3.85,16.32-.36,1.44-.08,3.55-2.35,3.71-2.23.15-3.52-.94-4.22-3.21-.76-2.49-1.8-4.96-3.13-7.18-1.7-2.83-3.53-5.28-6.04-.21-1.04,2.11-1.53,6-4.6,5.65-3.23-.36-3.89-3.97-4.64-6.81-.34-1.29-.61-2.55-2.42-2.84-3.5,1.62,0,8.48-4.42,8.06-4.04-.39-3.11-4.75-1.81-7.9-.7-1.48-.82-3.03-.66-4.63,1.82-5.23,1.74-13.79,9.05-12.69,8.16,1.23,4.22,10.08,5.61,15.32-.61,1.53.12,1.54.14,1.28.79-9.03,6.7-6.46,12.04-5.18,1.29.89,2.96,1.55,2.39,3.79,1.61-1.71.69-4.01,1.61-5.79,6-16.03,15.85-18.49,27.25-6.56,4.98,5.21,8.85,11.34,12.45,17.6,9-3.23,12.03,6.22,18.36,8.58,3.76.7,3.11-3.2,4.8-4.63.91-1.05,2.02-1.82,3.34-2.28,2.3-.66,4.38.03,6.35,1.01.58.08,1.03.42,1.29,1,.53-1.25-.93-.53-1.14-1.12-1.48-.8-3.08-1.3-4.35-2.4-34.01-33.87-68.63-67.16-107.14-95.87-16.16-12.05-33.32-23.04-50.35-34.04-14.86-9.59-30.74-17.52-45-28.01-1.05-.8-2.01-1.72-2.9-2.69-1.18-1.24-1.9-2.82-2.95-4.17-5.45-2.87-10.95-5.63-16.3-8.66-2.13-1.21-5.54-2.63-3.94-5.74,2.15-4.21,4.87-.91,7.32.37,40.56,21.17,79.86,44.45,116.4,72,45.16,34.05,86.76,72.13,124.7,114.11,5.27,5.83,9.58,12.54,14.33,18.84Z"/>
      <path class="uuid-f74e43c2-dd16-4d09-94fa-0732d2d474b9" d="M766.8,1140.05c-2.75-7.97-10.75-7.58-16.68-10.5-2.67,3.38-6.73,5.32-9.22,8.89-3.11,2.85-6.21,5.7-9.32,8.55-3.62,1.4-6.53,3.73-8.88,6.79-5.31,5.18-11.18,9.62-17.67,13.24-2.65,1-5.04,2.35-6.63,4.81-9.65,4.82-19.11,10.45-30.45,4.37-1.57-.84-2.37,1.69-2.94,3.2-37.26-5.14-57.95-29.82-72.22-61.69-8.77-19.58-13.92-40.25-16.27-61.58-.28-2.56-2.7-6.66,2.14-7.03,4.27-.32,3.47,4.23,3.82,6.73,4.19,30.69,12.98,59.64,31.08,85.25,14.01,19.82,32.72,31.18,57.36,31.02,14.89-.1,27.02-7.9,38.29-16.56,13.29-10.22,25.99-21.22,38.95-31.88,6.57-1.71,12.72-.07,18.76,2.37,10.53,16.19,20.78,32.55,32.55,47.92,25.27,32.97,64.12,26.7,87,9.96,25.63-18.74,42.7-44.12,56.31-72.28,1.71-3.54,1.69-11.53,7.67-8.74,4.48,2.09-.73,7.67-2.32,11.1-11.94,25.84-27.35,49.11-49.02,68.22-18.42,16.24-39.49,22.79-63.49,21.77-.69-1.84-1.34-3.94-3.86-3.5-13.79,2.4-22.49-5.58-30.68-14.77-1.27-1.42-3-2.43-4.52-3.64-1.46-3.63-3.72-6.64-6.93-8.91-1.02-1.38-2.05-2.76-3.07-4.13-1.31-3.69-3.54-6.71-6.62-9.12-.5-4.6-4.75-6.92-6.53-10.74-1.31-3.68-3.51-6.71-6.6-9.1Z"/>
      <path class="uuid-f74e43c2-dd16-4d09-94fa-0732d2d474b9" d="M1145.04,1090.3c-25.24-3.69-43.33-25.67-40.08-48.69,3.3-23.33,27.26-39.42,52.98-35.58,25.29,3.78,42.61,25.53,39.1,49.12-3.48,23.42-26.38,38.89-52,35.15Z"/>
      <path class="uuid-f74e43c2-dd16-4d09-94fa-0732d2d474b9" d="M394.36,982.68c-25.22-3.66-43.32-25.69-40.03-48.7,3.34-23.38,27.27-39.43,53-35.56,25.24,3.8,42.63,25.66,39.11,49.15-3.49,23.28-26.53,38.82-52.08,35.11Z"/>
      <path class="uuid-f461d9da-5417-4039-b82c-225db738b9e2" d="M407.37,284.9c1.57.26,2.95.81,3.6,2.43,2.82,7.97.12,15.79-.58,23.68-3.18,22.37-6.45,44.71-9.55,67.07-.6,5.09-.17,10.21-.37,15.32-.55,4.27-1.31,8.53-1.7,12.82-.11,3.09.24,6.17.21,9.26-.11,3.02-.7,5.99-.88,9-.04,2.48.18,4.95.3,7.43.11,3.03-.46,6.02-.32,9.05,1.1,46.13,6.01,91.61,22.75,135.11.12,1.66-.19,3.18-1.34,4.45-.71,1.46-1.53,4.22-2.11,4.17-2.59-.22-3.12-2.84-3.9-4.86-7.53-19.54-14.37-39.3-17.79-60.03-8.74-53.1-8.64-106.3-1.26-159.52,2.8-20.24,6.09-40.41,8.76-60.67.69-5.21,2.98-9.76,4.18-14.72Z"/>
      <path class="uuid-f461d9da-5417-4039-b82c-225db738b9e2" d="M766.91,1126.01c-6.54,1.5-12.7-.04-18.76-2.37-6.81-4.63-9.71-12.36-13.79-18.84-7.62-12.12-15.71-24.18-20.23-38.03-2.22-6.8,2.01-14.33,8.91-14.95,4.86-.44,10.53-1.49,14.59.4,12.04,5.61,25.51,3.87,37.59,8.53,3.94,1.52,8.01.67,11.68-.27,9.08-2.32,17.17,1.42,24.65,4.74,5.42,2.4,9.21,8.78,3.82,15.48-14,17.39-30,32.67-48.46,45.31Z"/>
      <path class="uuid-f844006f-7d49-48d6-9235-4da6ad0463e7" d="M1140.87,535.87c16.17-9.98,34.72-12.04,52.74-15.88,1.71-.36,3.23-.03,4.01,1.84.86,2.06-.68,3.51-1.97,3.58-4.04.22-3.07,3.59-4.06,5.67-2.06,4.29-8.78,8.89-6.35,12.05,3.17,4.12,10.24.4,15.62.3,2.62-.05,5.14-.97,7.04,1.63,2.51,3.43-.72,5.34-2.13,7.62-2.65,4.3-7.85,6.75-8.43,12.66-.55,5.6-.07,8.88,6.52,5.26,2.79-1.53,6.86-1.01,8.44-4.37,1.32-2.8,4.34-5.1,5.43-2.74,1.18,2.57,5.05,8.03.32,9.86-5.85,2.27-3.59,5.9-3.28,9.17,1.78,19.13-5.12,36.78-9.11,54.92-1.01,4.6-4.1,9.04-1.14,13.96,2.07,4.11-.8,6.53-3.12,9.14-.2.97-.29,1.97-.62,2.89-1.28,3.56,1.75,10.64-4.53,9.91-5.55-.65-2.51-7.84-2.17-10.98.79-7.36,3.62-14.56,3.95-22.15.63-10.1,3.1-19.82,5.99-29.47,4.26-11.06.79-22.87,3.5-34.03-.71-.35-1.24-.84-1.77-.83-4.62.05-9.39,8.31-12.21,3.59-4.18-6.98-1.01-15.75,1.92-23.38.63-1.65,2.49-2.82,4.23-4.71-4.25-2.14-7.77-2.22-11.73-1.39-2.92.61-6.34,1.36-8.29-2.83-1.75-3.75-1.66-6.7,1.03-9.88,2.06-2.43,3.67-5.25,6.02-8.7-14.53-.89-26.41,6.2-39.28,8.47-2.38.66-4.69.89-6.56-1.21Z"/>
      <path class="uuid-f461d9da-5417-4039-b82c-225db738b9e2" d="M980.99,690.82c9.18-.3,17.96,4.18,26.62,8.97,12.58,6.96,13.55,22.13,1.9,30.18-24.89,17.19-51.33,15.48-78.02,5.54-9.6-3.57-10.7-10.41-6.22-19.96,8.18-17.46,31.53-29.42,55.72-24.73Z"/>
      <path class="uuid-f461d9da-5417-4039-b82c-225db738b9e2" d="M677.26,701.96c-20.32-3.11-38.43-10.25-51.6-27.2-7.24-9.32-3.94-24.44,7.31-27.45,22.07-5.92,42.97-3.8,61.95,10.61,9.65,7.33,13.79,17.34,16.28,28.29,1.98,8.71-2.49,14.63-11.41,16.11-7.48,1.24-15.02.99-22.53-.35Z"/>
      <path class="uuid-73c6391e-af2c-419f-814b-b9bab654e0a1" d="M917.22,970c3.32-5.06,8.29-5.18,12.92-3.15,17.05,7.47,35.06,7.97,53.1,7.42,5.69-.17,11.56-.47,16.54,1.44,10.69,4.1,20.66,3.62,31.57.67,5.82-1.58,7.58-3.61,7.83-8.89.98-20.88,1.25-41.84,3.66-62.56.89-7.7-4.58-12.16-4.67-19.31-.19-14.42-2.87-28.86-5.17-43.2-1.38-8.65-3.2-17.13-8.83-24.69-2.77-3.72-5.09-9.29-3.25-14.88,11.08,10.4,15.35,24.14,18.71,38.29,6.52,27.42,6.99,55.32,5.85,83.24-.68,16.77-2.9,33.47-4.12,50.22-.64,8.79-4.19,11.88-13.43,10.52-36.85-5.4-73.8-10.15-110.72-15.13Z"/>
      <path class="uuid-f844006f-7d49-48d6-9235-4da6ad0463e7" d="M518.22,444.31c-.35.69-.7,1.38-1.04,2.08-5.7,5.58-8.02,13.19-11.81,19.9-1.43,2.54-3.62,4.41-5.92,4.41-2.56,0-2.61-3.42-3.22-5.44-1.85-6.11-2.05-12.74-6-19.49-8.11,11.96-11.09,24.72-14.01,37.47-2.16,9.42-9.86,16.51-10.21,27.01-.16,4.84-2.77,10.08-3.1,15.26-.53,8.36-3.44,7.87-8.44,2.99-1.61-1.58-3.66-2.71-5.5-4.05-.53-.77-.71-1.6-.47-2.51,1.25-2.32,3.35-2.39,5.57-2.16,1.71.21,2.83-.46,3.22-2.23.83-5.15,1.45-10.29,2.1-15.45.64-4.7,2.09-9.18,3.69-13.61.85-2.99,1.19-6.07,1.62-9.13,7.78-17.95,17.19-35.1,26.2-52.45,1.37-2.64,3.82-4.98,7.2-3.59,3.38,1.39,2.91,4.8,2.74,7.7-.39,6.69-2.37,13.47.94,19.92,6.43-.93,6.15-16.64,16.45-6.62Z"/>
      <path class="uuid-73c6391e-af2c-419f-814b-b9bab654e0a1" d="M980.47,778.76c-4.46,4.81-9.33,8.37-16.28,9.47-6.17.98-11.4,4.85-15.27,10.01-11.64,15.54-21.93,30.99-22.44,52.12-.27,11.26-3.96,23.12-8.21,34.62-6.1,16.53-10.98,34.54-8.21,52.89.95,6.34-.48,11.61-3.11,16.97-2.25-12.07-.89-24.2.82-36.06,4.93-34.13,8.89-68.6,23.05-100.6,5.35-12.09,12.51-23.17,23.19-31.38,7.73-5.94,16.24-10,26.47-8.05Z"/>
      <path class="uuid-93d3d2cc-7737-41dc-88c5-5472f1fb0a21" d="M860.19,1087.27c-.2-.15-1.45-.63-1.56-1.31-.36-2.12.76-3.58,2.63-4.76,8.31-5.27,16.36-10.96,24.83-15.93,12.43-7.29,25.11-14.17,37.79-21.03,2.34-1.27,5.74-4.07,7.74-.66,2.36,4.01-2.32,4.51-4.59,5.72-21.12,11.27-41.88,23.13-61.86,36.34-1.38.91-2.46,2.17-4.98,1.63Z"/>
      <path class="uuid-93d3d2cc-7737-41dc-88c5-5472f1fb0a21" d="M671.57,1056.87c-.65,1.09-.94,2.24-1.65,2.63-1.64.88-2.97.19-4.19-1.28-16.21-19.54-33.98-37.62-52.07-55.39-1.27-1.25-3.54-2.99-1.55-4.85,2.59-2.44,4.95-.13,6.72,1.67,12.47,12.67,24.91,25.37,37.21,38.21,4.32,4.51,8.25,9.41,12.27,14.2,1.23,1.47,2.17,3.18,3.27,4.82Z"/>
      <path class="uuid-5078e079-3b25-46c3-8269-b3aa77e81b09" d="M449.12,522.24c-.05.74-.1,1.47-.15,2.21-9.3,16.79-12.76,35.73-19.65,53.4-1.06,2.72-2.05,5.47-3.21,8.14-.88,2.01-2.8,3.32-4.66,2.26-3.59-2.05,1-3.51.79-5.43-.79-2.55-1.02-5.12-.3-7.72,1.8-4.79,2.78-9.86,4.85-14.57.85-2.98,1.18-6.08,2.15-9.04,3.06-10.06,7.26-19.69,10.96-29.52,3.17-3.28,6.3-4.56,9.23.27Z"/>
      <path class="uuid-3f86fbdb-8d36-4ec9-82a8-e3dfe27d2d57" d="M677.86,795.4c-4.92-.25-3.83,4.35-6.02,7.02,5.78-23.27-8.9-41.82-13.44-62.65,15,15.57,18.6,35.12,19.47,55.63Z"/>
      <path class="uuid-93d3d2cc-7737-41dc-88c5-5472f1fb0a21" d="M897.38,1100.65c5.53.79,11.05,1.63,16.59,2.36,2.49.32,5.05,1.35,4.61,3.9-.46,2.66-3.33,2.53-5.73,2.14-6.81-1.09-13.63-2.18-20.46-3.15-4.87-.69-9.76-1.32-14.67-1.71-2.48-.2-6.48,3.31-6.75-1.8-.19-3.57,4.35-3.98,6.89-3.94,6.53.08,13.05,1.07,19.58,1.7-.02.17-.04.33-.05.5Z"/>
      <path class="uuid-93d3d2cc-7737-41dc-88c5-5472f1fb0a21" d="M631.3,1068.67c-8.24-1.18-14.1-1.99-19.94-2.87-1.97-.3-4.15-.78-3.76-3.44.36-2.45,2.36-2.88,4.5-2.58,11.7,1.66,23.42,3.19,35.06,5.17,2.37.4,4.61,2.37,6.56,4.01.69.58.82,2.58.39,3.56-.55,1.25-2.24,1.42-3.38.63-6.63-4.61-14.53-3.35-19.43-4.48Z"/>
      <path class="uuid-434063c8-5c04-463b-b396-b64aef4f203d" d="M894.4,1152.68c-.88,2.61-2.24,3.47-4.99,1.84-10.35-6.12-20.8-12.04-31.15-18.17-2.05-1.21-3.68-3.2-1.95-5.71,1.73-2.51,3.26-.33,4.85.58,9.6,5.46,19.21,10.9,28.84,16.29,2.09,1.17,3.62,2.73,4.4,5.16Z"/>
      <path class="uuid-5078e079-3b25-46c3-8269-b3aa77e81b09" d="M661.17,1105.58c-1.11.52-2.8,1.68-4.66,2.14-11.1,2.78-22.25,5.4-33.38,8.05-1.72.41-3.91,2.17-4.79-.85-.8-2.73.93-4.53,3.38-5.14,11.73-2.93,23.52-5.63,35.25-8.57,2.74-.69,3.55.58,4.21,4.36Z"/>
      <path class="uuid-907b176f-ef2e-4bdd-9598-86b164534f96" d="M1201.39,660.56c1.04-3.05,2.08-6.1,3.12-9.14,1.42-.7,2.84-1.39,4.25-2.09,5.44.9,7.64,3.34,6.35,9.42-1.79,8.42.09,17.34-2.79,25.73-2.92,12.11-4.09,24.49-5.54,36.81-.39,1.48-.58,3.1-2.35,3.72-2.5-13.31,1.72-26.12,4-38.84,1.88-10.46-.51-21.3,3.23-32.11-3.43,2.16-6.85,4.33-10.28,6.49Z"/>
      <path class="uuid-59f331cc-4ce0-4857-9458-04d5eaf5045c" d="M1140.87,535.87c2.19.4,4.38.81,6.56,1.21-6.51,2.45-12.9,5.36-19.6,7.11-2.74.72-8.51,4.86-8.63-3.24,7.89,1.13,14.57-2.83,21.67-5.08Z"/>
      <path class="uuid-c3b497c0-e361-4044-b5d3-f18eadbea3b7" d="M1204.01,610.77c-2.3,9.76-2.47,19.95-5.99,29.47-3.15-10.87,1.85-20.08,5.99-29.47Z"/>
      <path class="uuid-fc0c2097-3438-438e-be56-1d06d5737400" d="M641.08,479.76c.03,2.33-.76,4.82,1.32,6.75-2.13.95-4.64,5.13-6.41,1.15-1.47-3.31-.39-7.69,5.09-7.9Z"/>
      <path class="uuid-e3fa902a-15a7-4477-8e7b-c76c20bd0614" d="M424.12,575c-.63,2.61-1.26,5.22-1.9,7.82-.91-.76-1.83-1.52-2.74-2.28-.22-1.41-.44-2.83-.65-4.24,1.43-1.8,3.1-2.58,5.29-1.3Z"/>
      <path class="uuid-5ac1eedb-9bdd-4339-a800-3aa5a0abd5f4" d="M1212.05,684.43c1.36-9.02-1.46-18.34,1.95-27.21,1.96-5.1-4.22-4.77-5.23-7.89,1.52-1.7,2.85-3.64,4.61-5.04,3.18-2.53,6.61-1.65,5.78,2.41-2.68,13.19.11,27.39-7.23,39.7-.64-.48-.84-.93-.59-1.36.26-.44.49-.65.71-.62Z"/>
      <path class="uuid-adcac1ac-48f3-4a09-bc44-34296ae39e8f" d="M1212.05,684.43c-.04.66-.08,1.32-.12,1.97,3.67,8.32-2.73,15.37-2.94,23.2.91,3.14.3,6.24-.2,9.34-.67.78-1.34,1.57-2.01,2.35-1.31-12.73.44-25.02,5.27-36.86Z"/>
      <path class="uuid-8cf43fb6-0ae3-492a-890b-a9f4bfb77886" d="M1208.79,718.95c-1.78-3.16.32-6.23.2-9.34,1.55.87,3.09,1.74,4.63,2.61-1.17,2.57-2.39,5.09-4.84,6.74Z"/>
      <path class="uuid-e3fa902a-15a7-4477-8e7b-c76c20bd0614" d="M613.78,795.18c2.76-10.28,5.95-22.16,19.44-26.61,14.43-4.76,24.09,2.23,24.35,17.45.26,15.02-6.74,26.51-18.56,35.08-9.77,7.08-23.04,1.35-25.91-10.55-1.14-4.74.37-9.12.69-15.38Z"/>
      <path class="uuid-e3fa902a-15a7-4477-8e7b-c76c20bd0614" d="M585.4,907.98c-9-1.19-15.45-9.82-12.6-18.61,3.03-9.36,7.99-17.97,16.85-23.35,8.98-5.45,19-.79,20.71,9.47,2.9,17.37-10.21,34.44-24.96,32.49Z"/>
      <path class="uuid-60f8ddcc-c174-4a1a-a97c-70d319859245" d="M597.19,828.92c-1.18,9.07-6.57,14.09-14.07,13.16-5.37-.67-8.57-3.54-8.3-9.06.41-8.54,9.68-17.78,16.24-15.95,5.72,1.6,6.72,6.53,6.13,11.84Z"/>
      <path class="uuid-2cefefbf-25d1-48e0-9ec2-acc363b61fe7" d="M1016.74,924.19c-1.76,14.08-17.82,32.39-32.62,36.1-11.6,2.91-20.41-4.87-17.09-16.22,4.19-14.3,11.53-27.13,23.42-36.72,6.27-5.05,13.49-5.5,20.36-1.82,6.92,3.71,6.64,10.68,5.92,18.66Z"/>
      <path class="uuid-2cefefbf-25d1-48e0-9ec2-acc363b61fe7" d="M976.11,836.81c2.18-15.5,14.04-26.96,26.15-25.25,10.85,1.53,19.59,14.11,17.86,25.7-1.37,9.2-18.52,22.77-27.33,21.64-12.03-1.55-18.38-9.96-16.68-22.09Z"/>
      <path class="uuid-c9a22c5a-401e-4b05-8295-3b8632dbacd9" d="M957.14,892.27c-1.94,5.45-2.99,12.41-11.48,11.48-6.11-.67-6.77-5.33-5.7-10.27,1.39-6.48,3.09-13.74,11.32-13.59,7.92.14,5.53,7.15,5.86,12.38Z"/>
      <path class="uuid-253e6f1f-64b0-466b-9140-09be8ad55cde" d="M992.35,787.39c3.39-.77,5.64-.35,7.4,2.91-3.29.76-4.83-1.54-7.4-2.91Z"/>
      <path class="uuid-8894dd93-fd87-4585-b8c0-ac57a3623a2c" d="M729.25,1290.12c-16.29-1.09-28.07-11.43-38.77-21.59-11.78-11.18-9.41-36.62,4.11-46.72,19.26-14.4,39.72-27.18,65.85-23.65,10.87,1.47,20.49,4.64,26.32,14.7,6.76,11.68,17.36,22.14,13.8,37.41-1.04,4.45,8.59,3.92,3.24,9.87-7.54,8.39-12.1,19.29-23.8,24-11.38,4.58-22.71,8.22-35.09,7.8-5.17-1.01-10.3-2.41-15.66-1.82Z"/>
      <path class="uuid-78fea1fc-c000-44b8-83bc-e23a4ef35c5d" d="M740.9,1138.44c1.07-5.03,5.2-6.91,9.22-8.89-1.13,4.97-5.32,6.78-9.22,8.89Z"/>
      <path class="uuid-c5a53dee-b010-4fcc-813c-d80d87be8c2a" d="M729.25,1290.12c5.54-2.19,10.66-.67,15.66,1.82-5.34.48-10.52-.52-15.66-1.82Z"/>
      <path class="uuid-a965ef8c-1b4b-46eb-b9f5-23f66fdf3c06" d="M779.93,1159.89c5.01,1.01,6.7,4.42,6.62,9.12-2.92-2.52-5.07-5.6-6.62-9.12Z"/>
      <path class="uuid-6d00ffc8-e25c-4769-8628-a480a106101a" d="M789.62,1173.15c4.6,1.19,7.23,3.92,6.93,8.91-3-2.44-5.36-5.37-6.93-8.91Z"/>
      <path class="uuid-524ef497-cd17-4fdc-adf1-d7dd68030c75" d="M722.7,1153.77c1.28-4.46,3.85-7.24,8.88-6.79-2.5,2.87-5.27,5.39-8.88,6.79Z"/>
      <path class="uuid-0521cc36-e120-44f3-a8eb-19c7f70dbb4c" d="M766.8,1140.05c5.02.99,6.74,4.36,6.6,9.1-2.85-2.56-5.04-5.6-6.6-9.1Z"/>
      <path class="uuid-14752417-4389-4793-ae4d-8cef87357ba5" d="M698.4,1171.82c.29-4.24,3.07-5.07,6.63-4.81-1.64,2.39-4,3.78-6.63,4.81Z"/>
      <path class="uuid-8894dd93-fd87-4585-b8c0-ac57a3623a2c" d="M424.12,575c-1.76.44-3.52.87-5.29,1.3-18.39-43.22-22.08-88.96-23.31-135.13.8-3.24,2.21-6.42.86-9.84-.98-1.93-1.43-3.92-.75-6.05,1.2-3.22,2.19-6.46,1.14-9.94-.2-2.65-.41-5.3-.61-7.96,1.43-4.51,2.66-9.04,1.72-13.85-.38-4.63-1.07-9.27.29-13.87,4.66-23.27,6.95-46.91,10.67-70.33,1.53-6.61.65-13.71,4.11-19.92,14.26,9.17,29.13,17.37,43.56,26.26,16.63,10.25,32.41,21.76,48.86,32.22,16.45,10.46,30.77,24.37,45.5,37.37,18.82,16.6,37.36,33.53,55.44,50.93,4.05,3.9,9.66,6.94,11.41,13.04.44,3.68-3.5,1.53-4.46,3.34-.64.49-1.28.99-1.92,1.48-3.53,1.2.38,7.92-5.49,7.39-3.64-2.21-7-4.68-10.14-7.65-1.89-1.79-4.18-7.89-8.22-1.19-1.47,2.45-2.03-.84-2.64-1.73-3.11-4.53-6.1-9.14-9.12-13.73-3.81-5.8-9.17-9.05-15.99-10.18-10.25-1.69-5.89,9.33-10.8,12.25-1.64,1.16-.99,5.63-4.95,3.42-4.65.08-11.09-5.66-12.51,4.94-3.39-4.79-3.41-9.39-3.42-13.87,0-2.24-.16-4.02-2.72-4.17-1.88-.11-2.7,1.22-3.23,3.01-1.16,3.97-2.58,7.86-3.89,11.78-4.7-2.38-7.4-2.13-9.66,3.87-1.23,3.28-2.72,10.11-6.76,9.4-4.71-.82-3.44-7.61-4.67-11.72-1.61-5.37.45-10.93,1.35-16.39.28-1.71,1.79-4.18-.58-5.19-2.76-1.18-3.92,1.38-4.94,3.39-4.72,9.22-10.49,18.09-13.75,27.8-2.92,8.72-11.05,14.49-12.03,23.91-1.9,3.02-1.67,6.44-1.84,9.79-1.19,4.53-2.37,9.05-3.56,13.58-2.22,6.29-2.74,12.85-3.05,19.45-1.5,2.46-2.43.99-3.35-.49-4.68-1.63-9.4-4.63-13.92.34-.82,11.02-7.82,19.85-10.69,30.13-1.98,2.94-1.58,6.36-1.92,9.63-1.58,4.39-3.15,8.78-4.73,13.18Z"/>
      <path class="uuid-ff8e4a21-638c-4cb1-8623-58a10dfe565b" d="M412.95,289.42c-1.09,6.64-2.19,13.27-3.28,19.91-.64.77-1.12.64-1.48-.25.92-7.25,1.85-14.5,2.77-21.74.66.69,1.32,1.39,1.99,2.08Z"/>
      <path class="uuid-462a7231-9f2d-4dcc-836e-f93793798377" d="M621.29,451.69c2.52,1.73,5.09,3.42,5.16,7.3-3.22-.49-4.27-2.73-5.54-4.73-.84-1-.71-1.85.38-2.57Z"/>
      <path class="uuid-a968357d-e5d2-4011-aaf4-4e6b1e3a056f" d="M605.85,461.44c3.61-1.14,1.66-6.41,5.49-7.38-.47,2.46-.71,4.99-1.47,7.36-1.14,3.53-2.66,2.77-4.02.03Z"/>
      <path class="uuid-dd2257b5-bea5-44f5-8b24-807b7dca62a7" d="M543.99,442.63c1.65-1.14,3.3-2.28,4.95-3.42-.43,2.38-.86,4.76-1.3,7.13-2.05-.42-2.79-2.13-3.65-3.72Z"/>
      <path class="uuid-d6e16302-b27f-4f42-9788-698d8743c2b1" d="M621.29,451.69c-.13.86-.25,1.71-.38,2.57-2.55-.56-5.1-1.13-7.65-1.69,1.49-1.11,2.97-2.23,4.46-3.34,2.05-.42,2.53,1.43,3.57,2.46Z"/>
      <path class="uuid-8894dd93-fd87-4585-b8c0-ac57a3623a2c" d="M1146.16,1082.51c-21.47-3.11-36.21-20.58-33.54-39.75,2.7-19.41,22.18-32.17,44.17-28.94,21.54,3.17,35.49,20.4,32.53,40.18-2.94,19.59-21.24,31.68-43.15,28.51Z"/>
      <path class="uuid-8894dd93-fd87-4585-b8c0-ac57a3623a2c" d="M395.53,974.9c-21.56-3.11-36.15-20.43-33.47-39.7,2.74-19.62,21.9-32.25,44.03-29,21.52,3.16,35.51,20.41,32.56,40.16-2.93,19.6-21.22,31.7-43.12,28.54Z"/>
      <path class="uuid-5a1e4a8f-d62c-4dbe-9d4a-a40f36c6aaff" d="M408.19,309.08c.5.07.99.15,1.48.25-2.93,20.72-5.84,41.44-8.81,62.16-.41,2.86-.29,5.96-2.7,8.19,3.34-23.53,6.68-47.06,10.02-70.59Z"/>
      <path class="uuid-eb406498-99d7-42df-9dab-fc1246a11f92" d="M397.88,393.54c2.21,4.96,1.37,9.54-1.72,13.85.57-4.61,1.15-9.23,1.72-13.85Z"/>
      <path class="uuid-53e9e53e-6639-4265-a5ed-d75d37c8aad1" d="M396.38,431.33c2.5,3.52,1.51,6.74-.86,9.84.29-3.28.57-6.56.86-9.84Z"/>
      <path class="uuid-7659168b-7a55-41b1-92d1-8bf06154c070" d="M396.77,415.34c2.34,3.62,1.54,6.88-1.14,9.94.38-3.31.76-6.62,1.14-9.94Z"/>
      <path class="uuid-8894dd93-fd87-4585-b8c0-ac57a3623a2c" d="M787.11,1102.33c-2.44-3.54-4.69-6.69-6.82-9.93-1.34-2.04-2.77-4.11-5.42-2.33-2.3,1.55-.4,3.48.19,5.21.1.31.31.58.43.89,1.44,3.89,7.49,6.92,5.3,10.75-2.63,4.59-7.74,7.92-12.2,11.23-4.01,2.97-19.13-1.48-21.97-5.96-.88-1.39-1.7-2.89-2.87-4-5.88-5.58-5.44-10.09,1.7-14.28,2.59-1.52,6.95-4.18,4.17-7.46-2.96-3.49-5.78,1.1-7.83,3.02-5.16,4.84-8.22,4.98-10.8-2.45-2.44-7.02-8.11-12.46-10.08-19.99-1.69-6.47-.59-7.87,6.38-9.12,12.74-2.28,22.1,7.18,33.97,7.45,10.03.23,19.82,3.54,30.14.75,5.82-1.57,11.31,2.7,16.79,4.51,3.72,1.23,2.4,5.26.56,8.4-5.41,9.24-14.85,14.62-21.62,23.31Z"/>
      <path class="uuid-0e1613bb-ecdd-4d0d-af05-a5b25bce99f3" d="M953.32,734.7c-1.63-.23-3.39-.15-4.87-.76-6.45-2.63-16.61-2.06-17.67-10.02-1.02-7.69,5.99-14.69,12.09-19.17,15.99-11.76,45.68-10.45,63.75,2.86,5.46,4.03,4.35,12.3-1.59,16.72-13.07,9.72-31.64,13.47-51.72,10.36Z"/>
      <path class="uuid-0e1613bb-ecdd-4d0d-af05-a5b25bce99f3" d="M677.7,695.3c-17.48-3.77-34.09-9.17-45.66-24.29-5.4-7.05-3.07-14.67,5.36-17.35,17.4-5.52,33.84-1.53,49.2,6.21,11.26,5.67,15.62,17.03,17.66,29.12.84,4.99-2.95,5.35-5.98,5.92-6.79,1.28-13.66,1.96-20.59.39Z"/>
      <path class="uuid-5df81b55-f035-4929-b04a-862ff7fe3121" d="M458.73,522.2c-1.4-6.86-.53-13.37,3.05-19.45-1.02,6.48-2.03,12.97-3.05,19.45Z"/>
      <path class="uuid-d09e8f33-149d-4901-a2a7-662cea6a7a8c" d="M441.46,522.05c4.46-7.42,9.21-3.01,13.92-.35-2.1.07-4.35-1.72-6.26.53-2.49-2.65-5.04-2.65-7.66-.19Z"/>
      <path class="uuid-0ff0e0ac-250b-4ffd-8b2d-f572e574b182" d="M465.34,489.17c-1.18-3.6-1.48-7.03,1.84-9.79-.61,3.26-1.23,6.53-1.84,9.79Z"/>
      <path class="uuid-cea62216-93a4-464c-a0d7-b63ff7155bc0" d="M428.85,561.82c-1.03-3.54-1.41-6.96,1.92-9.63-.64,3.21-1.28,6.42-1.92,9.63Z"/>
      <path class="uuid-def10c8f-e94e-4e47-bc7a-5ee07857675e" d="M746.18,1280.51c-5.62-.81-11.24-1.61-16.87-2.42.04-.33.08-.66.12-.99,5.62.81,11.23,1.61,16.85,2.42-.03.33-.07.66-.1.99Z"/>
    </g>
    <circle class="uuid-6ee8340e-1df2-40d9-8fe1-0398339e4d22" cx="807.3" cy="807.3" r="791.5"/>
    <path class="uuid-e7aa5872-8202-4a4e-98a0-af86578c0a32" d="M1405.2,558.1c-65.96,154.87-226.42,264.2-413.9,264.2-246.32,0-446-188.71-446-421.5,0-65.13,15.63-126.8,43.54-181.86-259.94,90.35-446.54,337.78-446.54,628.86,0,367.55,297.51,665.5,664.5,665.5s664.5-297.95,664.5-665.5c0-103.84-23.75-202.12-66.1-289.7Z"/>
    <g class="uuid-611ca3e2-121d-442f-ad6b-0d884293855e">
      <path class="uuid-60f8ddcc-c174-4a1a-a97c-70d319859245" d="M185.8,1394c269.55,2.21,548.84-108.14,780.43-240.1,89.66-51.73,175.92-109.5,256.76-174.14,80.13-64.41,156.39-135.39,217.92-217.95,19.99-27.32,38.23-55.85,52.56-86.47,13.56-29.38,23.99-61.46,23.52-93.54,0,0,31.6,0,31.6,0-2.65,73.71-44.23,138.81-86.86,195.68-86.35,110.57-195.43,200.76-309.07,281.84-199.64,139.79-420.67,251.62-655.66,317.89-101.47,27.96-205.41,46.51-311.21,48.38,0,0,0-31.6,0-31.6h0Z"/>
      <path class="uuid-60f8ddcc-c174-4a1a-a97c-70d319859245" d="M1117.23,1191.19c106.79-77.05,212.51-157.59,305.63-250.72,58.19-58.82,129.88-137.8,149.35-219.49,2.14-9.82,3.54-20.21,3.48-30.18,0,0,26.22,0,26.22,0-.2,19.98-3.96,39.51-9.94,58.46-4.69,14.63-10.71,29.07-17.44,42.88-83.1,164.7-273.09,309.88-434.27,394.27-6.58,3.43-13.23,6.74-19.89,10,0,0-3.14-5.22-3.14-5.22h0Z"/>
    </g>
    <g class="uuid-611ca3e2-121d-442f-ad6b-0d884293855e">
      <path class="uuid-60f8ddcc-c174-4a1a-a97c-70d319859245" d="M225.8,1328.8c153.54-5.37,304.48-42.83,449.09-93.9,48.53-17.12,96.6-36.14,144-56.26,63.36-26.94,125.78-56.42,187.84-87.24-201.74,134.99-432.52,236.75-675.57,263.53-34.96,3.35-70.17,5.03-105.36,3.88,0,0,0-30,0-30h0Z"/>
    </g>
  </g>
</svg>