<?xml version="1.0" encoding="UTF-8"?>
<svg id="Layer_2" data-name="Layer 2" xmlns="http://www.w3.org/2000/svg" viewBox="0 0 1614.6 1614.6">
  <defs>
    <style>
      .cls-1 {
        fill: #f2f2f2;
        opacity: .32;
      }

      .cls-1, .cls-2, .cls-3, .cls-4, .cls-5, .cls-6, .cls-7, .cls-8, .cls-9, .cls-10, .cls-11, .cls-12, .cls-13, .cls-14, .cls-15, .cls-16, .cls-17, .cls-18, .cls-19, .cls-20, .cls-21, .cls-22, .cls-23, .cls-24, .cls-25, .cls-26, .cls-27, .cls-28, .cls-29, .cls-30, .cls-31, .cls-32, .cls-33, .cls-34, .cls-35, .cls-36, .cls-37, .cls-38, .cls-39, .cls-40, .cls-41, .cls-42, .cls-43, .cls-44, .cls-45, .cls-46, .cls-47, .cls-48, .cls-49, .cls-50, .cls-51, .cls-52, .cls-53, .cls-54, .cls-55, .cls-56, .cls-57, .cls-58, .cls-59, .cls-60, .cls-61, .cls-62, .cls-63, .cls-64, .cls-65, .cls-66, .cls-67, .cls-68, .cls-69 {
        stroke-width: 0px;
      }

      .cls-70 {
        opacity: .58;
      }

      .cls-71 {
        fill: none;
        opacity: .73;
        stroke: #fafafa;
        stroke-miterlimit: 10;
        stroke-width: 31.6px;
      }

      .cls-3 {
        fill: #4b5725;
      }

      .cls-4 {
        fill: #5d7021;
      }

      .cls-5 {
        fill: #52621c;
      }

      .cls-6 {
        fill: #52631d;
      }

      .cls-7 {
        fill: #4c5925;
      }

      .cls-8 {
        fill: #50601c;
      }

      .cls-9 {
        fill: #4f5e1e;
      }

      .cls-10 {
        fill: #4f5f1d;
      }

      .cls-11 {
        fill: #4f601d;
      }

      .cls-12 {
        fill: #51611e;
      }

      .cls-13 {
        fill: #282e17;
      }

      .cls-14 {
        fill: #2d3319;
      }

      .cls-15 {
        fill: #5a6a28;
      }

      .cls-16 {
        fill: #99b734;
      }

      .cls-17 {
        fill: #87a234;
      }

      .cls-18 {
        fill: #95b233;
      }

      .cls-19 {
        fill: #54661e;
      }

      .cls-20 {
        fill: #a1c134;
      }

      .cls-21 {
        fill: #94b233;
      }

      .cls-22 {
        fill: #2f351a;
      }

      .cls-23 {
        fill: #3a451a;
      }

      .cls-24 {
        fill: #3b461c;
      }

      .cls-25 {
        fill: #27230b;
      }

      .cls-26 {
        fill: #3c471b;
      }

      .cls-27 {
        fill: #191919;
      }

      .cls-28 {
        fill: #3f4a1b;
      }

      .cls-29 {
        fill: #37411b;
      }

      .cls-30 {
        fill: #414f19;
      }

      .cls-31 {
        fill: #414e1a;
      }

      .cls-32 {
        fill: #414a22;
      }

      .cls-33 {
        fill: #404a1b;
      }

      .cls-34 {
        fill: #141413;
      }

      .cls-35 {
        fill: #151413;
      }

      .cls-36 {
        fill: #151513;
      }

      .cls-37 {
        fill: #424e1d;
      }

      .cls-38 {
        fill: #424e1c;
      }

      .cls-39 {
        fill: #232716;
      }

      .cls-40 {
        fill: #131313;
      }

      .cls-41 {
        fill: #242816;
      }

      .cls-42 {
        fill: #c2fc08;
      }

      .cls-43 {
        fill: #85a034;
      }

      .cls-44 {
        fill: #85a035;
      }

      .cls-45 {
        fill: #b5de36;
      }

      .cls-46 {
        fill: #9cbd33;
      }

      .cls-47 {
        fill: #9dbc34;
      }

      .cls-48 {
        fill: #9dbc32;
      }

      .cls-49 {
        fill: #9dbc35;
      }

      .cls-50 {
        fill: #8ca832;
      }

      .cls-51 {
        fill: #c1fd03;
      }

      .cls-52 {
        fill: #90ac33;
      }

      .cls-53 {
        fill: #30361d;
      }

      .cls-54 {
        fill: #96b434;
      }

      .cls-55 {
        fill: #91ae32;
      }

      .cls-56 {
        fill: #91ac3c;
      }

      .cls-57 {
        fill: #a0bf33;
      }

      .cls-58 {
        fill: #92ae33;
      }

      .cls-59 {
        fill: #92af31;
      }

      .cls-60 {
        fill: #9fc233;
      }

      .cls-61 {
        fill: #9fbf32;
      }

      .cls-62 {
        fill: #93b033;
      }

      .cls-63 {
        fill: #fec401;
      }

      .cls-64 {
        fill: #fafafa;
      }

      .cls-65 {
        fill: #010201;
      }

      .cls-66 {
        fill: #010101;
      }

      .cls-67 {
        fill: #010100;
      }

      .cls-68 {
        fill: #060606;
      }

      .cls-69 {
        fill: #020202;
      }
    </style>
  </defs>
  <g id="Gacha">
    <g>
      <path class="cls-2" d="M343.05,1165.63c-3.97-1.81-3.17-5.82-3.79-8.94-43.58-215.68-87.01-431.38-130.72-647.03-1.76-8.68.57-11.22,8.9-12.9,306.4-61.56,612.75-123.33,919.07-185.31,8.67-1.76,11.51.42,13.19,8.8,43.24,215.42,86.71,430.8,130.12,646.19,2.27,11.26,1.87,11.78-9.89,14.16-44.6,9-89.2,17.99-134.82,27.19,18.72,21.89,36.79,43.23,55.11,64.35,6.67,7.68,13.01,14.31,13.45,26.19.46,12.24,5.68,24.32,8.9,36.44,6.35,23.95,12.69,47.9,19.2,71.8,1.66,6.11-.77,9.9-6.24,11.65-28.35,9.07-56.64,18.4-85.21,26.72-23.56,6.86-23.56,6.27-20.85,30.35,3.78,33.62,7.38,67.27,10.84,100.93.68,6.62,3.06,11.55,8.48,15.75,12.6,9.77,24.72,20.15,37.04,30.28,3.03,4.21-.22,5.22-3.23,6.35-4.5.5-7.76-1.99-10.88-4.66-17.87-15.29-36.34-29.85-54.24-45.11-3.81-3.25-9.48-6.25-5.31-13,6.65-4.58,10.58,2.99,16.8,3.91-.98-15.58-3.01-30.69-4.66-45.8-1.97-18.05-3.6-36.14-5.69-54.18-1.12-9.67-2.66-10.91-11.96-8.04-38.33,11.84-77.59,21.5-114.55,36.65-29.95,12.28-61.11,18.06-91.76,26.6-15.02,4.18-16.03,3.06-20.63-11.96-9.65-31.53-13.82-64.28-20.87-96.4-1.12-7.33-3.34-14.48-3.94-21.87-.46-5.7,1.3-9.4,8.03-6.08,5.02,10.85,8,22.39,10.52,33.98,5.14,23.61,9.65,47.36,14.45,71.04.81,4,1.6,8,3.04,11.84,1.82,4.84,5.34,7.52,10.23,5.69,23.16-8.65,48.63-8.39,71.17-20.31,16.84-8.9,36.21-12.18,54.4-18.15,20.28-6.66,40.77-12.62,61.01-19.4,28.69-7.68,56.71-17.53,85.05-26.3,7.68-2.36,15.48-4.36,22.97-7.31,3.85-1.15,8.03-1.17,11.6-3.34,1.79-.87,3.68-1.46,5.61-1.96,3.7-.91,7.58-1.25,10.91-3.35,1.67-.91,3.54-1.42,5.01-2.69,1.08-10.89-2.35-21.19-5.5-31.1-4.74-14.95-8.26-30.21-11.97-45.34-3.49-14.21-9.29-27.98-10.09-42.82-11.56-15.59-25.56-29.11-37.59-44.28-8.14-10.26-18.43-18.72-25.13-30.17-.93-5.56-6.78-11.72,1.93-16.15,10.48-3.54,21.41-4.97,32.17-7.19,31.69-6.51,63.43-12.74,95.12-19.27,10.7-2.21,11.4-3.46,9.62-13.94-.37-2.17-.84-4.31-1.27-6.47-41.13-203.99-82.25-407.99-123.39-611.98q-3.54-17.56-21.48-13.96c-294.64,59.4-589.28,118.81-883.93,178.21q-17.76,3.58-14.23,21.17c41.13,203.99,82.25,407.99,123.39,611.98q3.63,18.02,21.95,14.34c36.02-7.26,72.04-14.56,108.07-21.75,4.88-.97,9.8-2.6,14.85-.69,2.37,1.77,2.85,4.01,1.67,6.67-20.63,5.33-41.66,8.75-62.49,13.08-26.08,5.42-52.21,10.59-78.33,15.8-3.03.6-6.01,1.92-9.23,1.08Z"/>
      <path class="cls-43" d="M1101.55,1368.14c4.51,9.5,13.92,13.95,21.38,20.3,15.64,13.29,31.8,25.96,47.75,38.89,2.39.9,6.44-.53,6.51,3.64.05,2.92-3.12,3.5-5.36,4.46-1.15.49-2.4.75-3.62,1.03-54.2,12.29-108.41,24.53-163.01,34.9-2.47.47-4.93,1.07-7.44.26-.29-1.07-.57-2.14-.86-3.21,4.51-19.77,5.55-40.04,8.46-60.04.27-1.85.36-3.73.74-5.55.61-2.95.08-7.21,3.35-8.09,3.87-1.04,3.53,4.34,6.41,6.2,1.98-5.28-3.53-11.81,2.68-16.11,2.5-1.45,5.23-2.23,8.02-2.67,20.79-3.28,40.81-9.86,61.32-14.29,4.5-.97,9.18-2.64,13.67.29Z"/>
      <path class="cls-43" d="M798.65,1508.36c.13,1.11.27,2.22.4,3.33-2.56,2.1-5.76,2.38-8.82,2.99-33.27,6.64-66.5,13.45-99.78,20.05-4.85.96-9.79,2.77-14.7.19-1.72-1.04.51-3.18.09-3-15.51,6.49-32.32,7.25-48.4,11.14-1.23.3-2.31.95-3.43,1.52-3.54.85-7.34,2.14-7.11-3.89,6.08-5.94,9.28-13.69,13.12-21.03,1.71-3.27,3.01-6.83,6.75-8.44.9,0,1.64.64,2.54.71-.75-.37-1.64-.47-2.25-1.15-1.31-5.12,1.38-8.14,5.43-10.45,7.57-6.31,10.95-14.7,12.03-24.22-.18-5.45,2.9-8.87,7.16-11.57,11.34-4.81,23.59-5.91,35.51-7.91,13.57-2.27,27.05-5.04,40.6-7.38.82-.14,1.25-.1,1.24-.1-1.23.23.36-.33-.98-.01-9.79,1.83-19.42,3.9-29.08,5.78-11.28.63-22.13,3.69-33.15,5.74-3.68.69-7.33,1.68-11.05.28-1.71-1.08-2.12-2.65-1.73-4.53,2.33-3.18,5.8-3.53,9.31-3.75,7.9.53,15.33-1.97,22.89-3.63,13.23-2.42,26.25-5.99,39.65-7.43,4,.23,8.01.39,11.87-1.09.97-.13,1.89.07,2.73.56,3.43,3.22,2.79,8.07,4.86,12.25,1.95-1.64,1.23-3.97,1.93-5.77,1.42-3.64,3.32-3.08,5.42-.7,2.07,2.35,3.42,5.18,5.02,7.85,10.75,17.83,19.8,36.67,31.94,53.67Z"/>
      <path class="cls-2" d="M661.31,1466.01c-2.58,3.3-4.82,6.78-5.74,10.95-2.46,8.65-6.19,16.65-12.18,23.47-2.65,3.25-4.97,6.67-5.62,10.95,0,0,.04-.13.04-.13-3.93,7.06-7.78,14.17-11.82,21.17-1.78,3.09-2.37,7.41-7.17,7.76-8.28-5.19.03-8.83,1.24-13.13,6.4-12.22,12.68-24.52,19.28-36.63,2.44-4.48,2.52-8.63,1.07-13.42-11.71-38.69-23.33-77.41-34.72-116.19-1.25-4.25-2.77-5.12-7.11-4.69-35.24,3.5-70.52,6.58-105.77,10.02-7.76.76-11.53-1.85-12.59-9.85-4.81-36.07-8.56-72.37-15.76-107.97-2.67-13.19.12-23.39,3.84-34.72,8.14-24.83,16.7-49.53,23.37-76.1-3.64.73-6.56,1.32-9.47,1.91-43.11,8.69-86.22,17.42-129.35,25.99-3.15.63-6.49,2.96-9.8.22,49.97-10.11,99.94-20.23,149.91-30.34,2.35-.87,4.62-.95,6.73.68,2.78,3.67.41,6.98-.52,10.55-7.69,29.55-18.91,58.03-26.66,87.55,4.15,17.36,5.99,35.09,8.57,52.69,3.26,22.26,6.45,44.52,9.66,66.78.13.9,1.26,1.3,2.18,1.54,1.95.17,3.9-.03,5.84.13,3.9.65,7.64-.39,11.42-1.08,1.97-.33,3.94-.49,5.93-.43,4.12.68,7.99-.83,11.98-1.37,8.06-.25,16.03-1.34,24.03-2.2,19.91-1.66,39.82-3.41,59.69-5.46,9.63-.99,19.36-1.22,28.89-3.24,37.79-2.78,75.42-9.5,113.19-9.41,25.43.06,49.45-6.54,74.31-8.23,13.01-.89,14.02-2.41,12.76-14.94-2.91-29.04-10.79-57.18-16-85.81-1.69-9.26-3.26-18.49-2.08-27.96,3.71-5.33,7.07-4.29,9.51.91,1.99,4.24,2.21,9.06,3.4,13.57,6.94,36,15.94,71.63,19.97,108.19,1.14,10.31-.41,14.3-9.61,16.08-24,4.64-48.17,10.68-72.37,11.27-25.43.62-50.67,2.35-75.93,4.61-24.37,2.18-48.74,4.34-73.09,6.76-6.77.67-8.78,3.74-6.82,10.01,10.19,32.57,19.75,65.34,29.6,97.99,6.42-.86,5.75-14.91,15.76-7.9.22,1.16.45,2.32.67,3.48.39,2.55-.68,4.45-2.65,5.94Z"/>
      <path class="cls-66" d="M1017.1,1386.9c.84,4.29,1.76,8.56,2.48,12.86.43,2.58,2.18,6.14-1.84,6.99-3.55.75-4.32-2.77-5.24-5.42-.68-1.97-1.35-3.95-2.93-8.58-2.77,23.66-5.15,44.64-7.78,65.6-.47,3.73.48,8.54-4.9,10.04-4.46-1.66-3.32-5.34-2.99-8.61.66-6.72,1.47-13.42,2.33-21.2-27.51,9.08-54.17,17.88-80.82,26.68-4.66.76-8.88.88-8.46-5.79,10-7.55,22.36-9.36,33.7-13.59,14.1-5.26,28.47-9.79,42.79-14.44,7.82-2.54,11.9-7.12,12.88-15.34,1.67-14,2.87-28.08,5.76-41.92.85-4.1.07-8.16-1.33-12.02-6.03-16.62-7.95-34.17-11.74-51.29-.54-2.45-.84-4.95-.44-7.47.31-1.95,1.05-3.63,3.05-4.37,2.37-.87,4.27.04,5.88,1.78,2.41,2.61,3.91,5.77,4.52,9.18,3.99,22.23,10.33,43.91,15.38,65.88.84,3.64,1.71,7.4-.29,11.02Z"/>
      <path class="cls-66" d="M798.65,1508.36c-5.52.73-6.58-4.03-8.45-7.29-10.53-18.32-20.85-36.76-31.41-55.45-3,4.78,2.44,13.09-3.28,13.52-6.88.51-3.65-8.28-5.64-12.68-.76-1.68-.95-3.61-1.4-5.42-6.44-8.09-6.62-18.24-7.72-27.6-1.9-16.22-5.05-32.16-8.07-48.15-.7-3.71-1.19-7.46.27-11.12.86-2.16,2.28-3.77,4.75-4,2.58-.24,4.01,1.37,5.11,3.4,1.51,2.8,2.15,5.88,2.72,8.96,2.81,15.07,6.84,29.92,7.61,45.37.4,7.92,3.12,15.1,7.96,21.71,6.85,9.36,12.07,19.79,17.25,30.16,3.66,7.33,8.8,10.34,17.32,9.55,24.65-2.27,49.37-3.91,74.08-5.46,3.78-.24,7.54-.61,10.87,1.79,2.39,5,1.11,7.78-4.73,7.82-29.13,2.4-58.26,4.81-88.2,7.27,3.75,6.78,7.03,12.68,10.29,18.59,1.6,2.9,4.18,5.74.67,9.03Z"/>
      <path class="cls-65" d="M620.07,1527.06c1.41,4.55-6.84,8.19-1.24,13.13-.9,1.17-1.94,2.89-.44,3.65,1.27.65,3.25-.11,4.92-.25,16.72-5.4,33.84-8.82,51.34-10.37,13.27-.08,25.9-4.08,38.78-6.49,25.88-4.85,51.67-10.17,77.48-15.39,2.82-.57,5.49-1.05,8.16.35,1.95,7.25-4.01,6.55-7.82,7.33-37.21,7.62-74.43,15.12-111.68,22.54-17.24,3.43-34.53,6.62-51.81,9.83-5.58,1.04-11.58,2.34-14.85-4.15-2.55-5.06,1.86-16.6,7.18-20.18Z"/>
      <path class="cls-66" d="M997.76,1471.61c2.36-3.04,5.94-3.08,9.26-3.77,55.17-11.54,110.33-23.09,165.49-34.65,1.47-.31,2.88-.86,4.31-1.29-.05-4.7-4.86-2.11-6.14-4.57,2.68-.71,5.69-1.09,5.14-5.07,4.9,3.51,10.49,8.36,9.62,13.73-.8,4.96-8.71,4.41-13.49,5.44-42.65,9.18-85.38,17.95-128.09,26.8-12.29,2.55-24.61,4.97-36.93,7.39-3.91.77-8.36,2.48-9.17-4Z"/>
      <path class="cls-27" d="M875.88,1473.47c3.4-1.04,4.36-3.82,4.92-6.88,4.95-7.13,13.35-8.92,26.03-5.53,2.86,1.41,5.72,2.81,8.58,4.22-1.43,2.52-2.94,4.68-6.48,4.1-9.69-1.59-18.94-.53-27.69,4.39-1.31.74-3.55-.16-5.36-.29Z"/>
      <path class="cls-45" d="M491.74,1129.42c-45.86,9.32-91.74,18.56-137.56,28.07-5.31,1.1-7.62-.19-7.97-5.47-.1-1.55-.59-3.08-.9-4.62-42.44-210.47-84.81-420.96-127.52-631.38-1.78-8.79-.32-11.44,8.7-13.25,301.5-60.51,602.94-121.3,904.34-182.28,8.2-1.66,11.07-.43,12.82,8.27,42.29,211.14,84.86,422.23,127.65,633.27,1.61,7.93.49,10.66-7.93,12.27-45.35,8.66-90.56,18.06-135.82,27.2-4.83,2.56-10.08,3.3-15.45,3.67-16.37,1.14-32.37,4.67-48.08,9.01-23.3,6.45-46.79,12.19-70.37,17.25-58.96,12.67-117.94,25.54-177.37,35.65-79.3,13.49-157.62,31.78-236.76,45.84-27.82,4.94-55.76,9.03-83.08,16.42-1.54.42-3.12.26-4.68.08Z"/>
      <path class="cls-45" d="M906.83,1461.06c-8.55,2.45-18.34-.95-26.03,5.53-18.43-.39-36.68,2.26-55.04,3.24-12.14.65-24.26,1.67-36.37,2.77-4.91.45-7.73-1.33-10.24-5.65-8.24-14.16-14.78-29.28-25.07-42.33-2.77-3.52-2.86-9.5-3.3-14.43-1.48-16.58-5.14-32.78-8.35-49.05-.69-3.5.71-10.11-4.99-9.21-4.75.75-3.06,6.55-2.39,10.44,4.25,24.68,8.55,49.34,12.82,74.01.27,1.54.4,3.1.59,4.65-.5.11-.98.28-1.44.5-2.77,1.98-5.86,2.48-9.16,1.92-14.15,2.8-28.31,5.6-42.46,8.4-7.77-1.01-14.84,3.59-22.58,2.79-3.18.65-6.35,1.29-9.53,1.94-3.61-2.1-5.78-.46-7.48,2.76-2.31,4.38-4.72,8.7-7.53,13.84-5.99-8.33-6.28-17.75-9.03-26.11-8.99-27.32-16.41-55.16-25.14-82.57-2.98-9.35,1.45-10.42,8.62-11.05,34.56-3.08,69.08-6.88,103.68-9.27,12.7-.88,25.52-5.57,38.48-.57,2.36.91,5.58-.21,8.37-.66,25.09-4.04,50.16-8.2,75.26-12.15,5.4-.85,6.26-3.51,5.53-8.51-5.42-37.28-13.28-74.1-20.56-111.03.47-5.7-1.41-11.06-2.62-16.46-1.24-5.54,1.75-7.45,6.12-8.34,4.44-.9,7.72-.07,8.84,5.42,1.72,8.49,2.43,17.23,5.79,25.35,7.18,33.43,12.93,67.16,21.72,100.24,1.47,5.54,3.33,8.04,9.61,6.43,25.53-6.52,52.28-9.91,76.43-19.75,22.43-9.14,45.41-15.9,68.17-23.61,19.84-6.72,39.91-12.75,59.86-19.12,4.47-1.43,8.92-2.91,13.34-4.49,6.04-2.15,9.53-.77,10.24,6.23,2.17,21.47,4.61,42.92,6.92,64.37,1.34,12.43,2.69,24.87,3.91,37.32.38,3.89.34,7.82.51,12.18-5.51-1.82-8.05-6.14-11.93-8.68-3-1.97-5.77-4.15-8.83-.24-28.42,5.05-55.82,14.68-84.45,18.76-5.71-24.39-11.42-48.77-17.13-73.16-.43-1.83-.68-3.74-1.37-5.46-1.3-3.27-1.51-9.05-6.11-7.85-4.9,1.28-1.98,6.34-1.18,9.66,4.4,18.26,6.76,37.04,13.12,54.79,2.2,6.15-.26,11.43-1.11,17.14-1.87,12.59-3.77,25.23-4.49,37.91-.47,8.23-4.82,11.25-11.63,13.47-25.8,8.39-51.52,17.01-77.25,25.61-1.14.38-2.08,1.35-3.12,2.05Z"/>
      <path class="cls-40" d="M851.61,1217.24c-3.91-7.29-4.53-15.5-6.28-23.36-1-4.49-2.79-6.75-7.54-5.74-4.54.97-7.18,2.87-5.9,8.36,1.12,4.79,2.61,9.68,1.59,14.76-1.09-4.87-1.97-9.79-3.32-14.59-1.26-4.49-3.48-4.94-6.04-.75-11.93,9.38-23.98,18.6-36.79,26.76-3.21,2.05-6.65,3.66-10.23.54-2.74-3.8.02-9.3-3.94-12.73-1.2-1.56-1.92-3.3-2.07-5.26-1.24-13.18-7.63-24.81-11.39-37.23-.85-2.81-.67-6.42-3.54-8.54-4.54-2.15-4.13-6.75-5.32-10.54-.53-1.44-.36-4.5-2.89-1.16-.97,1.28-2.37,2.02-3.84,2.67-26,9.23-53.13,12.7-80.28,16.04-10.03-.09-19.97,1.25-29.95,1.92-11.77-3.41-22.53-9.33-33.87-13.84-25.85-10.28-52.71-16.03-80.24-19.22-6.93-.8-13.7.42-20.54.75-2.15.21-4.39,1.15-6.28-.78-.41-1.96-.82-3.91-1.23-5.87,4.25-4.21,9.92-4.5,15.32-5.76,54.7-12.77,110.34-20.67,165.34-31.95,108.48-22.25,217.56-41.49,325.86-64.63,29.43-6.29,58.53-14.14,87.89-20.79,11.89-2.69,24.08-4.1,36.14-6.08,1.91-.31,3.75-.15,5.25,1.29-1.05,4.65,3.77,8.09,2.65,12.76-14.77-2.77-26.08,4.98-37.64,12.2-23.73,14.83-44.9,32.65-63.59,53.48-3.53,3.93-6.99,8.01-11.49,10.97-9.26,3.28-18.73,5.92-27.83,9.64-2.52,1.12-5.22,1.63-7.83,2.47-24.16,6.5-48.29,13.18-73.46,14.32-1.92,2-5.32-4.47-6.6,1.21.65,3.59,1.12,7.16,0,10.72-1.68,11.3-.91,22.45,1.89,33.48.56,1.71.82,3.42-.23,5.06-3.11,3.7.83,6.5,1.29,9.75.52,1.74.26,3.44-.24,5.13-2.06,4.97,2.76,9.23,1.48,14.13-2.1,4.01-5.64,4.39-9.56,3.76-14.97-2.41-29.67-5.93-44.11-10.53-5.44-2.99-5.76.17-5.02,4.28,1.39,7.65,2.91,15.28,4.37,22.92Z"/>
      <path class="cls-45" d="M852.25,1190.05c15.21-1.46,28.53,7.24,43.37,8.13,3.44.21,6.56,1.52,9.53-1.07,5.56-3.3,11.29-1.02,16.41.53,18.52,5.59,34.87,2.89,51.74-7.23,22.26-13.36,45.72-24.88,69.26-35.89,12.19-5.7,23.49-12.89,35.67-18.49,3.39-1.56,6.66-3.63,10.68-2.99,4.57,2.08,2.19,5.35.94,7.85-16.62,33.25-14.92,68.33-10.66,103.69.45,3.7,1.71,7.38-.48,10.94-14.01,6.31-29.02,9.62-43.55,14.37-23.47,7.68-48.61,11.88-70.33,22.9-23.6,11.97-49.62,11.97-73.25,21.51-8.83,3.56-11.95-.09-13.59-8.49-4.09-20.94-8.68-41.78-13.32-62.61-3.96-17.76-8.27-35.44-12.42-53.16Z"/>
      <path class="cls-43" d="M1078.71,1255.52c-6.19-28.33-6.58-56.78-1.76-85.34,1.84-10.88,5.85-20.98,10.81-30.78.79-1.56,3.98-3.12.69-5.32-.05-.63-.19-1.5.18-1.77,12.65-9.13,25.66-17.57,41.4-20.45,4.12,2.77,8.17-1.36,11.71-.38-3.2-.66-6.66,1.81-10.39,1.27q.57-3.66,9.15-11.11c16.75-7.36,34.84-10.15,52.23-15.33,2.69,10.58,5.37,21.16,8.06,31.73,7.32,28.77,14.61,57.55,22.02,86.3.87,3.39,3.11,6.9-3.05,7.07-2.35-1.94-1.19-5.13-2.52-7.24.58,2.96,2.67,6.57-2.8,7.56-.25.05-.47.27-.7.41.21.07.57.35,1.11.84-3.33,2.74-7.42,3.09-11.44,3.64-1.83-.75-3.54.15-5.3.36-.69.08-1.36.38-2.06.14.77.36,1.73.26,2.34.98-3.21,2.83-7.26,3.12-11.21,3.71-21.25,4.79-42.63,9.07-63.49,15.41-4.73,1.44-9.49,2.42-14.25,3.55,15.69-4.2,31.21-9.13,47.33-11.51,2.38-.35,4.74-1.91,7.24-.42-10.96,5.29-22.85,7.87-34.38,11.44-16.92,5.24-33.46,11.83-50.92,15.26Z"/>
      <path class="cls-45" d="M1192.74,1086.29c-.86,2.81-3.64,3.86-5.73,4.27-15.72,3.09-30.49,9.86-46.44,11.99-11.75,2.78-21.63,9.66-32.22,14.94-13.71,6.83-27.37,13.79-40.81,21.16-7.26,3.99-12.57,2.93-17.8-3.72-10.06-12.78-19.14-26.27-29.16-39.07-1.53-1.95-3.06-4.02-2.56-6.79,25.71-31.34,56.28-56.73,92.35-75.39,6.68-3.46,13.34-4.18,19.8.59,20.85,24.01,41.71,48.02,62.56,72.03Z"/>
      <path class="cls-62" d="M1164.01,1228.81c-19.41,2.56-37.97,9.05-57.35,11.91,9.54-2.73,18.93-6.33,28.66-7.97,14.59-2.46,28.26-8.21,42.76-10.74,2.99-.52,6.02-2.22,9.1-.22-7.49,3.11-15.2,5.51-23.17,7.02Z"/>
      <path class="cls-49" d="M1214.86,1212.96c-1.25.03-2.49.06-3.74.1,6.38-2.04,6.43-6.97,6.47-12.47l2.18,10.81c-1.64.52-3.27,1.05-4.91,1.57Z"/>
      <path class="cls-57" d="M1198.4,1218.08c-.62-.07-1.28-.03-1.84-.25-.21-.08-.28-1.12-.22-1.14,2.34-.81,4.71-1.87,7.08-.08-1.67.49-3.35.98-5.02,1.48Z"/>
      <path class="cls-48" d="M1093.13,1377.01c-8.45,1.7-16.89,3.41-25.34,5.11-.06-.31-.13-.62-.19-.94,8.45-1.7,16.9-3.41,25.35-5.11.06.31.12.63.18.94Z"/>
      <path class="cls-58" d="M661.31,1466.01c-.64-2.66,1.19-4.22,2.65-5.94,15.52.94,29.96-4.96,45-7.05,10.88.52,20.92-4.89,31.78-4.5,1.76-.27,3.51-.54,5.27-.8.11.52.22,1.05.32,1.57-12.51,2.52-24.92,6.22-37.56,7.27-16.29,1.37-32.03,4.38-47.47,9.46Z"/>
      <path class="cls-52" d="M674.64,1533.23c-17.11,3.46-34.23,6.91-51.34,10.37.36-1.55.79-3.34,2.6-3.51,17.71-1.58,34.71-7.15,52.49-9.48-.54,2.38-2.6,1.78-3.75,2.62Z"/>
      <path class="cls-50" d="M643.39,1500.43c3.2-8.27,7.5-15.97,12.18-23.47,1.6.56,2.96,1.49,2.07,3.34-3.32,6.92-6.72,13.8-10.24,20.62-1.53,2.97-3.04,2.69-4.01-.49Z"/>
      <path class="cls-17" d="M740.74,1448.51c-10.65,1.12-20.7,6.46-31.78,4.5,10.65-1.09,20.7-6.42,31.78-4.5Z"/>
      <path class="cls-17" d="M672.81,1454.65c7.54-.83,14.68-4.83,22.58-2.79-7.55.7-14.67,4.95-22.58,2.79Z"/>
      <path class="cls-50" d="M637.77,1511.39c1.38-1.1,2.76-2.2,4.14-3.29q-.89,4.8-4.11,3.16s-.04.13-.04.13Z"/>
      <path class="cls-17" d="M737.86,1443.46c3.05-.64,6.11-1.28,9.16-1.92-2.5,3.3-5.57,3.87-9.16,1.92Z"/>
      <path class="cls-45" d="M777.65,1222.28c3.57,1.7,6.04.29,9.1-1.99,10.77-8.02,21.91-15.54,32.99-23.13,1.18-.81,2.9-.84,4.37-1.23,4.82,40.18,15.77,79.27,21.06,119.38.83,6.27.12,8.82-6.58,9.8-20.46,2.97-40.74,7.61-61.28,9.55-14.29,1.35-28.76-.63-43.32,1.2-28.48,3.57-57.16,5.6-85.76,8.19-2.45.22-4.96-.1-7.43-.17-6.53-7.83-6.11-18.18-9.74-27.12-5.66-13.94-10.61-28.12-18.24-41.21-6.84-11.74-14.58-22.66-24.96-31.61-2.5-2.15-7.04-3.97-4.12-8.89,4.66-2.93,9.81-1.94,14.65-1.23,23.24,3.38,46.75,2.71,70.06,5.14,19.61,2.04,39.36,2.92,58.98,4.91,8.37.85,15.37-.97,22.11-5.58,6.46-4.42,13.1-8.58,19.67-12.84,2.55-1.66,4.88-4.13,8.44-3.17Z"/>
      <path class="cls-43" d="M584.74,1235.68c-1.1,1.18-.77,2.17.41,3.06,25.61,19.4,37.32,47.49,47.98,76.3,3.48,9.39,6.04,18.98,7.67,28.84-29.56,4.09-59.27,6.65-89.05,8.42,13.6-4.48,27.42-7.78,41.85-7.82,3.85-.05,7.5-2.16,9.52-1.82-1.81.19-5.41,1.29-9.08,1.73-1.57-.11-3.19-.54-4.68-.27-20.52,3.7-41.16,6.66-61.63,10.63-3.88,1.01-7.74,2.23-11.8.94.89-1.35,2.01-2.02,2.83-1.64-2.25.48-5.34.3-8.01,2.21-3.95,1.06-7.89,2.26-12.05,1.11,1.41-2.16,3.53-2.17,6.15-1.91q-10.85.98-13.51-13.35c.67,5.26,3.15,10.26,2.32,15.74-4.09,1.55-5.5-.17-6.05-4.23-4.81-35.39-10.07-70.71-14.36-106.16-.65-5.4-6.38-9.6-3.21-15.56,17.74-2.69,35.62-4.39,53.29-7.57,3.85,3.14,10.57,2.32,12.11,8.69-3.97,1.26-8,2.1-10.78,2.38,3.42-1.27,8.82.26,12.63-4.31,11.71-4.09,23.35.24,35.02.42,4.35.07,9.61-1.11,12.43,4.15Z"/>
      <path class="cls-45" d="M524.76,1225.05c-1.59.93-3.09,2.46-4.78,2.71-14.32,2.15-28.66,4.19-43.04,5.95-2.2.27-5.06.53-6.9-1.78,9.56-30.13,19.13-60.25,28.62-90.4.54-1.71.4-3.63.58-5.46,3.3-3.59,7.67-3.97,12.07-3.7,42.21,2.61,81.86,14.51,119.63,33.12.52.25.84.9,1.25,1.36,1.41,2,1.14,4.23.52,6.31-4.86,16.48-7.74,33.45-12.5,49.96-1.87,6.47-5.73,9.15-12.38,8.68-27.72-1.95-55.44-3.76-83.07-6.76Z"/>
      <path class="cls-55" d="M594.98,1345.29c-14.81-.15-28.9,4.19-43.23,7.01-7.92,1.62-15.93,2.46-24.01,2.46,5.35-4.46,12.22-4.68,18.39-5.08,13.99-.92,27.48-4.15,41.17-6.55,2.34-.41,4.87.22,7.31.37.68.28.96.63.84,1.07-.11.44-.27.68-.47.72Z"/>
      <path class="cls-59" d="M493.67,1357.87c-1.22-6.04-2.44-12.08-3.65-18.13,5.22,5.63.38,21.04,16.51,15.21-2.6.81-5.21,1.62-7.81,2.43-1.68.16-3.36.32-5.04.48Z"/>
      <path class="cls-47" d="M510.75,1356.28c2.33-3.13,5.68-2.89,10.91-2.91-3.04,1.24-4.39,1.79-5.73,2.34-1.73.19-3.45.38-5.18.57Z"/>
      <path class="cls-40" d="M560.8,537.31c-4.03,1.98-6.01.32-6.23-3.76-.75-14.05-1.69-28.08-1.08-42.19.18-4.12,2.55-5.49,5.07-7.06,38.62-24.02,78.27-46.24,121.04-61.94,13.46-4.94,28.58-1.68,42.91-1.3,32.6.88,64.9,4.99,97.11,9.96,5.21.81,8.09,2.58,10.35,7.57,5.31,11.73,9.49,23.84,13.84,35.9,1.26,3.5,1.21,6.01-3.31,6.88-2.38.46-4.53,2.37-6.9,2.66-36.92,4.51-72.27,16.18-108.55,23.56-10.2,2.07-21.09-2.01-31.18,2.39-40.16,17.52-84.89,14.15-125.93,27.66-1.75.58-3.67,1.02-5.37-.38-1.34-1.4-1.34-3.28-1.68-5-.15-.75-.89-1.77,0-2.11-1.29,2.13,1.69,4.8-.09,7.15Z"/>
      <path class="cls-66" d="M943.81,452.95c23.87-12.13,49.93-18.41,75.22-26.26,13.09-4.06,27.12-6.99,40.9-9.64,7.51-1.44,9.83,1.05,10.39,8.6,1.59,21.62,6.37,42.67,14.12,62.96,2.83,7.42,7.1,12.1,16.38,9.17,7.82-2.47,12.62,1.05,15.74,9.01,7.09,18.1,9.27,37.07,10.66,56.08,1.06,14.5,4.54,28.48,6.72,42.72,1.2,7.85-.13,11.77-8.87,15.13-33.07,12.68-58.46,34.23-72.74,67.69-8.01,18.78-13.87,37.78-17.31,58.12-4.99,29.5-9.77,59.17-17.93,88.08-.6,2.11-1.36,4.18-1.87,6.31-4.66,19.79-16.78,30.49-37.22,33.67-18.92,2.94-36.29,11.46-53.99,18.67-12.98,5.29-26.34,9.73-39.5,14.51-13.01,4.73-27.55,2.07-40.19-3.47-12.83-5.62-25.04-13.03-35.08-23.2-2-2.03-4.06-2.3-6.66-2.53-18.98-1.66-36.8,2.03-53.65,10.86-2.01,1.05-3.99,1.79-4.66,4.19-2.85,10.29-9.91,18.24-16.09,26.34-14.03,18.39-31.58,28.13-56.55,28.7-29.85.68-60.15-1.03-89.73,5.54-15.16,3.37-27.82.63-38.55-11.72-14.42-16.6-26.33-34.87-38.69-52.93-20.73-30.29-38.1-62.9-68.12-86.38-26.02-20.35-54.96-27.27-86.7-26.34-6.36.19-10.01-1.86-10.95-7.37-5.18-30.68-17.9-59.46-22.53-90.25-.74-4.91-.93-9.96-.72-14.92.29-6.89,5.17-9.9,11.25-10.5,8.26-.81,11.06-5.21,11.14-13.07.23-22.18-4.26-43.58-11-64.47-2.39-7.41-2.11-11.57,6.23-12.58,24.43-2.95,48.32-9.28,73.22-9.79,15.86-.33,31.7-3.49,47.71-2.18,2.98.74,3.05,2.53,1.49,4.62-2.11,2.82-5.24,3.9-8.56,4.54-21.97.61-43.73,4-65.71,4.97-12.69.56-24.91,5.95-37.82,6.75-4.73.29-5.18,3.24-4.2,7.36,2.91,12.22,5.09,24.59,7.62,36.89,2.32,11.25,1.55,22.47-.09,33.72-.88,6.02-3.75,9.35-10.15,10.38-11.09,1.79-12.56,3.78-11.73,14.98.77,10.35,3.49,20.28,6.69,30.21,4.7,14.61,8.57,29.49,11.81,44.54,3.18,14.73,4.77,15.33,19.47,16.47,13.48,1.04,26.86,2.73,39.64,7.48,3.5,4.07,8.46,3.75,13.13,4.28,30.25,17.59,54.88,40.59,73.55,70.67,16.8,27.05,34.48,53.64,53.84,79.06,11.91,15.63,26.59,20.53,45.22,15.84,12.53-3.15,25.25-4.54,38.17-3.26,2.4.24,4.8.2,7.2-.08,15.41.91,30.61-2.06,45.97-2.55,15.98-.52,29.37-8.51,39.04-21.6,5.78-7.82,11.48-15.77,15.89-24.44,3.03-5.97,7.57-9.58,13.4-12.51,17.31-8.7,35.55-11.75,54.74-10.24,4.52.36,8.75,1.24,12.11,4.42,6.44,6.11,14.33,10.12,21.57,15.07,18.1,12.41,36.94,13.76,57.03,4.84,11.44-5.08,23.93-7.48,35.45-12.5,2.31-.69,4.56-1.53,6.69-2.69,9.82-4.99,19.97-9.06,30.93-10.69,8.14-1.21,15.67-4.33,23.39-6.87,6.59-2.16,9.81-7.44,12.44-13.26,6.76-14.96,10.3-30.94,12.9-46.93,3.97-24.38,9.13-48.56,13.6-72.83,5.46-29.7,18.98-56.85,38.18-80.71,4.33-2.13,8.16-4.82,10.5-9.24,11.13-9.86,23.72-17.54,37.16-23.68,6.72-3.07,9.3-7.31,8.59-14.67-1.6-16.54-5.74-32.7-6.85-49.3-.8-11.88-2.01-23.64-6.29-35.01-2.88-7.65-7.33-10.64-15.05-8.08-7.76,2.57-12.65-.62-16.1-7.31-4.74-9.22-9.2-18.54-11.24-28.81-2.38-11.99-5.1-23.93-7.1-35.99-.81-4.9-2.41-7.83-7.86-5.98-17.77,6.04-36.99,6.26-54.38,14.2-14.25,6.5-30.07,8.81-44.54,14.95-3.33.75-6.66.95-9.72-.85-2.27-1.33-2.88-3.03-.42-4.88Z"/>
      <path class="cls-67" d="M459.98,1078.73c-15.42,3.58-26.84-5.7-37.23-13.94-17.89-14.2-31.8-32.55-46.68-49.9-20.13-23.48-34.89-50.02-48.88-77.28-6.35-12.38-16.89-22.57-18.26-37.52-.37-4.05-.56-6.85,2.97-9.77,13.5-11.18,26.99-22.4,39.89-34.24,7.54-6.92,18.95-6.66,25.56-15.17,1.76-2.27,3.31,1.02,4.39,2.9,26.31,45.41,54.5,89.52,86.46,131.29,13.42,17.54,29.92,30.94,47.1,44,4.96,3.77,9.14,7.73,3.5,13.7-14.52,15.37-27.43,32.55-47.28,42.05-3.76,1.8-7.51,3.03-11.56,3.9Z"/>
      <path class="cls-67" d="M1212.67,720.7c2.23,6.27,2.54,11.34,1.49,16.25-5.36,25.13-4.03,51.21-9.6,76.09-7.92,35.36-17.14,70.68-33.99,103.11-12.33,23.71-26.74,29.24-52.8,24.07-16.55-3.28-30.83-11.88-46.16-18.02-6.79-2.72-7.7-7.71-3.82-13.6,28.58-43.39,35.95-93.42,44.8-142.96,3.73-20.89,7.8-41.76,10.27-62.81,1.12-9.53,1.16-12.07,13.25-11.25,25.72,1.74,48.22,12.77,72.23,19.25,5.65,1.53,3.1,7.56,4.34,9.86Z"/>
      <path class="cls-67" d="M460.02,552.04c29.71,2.72,60.05,2.64,83.92,25.48,15.21,14.55,34.49,14.65,54.5,14.04,36.52-1.12,69.6-14.13,102.65-27.15,12.62-4.97,25.38-4.17,37.82-4.38,35.78-.59,70.27-6.35,103.16-20.37,13.01-5.55,23.47-15.02,28.92-28.24,5.5-13.31,14.04-23.69,25.75-31.45,13.46-8.93,26.36-18.93,41.84-24.44,2.77,3.83,1.84,7.12-1.47,10.09-8.71,6.19-17.98,11.5-27.03,17.16-13.04,8.15-23.4,18.41-30.03,32.77-7.35,15.92-19.86,26.96-36.2,33.95-32.23,13.8-65.8,20.38-100.76,19.52-20.47-.5-39.81,3.36-58.5,11.71-32.21,14.39-66.06,21.6-101.37,21.4-17.21-.1-33.27-4.85-45.72-16.89-11.72-11.33-25.56-16.56-41.01-19.22-11.12-1.91-22.43-2.8-33.35-5.93-3.1-1.89-4.95-4.27-3.12-8.06Z"/>
      <path class="cls-36" d="M938.13,462.84c.15-2.43.3-4.87.45-7.3,1.74-.86,3.49-1.73,5.23-2.59.76,6.07,5.14,3.74,8.55,3.68,14.95,3.02,24.49,13.27,32.94,24.84,7.04,9.63,13.02,20,18.85,30.35,14.61,25.93,35.49,37.54,65.55,31.97,11.97-2.22,24.28-2.77,36.48-3.58,1.88-.12,3.76-.44,5.62-.03,2.59.56,4.89,1.66,5.04,4.71.12,2.68-2.01,3.77-4.11,4.49-5.96,2.04-12.16,3.34-18.37,3.97-13.4,1.36-26.83,2.49-40.28,3.39-22.33,1.5-38.41-9.15-51.35-25.99-9.01-11.72-15.92-24.8-23.77-37.26-8.91-14.13-19.92-24.93-36.89-28.28-1.54-.3-2.96-1.01-3.93-2.37Z"/>
      <path class="cls-35" d="M460.02,552.04c.27,2.59,1.39,4.76,3.25,6.56-.33,1.25-.96,2.38-2.03,3.07-16.15,10.49-22.19,26.5-24.64,44.57-1.43,10.56-3,21.11-4.85,31.61-4.95,27.95-18.96,47.86-47.95,55.3-13.32,3.42-26,9.23-39.66,11.62-1.85.33-3.68.87-5.56.98-3.29.19-7.62,1.64-8.45-3.21-.72-4.19,3-5.88,6.38-6.9,4.81-1.46,9.4-3.56,14.25-4.85,11.52-3.08,22.64-7.47,34.1-10.66,20.07-5.58,29.58-20.05,34-38.85,3.02-12.82,3.81-26.06,6.3-38.99,3.23-16.77,7.08-33.33,22.52-43.89,3.16-1.28,8.1-.84,6.52-6.71,1.94.12,3.87.23,5.81.35Z"/>
      <path class="cls-42" d="M782.37,1023.33c2.29-.07,3.47.67,3.45,2.62-.02,2.02-1.62,2.49-3.16,2.72-1.2.17-2.7.23-2.94-1.43-.33-2.28,1.36-3.18,2.66-3.91Z"/>
      <path class="cls-51" d="M823.85,1015.05c1.72-.22,3.35.34,3.6,2.04.25,1.72-1.19,2.78-2.89,3.02-1.31.18-2.5-.19-2.86-1.7-.43-1.82.26-2.99,2.15-3.36Z"/>
      <path class="cls-4" d="M560.8,537.31c-.34-2.55-.69-5.1-1.19-8.82,2.81,3.33,2.7,6.11,2.97,8.79-.59.18-1.18.19-1.78.03Z"/>
      <path class="cls-69" d="M844.63,1407.17c.95,2.31.91,4.35-1.59,5.56-2.72,1.31-4.21-.67-5.11-2.62-8.58-18.52-17.06-37.08-25.51-55.65-1.03-2.25-.7-4.45,1.81-5.46,3.03-1.22,4.39.63,5.56,3.24,6.61,14.66,13.36,29.25,20.04,43.88,1.67,3.66,3.21,7.37,4.81,11.06Z"/>
      <path class="cls-69" d="M914.96,1393.74c.63-21.05,1.19-40.87,1.83-60.69.09-2.81.14-6.12,4.4-5.44,3.21.51,3.15,2.94,3.07,5.73-.55,19.21-.78,38.42-1.41,57.62-.08,2.36.47,6.26-3.74,6.42-3.1.12-4.42-1.81-4.15-3.65Z"/>
      <path class="cls-44" d="M662.12,1164.24c28.73-4.22,57.47-8.39,85.3-17.09,1.64-1.36,3.36-2.14,5.36-.69,1.87,4.07.32,9.36,4.49,12.61,6.02,15.22,12.36,30.32,15.6,46.48.01,1.7.81,2.89,2.33,3.62,2.88,5.36.13,8.83-4.03,11.74-8.74,6.11-17.88,11.64-26.43,18.05-4.03,3.03-8.81,3.05-13.56,2.66-32.85-2.65-65.73-4.76-98.57-7.58-10.83-.93-11.49-2.36-9.22-13.16,3.05-14.44,7.07-28.62,10.72-42.9,1.95-7.6,5.26-12.43,14.1-11.77,4.64.35,9.1-2.28,13.89-1.96Z"/>
      <path class="cls-44" d="M902.47,1181.62c1.19-1.28,1.25-2.72.57-4.25-1.22-2.84-2.64-5.66-1.24-8.87,1.17-1.36,1.18-2.85.5-4.42-3.35-11.7-2.37-23.74-2.7-35.67,2.37-3.96-.76-7.64-.59-11.49,1.31-2.04,3.19-2.01,5.21-1.39,26.5-2.5,52.27-8.7,78.01-15.14,7.57.04,14.26-3.76,21.58-4.97,3.4-.56,6.63-1.45,10.02-.31,4.05,1.46,6.44,4.81,9.01,7.95,8.71,10.67,16.13,22.3,24.62,33.15,5.32,6.8,4.61,10.21-2.94,14.18-30.21,15.85-60.49,31.58-90.94,46.98-3.74,1.89-7.66,2.57-11.84,1.7-10.42-2.19-20.83-4.4-31.27-6.43-6.08-1.18-9.6-4.25-7.99-11.01Z"/>
      <path class="cls-2" d="M902.47,1181.62c.09,5.55,2.6,8.05,8.43,8.89,11.05,1.59,21.98,4.1,32.89,6.52,3.02.67,5.33.11,7.97-1.26,30.99-16.19,62.02-32.3,93.1-48.31,3.12-1.61,7.03-1.99,3.22-6.84-11.3-14.36-22.44-28.84-33.64-43.28-3.67-3.54-7.62-.83-11.48-.53-4.54.35-8.8,3.2-13.57,1.51,9.13-4.35,18.63-7.58,28.63-9.24,11.5,15.1,23.26,30.01,34.34,45.41,3.97,5.51,7.15,5.77,12.83,2.73,21.08-11.3,42.4-22.18,63.73-32.99,3.5-1.77,7.08-6.07,11.64-1.67.28,6.91-7.29,5.9-9.94,9.86h0c-14.72,5.93-28.52,13.66-42.18,21.66-9.34,5.12-18.75,10.09-27.84,15.69-7.88,4.86-18.21,7.66-27.1,12.18-26.26,13.34-52.48,26.74-78.56,40.41-3.89,2.04-7.26,2.51-11.46,1.68-12.74-2.52-25.55-4.65-38.34-6.92-.61-5.21-6.6-9.49-2.69-15.49Z"/>
      <path class="cls-2" d="M662.12,1164.24c-.3.1-.6.29-.89.28-18.58-.18-26.29,9.99-28.38,27.54-1.31,11.05-5.3,21.79-8.22,32.64-1.2,4.47-.92,6.18,4.88,6.58,35.24,2.43,70.43,5.52,105.63,8.42,2.6.21,4.7-.35,6.94-1.93,9.15-6.44,18.46-12.68,27.83-18.8,3.68-2.4,6.1-5.14,5.29-9.8,5.2,3.55,1.98,8.68,2.45,13.12-.7.63-1.43,1.22-2.09,1.89-25.01,25-55.58,23.92-87.35,19.46-19.06-2.68-38.41-4.87-57.59-4.6-15.54.22-30.43-4.93-45.89-3.34-15.67-2.19-31.39-3.74-47.24-3.71-.53.97-.94.92-1.23-.14-3.79-2.35-11.37,1.73-11.51-6.79,12.66-3.64,25.2.39,37.78.83,14.6.51,29.18,2.01,43.71,3.66,7.02.8,10.28-.76,11.95-8.36,4.02-18.25,9.25-36.23,14-54.32,9.84-2.38,19.84-3,29.92-2.62Z"/>
      <path class="cls-68" d="M772.87,1205.54c-5.2-15.49-10.4-30.98-15.6-46.48,6.81,6.74,7.89,16.19,10.42,24.58,2.12,7.06,8.18,13.56,5.18,21.89Z"/>
      <path class="cls-29" d="M787.62,1079.8c17.71-3.57,35.42-7.14,53.13-10.71.12.59.25,1.18.37,1.78-17.74,3.58-35.47,7.15-53.21,10.73-.55-.32-.77-.69-.68-1.12.09-.42.22-.64.39-.68Z"/>
      <path class="cls-6" d="M778.71,1083.51c-15.4,3-30.8,6.01-46.19,9.01-.73-.18-1.01-.44-.85-.8.16-.35.35-.55.57-.6,15.35-3.17,30.71-6.34,46.06-9.52.62.31.88.69.8,1.15-.08.46-.21.71-.39.75Z"/>
      <path class="cls-69" d="M899.59,1128.41c.9,11.89,1.8,23.78,2.7,35.67-5.42-11.55-4.5-23.58-2.7-35.67Z"/>
      <path class="cls-19" d="M889.44,1060.95c-12.45,2.51-24.89,5.02-37.34,7.53-.1-.51-.2-1.01-.3-1.52,12.45-2.51,24.89-5.02,37.34-7.53.72.2,1.01.5.86.88-.15.38-.33.59-.56.64Z"/>
      <path class="cls-56" d="M989.39,1098.31c6.12-1.14,12.25-2.26,18.37-3.42,2.73-.51,5.64-1.63,6.67,2.44-7.39-1.8-14.18,1.63-21.27,2.42-3.63.4-7.17,2.72-10.94.64,2.39-.69,4.78-1.39,7.16-2.08Z"/>
      <path class="cls-32" d="M948.35,1047.19c-8.5,1.71-16.99,3.43-25.49,5.14-.12-.53-.24-1.05-.36-1.58,8.51-1.72,17.02-3.43,25.53-5.15.63.24.89.55.78.94-.12.39-.27.6-.46.64Z"/>
      <path class="cls-38" d="M889.44,1060.95c-.06-.51-.16-1.02-.3-1.52,7.87-1.59,15.74-3.17,23.61-4.76.11.5.22,1.01.33,1.51-7.88,1.59-15.76,3.18-23.64,4.77Z"/>
      <path class="cls-24" d="M681.8,1099.3c7.9-1.59,15.79-3.18,23.69-4.78.11.51.22,1.02.34,1.53l-23.71,4.78c-.63-.23-.88-.53-.76-.91.12-.38.27-.59.46-.62Z"/>
      <path class="cls-41" d="M641.26,1107.25c-7.28,1.47-14.56,2.93-21.83,4.4-.12-.57-.24-1.15-.37-1.72,7.28-1.47,14.57-2.94,21.85-4.41.64.27.9.61.79,1.04-.11.42-.26.65-.44.69Z"/>
      <path class="cls-11" d="M681.8,1099.3c.15.5.25,1.01.31,1.53-5.39,1.08-10.77,2.17-16.16,3.26,4.84-3.36,10.41-3.84,15.85-4.79Z"/>
      <path class="cls-38" d="M732.24,1091.13c.06.47.15.94.28,1.4-5.42,1.09-10.84,2.18-16.26,3.28-.1-.46-.2-.93-.31-1.39,5.43-1.09,10.85-2.19,16.28-3.28Z"/>
      <path class="cls-39" d="M778.71,1083.51c-.14-.63-.28-1.27-.42-1.9,3.5,1.39,6.08-1.9,9.32-1.81.08.6.18,1.2.29,1.79-2.5,3.36-5.58,3.94-9.2,1.92Z"/>
      <path class="cls-31" d="M641.26,1107.25c-.17-.56-.29-1.14-.35-1.72,4.17-.84,8.34-1.68,12.51-2.52.13.57.27,1.14.4,1.71l-12.57,2.53Z"/>
      <path class="cls-69" d="M752.78,1146.46c-1.79.23-3.57.46-5.36.69,1.25-1.52-1.37-4.7,1.62-5.05,2.35-.27,3.37,2.11,3.74,4.35Z"/>
      <path class="cls-53" d="M958.94,1043.36c3.61-.73,7.23-1.46,10.84-2.19.12.55.25,1.11.37,1.66l-10.88,2.19c-.62-.26-.87-.59-.77-1,.11-.41.25-.63.43-.66Z"/>
      <path class="cls-22" d="M894.71,1186.73c-2.09-4.14-3.02-6.85.09-11.21-.03,4.25-.06,6.99-.09,11.21Z"/>
      <path class="cls-3" d="M666.43,1155.29c-5.33,1.81-8.12,3.06-11.7,2.23,3.05-2.42,6.21-2.39,11.7-2.23Z"/>
      <path class="cls-2" d="M901.79,1168.5c.41,2.96.83,5.91,1.24,8.87-2.96-2.35-2.92-5.66-2.83-8.96,0-.11.51-.31.77-.29.28.02.55.25.82.38Z"/>
      <path class="cls-2" d="M904.21,1115.53c-1.74.47-3.48.93-5.21,1.39-.39-1.86-.65-4.22,1.36-4.69.97-.23,2.55,2.11,3.85,3.29Z"/>
      <path class="cls-15" d="M958.94,1043.36c.21.54.32,1.09.34,1.67-3.64.72-7.28,1.44-10.93,2.16-.17-.52-.27-1.05-.32-1.59,3.64-.75,7.27-1.49,10.91-2.24Z"/>
      <path class="cls-7" d="M994.55,1089.5c-4.06,1.2-6.34,2.35-9.06,1.14,2.57-1.68,5.08-2.52,9.06-1.14Z"/>
      <path class="cls-9" d="M779.77,1199c-1.66-1.74-1.91-3.7-1.27-6.43,1.75,2.18,2.42,4.04,1.27,6.43Z"/>
      <path class="cls-12" d="M832.67,1180.62l6.13-1.24c.07.29.14.58.21.88-2.09.56-4.19,1.12-6.28,1.68-.02-.44-.04-.88-.06-1.32Z"/>
      <path class="cls-5" d="M892.06,1154.46c1.58,1.69,2.01,3.56,1.31,6.25-1.89-2.06-2.22-3.95-1.31-6.25Z"/>
      <path class="cls-18" d="M1192.27,1105.97c2.55,12.66,5.11,25.33,7.66,37.99l-.69.16c-2.55-12.66-5.11-25.33-7.66-37.99.23-.05.46-.11.69-.16Z"/>
      <path class="cls-62" d="M1080.58,1235.9c1.85,16.12,13.3,7.45,20.93,8.59-4.94,1.53-9.9,3-14.81,4.62-2.47.81-3.47-.45-3.92-2.47-.8-3.56-1.47-7.16-2.19-10.74Z"/>
      <path class="cls-18" d="M1165.69,1102.13c8.63-1.74,17.27-3.48,25.9-5.22.07.4.14.8.22,1.2-8.71,1.76-17.42,3.51-26.12,5.27,0-.41,0-.83,0-1.24Z"/>
      <path class="cls-18" d="M1205.38,1165.97c-.95-4.72-1.9-9.44-2.85-14.16.31-.06.63-.13.94-.19.96,4.77,1.92,9.54,2.88,14.31-.33.01-.65.03-.98.04Z"/>
      <path class="cls-18" d="M1211.42,1186.37c-.86-4.25-1.71-8.49-2.57-12.74.31-.06.61-.13.92-.19.86,4.25,1.71,8.49,2.57,12.74-.31.06-.61.13-.92.19Z"/>
      <path class="cls-20" d="M1130.62,1112.41c3.57-.72,7.13-1.44,10.7-2.16-3.32,2.22-6.62,4.75-10.69,2.15h0Z"/>
      <path class="cls-16" d="M1082.95,1231.31c-2.55-3.61-2.81-5.96-2.62-8.81,2.86,1.84,1.98,4.53,2.62,8.81Z"/>
      <path class="cls-60" d="M1158.91,1105.72c-2.57,1.77-4.4,2.32-6.58,1.38,1.62-1.78,3.55-1.91,6.58-1.38Z"/>
      <path class="cls-21" d="M503.87,1236.86c-6.75,1.36-13.46,2.9-20.25,4.02-4.33.72-7.61,2.04-7.16,7.53-1.81-8.08,12.44-13.82,27.4-11.53,0,0,0-.02,0-.02Z"/>
      <path class="cls-21" d="M480.14,1255.27c2.06,10.23,4.12,20.45,6.19,30.68-.24.06-.47.11-.71.17-2.06-10.23-4.12-20.46-6.19-30.69.24-.05.48-.11.71-.16Z"/>
      <path class="cls-21" d="M486.33,1294.62c.94,4.66,1.88,9.32,2.82,13.98-.31.07-.63.14-.94.21-.94-4.66-1.88-9.32-2.82-13.98.31-.07.63-.14.94-.2Z"/>
      <path class="cls-21" d="M536.27,1231.84c.44-.2.85-.15,1.23.14-3.94,4.78-9.61,2.92-14.69,3.36,4.49-1.17,8.97-2.34,13.46-3.5Z"/>
      <path class="cls-54" d="M613.73,1342.04c5.85-1.18,9.29-1.87,12.74-2.57-3.4,2.42-7.03,3.42-12.74,2.57Z"/>
      <path class="cls-21" d="M503.86,1236.87l12.51-2.52c-3.95,2.21-7.8,5.03-12.5,2.51,0,0,0,.02,0,.02Z"/>
      <path class="cls-54" d="M632.02,1340.59c-.39-3.42-.79-6.85-1.18-10.27,2.06,3.22,3.57,6.5,1.18,10.27Z"/>
      <path class="cls-46" d="M490.54,1327.61c-1.87-2.61-2.51-5.48-2.19-9.66,2.32,3.54,2.45,6.56,2.19,9.66Z"/>
      <path class="cls-54" d="M628.06,1322.95c-1.9-2.6-2.52-5.47-2.2-9.65,2.34,3.54,2.47,6.55,2.2,9.65Z"/>
      <path class="cls-61" d="M594.98,1345.29c-.14-.6-.26-1.19-.37-1.8,3.58-.72,7.16-1.44,10.73-2.16l.42,1.79c-3.59.72-7.19,1.45-10.78,2.17Z"/>
      <path class="cls-54" d="M620.78,1301.68c-2.84-1.61-3.19-4.13-2.63-7.38,2.54,2.14,1.72,5.08,2.62,7.4v-.02Z"/>
      <path class="cls-54" d="M620.76,1301.7c2.85,1.61,3.19,4.13,2.63,7.39-2.53-2.14-1.73-5.08-2.62-7.41,0,0-.01.02-.01.02Z"/>
      <path class="cls-30" d="M725.96,498.25c-17.8,3.58-35.6,7.17-53.4,10.75-.74-.22-1.04-.53-.89-.94.15-.4.34-.62.56-.67,17.8-3.59,35.59-7.18,53.39-10.78.75.22,1.05.54.9.95-.15.41-.34.64-.57.68Z"/>
      <path class="cls-13" d="M725.96,498.25c-.06-.56-.17-1.1-.33-1.63,10.29-6.37,22.41-3.75,33.38-6.81.67.28.95.64.83,1.07-.12.44-.27.67-.47.71-11.14,2.22-22.27,4.44-33.41,6.65Z"/>
      <path class="cls-14" d="M672.24,507.4c.06.55.17,1.08.32,1.61-11.12,2.27-22.25,4.53-33.37,6.8-.66-.27-.94-.62-.82-1.05.12-.43.27-.66.47-.7,11.14-2.22,22.27-4.44,33.41-6.66Z"/>
      <path class="cls-33" d="M598.64,523.82c-7.32,1.48-14.65,2.95-21.97,4.43-.1-.48-.21-.96-.31-1.44,7.33-1.48,14.66-2.96,21.99-4.43.61.21.86.49.74.85-.12.36-.27.55-.45.59Z"/>
      <path class="cls-19" d="M598.64,523.82c-.14-.47-.24-.95-.29-1.45,7.95-1.62,15.9-3.23,23.85-4.85.72.21,1.01.5.86.88-.15.38-.33.59-.55.64-7.96,1.59-15.91,3.18-23.87,4.77Z"/>
      <path class="cls-19" d="M775.7,486.58c7.96-1.59,15.91-3.18,23.87-4.77.74.19,1.03.46.87.83-.16.37-.35.57-.58.62-7.95,1.62-15.9,3.24-23.86,4.86-.72-.21-1.01-.51-.86-.89.15-.38.33-.6.55-.64Z"/>
      <path class="cls-28" d="M799.86,483.26c-.05-.49-.15-.98-.29-1.45,7.32-1.47,14.64-2.95,21.96-4.43.11.48.21.96.32,1.45-7.33,1.48-14.66,2.95-21.98,4.43Z"/>
      <path class="cls-37" d="M775.7,486.58c.06.52.16,1.04.31,1.54-5.55,1.16-11.09,2.32-16.64,3.48-.16-.59-.28-1.19-.36-1.79,5.56-1.08,11.13-2.16,16.69-3.23Z"/>
      <path class="cls-37" d="M622.51,519.05c-.06-.52-.16-1.03-.31-1.52,5.54-1.16,11.09-2.31,16.63-3.47.16.58.27,1.16.35,1.75-5.56,1.08-11.12,2.16-16.68,3.24Z"/>
      <path class="cls-10" d="M834.19,464.95c-2.32-1.33-1.87-3.42-2.29-5.78,3.13,1.47,1.82,3.84,2.29,5.78Z"/>
      <path class="cls-8" d="M558.87,512.55c1.59,1.76,1.98,3.67,1.24,6.36-1.82-2.11-2.36-3.99-1.24-6.36Z"/>
      <path class="cls-23" d="M688.53,428.04c1.74-1.64,3.63-2.15,6.38-1.34-2.04,2.08-4,2.28-6.38,1.34Z"/>
      <path class="cls-26" d="M679.87,429.86c-1.75,1.63-3.64,2.16-6.38,1.36,2.03-2.07,3.99-2.29,6.38-1.36Z"/>
      <path class="cls-63" d="M447.69,558.4c-17.05,18.66-20.42,42.14-23.27,65.82-.3,2.48-.82,4.94-1.09,7.42-3.18,30.15-19.31,48.36-49.21,54.93-12.82,2.82-25.21,7.54-37.82,11.33-2.47.74-5.63,1.41-5.06,4.42.67,3.49,4,2.08,6.28,1.6,21.2-4.55,41.85-11.07,61.77-19.5,13.46-5.69,21.04-17.33,25.74-30.87,5.49-15.8,6.37-32.47,9.25-48.77,2.71-15.31,6.61-30.05,19.39-40.61,2.93-2.42,5.73-4.87,9.61-5.57,17.27,2.34,34.61,4.29,51.41,9.24,7.02,2.07,13.91,5.03,18.78,10.28,18.52,19.91,41.71,22.06,67.09,20.82,36.71-1.8,69.82-15.06,103.14-28.4,13.44-5.38,27.8-3.8,41.74-3.88,36.11-.2,70.76-7.02,103.48-22.14,12.37-5.72,22.71-15.33,27.9-28.1,6.22-15.33,16.81-26.12,30.13-34.75,10.18-6.61,20.78-12.57,31.2-18.82,15.46-.08,26.62,7.99,35.84,19.29,8.92,10.94,15.36,23.53,22.84,35.43,4.33,6.9,8.89,13.62,14.53,19.52,11.15,11.65,24.35,18.19,40.99,17.03,19.06-1.33,38.15-2.16,56.96-5.83,2.55-.5,6.82-.22,5.98-4.12-.73-3.4-4.52-2.15-7.31-1.88-18.08,1.76-36.16,3.57-54.26,5.08-14.3,1.19-26.38-3.78-36.39-14.04-6.83-7-12.34-14.99-17.17-23.38-12.19-21.16-24.32-42.28-47.77-53.33,20.66-8.82,42.55-14.08,63.66-21.65,13.27-4.76,28.07-5.33,41.75-9.8,5.05-1.65,4.11,2.07,4.73,5.12,4.89,24.1,6.8,49.06,20.1,70.8,2.41,3.93,3.18,6.34,10.02,4.41,12.61-3.58,15.23-6.07,20.11,9.22,4.03,12.64,5.92,25.65,6.88,38.72,1.29,17.53,4.61,34.74,7.17,52.06.77,5.2-.85,7.25-5.18,9.05-15.9,6.6-30.51,15.38-43.68,26.5-2.04,1.65-4.44,2.05-7,2.33-53.29,5.66-108.53,48.61-119.17,111.79-3.34,19.83-5.38,39.76-6.64,59.79-1.48,23.67-6.67,46.45-15.25,68.51-16.32,6.14-32.3,13.49-49.06,17.99-11.25,3.03-23.89,1.75-34.62-3.68-11.9-6.03-23.44-12.87-33.27-22.4-6.72-6.52-16.08-3.11-24.2-3.25-16-.28-30.51,5.71-44.75,12.43-2.47,1.17-4.63,2.51-5.27,4.89-2.78,10.35-10.03,18.05-15.92,26.37-12.45,17.61-29.44,27.08-51.77,25.65-12.46-.8-24.75,3.52-37.31,1.83-18.61-18.62-32.34-40.56-44.08-63.96-10.97-21.85-22.08-43.67-38.34-62.28-28.36-32.47-65.19-45.3-107.23-45.75-11.68-.12-23.13,1.56-34.19,5.49-2.12.75-4.21,1.25-6.4.34-16.46-5.21-33.37-7.56-50.6-7.63-3.99-.02-6.84-.22-8.13-5.31-6.93-27.31-14.35-54.49-21.54-81.73-.64-2.41-1.1-4.93-1.19-7.41-.51-14.23,2.4-17.72,16.91-17.42,4.94.1,4.79-1.47,5.29-4.98,1.86-13.09,2.33-26.05-.68-39.07-2.97-12.81-3.76-26.15-8.42-38.53-1.92-5.1,1.79-4.71,4-4.94,22.91-2.44,45.23-9.01,68.53-8.98,13.35.02,26.6-3.18,40.06-2.74Z"/>
      <path class="cls-63" d="M627,942.6c-19.77-.08-39.02,4.68-58.62,6.27-7.29.59-11.83-3.65-16.28-7.87-17.13-16.23-29-36.47-42.13-55.78-21.05-30.98-38.28-65.05-70.02-87.53-8.13-5.76-16.08-11.76-24.12-17.65,6.12-6.14,14.47-6.28,21.94-6.48,50.98-1.31,93.42,15.81,123.17,59.02,10.34,15.03,18.87,31.14,26.85,47.46,9.3,19.01,20.48,36.64,33.78,53.04,2.29,2.82,5.61,5.23,5.43,9.52Z"/>
      <path class="cls-63" d="M1067.52,648.69c-8.99,16.36-20.04,31.58-26.77,49.19-4.89,12.8-8.76,25.71-11.17,39.32-6.21,35.16-11.46,70.54-21.92,104.85-4.21,13.8-12.38,22.49-26.81,25.17-15.37,2.86-30.28,7.44-44.86,13.05-1.44-2.48-.5-4.94.28-7.26,8.74-26.16,10.59-53.36,12.75-80.58,2.11-26.63,5.22-53.3,18.77-77.08,19.93-34.97,49.59-57.53,88.86-67.07,3.54-.86,7.34-2.21,10.86.41Z"/>
      <path class="cls-25" d="M1067.52,648.69c-55.93,8.4-99.53,49.85-110.78,105.47-4.96,24.54-5.63,49.57-8.17,74.38-1.83,17.79-6.26,35-12.58,51.73-1.01,3.04-3.66,2.93-6.12,3.19-1.49-2.02-1.13-4.33-.35-6.31,11.16-28.46,12.68-58.5,15.13-88.46,2.63-32.11,7.92-63.67,28.11-90.27,22.43-29.56,51.76-48.68,88.3-56.38,5.61-1.18,11.22-1.07,16.87-.99-.71,6.3-5.82,6.61-10.41,7.64Z"/>
      <path class="cls-34" d="M627,942.6c-20.63-20.69-33.96-46.12-46.99-71.79-9.2-18.12-18.56-36.35-32.59-51.23-36.12-38.3-80.3-51-131.58-39.54-4.39.2-9.62,3.95-12.37-2.89,48.15-21.31,117.15-2.43,152.84,41.82,16.62,20.61,28.01,44.34,39.96,67.67,8.91,17.39,19.82,33.26,32.75,47.82,2.32,2.61,4.65,5.09,4.7,8.85-2.33.66-4.7,1.64-6.71-.71Z"/>
      <path class="cls-40" d="M315.68,903.74c-2.51-5.54-.48-9.32,4.51-13.21,12.08-9.43,23.74-19.41,35.25-29.53,4.9-4.31,10.97-5.86,16.54-8.56,4.46-2.16,7.17.19,9.74,4.34,17.59,28.39,34.36,57.4,53.63,84.63,21.19,29.95,41.53,61.22,74.17,80.89,4.69,2.82,4.81,6.34,1.32,10.02-12.83,13.52-24.79,27.91-41.81,36.87-10.53,5.54-19.76,5.06-30.07-.77-17.89-10.1-30.61-25.48-43.81-40.42-22.61-25.61-43.45-52.49-57.86-83.76-4.08-8.86-9.62-16.8-14.97-24.87-3.14-4.73-6.16-9.46-6.62-15.63Z"/>
      <path class="cls-40" d="M1208.05,724.45c1.3,4.04,1.54,7.8.59,11.5-6.65,25.85-4.57,52.95-10.6,78.72-7.88,33.69-16.46,67.46-32.78,98.34-11.94,22.6-22.89,26-48,20.64-13.43-2.87-24.62-10.37-37.38-14.4-6.68-2.11-7.95-6.37-3.59-12.98,10.72-16.25,18.21-33.88,23.59-52.8,11.07-38.96,18.03-78.62,23.76-118.59,1.42-9.87,4.95-19.34,4.98-29.51.01-5.45,4.16-6.96,9.15-7.22,12.19-.64,23.42,3.51,34.78,6.79,8.7,2.51,17.07,6.3,25.85,8.39,6.67,1.59,9.76,4.9,9.64,11.13Z"/>
    </g>
    <circle class="cls-71" cx="807.3" cy="807.3" r="791.5"/>
    <path class="cls-1" d="M1405.2,558.1c-65.96,154.87-226.42,264.2-413.9,264.2-246.32,0-446-188.71-446-421.5,0-65.13,15.63-126.8,43.54-181.86-259.94,90.35-446.54,337.78-446.54,628.86,0,367.55,297.51,665.5,664.5,665.5s664.5-297.95,664.5-665.5c0-103.84-23.75-202.12-66.1-289.7Z"/>
    <g class="cls-70">
      <path class="cls-64" d="M155.8,1241c269.55,2.21,548.84-108.14,780.43-240.1,89.66-51.73,175.92-109.5,256.76-174.14,80.13-64.41,156.39-135.39,217.92-217.95,19.99-27.32,38.23-55.85,52.56-86.47,13.56-29.38,23.99-61.46,23.52-93.54,0,0,31.6,0,31.6,0-2.65,73.71-44.23,138.81-86.86,195.68-86.35,110.57-195.43,200.76-309.07,281.84-199.64,139.79-420.67,251.62-655.66,317.89-101.47,27.96-205.41,46.51-311.21,48.38,0,0,0-31.6,0-31.6h0Z"/>
      <path class="cls-64" d="M1087.23,1038.19c106.79-77.05,212.51-157.59,305.63-250.72,58.19-58.82,129.88-137.8,149.35-219.49,2.14-9.82,3.54-20.21,3.48-30.18,0,0,26.22,0,26.22,0-.2,19.98-3.96,39.51-9.94,58.46-4.69,14.63-10.71,29.07-17.44,42.88-83.1,164.7-273.09,309.88-434.27,394.27-6.58,3.43-13.23,6.74-19.89,10,0,0-3.14-5.22-3.14-5.22h0Z"/>
    </g>
    <g class="cls-70">
      <path class="cls-64" d="M225.8,1328.8c153.54-5.37,304.48-42.83,449.09-93.9,48.53-17.12,96.6-36.14,144-56.26,63.36-26.94,125.78-56.42,187.84-87.24-201.74,134.99-432.52,236.75-675.57,263.53-34.96,3.35-70.17,5.03-105.36,3.88,0,0,0-30,0-30h0Z"/>
    </g>
  </g>
</svg>