<?xml version="1.0" encoding="UTF-8"?>
<svg id="Layer_2" data-name="Layer 2" xmlns="http://www.w3.org/2000/svg" viewBox="0 0 1614.6 1614.6">
  <defs>
    <style>
      .cls-1 {
        fill: #f2f2f2;
        opacity: .32;
      }

      .cls-1, .cls-2, .cls-3, .cls-4, .cls-5, .cls-6, .cls-7, .cls-8, .cls-9, .cls-10, .cls-11, .cls-12, .cls-13 {
        stroke-width: 0px;
      }

      .cls-14 {
        opacity: .58;
      }

      .cls-15 {
        fill: none;
        opacity: .73;
        stroke: #fafafa;
        stroke-miterlimit: 10;
        stroke-width: 31.6px;
      }

      .cls-3 {
        fill: #070605;
      }

      .cls-4 {
        fill: #8d731c;
      }

      .cls-5 {
        fill: #7e650e;
      }

      .cls-6 {
        fill: #7d640e;
      }

      .cls-7 {
        fill: #7d650e;
      }

      .cls-8 {
        fill: #fafafa;
      }

      .cls-9 {
        fill: #fefefe;
      }

      .cls-10 {
        fill: #f5e097;
      }

      .cls-11 {
        fill: #f4df96;
      }

      .cls-12 {
        fill: #010101;
      }

      .cls-13 {
        fill: #020201;
      }
    </style>
  </defs>
  <g id="Gacha">
    <g>
      <path class="cls-2" d="M865.57,1518.4c-46.8,9.58-94.07,18.72-141.54,8.36-36.97-8.07-72.84-21.09-106.27-39.4-8.43-4.61-13.25-3.7-20.45,2.5-19.36,16.68-41.76,28.24-67.96,27.71-40.23-.81-74.25-37.7-77.97-81.94-2.04-24.31,7.68-45.16,17.25-66.22,2.56-5.62,3.65-10.07-.7-16.16-76.65-107.31-112.83-228.81-125.05-358.59-9.2-97.74-3.16-194.65,18.06-290.39,23.7-106.95,63.04-207.68,124.48-299,4.79-7.11,3.98-11.95-.12-18.57-26.39-42.58-36.71-88.9-28.25-138.29,5.85-34.16,18.61-66.11,42.72-91.94,44.4-47.59,109.28-52.1,166.36-12.27,17.34,12.09,32.49,26.74,42.75,45.07,5,8.92,8.87,7.14,15.57,4.23,66.58-28.87,135.75-39.87,207.67-27.73,62.44,10.54,118.11,36.81,167.23,76.57,7.95,6.43,12.25,6.61,20.44-.19,40.81-33.91,87.37-45.32,139.2-31.69,42.58,11.2,76.59,56.74,83,111.69,7.68,65.78-11.46,122.57-59.38,168.75-7.87,7.58-8.68,14.01-5.43,23.92,27.57,84.09,39.83,170.58,40.26,258.98.32,66.16-5.23,131.68-18.83,196.42-34.29,163.24-100.78,309.93-221.94,428.17-11.94,11.66-24.66,22.66-37.96,32.73-7.65,5.8-9.75,11.48-8.13,20.72,4.62,26.34,5.6,52.45-8.71,76.85-20.8,35.46-57.74,53.98-92.01,43.7-27.91-8.37-47.34-28.11-61.73-52.98,0-6.44,3.98-7.14,9.04-6.28,5.98,3.24,9.12,9.15,13.05,14.26,8.98,11.64,20.29,20.59,33.08,27.36,29.27,15.5,68.42.22,86.89-33.45,8.25-15.05,12.23-30.87,10.07-48.26-1.14-9.19-2.7-18.39-2.94-27.69,1.6-5.79,4.55-11.14,5.65-17.13,8.42-13.33,22.17-21,33.39-31.35,72.91-67.27,126.67-147.93,166.77-238.1,30.15-67.79,50.48-138.37,64.04-211.42,19.9-107.2,20.57-214.25,2.29-321.32-15.14-88.69-43.33-173.31-92.06-249.55-39.11-61.19-86.83-115.08-150.44-152.34-78.91-46.22-163.27-59.99-252.52-38.24-64.8,15.79-121.48,47.11-172.85,89.65-112.87,93.47-180.4,215.31-224.38,352.34-17.35,54.07-30.27,109.31-36.47,165.66-13.84,125.91-7.45,250.32,31.34,372.08,21.78,68.38,51.94,132.47,95.53,189.47,38.77,50.7,85.47,92.99,143.96,122.4-2.12-5.66-6.04-9.1-9.23-12.97-3.27-3.96-6.11-8.19-9.02-12.4-34.85-50.38-47.79-107.12-48.83-167.37-.47-27.12,3.99-53.71,8.89-80.18,1.5-8.09-1.03-11.62-7.79-15.19-45-23.75-69.31-61.75-75.83-111.69-.6-4.58-1.48-9.27.26-13.79,1.27-3.31,3.84-5.26,7.45-5.33,3.85-.08,5.82,2.09,6.59,5.79,1.79,8.64,4.41,17.08,6.17,25.74,6.59,32.58,24.26,58.03,51.43,76.76,31.49,21.72,68.03,17.62,94.8-10.06,33.71-34.87,36.45-81.56,7.94-120.67-16.2-22.22-36.5-39.43-59.59-53.86-6.01-3.75-16.01-7.68-10.72-16.36,5.86-9.62,14.04-1.87,20.28,2.13,22.37,14.34,44.27,29.35,59.3,52.04,5.13,7.75,10.48,8.52,18.57,3.46,28.87-18.06,60.11-29.03,94.6-29.56,48.02-.74,87.63,18.57,120.75,51.82,8.97,9.01,15.48,10.4,26.01,3.16,20.05-13.78,42.36-23.26,65.94-29.33,7.46-1.92,16.2-4.53,18.98,7.17-3.58,9.73-13.15,9.09-20.7,11.5-29.08,9.3-55,23.31-77.98,44.01-44.97,40.51-26.36,115.68,15.31,140.02,17.24,10.07,36.41,10.46,55.34,5.14,32.96-9.27,57.28-29.73,73.88-59.42,5.41-9.68,11.15-19.15,16.57-28.82,13.02-1.53,11.12,7.18,8.96,14.34-4.58,15.24-12.04,29.26-22.11,41.58-18.95,23.19-42.39,40.39-71.33,48.84-10.8,3.15-13.77,8.47-14.67,19.64-7.93,98.85-43.88,183.25-127.47,242.38,1.39.9,3.93.51,5.97,1.7,3.45,2.73,6.51,5.65,5.29,10.67Z"/>
      <path class="cls-3" d="M1023.82,1429.62c3.8,6.44-.6,10.39-4.4,14.53-11.87,15.79-30.05,22.98-46.29,32.22-25.74,14.65-52.51,27.63-80.88,36.75-4.75,1.53-9.46,4.26-14.71,1.64-4.22-.65-7.31.99-9.41,4.64-.93-.14-1.78-.48-2.56-1-1.95-3.04-5.57-5.3-4.57-9.72,2.08-5.84,7.62-6.29,12.37-7.64,48.34-13.7,91.65-37.62,133.27-65.06,5.17-3.41,9.5-9.54,17.18-6.36Z"/>
      <path class="cls-11" d="M1023.82,1429.62c-10.97,3.15-18.66,11.58-27.85,17.55-41.95,27.26-86.95,47.66-134.98,61.51-6.12-.82-12.16,4.6-18.76.25,73.89-44.99,110.88-114.07,129.9-195.18,4.37-18.64,6.66-37.44,5.92-56.48-.38-9.69,3.11-12.89,12.56-15.38,47.88-12.62,79.12-43.99,96.61-89.62,2.08-5.42,4.64-12.62-6.28-11.89-10.5-16.27-17.08-34.32-22.87-52.57-7.03-22.16-16.39-43.05-30.12-61.86-3.99-5.46-7.84-6.44-10.43,1.27-2.02-7.19-6.37-6.67-12.63-5.12-27.81,6.86-53.79,17.68-76.62,35.03-6.59,5.01-9.96,4.93-15.78-1.24-63.89-67.72-145.57-77.19-223.37-25.82-6.96,4.6-9.54,3.65-13.9-2.62-18.09-25.99-42.01-45.52-69.71-60.57-3.31-1.8-7.02-6.25-10.17.02-2.86,5.71,2.27,6.93,5.66,8.89,32.49,18.85,59.32,43.16,77.87,76.49,26.82,48.18-7.82,121.96-64.23,131.92-28.32,5-52.25-8.7-72.23-27.98-20.45-19.74-34.04-43.65-36.89-72.34-.73-7.33-9.35-12.43-4.84-20.86,1.07-2-1.36-2.95-3.28-3.08-2.89-.19-4.78,2.1-4.75,4.11.09,5.96.75,11.95,1.61,17.87,7.21,49.63,33.1,85.79,78.9,106.65,8.7,3.96,5.9,8.57,4.64,14.32-13.13,59.48-13.61,118.6,4.69,177.29,10.78,34.58,27.21,65.93,51.49,93,2.48,2.76,4.96,5.52,7.28,8.41.48.59.27,1.73.5,3.6-13.52-3.22-24.53-10.75-35.67-17.56-86.56-52.94-145.17-129.89-186.75-220.65-42.64-93.07-63.1-191.49-67.77-293.52-3.76-82,1.97-163.25,19.85-243.32,32.9-147.28,92.52-281.6,198.18-391.97,67.43-70.43,146.38-123.32,244.43-139.94,130.09-22.05,236.95,22.92,325.51,117.88,90.99,97.56,134.81,216.22,155.97,345.03,15.19,92.51,14.73,185.45.58,277.87-21.49,140.35-69.01,270.82-153.34,386.56-34.07,46.76-74.26,87.5-118.9,124.06Z"/>
      <path class="cls-9" d="M966.07,1289.41c-11.54,76.09-39.78,140.38-96.61,189.21-40.13,34.48-86.4,51.71-140.14,41.11-50.74-10.01-86.24-41.29-112.13-84.03-30.64-50.56-41.58-106.08-39.13-164.93.97-23.38,3.76-46.16,9.79-68.67,1.11-4.14,1.19-7.36,7.41-7.48,48.6-.93,79.39-23.27,96.39-68.39,9.64-25.59,9.87-50.72-2.12-75.43-2.6-5.37-3.34-8.21,2.16-12.42,66.52-50.91,161.13-40.49,215.31,23.69,4.91,5.81,5,8.67-.62,14.15-46.99,45.79-26.48,130.31,21.32,158.68,10.37,6.16,21.22,9.26,32.87,9.85,7.47.38,9.42,3.55,8.61,10.51-1.45,12.45-2.31,24.98-3.12,34.16Z"/>
      <path class="cls-10" d="M1017.52,1027.22c2.32-3.14-3.05-8.98,3.08-10.37,4.67-1.06,7.39,2.94,9.88,6.34,10.94,14.95,20.34,31.02,25.55,48.65,6.92,23.42,18.69,44.95,24.92,68.54,5.09,10.54-6.31,14.46-9.49,21.42-15.62,34.22-41.89,57.55-78.3,68.7-38.46,11.78-74.49-2.85-91.05-39.47-24.9-55.06-12.09-94.38,35.58-128.09,21.04-14.88,44.63-23.86,69.04-31.09,3.84-1.14,8.14-.86,10.79-4.63Z"/>
      <path class="cls-11" d="M497.94,385.04c-19.88-28.12-29.65-59.4-32.11-92.92-3.12-42.55,8.41-81.77,32.49-116.49,39.25-56.6,113.5-63.08,170.48-16,11.47,9.48,21.39,20.43,30.05,32.59,4.4,6.17,5.93,9.05-2.71,13.96-68.76,39.08-156.53,112.7-198.2,178.85Z"/>
      <path class="cls-11" d="M1117.59,257.66c29.93-26.58,63.09-42.6,103.51-41.78,48.91.99,85.34,26.73,102,73.49,23.31,65.4,3.11,146.82-47.81,193.99-6.02,5.57-7.96,5.07-10.64-2.81-27.13-79.65-74.5-146.35-132.71-206.07-5.14-5.27-9.6-11.21-14.35-16.81Z"/>
      <path class="cls-11" d="M479.25,1368.54c23.76,29.9,49.47,55.54,77.91,78.34,10.31,8.27,21.14,15.98,32.25,23.14,6.19,3.98,7.31,6.32,1.66,12.07-21.17,21.55-63.13,31.91-86.4,19.94-28.55-14.69-47.48-55.27-42.8-82.15,3.05-17.51,8.73-33.62,17.38-51.34Z"/>
      <path class="cls-11" d="M877.54,1514.77c50.95-16.2,97.57-41.1,141.89-70.62,7.89,32.32,9.23,64.04-14.5,90.84-37.43,42.28-76.72,39.55-114.82-2.14-4.91-5.37-8.42-12.02-12.57-18.08Z"/>
      <path class="cls-12" d="M826.71,815.51c-36.87-5.89-72.2-16.19-103.71-37.06-13.27-8.79-24.86-19.36-33.05-33.26-13.44-22.8-9.98-47.77,9.75-65.36,24.75-22.07,55.32-28.72,87.16-31.44,53.95-4.62,105.14,5.01,153.17,30.29,15.71,8.27,29.76,18.72,40.8,32.82,22.53,28.78,17.49,60.71-12.96,81.43-24.55,16.7-52.67,22.31-81.46,24.51-19.85,1.51-39.86,1.21-59.7-1.94Z"/>
      <path class="cls-12" d="M1126.32,542.61c-5.45,25.89-11.92,50.94-30.25,70.92-21.97,23.94-49.31,20.37-64.29-8.67-12.66-24.55-12.99-51.04-9.33-77.42,3.2-23.07,10-45.37,24.89-64.06,10.13-12.71,22.08-23.34,40-20.46,17.11,2.75,25.44,15.62,31.58,30.27,9.43,22.51,8.81,46.07,7.4,69.42Z"/>
      <path class="cls-13" d="M619.91,474.04c3.41-26.92,11.37-50.39,28.28-69.95,22.34-25.83,50.59-22.03,65.64,8.45,20.16,40.83,10.91,110.52-19.18,144.5-22.75,25.69-52.25,21.65-66.67-9.75-10.97-23.88-12.04-49.18-8.08-73.25Z"/>
      <path class="cls-5" d="M521.56,262.93c2.43-16.37,5.19-30.49,13.34-43.69,23.69-38.34,50.7-26.51,73.59-6.53,13.08,11.42,11.68,12.18-2.32,22.47-18.74,13.77-35.29,29.98-48.09,49.51-6.98,10.66-18.06,16.94-26.18,26.46-4.72,5.53-7.61-2.22-9.09-5.98-5.7-14.44-2.54-29.25-1.25-42.24Z"/>
      <path class="cls-5" d="M1277.35,365.42c-1.24,14.46-4.91,28.31-12.42,40.75-3.74,6.2-6.51,9.16-13.28-.11-12.27-16.81-17.46-36.57-27.01-54.4-7.27-13.57-14.79-26.85-25.1-38.1-7.32-8-5.59-11.66,3.06-16.4,35.32-19.34,64.3-14.99,73.96,27.04,3.18,13.83,3.42,27.44.79,41.24Z"/>
      <path class="cls-9" d="M801.46,660.8c-23.29,21.51-27.95,36.08-17.71,56.16,4.97,9.75,12.62,17.08,21.96,22.68,17.31,10.38,36.09,14.27,55.98,11.48,45.71-6.41,60.69-38.07,35.79-78.18,29.25,9.9,55.5,22.37,74.59,45.97,17.55,21.69,14.24,46.15-8.31,62.67-21.53,15.77-46.68,21.3-72.76,23.64-55.87,5.01-108.54-5.02-157.16-33.62-12.44-7.31-23.57-16.46-31.78-28.52-13.13-19.27-11.08-38.79,5.43-55.05,17.83-17.58,68.65-32.3,93.98-27.23Z"/>
      <path class="cls-6" d="M850.92,663.87c17.23,4.51,33.59,10.3,43.75,26.65,8.52,13.7,6.71,26.49-5.68,36.97-25.12,21.25-71.27,16.1-91.13-10.17-12.35-16.34-8.94-34.41,8.67-44.9,13.69-8.15,28.82-9.23,44.39-8.56Z"/>
      <path class="cls-7" d="M1114.34,545.19c-4.2,18.14-9.69,39.67-24.15,57.56-17.53,21.7-37.86,19.18-49.59-6.1-17.01-36.66-7.67-100.52,19.02-130.1,17.45-19.34,35.57-16.68,46.88,6.88,8.39,17.5,11.65,44.09,7.83,71.76Z"/>
      <path class="cls-7" d="M631.47,474.62c2.24-21.62,9.03-41.66,22.15-59.07,7.06-9.37,15.69-18.15,28.74-16.54,13.15,1.63,19.83,12.34,23.43,23.34,14.46,44.11,9.06,86.28-17.66,124.28-16.82,23.9-39.48,20.43-50.73-6.5-8.82-21.09-9.71-43.15-5.93-65.51Z"/>
      <path class="cls-4" d="M526.87,275.42l2.51-18.29c.47.05.93.1,1.4.15-.84,6.1-1.67,12.2-2.51,18.3-.47-.06-.93-.11-1.4-.17Z"/>
    </g>
    <circle class="cls-15" cx="807.3" cy="807.3" r="791.5"/>
    <path class="cls-1" d="M1405.2,558.1c-65.96,154.87-226.42,264.2-413.9,264.2-246.32,0-446-188.71-446-421.5,0-65.13,15.63-126.8,43.54-181.86-259.94,90.35-446.54,337.78-446.54,628.86,0,367.55,297.51,665.5,664.5,665.5s664.5-297.95,664.5-665.5c0-103.84-23.75-202.12-66.1-289.7Z"/>
    <g class="cls-14">
      <path class="cls-8" d="M155.8,1241c269.55,2.21,548.84-108.14,780.43-240.1,89.66-51.73,175.92-109.5,256.76-174.14,80.13-64.41,156.39-135.39,217.92-217.95,19.99-27.32,38.23-55.85,52.56-86.47,13.56-29.38,23.99-61.46,23.52-93.54,0,0,31.6,0,31.6,0-2.65,73.71-44.23,138.81-86.86,195.68-86.35,110.57-195.43,200.76-309.07,281.84-199.64,139.79-420.67,251.62-655.66,317.89-101.47,27.96-205.41,46.51-311.21,48.38,0,0,0-31.6,0-31.6h0Z"/>
      <path class="cls-8" d="M1087.23,1038.19c106.79-77.05,212.51-157.59,305.63-250.72,58.19-58.82,129.88-137.8,149.35-219.49,2.14-9.82,3.54-20.21,3.48-30.18,0,0,26.22,0,26.22,0-.2,19.98-3.96,39.51-9.94,58.46-4.69,14.63-10.71,29.07-17.44,42.88-83.1,164.7-273.09,309.88-434.27,394.27-6.58,3.43-13.23,6.74-19.89,10,0,0-3.14-5.22-3.14-5.22h0Z"/>
    </g>
    <g class="cls-14">
      <path class="cls-8" d="M225.8,1328.8c153.54-5.37,304.48-42.83,449.09-93.9,48.53-17.12,96.6-36.14,144-56.26,63.36-26.94,125.78-56.42,187.84-87.24-201.74,134.99-432.52,236.75-675.57,263.53-34.96,3.35-70.17,5.03-105.36,3.88,0,0,0-30,0-30h0Z"/>
    </g>
  </g>
</svg>