<?xml version="1.0" encoding="UTF-8"?>
<svg id="Layer_2" data-name="Layer 2" xmlns="http://www.w3.org/2000/svg" viewBox="0 0 1614.6 1614.6">
  <defs>
    <style>
      .cls-1 {
        fill: #f2f2f2;
        opacity: .32;
      }

      .cls-1, .cls-2, .cls-3, .cls-4, .cls-5, .cls-6, .cls-7, .cls-8, .cls-9, .cls-10, .cls-11, .cls-12, .cls-13, .cls-14, .cls-15, .cls-16, .cls-17 {
        stroke-width: 0px;
      }

      .cls-18 {
        opacity: .58;
      }

      .cls-19 {
        fill: none;
        opacity: .73;
        stroke: #fafafa;
        stroke-miterlimit: 10;
        stroke-width: 31.6px;
      }

      .cls-3 {
        fill: #4bad07;
      }

      .cls-4 {
        fill: #57d401;
      }

      .cls-5 {
        fill: #464a44;
      }

      .cls-6 {
        fill: #1b4200;
      }

      .cls-7 {
        fill: #212121;
      }

      .cls-8 {
        fill: #202020;
      }

      .cls-9 {
        fill: #a6fa6e;
      }

      .cls-10 {
        fill: #d3d3d3;
      }

      .cls-11 {
        fill: #66fd01;
      }

      .cls-12 {
        fill: #fafafa;
      }

      .cls-13 {
        fill: #fefefd;
      }

      .cls-14 {
        fill: #010200;
      }

      .cls-15 {
        fill: #010101;
      }

      .cls-16 {
        fill: #010100;
      }

      .cls-17 {
        fill: #67fd01;
      }
    </style>
  </defs>
  <g id="Gacha">
    <g>
      <path class="cls-2" d="M1398.76,1227.4c-42.16,71.09-92.82,135.11-157.38,187.33-115.98,93.81-248.21,144.87-397.56,153.03-278.76,15.23-538.91-144.07-644.48-399.35-69.47-167.98-65.13-336.46,8.07-502.93,4.64-10.56,6.05-18.48-.77-29.47-13.8-22.25-17.28-48.53-19.91-73.88-3.26-31.41-4.24-63.09-2.48-94.92,3.13-56.62,72.45-97.18,119.29-77.83,24.43,10.09,47.55,22.51,69.23,37.12,8.79,5.93,12.6,6.1,20.44-.25,67.03-54.29,141.83-94.07,224.53-119.05,146.14-44.13,291.02-40.97,434.49,11.36,13.37,4.88,19.38,4.77,27.45-9.58,20.56-36.56,52.15-62.08,92.24-75.52,39.35-13.19,79.8,2.49,102.01,37.21,31.04,48.53,35.13,101.57,27.66,156.76-.4,2.96-.8,5.95-1.63,8.81-7.07,24.38-.69,42.82,16.99,62.64,104.75,117.42,158.07,255.94,161.15,413.09,1.36,69.59-9.78,137.81-31.69,204.09-1.67,5.06-2.82,10.29-4.22,15.43-7.36,35.19-21.37,67.37-43.43,95.91Z"/>
      <path class="cls-10" d="M1398.76,1227.4c14.48-31.97,28.95-63.94,43.43-95.91.46,38.72-14.13,70.64-43.43,95.91Z"/>
      <path class="cls-17" d="M168.87,997.46c-19.28-210.71,48.17-389.12,202.59-533.91,86.43-81.05,189.12-134.05,304.82-157.53,199.23-40.44,382-1.91,544.94,122.76,109.17,83.53,183.12,191.62,219.42,323.17,50.5,183.01,21.29,355.42-83.47,513.71-84.66,127.92-202.52,214.21-348.61,258.76-193.54,59.01-378.66,35.49-550.72-71.65-131.37-81.81-219.52-198.75-266.53-346.2-11.28-35.37-18.42-71.81-22.43-109.1Z"/>
      <path class="cls-17" d="M1283.27,349.94c5.32,32.86-.09,63.71-.28,94.57-.08,12.98-6.43,8.68-13.26,3.84-34.49-24.44-65.67-53.32-102.34-74.91-23.6-13.89-47.13-27.78-72.72-37.62-9.52-3.66-13.96-6.98-6.97-17.29,24.48-36.11,55.09-64.3,98.28-75.62,29.05-7.61,63.09,10.63,75.86,38.05,10.58,22.72,21.07,45.28,21.45,68.98Z"/>
      <path class="cls-11" d="M220.36,628.58c-23.23-51.78-23.68-104.2-23.47-156.68.11-28.85,51.44-79.84,90.04-69.34,28.22,7.68,51.27,21.42,74.07,37.8,8.14,5.85,5.27,9.74-.29,15.18-33.29,32.53-65.92,65.66-95.84,101.41-17.68,21.11-30.55,45.08-44.51,71.64Z"/>
      <path class="cls-15" d="M606.05,879.7c5.2,66.21-11.88,129.3-63.04,179.73-73.23,72.17-186.83,70.73-259.82-1.87-76.45-76.05-90.57-199.26-32.87-286.85,81.55-123.79,252.95-114.98,326.5,16.82,15.32,27.45,24.67,56.88,29.24,92.17Z"/>
      <path class="cls-15" d="M1308.42,843.54c-5,88.15-97.88,136.15-174.79,106.94-47.19-17.92-78.74-64.27-75.24-110.93,3.79-50.53,41.28-93.78,91.01-105.01,13.22-6.06,26.97-7.63,41.23-4.78,56.05,1.98,93.1,30.35,113.63,81.67,4.69,10.27,6.91,20.86,4.16,32.1Z"/>
      <path class="cls-14" d="M854.24,1323.37c-63.12,7.97-124.49,2.16-180.72-29.89-83.8-47.77-92.22-134.12-20.16-198.43,37.59-33.54,82.46-53.03,130.94-63.26,63.66-13.43,127.23-13.01,189.18,10.23,25.54,9.58,48.55,23.4,67.85,42.86,42.75,43.12,42.14,107.13-1.71,155.02-40.41,44.15-92.51,66.68-149.69,79.17-11.65,2.54-23.78,2.92-35.68,4.3Z"/>
      <path class="cls-6" d="M1190.62,729.77c-13.74,1.59-27.48,3.19-41.23,4.78,11.25-10.89,28.26-12.86,41.23-4.78Z"/>
      <path class="cls-4" d="M1308.42,843.54c-1.39-10.7-2.78-21.4-4.16-32.1,8.4,9.79,12.98,20.08,4.16,32.1Z"/>
      <path class="cls-3" d="M1249.96,343.28c2.65,15.21-.31,29.43-.21,43.66.12,16.36-9.04,16.11-19.16,10.4-15.02-8.48-29.15-18.53-43.62-27.97-17.47-11.4-34.39-23.76-52.54-33.96-11.23-6.31-10.31-12.86-4.94-21.54,14.77-23.89,58-43.56,85.53-38.32,13.65,2.6,22.25,12.54,25.19,25.21,3.36,14.45,9.83,28.26,9.75,42.52Z"/>
      <path class="cls-3" d="M218.84,539.5c2.1-21.53-.94-43.24,4.19-64.23,9.62-39.35,52.84-64.92,92.16-27.79,20.75,19.6,20.83,19.06-.69,37.66-28.6,24.72-54.53,51.85-73.01,85.27-2.53,4.57-4.01,11.2-11.12,9.1-5.8-1.71-4.33-7.96-4.83-12.4-1.08-9.56-2.75-18.9-6.7-27.61Z"/>
      <path class="cls-13" d="M236.19,955.89c48.82,41.14,99.28,27.74,125.54-2.82,27.03-31.45,25.22-82.02-3.83-111.22-33.7-33.87-80.19-33.57-122.36,2.51,2.43-24.31,12.24-43.83,23.72-62.21,32.65-52.29,79.64-85.08,141.67-86.02,77.14-1.16,133.93,37.75,167.71,105.93,38.22,77.16,35.97,155.01-16.02,225.16-72.13,97.31-204.63,95.8-278.68-.26-7.99-10.37-15.39-21.08-20.9-32.97-5.15-11.13-9.94-22.42-16.85-38.11Z"/>
      <path class="cls-8" d="M297.94,968.37c6.81-.79,13.62-1.58,20.43-2.36-6.51,4.66-13.69,4.46-20.43,2.36Z"/>
      <path class="cls-13" d="M1293.42,841.72c.63,39.65-18.8,68.57-51.77,87.12-42.66,24-86.56,23.8-127.96-4.17-31.48-21.27-45.01-53.3-41.14-89.77,4.31-40.64,29.67-68.33,66.99-83.77,31.06-12.85,62.8-12.32,93.9,1.21,5.2,2.26,11.38,3.63,13.52,10.3-49.56.44-76.26,40.65-58.14,87.17,9.56,24.55,31.97,39.75,55.23,37.46,23.55-2.32,40.7-20.11,45.97-47.72.75-.81,1.58-1.45,2.3-1.24,1.87.56,1.49,2.02,1.1,3.4Z"/>
      <path class="cls-7" d="M1277.86,806.66c1.25,11.08,3.66,16.69.98,23.31-2.81-6.74-4.05-12.81-.98-23.31Z"/>
      <path class="cls-5" d="M1293.42,841.72c-1.13-.72-2.27-1.44-3.4-2.16.66-5.11,1.32-10.22,1.98-15.34,3.08,5.71,5.97,11.36,1.42,17.5Z"/>
      <path class="cls-9" d="M861.38,1312.28c-69.93,3.8-131.81.83-187.25-34.27-70.35-44.55-75.58-116.41-12.75-172.06,38.3-33.92,83.69-52.5,133.62-62.2,54.76-10.64,108.58-9.83,162.04,6.79,29.64,9.21,56.26,23.71,77.19,46.55,34.75,37.9,34.05,87.67-.88,129.26-35.47,42.23-82.91,64.2-135.08,76.89-14.4,3.5-28.55,9.42-36.91,9.04Z"/>
      <path class="cls-16" d="M793.28,1154.94c4.24,36.7-18.72,68.75-52.13,72.75-33.12,3.96-64.44-22.23-69.2-57.87-4.67-34.96,21.22-70.65,53.9-74.31,32.82-3.67,63.23,23.13,67.42,59.43Z"/>
      <path class="cls-16" d="M952.26,1118.98c3.36,27.9-13.97,52.15-40.01,56.02-25.38,3.76-49.72-16.32-53-43.73-3.38-28.3,13.59-51.98,39.96-55.74,25.73-3.67,49.74,16,53.04,43.46Z"/>
    </g>
    <circle class="cls-19" cx="807.3" cy="807.3" r="791.5"/>
    <path class="cls-1" d="M1405.2,558.1c-65.96,154.87-226.42,264.2-413.9,264.2-246.32,0-446-188.71-446-421.5,0-65.13,15.63-126.8,43.54-181.86-259.94,90.35-446.54,337.78-446.54,628.86,0,367.55,297.51,665.5,664.5,665.5s664.5-297.95,664.5-665.5c0-103.84-23.75-202.12-66.1-289.7Z"/>
    <g class="cls-18">
      <path class="cls-12" d="M155.8,1241c269.55,2.21,548.84-108.14,780.43-240.1,89.66-51.73,175.92-109.5,256.76-174.14,80.13-64.41,156.39-135.39,217.92-217.95,19.99-27.32,38.23-55.85,52.56-86.47,13.56-29.38,23.99-61.46,23.52-93.54,0,0,31.6,0,31.6,0-2.65,73.71-44.23,138.81-86.86,195.68-86.35,110.57-195.43,200.76-309.07,281.84-199.64,139.79-420.67,251.62-655.66,317.89-101.47,27.96-205.41,46.51-311.21,48.38,0,0,0-31.6,0-31.6h0Z"/>
      <path class="cls-12" d="M1087.23,1038.19c106.79-77.05,212.51-157.59,305.63-250.72,58.19-58.82,129.88-137.8,149.35-219.49,2.14-9.82,3.54-20.21,3.48-30.18,0,0,26.22,0,26.22,0-.2,19.98-3.96,39.51-9.94,58.46-4.69,14.63-10.71,29.07-17.44,42.88-83.1,164.7-273.09,309.88-434.27,394.27-6.58,3.43-13.23,6.74-19.89,10,0,0-3.14-5.22-3.14-5.22h0Z"/>
    </g>
    <g class="cls-18">
      <path class="cls-12" d="M225.8,1328.8c153.54-5.37,304.48-42.83,449.09-93.9,48.53-17.12,96.6-36.14,144-56.26,63.36-26.94,125.78-56.42,187.84-87.24-201.74,134.99-432.52,236.75-675.57,263.53-34.96,3.35-70.17,5.03-105.36,3.88,0,0,0-30,0-30h0Z"/>
    </g>
  </g>
</svg>