<?xml version="1.0" encoding="UTF-8"?>
<svg id="Layer_2" data-name="Layer 2" xmlns="http://www.w3.org/2000/svg" viewBox="0 0 1614.6 1614.6">
  <defs>
    <style>
      .cls-1 {
        fill: #f2f2f2;
        opacity: .32;
      }

      .cls-1, .cls-2, .cls-3, .cls-4, .cls-5, .cls-6, .cls-7, .cls-8, .cls-9, .cls-10, .cls-11, .cls-12, .cls-13, .cls-14, .cls-15, .cls-16, .cls-17, .cls-18, .cls-19, .cls-20, .cls-21, .cls-22, .cls-23, .cls-24, .cls-25, .cls-26, .cls-27, .cls-28, .cls-29, .cls-30, .cls-31, .cls-32, .cls-33, .cls-34, .cls-35, .cls-36, .cls-37, .cls-38, .cls-39, .cls-40, .cls-41, .cls-42, .cls-43, .cls-44, .cls-45, .cls-46, .cls-47, .cls-48, .cls-49, .cls-50, .cls-51, .cls-52, .cls-53, .cls-54, .cls-55, .cls-56, .cls-57, .cls-58, .cls-59, .cls-60, .cls-61, .cls-62, .cls-63, .cls-64, .cls-65, .cls-66, .cls-67, .cls-68, .cls-69, .cls-70, .cls-71, .cls-72, .cls-73, .cls-74, .cls-75, .cls-76, .cls-77, .cls-78, .cls-79, .cls-80, .cls-81, .cls-82, .cls-83, .cls-84, .cls-85, .cls-86, .cls-87, .cls-88 {
        stroke-width: 0px;
      }

      .cls-89 {
        opacity: .58;
      }

      .cls-90 {
        fill: none;
        opacity: .73;
        stroke: #fafafa;
        stroke-miterlimit: 10;
        stroke-width: 31.6px;
      }

      .cls-2 {
        fill: #f9cfe3;
      }

      .cls-3 {
        fill: #f9cee2;
      }

      .cls-4 {
        fill: #f4bbd5;
      }

      .cls-5 {
        fill: #f4bad4;
      }

      .cls-6 {
        fill: #f8cadf;
      }

      .cls-7 {
        fill: #f3bbd5;
      }

      .cls-8 {
        fill: #60ccde;
      }

      .cls-9 {
        fill: #49757c;
      }

      .cls-10 {
        fill: #47c0d2;
      }

      .cls-11 {
        fill: #4bc2d4;
      }

      .cls-12 {
        fill: #5ecddf;
      }

      .cls-13 {
        fill: #606067;
      }

      .cls-14 {
        fill: #73d8e9;
      }

      .cls-15 {
        fill: #767678;
      }

      .cls-16 {
        fill: #50c5d7;
      }

      .cls-17 {
        fill: #504f53;
      }

      .cls-18 {
        fill: #50c4d7;
      }

      .cls-19 {
        fill: #50c4d6;
      }

      .cls-20 {
        fill: #28282d;
      }

      .cls-21 {
        fill: #4fc4d6;
      }

      .cls-22 {
        fill: #2b8999;
      }

      .cls-23 {
        fill: #288899;
      }

      .cls-24 {
        fill: #48bed2;
      }

      .cls-25 {
        fill: #2c899a;
      }

      .cls-26 {
        fill: #2c8696;
      }

      .cls-27 {
        fill: #54c7d9;
      }

      .cls-28 {
        fill: #54c6d9;
      }

      .cls-29 {
        fill: #2a8899;
      }

      .cls-30 {
        fill: #278a9b;
      }

      .cls-31 {
        fill: #278a9c;
      }

      .cls-32 {
        fill: #278b9d;
      }

      .cls-33 {
        fill: #52c6d8;
      }

      .cls-34 {
        fill: #45bdd0;
      }

      .cls-35 {
        fill: #2d8595;
      }

      .cls-36 {
        fill: #308595;
      }

      .cls-37 {
        fill: #3a393d;
      }

      .cls-38 {
        fill: #3a393e;
      }

      .cls-39 {
        fill: #353439;
      }

      .cls-40 {
        fill: #258b9d;
      }

      .cls-41 {
        fill: #38838f;
      }

      .cls-42 {
        fill: #58cadb;
      }

      .cls-43 {
        fill: #55c6d9;
      }

      .cls-44 {
        fill: #55c6d8;
      }

      .cls-45 {
        fill: #2d8695;
      }

      .cls-46 {
        fill: #0e0d13;
      }

      .cls-47 {
        fill: #3dbcce;
      }

      .cls-48 {
        fill: #444347;
      }

      .cls-49 {
        fill: #42bbce;
      }

      .cls-50 {
        fill: #42bcce;
      }

      .cls-51 {
        fill: #37363a;
      }

      .cls-52 {
        fill: #110f15;
      }

      .cls-53 {
        fill: #0f0e14;
      }

      .cls-54 {
        fill: #424247;
      }

      .cls-55 {
        fill: #100e14;
      }

      .cls-56 {
        fill: #100f15;
      }

      .cls-57 {
        fill: #407d88;
      }

      .cls-58 {
        fill: #3f838f;
      }

      .cls-59 {
        fill: #141414;
      }

      .cls-60 {
        fill: #417d88;
      }

      .cls-61 {
        fill: #41808b;
      }

      .cls-62 {
        fill: #208b9e;
      }

      .cls-63 {
        fill: #208c9f;
      }

      .cls-64 {
        fill: #131414;
      }

      .cls-65 {
        fill: #131313;
      }

      .cls-66 {
        fill: #131314;
      }

      .cls-67 {
        fill: #121117;
      }

      .cls-68 {
        fill: #16151b;
      }

      .cls-69 {
        fill: #ddd8db;
      }

      .cls-70 {
        fill: #bfb2cc;
      }

      .cls-71 {
        fill: #a9a9a9;
      }

      .cls-72 {
        fill: #9d9d9e;
      }

      .cls-73 {
        fill: #8baac6;
      }

      .cls-74 {
        fill: #318493;
      }

      .cls-75 {
        fill: #323136;
      }

      .cls-76 {
        fill: #318593;
      }

      .cls-77 {
        fill: #8eabc5;
      }

      .cls-78 {
        fill: #fdfdfd;
      }

      .cls-79 {
        fill: #fdfefe;
      }

      .cls-80 {
        fill: #f1e3eb;
      }

      .cls-81 {
        fill: #ede5e9;
      }

      .cls-82 {
        fill: #fbfafc;
      }

      .cls-83 {
        fill: #fafafa;
      }

      .cls-84 {
        fill: #fccfe4;
      }

      .cls-85 {
        fill: #fefefe;
      }

      .cls-86 {
        fill: #f1bad4;
      }

      .cls-87 {
        fill: #f5bbd5;
      }

      .cls-88 {
        fill: #01879f;
      }
    </style>
  </defs>
  <g id="Gacha">
    <g>
      <path class="cls-65" d="M485.15,1284.74c-25.07-9.37-50.14-18.73-75.21-28.12-12.16-4.55-24.23-9.33-35.82-15.23-3.03-1.54-4.7-1.24-7.09,1.56-13.98,16.45-30.64,29.03-52.23,33.7-11.53,2.49-23.08,2.58-31.72-6.93-9.4-10.34-9.62-22.9-5.89-35.63,3.63-12.36,12.28-21.37,21.5-29.73,3.73-3.39,4.29-4.97-.43-8.17-12-8.13-22.69-17.87-32.97-28.15-20.43-20.45-23.13-44.99-16.74-71.32,6.42-26.45,21.26-49.16,35.53-71.71,19.57-30.93,41.34-60.4,68.7-85.2,14.12-12.8,28.95-24.84,42.14-38.66,3.59-3.76,6.59-7.9,9.53-12.16,2.32-3.36,1.41-4.38-2.26-5.13-12.17-2.47-24.47-4.55-36.37-7.97-30.43-8.74-58.2-22.78-79.67-46.51-5.83-6.45-9.98-8.38-18.55-6.83-37.7,6.81-73.24-18.78-78.42-55.51-5.18-36.67,22.69-70.62,59.89-73.14,16.21-1.1,31.28,2.15,44.79,11.3,3,2.03,4.44,1.52,6.54-1.02,20.9-25.25,44.9-47.54,67.99-70.69.68-2.79-1.22-2-2.63-1.88-31.29-.83-58.88-10.73-80.77-33.77-50.89-53.56-31.42-137.86,37.79-164.18,63.07-23.98,133.26,13.29,146.04,77.53,2.52,12.65,2.34,25.31.15,38.04.47.36.93.72,1.4,1.07,3.02-2.66,5.93-5.47,9.08-7.97,19.35-15.37,39.29-29.81,63.04-37.84,11.65-3.93,23.8-5.36,35.99-5.36,4.68,0,6.64-1.85,6.83-5.58.86-17,2.56-33.91,4.74-50.78.4-3.07-2.02-3.2-3.62-4.11-6.82-3.87-13.91-7.28-18.48-14.17-5.97-9.01-5.45-15.82,2.59-23,6.06-5.4,13.12-8.75,21.53-7.53,3.76.55,6.98-.36,10.03-2.27,6.85-4.29,13.73-8.53,20.44-13.03,14.92-10.01,39.55-10.06,51.29,2.31,6.55,6.9,16.39,4.06,24.97,4.17,10.08.13,20.25-1.81,30.2,1.39,5.21,1.68,9.52,4.75,11.17,9.94,1.53,4.8,4.65,7.63,8.6,10.03,2.47,1.5,4.9,3.06,7.43,4.45,12.22,6.71,17.96,16.68,15.67,30.76-2.24,13.78-10.87,21.9-23.61,26-5.89,1.89-12.12,2.9-18.34,1.63-4.53-.92-5.73.89-5.64,5.09.3,12.61.6,25.24-.32,37.84-.18,2.49-.05,4.41,3.53,4.1,71.49-6.05,138.88,8.84,203.5,39.11,31.41,14.72,58.77,35.18,85.14,57.11,26.87,22.35,54.36,44,79.32,68.61,35.77,35.26,66.2,74.8,94.33,116.22,14.19,20.89,29.35,41.2,39.23,64.7,16.45,39.14,27.05,79.77,28.28,122.27.77,26.72-2.43,53.31-6.59,79.82-3.73,23.77-9.87,46.93-15.29,71.12,5.69-1.44,10.86-3.03,16.14-4.03,43.64-8.26,81.29,2.15,112.38,34.98,26.2,27.67,24.08,62.65,6.83,90.86-14.13,23.12-36.64,36.09-60.67,46.46-26.04,11.23-53.93,15.03-81.75,18.77-34.07,4.58-68.27,6.61-102.64,4.59-.2-2.47-1.24-5.16,1.74-6.83,14.45.31,28.91,1.07,43.36.27,40.97-2.27,81.67-6.49,121.39-17.5,7.02-1.95,13.31-5.71,20.37-7.41,2.42.14,4.03-1.16,5.32-3.04,16.39-8.35,31.97-17.96,42.94-33.09,15.22-21,21.28-43.86,11.1-69.02-4.3-10.61-12.12-18.68-20.53-26.18-.73-.62-1.42-1.29-2.08-1.98-14.47-13.09-31.1-22.63-50.42-25.16-20.79-2.73-41.76-2.16-61.94,5.19-3.18,1.16-4.96,3.08-5.9,6.47-2.98,10.76-6.06,21.53-12.05,31.15-2.7,4.82-5.53,9.56-8.55,14.19-2.68,4.16-5.84,7.96-9.67,11.82,12.46,5.27,22.72,12.16,26.66,25.53,2-4.64,1.28-9.07-2.33-14.57-1.6-2.45-3.78-4.39-5.72-6.53-1.56-1.72-3.12-3.71-1.06-5.98,2-2.2,4.17-.95,6.18.23,3.11,1.83,5.46,4.43,7.23,7.54,1.23,2.16,2.49,4.3,3.72,6.46.43,2.04-.83,4.3.81,6.2,2.86,9.63-3.23,15.48-9.03,21.47-1.18,1.11-2.44,2.12-3.68,3.16-19.83,15.43-43.21,20.58-67.47,22.48-12.59.99-25.23,1.97-37.91,1.4-2.52-.11-4.92.65-7.33,1.27-2.83-.9-4.84-4.9-8.63-2.26-2.31.25-4.59.05-6.84-.29-21.97-3.28-44.19-3.7-66.26-5.81-14.59-1.4-29.35-1.9-44.07-1.84-1.04,0-2.08.06-3.11-.05-19.73-2.1-39.56-2.71-59.35-3.92-16.13-.99-32.3-.49-48.47-1.25-14.91-.7-29.68-2.94-44.64-2.98-8.2-.02-8.82,0-8.73,8.44.02,1.66.03,3.31-.06,4.97-.5,9.29-.43,8.89,9.08,10.47,31.07,5.14,62.44,8.13,93.43,13.85,11.6,2.14,23.53,2.27,35.04,5.23,4.3,1.1,6.17-.86,5.76-5.31-.66-7.22-1.27-14.45-1.87-21.68-.17-2.06-.38-4.15.2-6.18.49-1.72,1.54-2.98,3.42-3.14,1.64-.14,2.7.94,3.46,2.23,1.19,2.02,1.44,4.3,1.66,6.58.69,7.22,1.21,14.46,1.92,21.68.69,7.08,1.93,8.56,8.98,9.65,22.93,3.55,45.69,8.21,68.84,10.29,20.43,1.83,40.68,5.66,61.28,5.66,2.68,0,5.38.39,7.95,1.32,2.71,1.43,4.73,3.35,4.58,6.73-23.23-.83-46.34-3.14-69.38-6.08-3.79-.48-7.29-.15-10.95,1.02-34.08,10.91-69.3,14.41-104.83,16.16-40.2,1.98-80.31.73-120.35-2.89-4.63-.42-6.83,1.34-9.4,4.87-10.14,13.89-20.6,27.64-36.1,36.19-10.9,6.01-22.38,9.87-34.97,6.09-16.77-5.03-24.7-21.3-18.72-37.79,2.17-5.99,5.13-11.57,9.09-17.41-6.77-.75-12.87-1.42-18.96-2.11-35.25-3.94-70.54-7.65-105.75-11.89-36.69-4.42-72.31-13.67-107.45-24.89-1.97-.63-3.97-1.14-5.96-1.71-2.39-5.25,1.6-4.45,4.24-4.12,6.37.8,12.55,2.64,18.76,4.18,25.3,6.3,50.46,13.05,76.27,17.23,16.31,2.64,32.48,6.25,48.98,7.61,8.02.66,16.11.24,24.09,1.68,19.51,1.93,38.98,4.28,58.47,6.37,10.85.81,21.56,3.37,32.53,2.76,5.11-.24,10.14.55,15.18,1.19,13.06,1.71,26.17,2.94,39.25,4.47,2.06.24,4.1.22,6.14-.15,4.26-.29,8.47.34,12.67.86,7.44.76,14.81,2.54,22.37,1.77,8.5.08,16.94,1.52,25.47,1.08,3.42.47,6.83,1.24,10.31.62,1.34-.17,2.69-.19,4.04-.09,2.91.26,5.82.9,8.77.25,1-.14,2.01-.18,3.03-.15,2.77.35,5.52.35,8.27-.18,47.79-.52,77.16-3.58,118.21-12.39-12.91-.78-25.16-3.79-37.55-5.82-8.96-1.46-17.95-3.43-26.91-4.64-14.99-2.02-29.89-4.59-44.85-6.77-33-4.81-66.02-9.36-99.09-13.67-13.95-1.82-27.94-3.53-41.87-5.58-27.24-4.01-54.57-7.4-81.64-12.53-10.16-1.92-20.45-3.18-30.4-6.16-2.23-.42-4.47-.67-6.74-.81-57.33-13.55-115.26-23.99-173.44-33.11-23.48-5.02-47.23-8.55-70.84-12.83-12.62-2.29-25.13-5.24-37.89-6.79-2.73-.33-5.49-1.22-6.09-4.41-.63-3.35,2.06-4.58,4.39-5.99,22.31-13.53,46.69-17.55,72.29-15.37,13.4,1.14,26.81,2.53,39.95,5.69,12.71,1.73,25.18,4.78,37.79,7.04,10.17,1.82,20.38,3.71,30.56,5.15,30.78,4.36,61.06,10.93,91.2,18.34,8.24,2.03,16.58,3.55,24.87,5.34,11.03,2.82,22.27,4.68,33.43,6.84,20.95,4.05,41.94,8.05,63.26,9.7,23.13,1.78,46.28,3.14,69.46,4.27,11.58.56,23.13,1.79,34.71,2.57,13.26.9,26.51.9,39.76,1.13,7.88.13,15.8.3,23.59.92,26.03,2.09,52.1,3.33,78.17,4.54,29.83,1.39,59.54,4.04,89.21,7.44,9.06,1.04,18.22.68,27.34.44,3.01-.08,5.7-.93,7.97-2.99,28.44-25.93,55.36-53.16,73.95-87.39,8.47-15.58,14.19-32.22,18.34-49.42.89-2.21,1.64-4.46,1.77-6.88.19-1.33.52-2.63.95-3.9,1.03-2.14,1.23-4.46,1.4-6.79,1.6-7.86,4.46-15.43,5.57-23.41,1.23-2.63,1.52-5.45,1.6-8.3.71-5.57.84-11.23,2.36-16.69,3.14-14.48,4.47-29.16,5-43.92-.28-2.92.04-5.82.37-8.72.5-3.64,1.3-7.26.8-10.97.5-45.55-10.49-88.7-27.82-130.43-6.7-16.15-16.35-30.71-26.02-45.23-22.2-33.34-45.53-65.86-71.53-96.34-19.12-22.41-39.69-43.46-62.36-62.43-21.16-17.7-42.29-35.44-63.46-53.14-40.85-34.14-87.9-56.06-138.37-71.46-2.19-.67-4.5-.77-6.66-1.56-1.96-.93-4.1-1.17-6.21-1.52-.93-.17-1.83-.43-2.71-.75-2.34-1.1-4.88-1.19-7.39-1.46-1.66-.2-3.29-.54-4.88-1.06-3.89-1.62-8.06-1.5-12.14-1.96-2.16-.21-4.28-.6-6.35-1.26-10.34-2.43-20.83-3.5-31.43-3.51-2.17.22-4.32.1-6.48-.13-4.11-.49-8.19-1.46-12.37-.76-1.72.19-3.43.14-5.15-.01-2.66-.39-5.32-.72-7.99-.11-6.84.06-13.66.44-20.48,1.02-3.56.3-5.02,1.91-4.98,5.59.08,6.62.08,13.25.32,19.87.12,3.36-.04,6.68-3.07,9.01-2.62.85-3.96-.59-4.92-2.72-1.21-20.47-.43-40.95-.14-61.43.13-8.91-.14-17.81-.3-26.71-.04-2.29-.14-4.59.83-6.72,1.57-3.46,4.52-4.18,6.58-1.04,2.69,4.09,6.26,4.13,10.31,3.91,8.27-.45,15.93-2.33,22.26-8.19,11.58-10.72,10.05-28.29-3.38-36.52-3.89-2.38-7.84-4.66-11.63-7.19-3.53-2.36-6.35-5.34-7.96-9.31-2.27-5.6-6.5-8.04-12.41-8.84-10.58-1.42-21.12-.53-31.67-.19-8.17.26-15.64-1.39-22.13-6.59-12.83-10.29-26.38-9.6-40.05-2.12-7.27,3.97-14.03,8.82-21.09,13.17-4.72,2.91-9.65,4.59-15.32,3.98-5.87-.63-11.02,1.56-15.65,4.97-5.58,4.12-6.28,8.79-2.42,14.51,3.36,4.98,8.11,8.36,13.34,10.91,7.4,3.61,9.84,9.11,8.94,17.2-1.77,15.84-4.39,31.61-4.65,47.6-.08,3.91,2.89,4.13,5.56,4.36,13.83,1.22,27.58,3.22,41.2,5.71,10.8,1.97,20.75,7.06,30.52,12.08,4.98,2.55,9.2,6.35,13.99,9.26,3.11,1.89,4.84,4.61,2.5,8.34-2.47,1.45-4.32-.09-6.17-1.36-17.82-12.28-37.48-20.4-58.3-25.92-9.55-2.18-19.25-2.97-28.99-3.38-14.54-.4-28.96.16-43.23,3.71-16.91,4.2-30.91,13.97-45.38,22.83-10.81,6.62-20.37,14.98-30.27,22.86-2.99,2.38-5.13,5.16-6.54,8.82-14.33,37.05-41.59,59-80.02,67.41-5.97,1.31-10.64,3.69-14.97,7.97-21.69,21.42-43.91,42.3-63.7,65.58-3.37,3.97-3.9,6.56-.28,10.45,11.15,12,17.32,26.24,17.76,42.69.52,19.57-6.55,36.06-21.09,49.19-4.14,3.74-8.42,7.43-13.43,10.05-3.12,1.63-3.78,3.4-1.41,6.29,3.56,4.33,7.12,8.58,11.58,12.09,23.52,18.53,49.72,31.39,79.06,37.7,3.16,1.28,6.53,1.2,9.83,1.59,9.1,2.11,18.2,4.21,27.37,5.97,7.45,2.32,15.14,2.78,22.87,2.82,27.75.38,55.59,1.81,83.22-.4,41.52-3.31,83.02-7.69,123.08-20.3,5.74-1.81,11.39-3.9,16.95-6.17,29.03-11.84,59.31-20,88.95-30.02,27.02-9.13,47.38-25.77,63.35-48.68.83-1.19,1.62-2.41,2.54-3.54,8.96-11.06,11.75-22.93,5.44-36.38-1.7-3.62-3.97-7.41-2.73-11.84,1.87-2.26,2.89-.29,3.48.98,1.4,3.01,3.74,5.11,6.13,7.23,3.06,8.4,5.97,16.83,5.57,25.97-.17,3.79-.44,7.81-3.2,10.49-10.01,9.73-17.27,21.71-26.8,31.85-17.24,18.35-39.14,27.95-62.52,35.57-20.31,6.62-40.82,12.6-60.88,20.02-22.75,8.42-45.47,17.4-69.5,21.39-34.98,5.79-70,11.77-105.6,12.42-9.11.17-18.23-.24-27.35-.13-2.53-.28-5.06-.71-7.61-.13-1.31.16-2.62.17-3.94.09-2.35-.37-4.7-.23-7.04.18-6.47-.33-12.97.52-19.43-.45-7.6-1.03-15.24-1.7-22.84-2.62-2.12-.09-4.3-1.06-6.34.37-17.39,26.08-43.64,43.29-65.28,65.11-16.99,17.13-31.18,36.45-45.48,55.73-14,18.87-24.62,39.72-35.94,60.16-5.05,9.11-8.87,18.68-11.27,28.82-1.62,7.56-2.54,15.19-2.46,22.92-.29,20.38,10.44,35.15,24.43,48.36,8.76,8.28,18.1,15.88,28,22.67,36.54,25.04,74.98,46.47,117,61.17,18.77,6.57,37.15,14.24,55.98,20.68,2.16.74,4.3,1.53,6.19,2.86,2.02,2.16,3.43,4.41,1.06,7.2Z"/>
      <path class="cls-14" d="M662.09,1314.32c-6.85-.25-13.72-.64-20.55-1.05-23.18-1.4-45.91-6.17-68.57-10.96-24.81-5.24-49.44-11.38-74.14-17.15-2.01-.47-3.94-1.24-5.93-1.76-3.23-.84-2.95.94-2.19,3.03-1.86-.56-3.71-1.12-5.56-1.68.6-2.53-.68-4.49-1.97-6.44-5.8-8.5-5.11-18.21-4.51-27.64.35-5.49,2.26-10.93,2.94-16.49.29-2.38,1.48-4.28,3.5-5.63,33.29,5.46,66.65,10.44,99.74,17.06,24.94,4.99,49.74,10.62,74.54,16.24,1.78,3.38,5.46-.23,7.54,2.06,1.31,2.08,1.32,4.44.74,6.58-3.73,13.81-3.81,27.97-4.21,42.1-.28.71-.74,1.28-1.38,1.72Z"/>
      <path class="cls-52" d="M1124.45,1326.88c-1.55-1.52-2.77-3.24-3.25-5.4-4.09-4.17-4.75-9.92-6.48-15.05-3.28-9.74-7.07-19.32-9.81-29.24-.54-1.94-1.62-3.85-.65-5.97,3.6-3.56,3.88-3.43,5.97,2.95,3.82,2.25,4.07,6.5,5.35,10.04,3.36,9.26,6.26,18.68,9.63,27.94,1.01,2.77,2.57,5.69,1.17,8.88,1.01,2.12,1.14,4.14-.63,5.96-.43-.03-.86-.07-1.29-.1Z"/>
      <path class="cls-71" d="M365.77,631.6c1.4-.99,3.06-1.37,4.21-.07.56.63-.5,1.71-1.59,1.95-.27-1.47-1.73-1.29-2.63-1.88Z"/>
      <path class="cls-88" d="M485.11,1228.55c-4.7,16.43-7.1,32.95-1.93,49.75-35.12-12.44-70.45-24.46-104.16-40.36-37.3-17.59-72.56-38.71-103.2-66.71-12.56-11.48-23.02-24.45-24.52-42.43-.17-2.04,0-4.1,0-6.16,0-8.47.92-16.84,2.79-25.1,1.13-10.06,5.97-18.71,10.4-27.54,18.78-37.5,42.24-71.89,69.53-103.66,11.89-13.84,25.61-25.83,39.32-37.85,14.12-12.38,28.7-24.44,38.24-41.11,2.2-1.02,4.37.1,6.56.08,8.17.61,16.23,2.41,24.47,2.22,6.55.88,13.19-.61,19.72.77,2.11-1.08,4.36.59,6.48-.33,1.21.07,2.42.15,3.63.22,2.52-1.16,5.12.75,7.64-.23,47.89,1.34,94.98-5.26,141.77-14.45,15.44-3.03,30.29-8.24,44.99-13.84,28.39-10.82,57.46-19.66,86.35-28.93,29.41-9.44,51.29-27.78,68.52-52.61,1.17-1.69,2.25-3.67,3.88-4.77,10.29-6.96,9.94-16.77,7.53-27.13-1.17-5.02-2.62-9.96-3.95-14.94-1.44-3.23.91-5.01,2.75-6.9,6.21-6.37,13.15-12.02,19.03-18.73,13.62-15.55,24.72-32.53,25.69-53.88,1.1-24.4-6.93-44.7-28.89-57.92-10.44-6.28-21.81-7.56-33.56-6.57-17.19,1.45-33.35,6.06-47.41,16.56-3.24,1.32-4.54-1.38-5.88-3.21-9.82-13.43-21.58-25.04-33.81-36.21-2.43-2.22-5.16-4.33-4.72-8.22.07-.29.14-.58.21-.87,1.81-3.39,1.92-6.92,1.64-10.74-.44-5.94.69-12.07-.33-17.87-1.17-6.66,2.06-7.86,7.17-7.86,6.77,0,13.51-1.54,20.3-.41,2.58-1.05,5.23.77,7.81-.17,1.57.11,3.14.21,4.71.32,4.27-1.02,8.45,1.25,12.72.37,1.99.14,3.99.28,5.98.43,11,.33,21.9,1.51,32.7,3.65,2,.3,4,.59,6.01.89,3.97,1.78,8.54.49,12.48,2.42,1.56.24,3.12.48,4.67.72,2.25,1.51,5.22.22,7.43,1.9.79.14,1.58.29,2.37.43,1.96,1.34,4.53.39,6.5,1.73,17.61,3.05,33.78,10.38,50.29,16.77,30.05,11.64,57.91,27.08,83.3,46.95,25.21,19.72,49.34,40.73,73.93,61.18,35.76,29.74,66.26,64.23,93.96,101.25,22.91,30.62,46.35,61.11,63.42,95.5,19.66,39.62,29.82,82,32.39,126.19.25,4.38.11,8.66-.36,12.97,1.05,3.85-1.13,7.64-.25,11.49-.23,2.78-.45,5.55-.68,8.33-.8,15.17-2.44,30.24-5.04,45.21-.69,5.66-1.38,11.31-2.07,16.97-1.52,2.33-.33,5.33-1.88,7.65-.31,8.4-3.7,16.11-5.42,24.19-1.34,1.96-.39,4.53-1.74,6.49-.2,1.09-.4,2.18-.6,3.26-1.36,1.94-.37,4.51-1.74,6.44-5.02,25.66-15.41,49.02-30.31,70.44-17.95,25.81-39.88,47.98-63.03,69.06-5.32,4.84-11.9,2.45-17.84,2.74-12.22.59-24.4-1.11-36.54-2.52-26.57-3.08-53.23-5.31-79.93-6.11-28.78-.86-57.43-4.54-86.18-4.59-45.82-.07-91.35-4.91-137.02-7.21-28.14-1.42-55.97-6.12-83.51-12.29-8.63-1.93-17.32-3.55-25.99-5.31,2.17-2.17,4.56-4.02,5.6-7.22,7.55-23.2,19.75-44.22,30.67-65.87,10.83-21.45,21.77-42.99,27.96-66.38,4.44-16.81,7.85-33.84,10.58-51.07,2.31-14.62,4.83-29.25,2.93-43.8-4.54-34.85-18.04-65.37-46.81-87.51-11.65-8.96-25.33-12.09-39.49-13.56-13.24-1.38-26.51-.92-39.75.42-22.96,2.33-41.56,13.18-57.59,29.19-13.5,13.49-23.97,29.01-32.16,46.22-16.17,33.97-29.27,69.07-39.41,105.27-5.14,18.36-9.11,36.98-10.43,56.08-.3,4.37-.28,8.79.36,13.01,2.07,13.52.36,27.3,3.28,40.75.58,2.68,1.39,5.77-.9,8.31-11.26-1.6-22.51-3.32-33.79-4.78-28.13-3.65-54.72.88-79.41,15.25-1.36.79-2.39,1.63-2.27,3.33.15,2.09,1.52,2.69,3.37,2.86,22.5,2.07,44.36,7.92,66.63,11.44,14.65,2.31,29.44,4.31,43.81,8.28Z"/>
      <path class="cls-88" d="M621.52,507.51c11.51,1.58,21.73,6.73,32.31,11.11,11.07,4.59,20.98,10.92,30.91,17.37,2.16,1.09,3.4,3.74,6.25,3.69,32.05,22.91,60.99,48.87,81.59,83.02,10.36,16.22,18.94,33.35,26.54,51.01,6.2,14.41,13.87,28.15,20.11,42.55,1.2,2.77,3.14,5.45,1.98,8.78,1.97,6.31,3.6,12.74,5.99,18.89,3.17,8.16,1.93,15.62-2.48,22.77-12.03,19.5-26.08,37.25-45.9,49.45-12.02,7.4-25.49,11.72-38.85,15.97-30.9,9.83-61.54,20.38-92.04,31.35-30.72,11.05-63.15,13.65-95.17,18.32-24.4,3.55-48.88,3.56-73.43,3.16-12.79-.21-25.6.93-38.37-.51-8.1-.07-16.11-.95-24.02-2.68-9.52-1.05-18.73-3.58-27.99-5.86-3.09-1.7-6.86-.31-9.91-2.18-22.7-3.99-43.35-13.04-62.5-25.64-12.27-8.08-24.74-16.03-32.35-29.68,9.33-4.59,17.78-10.46,24.56-18.48,21.53-25.45,19.94-60.8-4.28-86.12-3.39-3.54-2.8-4.97-.08-8.2,21.39-25.36,45.74-47.84,69.11-71.27,2.59-2.59,5.58-3.78,9.22-4.49,40.04-7.79,68.49-29.67,82.69-68.63.71-1.94,1.45-3.82,3.16-5.22,20.44-16.6,41.22-32.74,65.43-43.65,17.94-8.08,36.9-9.97,56.33-8.39,10.49.33,20.92,1.27,31.19,3.55Z"/>
      <path class="cls-14" d="M486.76,1192.17c-.2-2.47-.17-4.98-.62-7.39-3.12-16.56-2.85-33.4-3.73-50.1-.77-14.49,2.39-28.88,5.72-43,7.75-32.84,18.57-64.71,31.63-95.8,11.17-26.57,23.05-52.68,43.92-73.63,19.77-19.85,42.84-31.13,71.21-31.61,15.15-.26,30.23-.5,45.01,3.2,21.05,5.26,36.4,18.62,48.03,36.16,13.7,20.67,22.64,43.4,23.91,68.38.56,11.08-.22,22.29-2.4,33.37-2.55,12.98-4.43,26.07-7.02,39.07-5.14,25.87-15.77,49.51-26.69,73.2-10.22,22.16-24.1,42.53-32.12,65.76-1.75,5.07-4.07,9.96-5.7,15.06-1.06,3.31-3.03,3.99-6,3.46-21.47-3.43-42.29-9.82-63.56-14.12-12.98-2.63-25.96-5.39-39.05-7.38-27.64-4.2-55.2-8.77-82.54-14.64Z"/>
      <path class="cls-78" d="M374.58,432.5c45.27,5.08,82.44,38.97,89.52,81.61,7.57,45.61-18.97,89.39-64.04,105.63-49.29,17.76-105-3.55-128.19-49.04-28.91-56.71,5.41-124.35,69.47-136.89,11-2.15,22.07-2.94,33.23-1.31Z"/>
      <path class="cls-82" d="M590.27,496.46c-1.22-8.98.99-17.74,1.74-26.59.65-7.64,1.38-15.29,2.59-22.85,1.06-6.62-.7-10.88-7.15-13.79-6.34-2.86-12.38-6.56-16.06-13.02-3.4-5.97-2.93-10.25,2.39-14.68,5.56-4.63,11.81-7.67,19.34-6.3,6.62,1.2,11.43-2.79,16.5-5.73,5.37-3.1,10.54-6.58,15.6-10.16,11.72-8.29,34.15-10.28,45.24,1.83,4.98,5.43,12.58,5.7,19.73,5.56,10.11-.19,20.2-1.1,30.33-.33,7.52.57,13.75,2.67,15.85,11.08.78,3.13,3.3,5.2,5.95,6.92,3.78,2.46,7.49,5.05,11.42,7.25,8.59,4.81,13.74,11.54,13.4,21.84-.39,11.71-6.91,19.25-16.85,23.92-7.2,3.38-15.15,3.58-23.06,2.79-1.9-.19-3.2-.52-2.81-2.89.3-1.78-.25-3.65-2.25-3.71-2.4-.06-2.78,2.06-2.78,4,0,7.01.1,14.03.09,21.04,0,10.52.5,21.09-.26,31.56-.98,13.42,1.22,26.8-.23,40.17-3.35.61-5.38-1.82-7.57-3.54-6.85-5.38-12.74-11.84-19.27-17.58-2.37-2.08-2.84-4.84-2.93-7.87-.34-11.19,1.05-22.31,1.29-33.48.24-11.35,1.25-22.69.95-34.07-1.58,12.8-2.01,25.69-2.33,38.55-.2,8.07-1.39,16.06-1.19,24.18.14,5.63-2.43,6.72-7.68,3.68-11.65-6.77-23.22-13.63-36.42-17.16-6.62-1.77-13.29-3.08-20.09-3.84-3.05-.34-6.27-.24-8.9-2.29-.45-.57-.7-1.22-.78-1.93.61-17.97,2.48-35.9,1.95-53.95-.08,7-1.67,13.92-1.51,20.84.21,9.16-1.74,18.16-1.18,27.3.13,2.08-.23,4.15-1.73,5.82-1.63,1.17-3.49,1.08-5.35.95-5.09-.93-10.45-.26-15.29-2.64-.24-.29-.47-.58-.7-.88Z"/>
      <path class="cls-88" d="M662.35,1313.36c-1.05-12.79-.29-25.45,2.48-38,.86-3.9,2.55-7.84.85-11.96-.53-.24-.69-.43-.48-.56.19-.13.39-.18.59-.16,12.77,2.54,25.47,5.54,38.33,7.51,28.88,4.42,57.83,8.42,86.78,12.39,37.58,5.16,75.22,9.9,112.78,15.25,27.07,3.85,54.08,8.15,81.03,12.73,16.34,2.78,32.59,6.01,50.51,7.94-9.26,3.98-17.9,5.24-26.36,6.9-31.06,6.08-62.58,7.22-94.08,8.37-2.05.08-4.13-.36-6.19-.56-2.57,1.06-5.21-.77-7.78.19-.81-.04-1.61-.07-2.42-.11-2.94,1.17-5.92-.88-8.87.09-1.19-.06-2.38-.13-3.57-.19-3.41,1.12-6.8-1.04-10.2-.06-8.66.54-17.24-.29-25.8-1.39-7.65.67-15.08-2.07-22.73-1.51-4.04-.37-8.09-.75-12.13-1.12-11.18,0-22.14-2.27-33.23-3.12-4.31-.33-8.55-1.5-12.92-.98-4.9-.47-9.8-.94-14.71-1.41-10.93.02-21.66-2.16-32.51-3.05-17.8-1.98-35.6-3.93-53.4-5.95-2.01-.23-4.15.04-5.96-1.22Z"/>
      <path class="cls-4" d="M1104.26,1271.22c5.65,16.75,11.29,33.51,16.94,50.26-40.67-1.85-80.93-7.4-121.14-13.43-7.78-1.17-15.48-2.87-23.25-4.12-3.89-.63-5.42-2.53-5.65-6.52-.55-9.48-1.46-18.94-2.49-28.38-.23-2.1.65-5.97-3.14-5.47-3.03.4-1.85,3.48-1.65,5.72.97,10.68,1.84,21.38,2.67,31.18-14.7-1.63-29.49-2.99-44.19-4.98-20.13-2.72-40.19-5.97-60.3-8.9-13.34-1.94-26.69-3.79-40.06-5.53-2.7-.35-4.09-.98-3.84-4.13.5-6.4.76-12.82.83-19.24.04-3.64,1.48-4.31,4.92-4.04,16.74,1.3,33.51,2.25,50.26,3.45,23.55,1.68,47.21.3,70.73,2.54,30.14,2.87,60.45,2.58,90.6,5.09,22.94,1.91,45.94,3.31,68.76,6.51Z"/>
      <path class="cls-5" d="M249.68,818.03c-31.42-2.75-59.85-30.23-55.62-66.46,4.18-35.8,37.04-55.91,68.72-52.29,33.79,3.86,59.2,34.43,55.15,66.57-4.11,32.64-34.55,55.91-68.26,52.18Z"/>
      <path class="cls-5" d="M1351.88,1163.33c15.05,11.21,25.04,25.71,26.18,44.7,1.99,33.1-13.97,57.01-40.51,74.92-4.61,3.11-9.52,5.78-14.36,8.54-1.69.97-3.32,2.64-5.61,1.42-6.33-.86-11.36-4.75-16.86-7.44-22.61-11.08-45.07-22.46-67.58-33.75-2.72-1.36-6.51-1.86-7.02-5.98,4.96-6.33,11.67-11.91,8.99-21.44.75-2.61,3.27-2.96,5.22-3.95,33.21-16.81,66.36-33.75,99.68-50.34,4.07-2.03,7.97-4.34,11.86-6.67Z"/>
      <path class="cls-5" d="M1126.37,1321.02c-5.38-15.62-10.77-31.24-16.15-46.86-.23-3.17,2.13-2.29,3.78-2.36,12.57-.47,25.15-.73,37.72-1.37,25.69-1.32,50.13-6.84,71.49-22.16,28.04,14.72,56.59,28.42,84.8,42.78,2.37,1.2,6.28,1.22,5.89,5.53-38.62,16.33-79.74,20.37-120.84,24.17-22.17,2.05-44.45,2.97-66.69.26Z"/>
      <path class="cls-5" d="M1217.51,1179.63c5.58-10.15,9.12-21.08,12.12-32.19.98-3.64,2.82-5.73,6.68-6.97,23.5-7.52,47.38-8.81,71.24-3.18,16.52,3.9,31.2,12.13,43.16,24.58-5.03,4.14-11.28,5.98-16.93,8.94-29.53,15.46-59.56,29.96-89.15,45.32-2.89,1.5-5.66,3.56-9.23,3.17-3.13-.52-2.96-3.66-4.26-5.57-1.77-2.58-3.53-5.1-6.05-6.98-1.69-1.27-3.43-4.01-5.66-1.69-2.44,2.54.7,3.7,2.19,5.13,5.23,5.03,8.79,10.9,8.91,18.38.04,2.67-.58,5.2-3.4,7.16-3.55-15.82-14.04-24.37-29.1-28.55,3.59-4.4,7.3-8.94,11.02-13.49,3.79-4.11,7.19-8.45,8.47-14.06Z"/>
      <path class="cls-5" d="M339.79,1223.58c8.14,3.4,15.36,8.7,23.77,11.57,1.97.67,2.63,1.64.93,3.55-13.72,15.34-29.12,28.12-49.82,32.86-10.21,2.34-20.56,3.11-28.2-5.47-8.05-9.03-7.88-20.33-4.49-31.08,4.18-13.25,14.6-22.19,24.42-31.36,1.66-1.55,2.9-.68,4.35.33,7.92,5.52,15.89,10.98,23.84,16.46.99,2.29,3.42,2.19,5.21,3.14Z"/>
      <path class="cls-4" d="M674.89,1234.78c18.58,2.95,36.85,7.48,55.45,10.37,19.06,2.96,38.19,5.05,57.41,6.42,7.85.56,15.7,1.06,23.56,1.41,2.06.09,3,.5,2.87,2.78-.39,7.02-.7,14.05-.87,21.09-.06,2.53-.99,3.13-3.39,2.8-25.65-3.54-51.36-6.72-76.95-10.62-9.19-1.4-18.5-2.16-27.62-4.3-3.89-.91-4.88-2.66-5.1-6.03-.3-4.74-.85-9.46-1.22-14.19-.15-1.98-.4-4.11-2.93-3.74-2.47.36-2.16,2.61-1.97,4.5.47,4.72.83,9.46,1.43,14.16.36,2.83-.63,4.09-3.36,3.19-7.3-2.41-15.23-1.91-22.38-4.95-1.8-2.45-1.21-5.08-.33-7.56,1.81-5.1,1.87-10.82,5.37-15.32Z"/>
      <path class="cls-87" d="M674.89,1234.78c-.2,7.95-4.55,14.99-5.05,22.88-15.66-1.7-30.75-6.23-46.13-9.33-14.99-3.02-29.91-6.36-44.89-9.4-6.89-1.4-13.84-2.49-20.79-3.62-2.19-.36-3.14-1.2-3.12-3.63.04-5.78-.15-11.58-.5-17.35-.22-3.68,1.2-4.46,4.62-3.84,15.07,2.74,30.23,5,45.24,8.02,21.05,4.23,41.63,10.59,62.85,14.15,2.64.44,5.19,1.41,7.78,2.13Z"/>
      <path class="cls-5" d="M790.54,1332.75c4.54,0,9.08-.06,13.62.03,2.56.05,3.53,1.47,1.94,3.59-12.85,17.03-25.67,34.13-47.51,40.69-14.39,4.32-25.61.74-32.62-10.21-5.61-8.77-3.12-17.28.37-25.9,1.87-4.63,5.97-8.18,5.72-13.93-.12-2.83,3.11-1.96,5.02-1.63,8.35,1.43,16.69,2.99,25.03,4.51,2.44.72,5.05.44,7.49,1.23,4.04,1.05,8.14,1.58,12.32,1.3,2.89-.23,5.71,1.09,8.62.33Z"/>
      <path class="cls-87" d="M461.45,1193.01c21.14,3.99,42.28,8.04,63.44,11.95,6.92,1.28,13.91,2.23,20.86,3.33,2.79.44,4.11,1.47,3.86,4.87-.38,5.12.14,10.32.44,15.48.19,3.29-.41,4.86-4.4,4.24-25.36-3.97-50.7-8.01-75.84-13.25-5.06-1.06-10.22-1.7-15.33-2.5-3.02-.47-4.58-1.99-5.01-5.21-.75-5.51-1.97-10.96-2.98-16.44-.47-2.52.07-3.89,3.14-3.39,3.88.64,7.82.92,11.74,1.35.03-.15.06-.3.08-.44Z"/>
      <path class="cls-85" d="M1144.49,1265.9c12.59-12.15,24.3-23.18,35.03-35.17,3.86-4.31,8.24-8.33,11.27-13.17,3.84-6.16,7.63-6.6,13.6-3.05,8.3,4.94,15.12,10.66,17.19,20.68.89,4.33-.08,7.28-3.74,10.1-16.74,12.9-36.56,16.55-56.67,19.39-5.04.71-10.17.77-16.67,1.22Z"/>
      <path class="cls-46" d="M821.21,725.04c-14.38-30.98-27.7-62.46-44.25-92.42-1.76-3.18-4.59-5.75-5.41-9.45-1.13-3.51-3.39-6.43-5.02-9.67-1.22-2.43-3.14-5-.64-7.82,0-2.28,1.72-3.14,3.36-4.04,16.78-9.22,34.53-14.6,53.89-14.18,28.22.62,50.36,22.36,54.57,50.92,4.21,28.57-7.95,51.07-26.27,71.23-5.84,6.42-12.29,12.29-18.62,18.25-1.73,1.63-3.07,3.28-3.62,5.57-3.21,1.24-3.64-1.79-4.9-3.34-1.24-1.52-.91-4.05-3.09-5.05Z"/>
      <path class="cls-53" d="M615.01,500.23c25.79,2.07,49.45,10.18,70.86,25.9,1.05-22.61,2.06-44.32,3.06-66.04.06-1.24-.08-2.49,0-3.73.11-1.7.4-3.64,2.5-3.69,2.8-.06,2.43,2.21,2.35,4.07-.7,17.18-1.39,34.36-2.1,51.55-.26,6.21-.45,12.43-.87,18.63-.14,2.09.52,3.34,2.09,4.71,8.72,7.56,16.71,15.97,26.12,22.74.63,1.68,2.23,2.25,3.57,3.11,0,0-.02-.03-.02-.03.91,4.66-1.32,5.48-4.54,3.03-8.13-6.18-16.57-12.06-23.33-19.83-1.61-1.85-2.57-2.92-4.18-.31-4.61,2.12-4.86-1.56-5.78-4.34.93-3.43-.17-5.61-3.25-7.75-12.22-8.5-25.38-15.12-39.57-19.39-6.96-2.09-14.33-2.93-21.56-3.95-8.21-1.16-16.52-1.63-24.69-2.97-2.41-.4-7.89.49-5.4-5.47l-.02-.02c5.17,2.07,10.75,1.5,16.09,2.48,2.82.9,6.01-.6,8.67,1.31Z"/>
      <path class="cls-7" d="M445.15,1215.53c-20.61-3.79-40.62-7.46-62.54-11.49,9.9-5.36,18.57-8.35,27.74-10.18,8.72-1.74,17.46-2.57,26.36-2.19,2.9.13,4.43.51,4.87,3.85.85,6.48,2.27,12.89,3.57,20.01Z"/>
      <path class="cls-55" d="M1235.41,1219.3c32.25-16.41,64.47-32.89,96.79-49.17,6.02-3.03,11.59-7.22,18.53-8.26.39.49.78.97,1.16,1.46-.16,2.16-1.67,3.17-3.39,4.03-37.79,18.97-75.59,37.95-113.38,56.93-3.4-1.87-2-3.46.29-5Z"/>
      <path class="cls-56" d="M1313.9,1296.59c-12.45-8.06-26.2-13.63-39.32-20.4-15.36-7.92-30.94-15.45-46.35-23.28-2-1.02-5.12-1.2-5.02-4.64.63-1.24,1.57-2.12,2.91-2.54,16.11,9.55,33.3,16.99,49.92,25.55,12.46,6.42,25.01,12.63,37.55,18.89,1.48.74,3.09,1.2,3.99,2.73.55,3-.49,4.42-3.68,3.69Z"/>
      <path class="cls-32" d="M662.35,1313.36c19.83,2.21,39.66,4.42,59.49,6.62.37.29.46.53.29.73-.16.19-.32.28-.46.26-19.86-2.22-39.72-4.44-59.58-6.66,0-.34.1-.66.26-.96Z"/>
      <path class="cls-63" d="M768.93,1324.99c2.8-1.71,5.68-.36,8.46-.08,12.57,1.28,25.12,2.76,37.68,4.17-6.22,1.35-12.3-.36-18.42-.92-9.26-.84-18.49-2.1-27.73-3.18Z"/>
      <path class="cls-31" d="M1245.7,1059.12c1.68-15.07,3.36-30.14,5.04-45.21,1.48,9.16-1.09,18.05-1.92,27.05-.56,6.09-.19,12.44-3.12,18.16Z"/>
      <path class="cls-61" d="M815.29,525.18c-10.9-1.22-21.79-2.43-32.69-3.65,11.11-.69,22.01.53,32.69,3.65Z"/>
      <path class="cls-58" d="M721.67,1320.98c.05-.33.11-.66.17-1,10.79,1.2,21.58,2.4,32.38,3.6-10.99.93-21.72-1.46-32.55-2.6Z"/>
      <path class="cls-40" d="M621.52,507.51c-10.39-1.18-20.79-2.37-31.18-3.55,10.61-.76,21.03.27,31.18,3.55Z"/>
      <path class="cls-69" d="M769.52,1331.57c-2.44-.68-5.19.01-7.4-1.68,9.47.95,18.95,1.91,28.43,2.86-2.9,1.77-5.86,0-8.78.14-4.18.51-8.25-.03-12.24-1.31Z"/>
      <path class="cls-23" d="M254.1,1097.55c-.93,8.37-1.86,16.73-2.79,25.1-1.09-8.59-.15-16.96,2.79-25.1Z"/>
      <path class="cls-60" d="M442.62,889.67c-8.44,1.53-16.59-1.2-24.89-1.71-.39-.25-.5-.48-.35-.69.15-.21.3-.31.43-.3,8.27.9,16.54,1.8,24.81,2.7Z"/>
      <path class="cls-9" d="M416.93,881.76c8.01.89,16.01,1.78,24.02,2.68-8.21.95-16.21.02-24.02-2.68Z"/>
      <path class="cls-62" d="M827.2,1330.21c7.7-1.41,15.15,1.03,22.73,1.51-7.7,1.41-15.16-.81-22.73-1.51Z"/>
      <path class="cls-81" d="M1217.51,1179.63c.05,6.42-3.68,10.56-8.47,14.06,2.82-4.69,5.65-9.37,8.47-14.06Z"/>
      <path class="cls-31" d="M833.77,528.5c-4.16-.79-8.66.13-12.48-2.42,4.21.57,8.68-.23,12.48,2.42Z"/>
      <path class="cls-31" d="M776.61,521.11c-4.29,1.65-8.48-.23-12.72-.37,4.29-1.75,8.49.01,12.72.37Z"/>
      <path class="cls-30" d="M1251.42,1005.58c-1.68-3.87.14-7.65.25-11.48,1.7,3.86.16,7.66-.25,11.48Z"/>
      <path class="cls-42" d="M665.78,1262.67c-.11.23-.15.47-.11.73-2.52-.15-2.92,1.97-3.82,5.1-.36-3.46-.82-5.33-2.47-6.64,2.13.27,4.26.55,6.39.82Z"/>
      <path class="cls-26" d="M875.74,1333.12c3.41-1.74,6.8.01,10.2.06-3.41,1.71-6.8.31-10.2-.06Z"/>
      <path class="cls-35" d="M379.04,873.72c3.31.71,6.99-.27,9.91,2.18-3.38-.39-6.98.26-9.91-2.18Z"/>
      <path class="cls-25" d="M889.51,1333.37c2.94-1.71,5.91-.09,8.87-.09-2.94,1.62-5.91.5-8.87.09Z"/>
      <path class="cls-29" d="M759.19,520.42c-2.57,1.67-5.2.26-7.81.17,2.57-1.6,5.2-.53,7.81-.17Z"/>
      <path class="cls-80" d="M339.79,1223.58c-2.18-.31-4.86.2-5.21-3.14,2.01.59,3.79,1.56,5.21,3.14Z"/>
      <path class="cls-22" d="M900.8,1333.39c2.55-1.69,5.18-.25,7.78-.19-2.55,1.65-5.18.51-7.78.19Z"/>
      <path class="cls-57" d="M1241.75,1083.73c.43-2.6-.3-5.48,1.88-7.65-.22,2.65.17,5.45-1.88,7.65Z"/>
      <path class="cls-36" d="M480.09,890.1c-2.5,1.65-5.09.27-7.64.23,2.5-1.61,5.08-.62,7.64-.23Z"/>
      <path class="cls-45" d="M845.88,531.12c-2.51-.52-5.35.27-7.43-1.9,2.59.17,5.33-.19,7.43,1.9Z"/>
      <path class="cls-74" d="M1232.26,1124.12c.36-2.21-.29-4.68,1.74-6.44-.16,2.26.27,4.68-1.74,6.44Z"/>
      <path class="cls-74" d="M1234.59,1114.42c.36-2.22-.29-4.72,1.74-6.49-.14,2.28.24,4.7-1.74,6.49Z"/>
      <path class="cls-76" d="M854.74,533.28c-2.22-.36-4.72.3-6.5-1.73,2.28.15,4.71-.26,6.5,1.73Z"/>
      <path class="cls-41" d="M417.81,886.97c-.03.33-.05.66-.08.99-2.05-.2-4.09-.39-6.14-.59,1.93-2.25,4.13-.49,6.22-.41Z"/>
      <path class="cls-26" d="M468.82,890.1c-2.08,1.57-4.31.43-6.48.33,2.09-1.49,4.29-.74,6.48-.33Z"/>
      <path class="cls-19" d="M610.97,1305.33c11.78,1.31,23.56,2.62,35.34,3.92-.02.22-.04.44-.06.65l-35.36-3.93c.03-.22.05-.43.08-.65Z"/>
      <path class="cls-47" d="M660.28,1275.59c-.81,7.33-1.63,14.67-2.44,22-.38-.04-.76-.07-1.14-.11.81-7.34,1.63-14.68,2.44-22.02.45-.56.83-.51,1.14.13Z"/>
      <path class="cls-44" d="M485.4,1250.83l1.18-10.6c.21.01.41.02.62.04-.39,3.53-.78,7.06-1.18,10.59-.21,0-.41-.02-.62-.03Z"/>
      <path class="cls-19" d="M593.83,1302.21l9.39,1.04c-.02.22-.04.43-.07.65-3.19-.35-6.38-.71-9.57-1.06l.24-.63Z"/>
      <path class="cls-43" d="M522.38,1285.89c-2.52.42-4.89.46-7.77-.84,3.17-.71,5.54-.06,7.77.84Z"/>
      <path class="cls-33" d="M533.4,1288.38c-2.53.43-4.9.44-7.78-.87,3.18-.63,5.56-.11,7.78.87Z"/>
      <path class="cls-27" d="M657.65,1308.17c-1.88,2.83-3.95,1.55-6.69,1.08,2.63-1.09,4.88,0,6.69-1.08Z"/>
      <path class="cls-44" d="M484.28,1260.93l.64-5.8c.2,0,.4,0,.6.01l-.63,5.71c-.2.03-.41.05-.61.08Z"/>
      <path class="cls-21" d="M549.65,1292.96c1.93-1.04,3.84-.58,6.02.07-2.2,1.69-4.07-.12-6.02-.07Z"/>
      <path class="cls-21" d="M560.09,1295.16c2.5-.84,4.54-.38,6.91.64-2.53.75-4.59.45-6.91-.64Z"/>
      <path class="cls-19" d="M582.64,1300.28c2.11-.77,4.04-.59,6.16.34-2.35,1.28-4.27-.08-6.16-.34Z"/>
      <path class="cls-50" d="M570.69,1297.13c2.81.14,4.46-.2,5.89,1.13-1.92.54-3.63.51-5.89-1.13Z"/>
      <path class="cls-43" d="M504.66,1282.69c2.58-.55,4.14-.43,6.03.6-2.05.84-3.61.4-6.03-.6Z"/>
      <path class="cls-11" d="M538.79,1290.19c2.79-.42,4.36-.4,6,.59-1.89.97-3.51.49-6-.59Z"/>
      <path class="cls-42" d="M660.28,1275.59l-.57-.08s-.57-.05-.57-.04c.18-1.61.36-3.21.54-4.82.38.03.77.05,1.15.08l-.54,4.88Z"/>
      <path class="cls-4" d="M394.67,970.41c6.33-1.58,12.64.27,18.98.24,10.55-.05,20.98-1.08,31.44-1.97,13.17,21.62,8.23,48.69-12.03,62.83-6.66,4.65-11.71,4.52-18.23-.35-7.77-5.8-12.27-14-15.49-22.83-4.46-12.22-5.72-24.96-4.67-37.92Z"/>
      <path class="cls-66" d="M901.79,1042.43c2.48,1.56,2.1,3.58,1.22,5.95-11.16,30.35-32.72,49.81-63.39,58.76-18.8,5.48-37.34-6.46-40.5-24.61-1.52-8.73,1.69-16.34,6.11-23.43,9.83-15.79,24.28-26.95,38.96-37.81,5.49-4.06,11.12-7.93,16.71-11.85,1.86-1.31,3.76-2.9,6.02-.63.86,1.2.66,2.45.22,3.72-5.63,5.83-12.6,9.95-19.14,14.59-12.56,8.91-24.18,18.81-33.69,31-1.78,2.28-3.23,4.81-4.63,7.36-4.72,8.63-6.1,17.51.42,25.63,6.91,8.6,16.47,12.41,27.2,9.29,27.88-8.11,47.97-25.22,58.32-52.86.51-1.35.77-2.8,1.7-3.98,1.27-1.23,2.7-1.85,4.46-1.13Z"/>
      <path class="cls-64" d="M394.67,970.41c2.97,5.82.89,12.14,1.79,18.2,2.01,13.46,5.64,26.15,14.63,36.77,8.6,10.17,15.57,10.62,25.61,1.44,13.6-12.43,17.9-33.45,10.56-50.57-1.08-2.52-1.33-5.09-2.17-7.57,2.43-2.95,4.37-1.75,5.62.96,10.57,23.01,5.35,50.45-15.26,64.9-9.63,6.75-19.44,4.97-27.8-4.87-11.45-13.49-15.94-29.55-16.82-46.87-.13-2.47-.26-4.94-.21-7.41.05-2.63.55-5.07,4.05-4.98Z"/>
      <path class="cls-59" d="M690.52,540.33l.54-4.85c4.59,1.6,5.89,6.26,9.08,9.07,5.73,5.04,11.42,10.08,17.63,14.52,2.37,1.7,4.5,2.73,4.81-1.63.92,2.91,2.37,5.29,4.77,7.45,13.2,11.87,25.9,24.23,36.28,38.75.57.8,1.5,1.36,2.26,2.03-.53,4.34,2.34,7.56,3.77,11.24.8,2.05,2.1,3.9,1.89,6.25-17.96-28.93-42.18-52-68.54-73.06-4.13-3.3-8.85-5.85-12.5-9.78Z"/>
      <path class="cls-86" d="M901.79,1042.43c-1.18.61-2.36,1.22-3.53,1.83-1.89.75-2.65-.7-3.58-1.82-1.06-2.04-2.55-3.72-4.46-5.02-7.26-6.42-15.21-12.09-21.49-19.57-1.21-1.44-3.57-2.46-2.63-5.08.28-1.32.55-2.63.83-3.96.6.05,1.48-.13,1.77.21,9.87,11.27,22.54,19.66,32.14,31.2.49.59.64,1.47.96,2.21Z"/>
      <path class="cls-65" d="M717.74,670.45c-4.28,48.2-49.78,84.19-97.74,78.91-47.06-5.18-84.25-48.94-78.35-98.9,5.82-49.27,49.21-83.93,98.8-78.36,49.11,5.52,83.62,51.44,77.29,98.36Z"/>
      <path class="cls-16" d="M747.88,1003.76c-1.64,14.73-3.27,29.46-4.91,44.2-.22-.02-.43-.05-.65-.07,1.63-14.68,3.26-29.37,4.89-44.05.22-.03.45-.05.67-.08Z"/>
      <path class="cls-10" d="M674.68,897.43c-6.89-.76-13.77-1.53-20.66-2.29.01-.17.03-.34.04-.51,6.89.76,13.78,1.53,20.67,2.29-.01.17-.03.34-.04.51Z"/>
      <path class="cls-8" d="M486.13,1129.81c.69-6.22,1.38-12.44,2.06-18.66.44-.47.83-.45,1.15.13-.69,6.22-1.39,12.43-2.08,18.65-.44.48-.81.42-1.14-.12Z"/>
      <path class="cls-12" d="M720.64,928.32c-1.51-2.26-3.01-4.52-4.52-6.77,2.08,1.71,4.15,3.5,4.52,6.77Z"/>
      <path class="cls-16" d="M740.52,1055.55c.41,2.53.45,4.9-.87,7.76-.64-3.16-.09-5.54.87-7.76Z"/>
      <path class="cls-27" d="M738.18,1065.96c.46,2.54.47,4.63-.9,6.9-.55-2.51-.39-4.58.9-6.9Z"/>
      <path class="cls-34" d="M489.35,1111.28l-.58-.05s-.57-.08-.57-.08c.27-2.41.53-4.81.8-7.22.39.03.77.07,1.16.1l-.8,7.25Z"/>
      <path class="cls-27" d="M736.09,1076.44c-.21,1.93-.43,3.86-.81,7.3-.97-3.6-.5-5.57.81-7.3Z"/>
      <path class="cls-27" d="M733.36,1085.59c.81,1.99.55,3.64-.48,5.44-.88-1.98-.49-3.61.48-5.44Z"/>
      <path class="cls-18" d="M489.98,1167.44c.76,2.03.53,3.71-.49,5.54-.87-2.01-.45-3.67.49-5.54Z"/>
      <path class="cls-28" d="M496.69,1074.31c.62,1.99.48,3.66-.73,5.44-.54-2.01-.57-3.69.73-5.44Z"/>
      <path class="cls-28" d="M493.88,1088.76c-.68-2.52-.5-4.07.44-6.07.98,2.07.34,3.62-.44,6.07Z"/>
      <path class="cls-28" d="M500.39,1059.27c1.33,1.94.48,3.14.41,4.98-1.62-1.98-.58-3.16-.41-4.98Z"/>
      <path class="cls-28" d="M498.21,1071.18c-.71-1.4-.54-2.65.42-4.24.8,1.7.65,2.96-.42,4.24Z"/>
      <path class="cls-24" d="M491.83,1096.47c-.8-1.39-.81-2.67.23-3.82,1.05,1.37.12,2.59-.23,3.82Z"/>
      <path class="cls-16" d="M747.84,993.74c-.26,2.33-.38,3.43-.57,5.16-1.3-1.81-1.03-3.01.57-5.16Z"/>
      <path class="cls-49" d="M486.13,1129.81c.38.01.76.05,1.14.12-.18,1.6-.36,3.2-.53,4.81l-1.14-.08.54-4.85Z"/>
      <path class="cls-46" d="M325.54,547.26c-19.9-2.29-34.47-20.47-32.18-40.14,2.28-19.57,20.75-33.92,40.64-31.58,19.84,2.34,34.56,20.68,32.24,40.18-2.33,19.55-20.76,33.83-40.7,31.53Z"/>
      <path class="cls-67" d="M611.45,498.83c.77-18.17,1.54-36.35,2.33-54.52.09-2.06.04-4.76,2.73-4.75,3.02.02,2.3,2.8,2.21,4.77-.79,16.93-1.58,33.86-2.47,50.79-.07,1.37-.85,2.7-1.3,4.04-1.26.85-2.41.62-3.49-.34Z"/>
      <path class="cls-68" d="M652.9,463.99c-.73,6.57-1.42,13.14-2.22,19.69-.21,1.72.1,4.3-2.56,4.13-2.95-.19-2.54-2.79-2.32-4.79,1.44-13.13,2.93-26.26,4.48-39.38.21-1.78.53-4.16,3.03-3.84,2.65.34,1.94,2.74,1.76,4.49-.67,6.57-1.43,13.13-2.16,19.7h-.02Z"/>
      <path class="cls-65" d="M606.45,499.41c-5.4-.98-11.21.23-16.2-2.97,5.28.68,10.56,1.35,15.83,2.03.55.14.66.46.37.94Z"/>
      <path class="cls-72" d="M606.45,499.41c-.16-.3-.29-.61-.37-.94,1.79.12,3.58.24,5.37.36,1.16.11,2.32.23,3.49.34.22.34.25.69.08,1.06-2.85-.27-5.71-.55-8.56-.82Z"/>
      <path class="cls-2" d="M1233.82,1150.61c-1.06-1.82-.33-3.01-.19-4.75,1.43,1.72.81,2.92.19,4.75Z"/>
      <path class="cls-2" d="M1230.86,1158.6c.18-1.6.35-3.19.7-6.29,1.16,3.35,1.14,4.98-.71,6.28h.01Z"/>
      <path class="cls-2" d="M1228.94,1164.65c.53-2.05-.37-4.56,1.92-6.05,0,0-.01,0-.01,0-.49,2.06.33,4.54-1.92,6.04h.01Z"/>
      <path class="cls-2" d="M1228.93,1164.63l-.61,5.53c-1.55-2.66-1.06-4.2.63-5.52h-.01Z"/>
      <path class="cls-6" d="M782.46,1337.94c-1.16,1.21-2.61.95-4.04.8-9.5-1.02-18.87-2.74-28-5.61h0c10.88.28,21.2,4.28,32.05,4.82h0Z"/>
      <path class="cls-84" d="M769.52,1331.57c4.08.44,8.16.87,12.24,1.31-4.28,1.48-8.36,1.04-12.24-1.31Z"/>
      <path class="cls-6" d="M782.46,1337.94c3.35-2.26,6.53.19,9.75,1.08-3.25-.36-6.5-.72-9.75-1.08h0Z"/>
      <path class="cls-3" d="M750.42,1333.12c-3.19-.35-6.38-.71-9.58-1.06,3.3-.41,6.74-1.73,9.57,1.07h0Z"/>
      <path class="cls-4" d="M873.12,656.68c-3.03,20.87-13.85,37.59-28.23,52.35-4.33,4.44-8.99,8.57-13.32,13.01-2.82,2.89-4.02,2.67-5.96-1.16-11.03-21.9-21.35-44.11-31.19-66.58-6.52-14.89-14.6-29.1-22.05-43.57-1.28-2.49-1.85-4.12,1.43-5.78,16.67-8.42,34.03-13.77,52.92-11.95,23.86,2.3,41.78,20.32,45.76,45.77.93,5.91,1.49,11.88.64,17.91Z"/>
      <path class="cls-73" d="M411.65,975.44c-3.27.76-5.31.24-8.32-.6,3.2-.74,5.25-.25,8.32.6Z"/>
      <path class="cls-77" d="M422.99,976.07l-5.18-.58c1.62-1.41,2.83-.91,5.18.58Z"/>
      <path class="cls-4" d="M895.6,1041.33c.45,1.37,1.36,2.32,2.66,2.93-7.17,29.49-39.2,54.61-63.43,58.21-15.02,2.23-28.47-7.56-30.56-22.09-.86-5.97,1.67-10.94,4.2-15.84,5.21-10.09,13.3-17.83,21.69-25.21,11.22-9.87,23.51-18.31,35.94-26.55,7.06,9.38,17.19,15.6,24.96,24.24,1.61,1.34,2.96,2.95,4.54,4.32Z"/>
      <path class="cls-70" d="M895.6,1041.33c-2.44-.47-3.63-2.24-4.54-4.32,2.51.4,3.79,2.08,4.54,4.32Z"/>
      <path class="cls-79" d="M712.54,669.97c-5.13,45.88-46.46,79.08-92.07,73.97-45.82-5.13-78.77-46.8-73.58-93.04,5.09-45.36,47.07-78.83,92.45-73.72,45.38,5.11,78.34,46.89,73.2,92.78Z"/>
      <path class="cls-38" d="M328.93,480.62c2.63-.45,5.17-.38,8.01.89-3.06.58-5.57.1-8.01-.89Z"/>
      <path class="cls-75" d="M329.28,542.38c-2.39-.26-4.77-.53-7.16-.79,2.6-1.03,5.05-.49,7.16.79Z"/>
      <path class="cls-17" d="M361.47,512.28l-.71,6.42c-.2-.02-.41-.03-.61-.05l.71-6.41c.2.01.41.03.61.04Z"/>
      <path class="cls-39" d="M298.69,511.42c-.74-2.75-.53-4.43.41-6.22.98,1.87.34,3.49-.41,6.22Z"/>
      <path class="cls-46" d="M671.49,668.17c-.72,8.5-3.74,15.4-8.91,21.34-8.14,9.36-20.31,12.92-30.84,9.12-11.73-4.23-20.61-17.36-20.46-30.63.07-6.01.77-11.97,3.27-17.58,5.83-13.09,18.17-20.79,30.96-19.27,13.04,1.55,23.4,12.2,25.72,26.53.6,3.68.97,7.39.25,10.49Z"/>
      <path class="cls-20" d="M665.85,663.81c2.58,3.76,2.06,7.11-1.24,11.14.5-4.46.87-7.8,1.24-11.14Z"/>
      <path class="cls-37" d="M656.96,687.16c-.54,3.02-2.17,4.56-6.1,5.12,2.66-2.23,4.38-3.68,6.1-5.12Z"/>
      <path class="cls-13" d="M615.55,665.74c.22-1.96.44-3.92.65-5.89h.56c-.21,1.91-.43,3.83-.64,5.74-.19.05-.38.09-.57.14Z"/>
      <path class="cls-51" d="M640.66,695.47c-3,.67-4.87.57-7.08-2.33,2.76.91,4.5,1.48,7.08,2.33Z"/>
      <path class="cls-48" d="M623,686.64c-1.49-1.03-2.9-2.12-3.04-4.75,1.98.87,2.6,2.32,3.05,3.92,0,.28,0,.55-.01.83Z"/>
      <path class="cls-15" d="M648.41,636.09c-2.7.82-4.39.52-6.28-.25,1.91-1.35,3.55-.42,6.28.25Z"/>
      <path class="cls-54" d="M623,686.64c.02-.28.03-.56.01-.84,1.53.43,2.3,1.57,2.86,3.12-1.94.33-2.55-.79-2.87-2.29Z"/>
    </g>
    <circle class="cls-90" cx="807.3" cy="807.3" r="791.5"/>
    <path class="cls-1" d="M1405.2,558.1c-65.96,154.87-226.42,264.2-413.9,264.2-246.32,0-446-188.71-446-421.5,0-65.13,15.63-126.8,43.54-181.86-259.94,90.35-446.54,337.78-446.54,628.86,0,367.55,297.51,665.5,664.5,665.5s664.5-297.95,664.5-665.5c0-103.84-23.75-202.12-66.1-289.7Z"/>
    <g class="cls-89">
      <path class="cls-83" d="M225.8,1328.8c153.54-5.37,304.48-42.83,449.09-93.9,48.53-17.12,96.6-36.14,144-56.26,63.36-26.94,125.78-56.42,187.84-87.24-201.74,134.99-432.52,236.75-675.57,263.53-34.96,3.35-70.17,5.03-105.36,3.88,0,0,0-30,0-30h0Z"/>
    </g>
  </g>
</svg>