<?xml version="1.0" encoding="UTF-8"?>
<svg id="Layer_2" data-name="Layer 2" xmlns="http://www.w3.org/2000/svg" viewBox="0 0 1614.6 1614.6">
  <defs>
    <style>
      .cls-1 {
        fill: #f2f2f2;
        opacity: .32;
      }

      .cls-1, .cls-2, .cls-3, .cls-4, .cls-5, .cls-6, .cls-7, .cls-8, .cls-9 {
        stroke-width: 0px;
      }

      .cls-10 {
        opacity: .58;
      }

      .cls-11 {
        fill: none;
        opacity: .73;
        stroke: #fafafa;
        stroke-miterlimit: 10;
        stroke-width: 31.6px;
      }

      .cls-3 {
        fill: #f2efeb;
      }

      .cls-4 {
        fill: #5573b3;
      }

      .cls-5 {
        fill: #225196;
      }

      .cls-6 {
        fill: #648cbd;
      }

      .cls-7 {
        fill: #fcfff9;
      }

      .cls-8 {
        fill: #ffd1d1;
      }

      .cls-9 {
        fill: #fafafa;
      }
    </style>
  </defs>
  <g id="Gacha">
    <g>
      <g>
        <path class="cls-6" d="M1093.99,479.8c-102.35-105.73-276.68-238.87-503.33-201.83-65.62,10.72-190.69,60.59-213.91,137.03-9.82,91.73,12.89,117.59,49.83,198.58,52.02,108.19,155.78,174.11,255.74,233.5,125.74,69.59,127.04,191.12-27.84,211.91-13.6,1.67-21.42,3.95-26.4-11.4-69.54-90.24-79.02-156.53-243.82-194.49-116.01-29.69-119.22,17.9-66.23,89.26,86.49,57.54,81.47,92.57,111.37,142.55-3.77,9.34-54.44,23.12-63,25.34-119.8,37.24-281.1,189.54-71.8,147.38,59.63-8.02,219.5-18.99,293.84,20.7,351.4,402.95,744.29,25,721.67-264.13,9.34.64,77.75-86.32,202.94-124.22,115.42-34.94,2.29-131.71-225.13-165.39-16.08-2.38-38.9-2.88-88.52-97-20.46-34.96-77.18-118.63-105.41-147.79Z"/>
        <path class="cls-2" d="M1099.29,474.5c-58.34-60.19-124.68-113.84-199.55-152.1-88.55-45.25-188-66.65-287.22-55-39.88,4.68-77.95,15.47-114.78,31.46-37.21,16.14-74.6,37.67-101.63,68.48-11.38,12.98-24.06,30.18-26.87,47.66-3.85,23.91-3.29,49.81.23,73.72,6.25,42.5,28.26,80.56,46.16,118.96,21.5,46.13,51.16,86.59,87.98,121.73,36.28,34.63,77.48,63.75,119.77,90.52,20.92,13.24,42.27,25.72,63.5,38.43,17.58,10.52,34.01,23.02,47.95,38.09,19.56,21.15,36.16,50.71,30.55,80.53-5.87,31.24-32.99,51.47-61.18,62.21-10.27,3.91-20.89,6.87-31.64,9.13-5.4,1.13-10.83,2.1-16.28,2.89-4.65.68-10.38,2.18-15.1,1.43-2.63-.42-3.63-1.79-4.78-4.21-2.37-4.96-5.1-8.87-8.4-13.31-5.34-7.19-10.52-14.49-15.62-21.85-18.3-26.47-35.21-54.13-56.47-78.39-22.75-25.96-50.84-46.13-82.2-60.46-21.56-9.86-44.1-17.4-66.99-23.49-23.32-6.2-47.17-12.36-71.32-13.99-24.88-1.68-57.55,4.12-57.86,35.17-.14,13.82,5.66,27.44,11.89,39.48,4.18,8.07,8.99,15.8,14.1,23.3,2.56,3.76,5.08,7.77,8.02,11.26,4.78,5.67,12.73,9.48,18.74,13.87,17.8,13.01,34.92,27.82,48.26,45.49,9.57,12.67,16.83,26.74,23.43,41.13,6.54,14.26,12.91,28.55,20.94,42.06v-7.57c-.64,1.34.31.31-.49.71-.75.37-.2.27-1.57,1.17-2.3,1.5-4.8,2.72-7.29,3.87-6.19,2.87-12.7,5.1-19.17,7.25-10.29,3.43-20.77,6.12-31.14,9.24-25.85,7.79-50.7,20.2-73.89,33.88-22.62,13.34-44.34,28.64-63.86,46.23-14.44,13-29.51,28.16-36.81,46.54-5.44,13.69-2.62,28.61,11.13,35.91,20.82,11.05,49.19,6.6,71.3,3.4,14.1-2.04,27.94-4.9,42.12-6.41,13.59-1.44,27.22-2.57,40.87-3.44,33.95-2.16,68.04-2.81,102.03-1.19,33.14,1.59,66.7,5.06,98.59,14.61,6.61,1.98,13.18,4.21,19.53,6.92,2.98,1.28,6.63,2.49,9.27,4.4,4.4,3.18,8.1,9.04,11.77,13.05,15.29,16.7,31.33,32.72,48.22,47.81,55.32,49.41,120.56,89.6,193.29,106.88,59.5,14.13,122.02,12.03,180.4-6.21,56.57-17.67,108.11-49.29,151.72-89.19,43.48-39.78,79.54-88.11,105.55-140.98,24.85-50.5,41.07-105.74,43.67-162.13.6-13.09.41-26.19-.58-39.26l-7.5,7.5c6.2.11,11.87-5.92,16.15-9.64,8.36-7.24,16.49-14.75,24.88-21.96,27.85-23.9,57.87-45.19,90.31-62.43,21.05-11.19,42.99-20.61,65.67-27.98,13.29-4.32,26.92-8.2,38.62-16.14,15.49-10.51,25.06-27.43,18.16-46.09-8.2-22.16-30.02-37.81-49.36-49.66-32.26-19.77-68.46-33.32-104.55-44.2-23.24-7.01-46.84-12.79-70.63-17.61-18.21-3.69-36.58-6.24-54.86-9.46-7.54-1.33-10.29-2.4-16.39-6.35-8.41-5.44-16.88-14.81-23.71-23.64-13.55-17.52-24.68-36.97-35.16-56.43-8.09-15.02-17.44-29.33-26.81-43.58-21.71-33.01-44.27-65.82-69.37-96.37-4.42-5.38-8.95-10.66-13.77-15.68-6.7-6.97-17.3,3.64-10.61,10.61,24.69,25.68,44.98,56.16,65.01,85.48,10.29,15.06,20.38,30.27,30.06,45.74,10.79,17.24,19.83,35.45,30.56,52.73,13.04,20.99,29.2,46.81,52.62,57.65,5.53,2.56,11.11,3.97,17.11,4.86,22.65,3.36,45.2,7.39,67.55,12.37,41.2,9.18,82.3,21.09,120.77,38.66,24.56,11.21,50.76,24.78,68.64,45.6,2.44,2.85,5.02,6.42,7.1,10.45,1.25,2.41,2.7,6.49,3.05,9.07.73,5.43-1.13,11.36-4.8,15.61-6.13,7.1-14.39,11.69-23.71,15.42-8.27,3.31-16.93,5.57-25.35,8.45-11.25,3.85-22.31,8.21-33.21,12.95-36.74,16-70.82,37.29-102.34,61.95-11.05,8.64-21.74,17.74-32.23,27.05-3.77,3.35-7.52,6.74-11.3,10.08-1.47,1.3-2.94,2.59-4.44,3.86-.57.48-1.15.95-1.72,1.43-.26.22-.53.43-.8.65-1.27,1.02,1.19-.85.04-.02-.89.64-1.86,1.2-2.74,1.85-.82.6.75-.28,1.54-.26-3.83-.07-7.8,3.5-7.5,7.5,4.63,60.81-8.82,122.18-33.48,177.66-26.35,59.28-65.15,113.04-113.37,156.47-48.22,43.43-106.54,76.19-170.13,90.36-67.9,15.13-138.83,6.98-202.65-20.22-38.68-16.49-74.69-39.24-107.32-65.67-18.87-15.28-36.74-31.77-53.69-49.14-9.17-9.39-17.76-19.28-26.7-28.88-5.41-5.8-14.71-8.63-22-11.42-33.87-12.95-71.08-17.26-107.04-19.51s-75.28-1.74-112.81.68c-14.88.96-29.74,2.21-44.56,3.87-16.81,1.88-33.3,5.64-50.11,7.54-13.27,1.5-27.92,2.71-40.76.29-2.24-.42-4.47-.95-6.65-1.65-2.76-.89-2.05-.55-4.47-1.9-.7-.39-1.38-.82-2.05-1.27-.73-.49.59.65-.88-.75-.57-.55-1.11-1.11-1.62-1.72,1.12,1.35-.06-.14-.39-.76-.96-1.83-.13.09-.37-.67-.2-.63-.36-1.27-.54-1.9-.56-1.97-.05.73-.1-.51-.04-.88-.03-1.75-.03-2.63,0-.68.32-2.45.03-.76.15-.87.33-1.73.55-2.58.38-1.5,1.37-4.31,1.6-4.84,3.15-7.48,9.45-15.82,15.28-22.41,17.79-20.12,39.58-36.74,62-51.36,25.03-16.32,51.83-30.6,80.11-40.41,11.62-4.03,23.63-6.83,35.33-10.64,7.46-2.43,14.85-5.07,22.06-8.17,5.4-2.32,11.54-4.92,15.65-9.3,6.41-6.84.77-13.35-2.85-20.06s-6.66-13.06-9.73-19.71c-5.65-12.25-10.97-24.68-17.68-36.4-7.96-13.9-17.85-26.68-29.09-38.09-7.04-7.15-14.59-13.79-22.42-20.06-4.54-3.63-9.16-7.16-13.86-10.59s-11.37-6.82-15.23-11.02c-5.43-5.91-9.72-13.84-13.87-20.68-3.88-6.4-7.54-13.01-10.49-19.9-2.15-5.03-3.92-10.29-5-15.66-.73-3.61-.98-9.29-.34-12.05.9-3.9,1.8-5.92,4.15-8.18,2.78-2.66,6.2-4.47,10.39-5.7,13.68-4.03,29.14-2.39,42.99-.24,22.74,3.53,45.43,9.47,67.46,16.04,18.84,5.62,37.42,12.31,55.1,20.95,26.91,13.15,50.79,30.75,70.73,53.12,18.52,20.77,33.43,44.4,49.01,67.37,4.35,6.42,8.75,12.81,13.24,19.13,4.74,6.68,10.33,13.05,14.7,19.96,4.54,7.19,6.47,14.51,15.84,16.81,8.1,1.98,17.54-.38,25.58-1.61,33.73-5.19,69.54-16.55,94.2-41.33,18.78-18.88,27.77-44.52,24.09-70.94-4.09-29.42-21.99-55.37-43.07-75.48-13.58-12.96-28.97-24.09-45.15-33.57-18.95-11.11-37.81-22.37-56.42-34.05-74.52-46.79-147.73-101.85-191.98-179.7-11.23-19.75-20.2-40.79-30.01-61.27-7.84-16.36-15.72-32.77-21.53-49.98-5.64-16.7-9.02-33.94-9.96-51.54-.58-10.74-.41-21.51.23-32.25.6-10.14,1.14-19.62,5.44-28.92,14.42-31.18,43.09-53.88,71.83-71.25,30.68-18.54,64.25-32.48,98.72-42.17,80.67-22.68,169.63-16.95,249.1,7.76,76.21,23.7,145.93,65.46,207.29,116.04,25.89,21.34,50.42,44.28,73.77,68.37,6.73,6.94,17.33-3.67,10.61-10.61Z"/>
      </g>
      <path class="cls-4" d="M960.03,613.39c-2.28,3.3-4.64,6.55-7.07,9.74-.12.16-.24.32-.37.48-.73.95.39-.5.44-.56-.28.38-.58.74-.87,1.11-.67.85-1.34,1.7-2.02,2.54-1.28,1.59-2.58,3.17-3.9,4.74-5.44,6.45-11.18,12.64-17.19,18.54s-12.53,11.71-19.22,17.07c-.77.62-1.55,1.23-2.34,1.84-1.41,1.1,1.03-.78,0,0-.51.39-1.01.77-1.52,1.16-1.69,1.28-3.4,2.53-5.13,3.75-3.49,2.48-7.05,4.86-10.68,7.12-7.92,4.94-16.2,9.31-24.8,12.95l1.79-.76c-8.4,3.52-17.1,6.32-26.04,8.09-3.86.77-6.42,5.57-5.24,9.23,1.33,4.1,5.1,6.06,9.23,5.24,20.34-4.04,39.62-13.18,56.87-24.52s34.54-26.34,49.02-42.4c7.91-8.77,15.27-18.07,21.98-27.79,2.23-3.24.71-8.47-2.69-10.26-3.82-2.02-7.88-.77-10.26,2.69h0Z"/>
      <path class="cls-4" d="M971.9,706.84c-.25.33-.5.66-.75.99-.48.63.72-.94.63-.81-.13.19-.3.38-.44.56-.52.66-1.05,1.32-1.58,1.97-1.08,1.32-2.2,2.63-3.33,3.91-2.37,2.69-4.84,5.3-7.38,7.83-5.23,5.22-10.78,10.12-16.53,14.75-.67.54-1.35,1.08-2.03,1.61-.37.29-.73.57-1.1.86-.2.15-.79.61.13-.1,1.07-.82-.03.02-.19.14-1.48,1.13-2.97,2.25-4.48,3.35-3,2.19-6.04,4.32-9.13,6.39-6.06,4.05-12.28,7.86-18.65,11.38s-13.28,6.97-20.18,9.89l1.79-.76c-3.54,1.49-7.13,2.87-10.78,4.08s-6.53,5.23-5.24,9.23c1.2,3.7,5.24,6.56,9.23,5.24,14.66-4.86,28.65-11.97,41.82-19.99,14.93-9.09,29.17-19.6,41.91-31.58,7.01-6.59,13.44-13.7,19.23-21.39,1.09-1.45,1.21-4.12.76-5.78s-1.82-3.63-3.45-4.48c-1.74-.92-3.85-1.38-5.78-.76s-3.24,1.8-4.48,3.45h0Z"/>
      <path class="cls-4" d="M1027.64,764.75c-5.36,5.53-10.98,10.81-16.84,15.81-2.85,2.43-5.74,4.79-8.69,7.09-.22.17-.43.34-.65.51-.07.06,1.34-1.03.7-.54-.38.29-.77.59-1.15.88-.77.58-1.54,1.16-2.32,1.74-1.49,1.11-3,2.2-4.52,3.28-12.3,8.73-25.32,16.41-38.77,23.19-7.67,3.87-15.48,7.45-23.39,10.79l1.79-.76c-7.46,3.14-15.02,6.08-22.63,8.83-1.87.67-3.45,1.69-4.48,3.45-.94,1.61-1.34,3.98-.76,5.78,1.17,3.62,5.28,6.67,9.23,5.24,17.91-6.48,35.54-13.9,52.42-22.74,16.76-8.78,32.64-19.04,47.43-30.84,8.19-6.53,15.96-13.58,23.25-21.1,2.73-2.82,3.02-7.84,0-10.61s-7.69-3.01-10.61,0h0Z"/>
      <g>
        <path class="cls-3" d="M644.63,1058.33c1.61-.09,148.11-23.93,116.83-110.68-31.68-87.86-74.15-81.76-139.98-128.1-203.68-143.36-203.09-217.36-220.08-249.7-50.08-95.31-22.54-156.5-17.07-156.33,143.49,4.32,394.45,96.54,545.15,488.78,17.99,24.76,76.69,87,85.06,116.8-79.98-2.92-279.65,144.79-123.99,154.9,13.35,2.87,67.92-15,45.92,14.03-150.01,139.9-255.9-18.63-401.31-54,9.75-12.97,19.67-22.86,32.76-32.59,9.52-7.07,18.81-12.59,28.7-18.62,4.9-2.99,10.5-5.55,15.65-8.09,3.84-1.9,7.48-4.55,11.15-6.34,7.17-3.5,14.7-5.05,21.21-10.07"/>
        <path class="cls-5" d="M644.63,1065.83c4.48-.36,9.01-1.5,13.38-2.48,9.16-2.03,18.22-4.52,27.14-7.44,23.82-7.8,48.13-18.66,66.28-36.41,9-8.8,16.27-19.64,19.67-31.86,3.81-13.69,2.42-28.31-2.26-41.6-6.68-18.94-15.3-37.61-27.54-53.63-9.71-12.7-21.47-23.21-34.84-31.94-12.83-8.37-26.63-15.14-40.09-22.4-17.78-9.58-34.62-20.32-51.04-32.08-37.28-26.7-73.49-55.14-106.63-86.88-11.98-11.47-23.55-23.39-34.44-35.91-4.59-5.27-9.05-10.65-13.37-16.15-1.48-1.89-3.12-4.03-5.26-6.92-1.79-2.42-3.54-4.86-5.26-7.32-10.71-15.34-19.82-31.59-27.28-48.75-.64-1.46.55,1.35.08.18-.14-.35-.3-.71-.44-1.06-.36-.87-.71-1.73-1.06-2.6-.62-1.55-1.24-3.11-1.84-4.67-1.1-2.86-2.17-5.73-3.23-8.61-1.98-5.38-3.95-10.76-6.23-16.02-1.58-3.65-3.49-7.13-5.27-10.68-5.72-11.41-10.71-23.15-14.76-35.26-6.21-18.56-10.35-37.89-10.9-57.49-.21-7.32.08-14.65.94-21.93.06-.5.28-2.05.09-.71.11-.76.22-1.52.35-2.28.25-1.54.53-3.07.84-4.6.52-2.53,1.12-5.03,1.84-7.51.6-2.06,1.29-4.07,2.04-6.08.11-.3.78-1.87.22-.57-.53,1.23,0-.01.14-.29.37-.74.7-1.49,1.09-2.22.31-.57.65-1.11.98-1.67.86-1.46.18-.29-.14.09.24-.29.5-.61.81-.83.1-.07-1.93,1.36-1.11.88.37-.21-3.1,1.41-3.24.84.11.45,12.05.55,13.25.63,4.75.31,9.5.71,14.23,1.19,2.44.25,4.88.52,7.32.81,1.24.15,2.48.3,3.71.46.53.07,1.07.14,1.6.21-2.1-.28.18.03.69.1,5.12.71,10.22,1.52,15.31,2.42,22.34,3.94,44.37,9.6,65.89,16.75,11.79,3.92,23.41,8.31,34.89,13.08.32.13.63.26.95.4-1.22-.51-.12-.05.11.05.63.27,1.27.54,1.9.81,1.59.69,3.18,1.38,4.77,2.08,3,1.32,5.98,2.68,8.95,4.06,6.07,2.82,12.09,5.76,18.05,8.82,25.78,13.21,50.47,28.52,73.88,45.56,25.54,18.59,50.23,39.98,73.05,62.79,25.85,25.85,49.64,53.76,71.31,83.19,25.11,34.11,47.55,70.16,67.65,107.43,23,42.64,42.37,86.81,60.23,131.8,2.6,6.56,8.58,12.34,13.02,17.77,5.35,6.53,10.78,12.99,16.19,19.47,11.98,14.35,23.97,28.74,34.98,43.85,4.79,6.57,9.43,13.28,13.57,20.29,1.74,2.95,3.4,5.95,4.87,9.04.34.72.68,1.45,1,2.18.35.8-.07-.17-.11-.28.16.39.32.79.47,1.18.49,1.3.93,2.6,1.32,3.94l7.23-9.49c-21.81-.71-43.66,7.07-63.42,15.5-23.55,10.05-45.97,23.03-66.59,38.2-18.41,13.54-36.62,28.98-49.21,48.3-8.72,13.39-14.89,31.78-4.36,46,5.93,8.01,14.81,12.71,24.09,15.84,5.69,1.92,11.6,3.18,17.54,4.09,3.79.58,7.6,1.07,11.41,1.43,1.86.18,3.73.33,5.59.46-1.54-.11-.28-.06.05-.03,1.08.12,2.13.31,3.21.37,10.41.59,20.99-2.25,31.35-2.94,2.43-.16,4.88-.26,7.32-.13.54.03,1.08.08,1.62.12,1.79.13-1.67-.39,0,0,.44.1.9.21,1.35.29.9.16,1.86,1.1.16-.07,1.97,1.35-.72-.97.5.25-1.31-1.31-.89-1.12-.44-.43-.77-1.17-.56-.72-.59-2.13,0,.35-.07.83-.02,1.17-.4-2.39.51-.72-.1-.22-.05.04-.95,2.22-.03.24-.37.79-.79,1.56-1.23,2.31-2.23,3.76-5.7,6.32-8.98,9.2-4.26,3.73-8.61,7.36-13.1,10.81-8.08,6.21-16.59,11.9-25.46,16.92-14.97,8.47-31.04,14.72-47.97,17.9-30.35,5.7-61.02-.23-89.9-11.05-31.26-11.71-60.35-28.65-89.51-44.71-31.07-17.12-62.6-33.9-96.28-45.35-8.02-2.73-16.15-5.11-24.38-7.13l4.48,11.02c13.22-17.47,29.94-30.74,48.46-42.21,4.95-3.06,9.87-6.22,15.01-8.95,4.74-2.52,9.73-4.6,14.37-7.31,4.33-2.53,8.5-4.94,13.19-6.77,5.5-2.14,10.98-4.25,15.76-7.77,3.26-2.4,4.89-6.5,2.69-10.26-1.88-3.21-6.98-5.1-10.26-2.69-4.5,3.31-9.47,5.15-14.6,7.21-5.5,2.21-10.33,5.11-15.48,7.99s-10.53,5.08-15.62,7.96-10.06,6.03-15.02,9.14c-19.96,12.52-37.21,27.29-51.45,46.1-2.93,3.87.2,9.97,4.48,11.02,34.11,8.37,65.89,23.42,96.74,39.91s59.97,34.01,91.4,48.16c29.27,13.17,60.53,23.31,92.97,22.92,36.22-.44,70.29-14.49,99.31-35.6,9.28-6.75,18.15-14.07,26.59-21.84,4.57-4.21,9.18-11.38,8.94-17.89-.46-12.97-15.54-13.74-25.25-13.06-5.83.41-11.62,1.24-17.42,1.96-4.67.57-9.4.43-14.03.94-1.26.14,1.6.3.46.08s-2.19-.3-3.3-.4c-2.01-.18-4.03-.31-6.04-.51-3.76-.37-5.63-.6-9.36-1.24-5.73-.98-11.44-2.32-16.91-4.32-.56-.21-1.12-.43-1.68-.64-1.38-.52.96.46-.34-.14-1.08-.5-2.15-.99-3.2-1.55-1.84-.97-3.56-2.09-5.26-3.29,1.69,1.19-.36-.33-.92-.84-.68-.63-1.32-1.29-1.95-1.97-.28-.3-.53-.63-.8-.94-.29-.33.91,1.44.2.23-.43-.73-.94-1.41-1.35-2.16-.49-.9-.93-2.63-.38-.63-.22-.79-.56-1.54-.77-2.33-.2-.73-.27-1.5-.47-2.22-.11-.4.08,1.89.08.48,0-.45-.07-.9-.09-1.35-.03-.79-.02-1.57.02-2.36.02-.4.07-.8.09-1.2.07-1.56-.07.33-.04.17.41-1.75.69-3.49,1.23-5.21.27-.87.58-1.72.89-2.57.16-.44.34-.87.51-1.3-.53,1.35-.28.64.1-.18.89-1.89,1.84-3.75,2.9-5.57,1.13-1.95,2.34-3.84,3.62-5.69.65-.93,1.31-1.85,1.98-2.77.16-.22,1.19-1.59.64-.86-.52.67.66-.83.87-1.1,6.88-8.59,14.81-16.32,23.13-23.51,2.29-1.98,4.61-3.91,6.97-5.81,2.85-2.29,3.7-2.96,6.42-5,5.1-3.83,10.33-7.51,15.65-11.03,10.91-7.24,22.23-13.87,33.89-19.83s20.94-10.1,32.76-14.25c5.27-1.85,10.62-3.51,16.03-4.9,2.52-.64,5.06-1.23,7.62-1.73,1.18-.23,2.36-.45,3.54-.65.58-.1,1.16-.19,1.74-.28.29-.05.58-.08.86-.13,1.09-.17-1.37.17-.29.03,4.34-.53,8.69-.83,13.06-.68,4.85.16,8.55-4.92,7.23-9.49-4.22-14.63-13.77-27.81-22.62-39.95-11.48-15.75-23.9-30.79-36.38-45.75-5.46-6.55-10.95-13.07-16.36-19.66-2.25-2.74-4.49-5.5-6.69-8.28-.23-.29-1.48-1.89-1.07-1.36s-.79-1.04-.95-1.25c-1.15-1.52-1.78-2.64-2.49-4.45-9.22-23.78-19.13-47.3-29.78-70.48-18.93-41.19-40.31-81.29-64.57-119.59-21.39-33.77-45.05-66.16-71.11-96.49-22.62-26.33-47.12-51.08-73.51-73.65-23.64-20.21-48.75-38.77-75.23-55.1-23.75-14.65-48.59-27.42-74.3-38.24-22.36-9.41-45.38-17.26-68.89-23.27-21.02-5.37-42.42-9.23-64-11.54-9.36-1-18.86-1.93-28.28-2-8.54-.06-12.01,8.26-14.63,15.12-4.15,10.85-5.76,22.78-6.34,34.32-.93,18.35,1.43,36.92,5.77,54.74,5.53,22.71,14.87,43.78,25.23,64.63.49.99.96,2,1.41,3.01.22.49.4,1,.64,1.47.14.27-.82-2.04-.32-.75.12.32.26.63.39.95.95,2.37,1.86,4.75,2.74,7.15,5.01,13.51,10.11,26.94,16.61,39.83,10.11,20.04,22.94,38.54,37.06,55.95,21.84,26.94,46.97,51.14,73.2,73.75,18.26,15.73,37.17,30.7,56.45,45.16s38.21,28.52,58.75,40.54c14.09,8.25,28.75,15.45,42.98,23.45,13.21,7.42,24.38,14.79,34.68,25.34,12.33,12.63,21.29,28.13,28.46,44.59,3.61,8.28,7.09,16.9,8.83,25.8.17.85.31,1.7.45,2.56s0-.04-.01-.19c.05.36.09.71.12,1.07.17,1.75.31,3.49.35,5.25.03,1.58,0,3.16-.09,4.73-.04.66-.1,1.32-.16,1.98-.04.44-.09.87-.14,1.3.08-.69.13-.84,0-.06-.49,2.93-1.18,5.82-2.12,8.64-.23.69-.48,1.38-.74,2.06-.19.49-.91,2.17-.31.81-.59,1.33-1.22,2.64-1.91,3.92-1.43,2.68-3.08,5.19-4.83,7.66-.8,1.13-.12.2-.35.49-.46.58-.92,1.15-1.4,1.72-1.02,1.22-2.09,2.41-3.18,3.57-2.08,2.19-4.27,4.27-6.56,6.24-1.08.93-2.18,1.83-3.29,2.72s-.28.22-.04.04c-.26.2-.53.4-.79.6-.71.53-1.42,1.05-2.14,1.57-5.18,3.71-10.65,7.01-16.28,9.99-2.77,1.47-5.57,2.86-8.41,4.18-1.31.61-2.62,1.2-3.94,1.79-.71.31-1.41.62-2.12.92-.09.04-1.1.47-.32.13.89-.38-.75.31-.92.38-5.45,2.22-10.96,4.26-16.55,6.1-9.04,2.98-18.23,5.51-27.52,7.58-2.7.6-5.4,1.17-8.12,1.67-1.31.24-5.36.63-1.46.31-4.04.33-7.5,3.21-7.5,7.5,0,3.8,3.44,7.83,7.5,7.5h0Z"/>
      </g>
      <g>
        <path class="cls-8" d="M801.31,661.62c-142.36-199.97-309.18-252.93-418.69-256.22-5.48-.16-23.68,65.51,18.77,164.45,5.41,12.61,4.18,9.53,5.41,12.61,6.03,7.5,15.21,7.35,22.59,13.55,8.08,6.79,18.03,10.55,27.11,15.73,21.77,12.42,44.96,23.07,69.06,29.94,23.78,6.78,47.86,11.9,71.95,17.28,22.25,4.97,43.51,5.5,66.11,6.5,18.3.81,36.45.92,54.75.62,12.65-.21,25.08-.01,37.68-1.23,10.12-.98,20.65-.26,30.63-1.93,5.64-.95,9.71,1.29,14.62-1.31Z"/>
        <path class="cls-2" d="M807.79,657.84c-26.64-37.38-56.15-72.79-89.06-104.82-27.93-27.19-58.3-51.99-90.87-73.43-28.17-18.54-58.01-34.37-89.19-47.24-26.61-10.98-54.19-19.62-82.37-25.51-12.87-2.69-25.86-4.77-38.91-6.32-5.91-.7-11.85-1.28-17.79-1.72-5.6-.42-11.36-1.02-16.98-.89-7.79.18-10.54,9.34-12.15,15.49-2.7,10.32-3.63,21.21-3.88,31.85-.9,38.5,8.23,77.25,22.02,112.98,3.33,8.62,7.01,17.09,10.7,25.56.09.2.17.4.26.6.43.96-.95-2.33-.51-1.21.65,1.65,1.28,3.19,2.44,4.59,3.32,4.02,7.86,6.55,12.58,8.55.97.41,1.93.82,2.91,1.22,1.89.78-1.43-.65.45.19,1.03.46,2.06.92,3.07,1.44s2.04,1.11,3,1.75c.16.11,1.83,1.41.59.41,1.06.85,2.11,1.7,3.2,2.52,4.37,3.31,9.17,5.95,14.04,8.43,10.44,5.33,20.57,11.25,31.08,16.46,11.16,5.54,22.63,10.52,34.35,14.75,11.74,4.24,23.8,7.49,35.89,10.54,12.22,3.08,24.51,5.87,36.81,8.6s25.64,5.75,38.74,7.35c12.38,1.51,24.85,2.1,37.31,2.64,12.93.56,25.86,1.03,38.8,1.11,12.95.08,25.9-.13,38.84-.31,12.66-.17,25.23-1.38,37.88-1.75,2.89-.08,5.79-.19,8.67-.41,1.3-.1,2.6-.23,3.9-.38,1.18-.14,2.36-.3,3.54-.47.13-.02,2.63-.26.98-.15,2.37-.16,4.7.14,7.06.18,3.55.05,6.74-.77,9.92-2.33,3.53-1.73,4.77-7.03,2.69-10.26-2.33-3.62-6.48-4.54-10.26-2.69,1.04-.51-.27.07-.71.2-1.36.42.95.06-.43.07s-2.85-.07-4.29-.16c-1.33-.08-2.65-.12-3.98,0-1.15.09-2.29.28-3.43.45-.38.06-.77.12-1.15.18-1.27.21.96-.07-.33.04-6.83.6-13.64.72-20.49,1.01s-13.7,1.07-20.58,1.3c-7.09.24-14.19.24-21.29.33-28.05.37-56.09-.07-84.1-1.89-6.86-.45-13.72-1.04-20.53-1.93-.89-.12-.16-.02.02,0-.4-.05-.79-.11-1.19-.17-.79-.11-1.59-.23-2.38-.36-1.73-.27-3.45-.55-5.17-.86-3.49-.63-6.95-1.38-10.41-2.15-13.77-3.07-27.56-6.07-41.28-9.38s-26.9-6.59-39.99-11.02c-6.2-2.1-12.32-4.43-18.36-6.95-.8-.33-.14-.06.02,0-.35-.15-.71-.3-1.06-.45-.83-.36-1.65-.71-2.48-1.08-1.53-.67-3.05-1.36-4.57-2.06-3.04-1.39-6.06-2.83-9.05-4.32-5.87-2.9-11.65-5.97-17.36-9.17-5.47-3.07-11.06-5.86-16.6-8.77-2.63-1.38-5.22-2.83-7.71-4.45-.6-.39-1.19-.79-1.77-1.19-.28-.2-2-1.48-1.06-.74-1.48-1.17-2.91-2.4-4.47-3.48-2.23-1.54-4.69-2.68-7.17-3.73-.97-.41-1.94-.82-2.91-1.22-.28-.12-.56-.23-.84-.35.07.03,1.19.52.41.17-1.19-.52-2.37-1.04-3.51-1.65-.53-.28-1.05-.57-1.56-.89-.22-.14-1.88-1.31-1.23-.8s-.68-.63-.89-.83c-.55-.53-1.05-1.1-1.53-1.68l1.93,3.31c-3.53-8.84-7.19-16.54-10.53-25.12-5.89-15.11-10.83-30.6-14.58-46.38-1.61-6.76-2.99-13.57-4.13-20.42-.26-1.55-.5-3.11-.74-4.67-.11-.76-.22-1.53-.33-2.29-.04-.31-.04-.88-.16-1.14.34.74.15,1.12,0,.02-.39-2.99-.72-5.99-1-8.99-.96-10.22-1.32-20.52-.83-30.78.19-4.09.55-8.16,1.03-12.23.03-.22.06-.44.08-.65.1-.9-.28,1.91-.14,1.03.06-.42.12-.84.18-1.25.13-.85.26-1.7.4-2.55.26-1.5.54-2.99.86-4.48.52-2.41,1.14-4.81,1.94-7.15.14-.41.29-.82.45-1.23.08-.2.17-.4.24-.6.36-.99-.99,2.11-.43,1.03.33-.63.63-1.26.98-1.88.41-.72,1.37-1.41-.68.82.15-.16.27-.34.44-.47.62-.5-1.92,1.38-1.27.98.32-.19.78-.35-.68.26-.53.22-3.93.49-1.83.59,3.95.19,7.91.32,11.86.56,8.39.53,16.77,1.33,25.11,2.38.95.12,1.97.38,2.93.38-2.36,0-.76-.1-.03,0,.66.09,1.31.18,1.97.28,2.19.31,4.38.64,6.56.99,4.47.71,8.93,1.49,13.37,2.34,9.36,1.79,18.66,3.89,27.89,6.28,19.98,5.17,39.61,11.71,58.73,19.46,1.22.49,2.44.99,3.66,1.5.61.25,1.22.51,1.83.76.26.11,1.28.55.25.1-1.11-.48.25.11.48.21,2.54,1.08,5.08,2.19,7.6,3.31,5.23,2.33,10.42,4.75,15.56,7.26,10.54,5.14,20.9,10.64,31.07,16.48,10.71,6.15,21.2,12.67,31.47,19.54,5.42,3.63,10.78,7.35,16.07,11.16,2.66,1.91,5.3,3.85,7.93,5.81,1.29.96,2.57,1.92,3.85,2.89.64.49,1.28.98,1.92,1.47.32.25.64.49.96.74,1.13.86-.55-.43.17.13,22.45,17.43,43.68,36.4,63.62,56.65,10.9,11.06,21.42,22.49,31.57,34.24,5.26,6.09,10.43,12.27,15.5,18.53,5.45,6.73,10.14,12.71,14.88,18.97,5.01,6.61,9.92,13.3,14.73,20.06,2.27,3.19,6.65,5.02,10.26,2.69,3.16-2.04,5.13-6.84,2.69-10.26Z"/>
      </g>
      <g>
        <path class="cls-7" d="M666.11,522.38s-19.3,49.91-48.33,35.81c-14.92-10.38-24.91-32.27-32.08-58.34-3.64-13.22-30.98,18.3-49.97,22.61-27.68,8.22-36.23-7.94-64.64-61.13-28.05,23.39-75.76,40.41-89.08-37.91-1.95-11.49,5.63-17.36,39.71-15.29,37.29,2.26,81,17.7,120.52,33.43,59.38,23.63,108.55,60.17,123.87,80.82Z"/>
        <path class="cls-2" d="M658.88,520.39c-.12.32-.26.63-.38.94-.38.94,1-2.33.51-1.22-.07.16-.14.32-.21.48-.22.51-.45,1.02-.68,1.52-1.3,2.84-2.72,5.63-4.26,8.36-1.99,3.52-4.19,6.91-6.61,10.15-.35.47-1.13,1.34.52-.67-.17.21-.33.42-.5.63-.34.42-.68.84-1.02,1.25-.69.83-1.41,1.64-2.14,2.43-1.53,1.64-3.16,3.15-4.88,4.58-1.28,1.07,1.59-1.16.27-.2-.42.31-.85.62-1.28.91-.93.63-1.89,1.22-2.88,1.74-.45.24-.91.47-1.37.69-.23.11-.47.2-.7.31,2.32-1.15,1.45-.59.85-.37-.95.35-1.91.67-2.89.91-.49.12-.99.21-1.49.31-.65.13-1.67.07.99-.12-.25.02-.51.06-.76.08-1.04.09-2.08.11-3.11.05-.82-.05-2.69-.55.13.08-.54-.12-1.09-.18-1.62-.3-1.23-.27-2.42-.67-3.6-1.11s1.84.83.66.28c-.28-.13-.59-.24-.85-.4-.49-.29-.93-.69-1.39-1.01,2.21,1.56.12.07-.38-.36-.63-.54-1.25-1.09-1.85-1.66-1.06-1-2.07-2.05-3.04-3.13-.41-.46-.82-.93-1.22-1.41-.43-.51-2.25-3.01-.73-.85-3.93-5.57-7.38-11.26-10.25-17.45-.38-.81-.74-1.63-1.1-2.45-.22-.51-1.02-2.95-.32-.71-.6-1.9-1.52-3.75-2.22-5.62-1.36-3.63-2.6-7.3-3.75-11-1.91-6.14-2.77-14.42-10.1-16.46-4.71-1.32-9.41.51-13.53,2.72s-8.17,5.17-12.09,7.95c-4.46,3.17-8.91,6.38-13.58,9.26-2.3,1.42-4.65,2.76-7.09,3.91-.54.26-1.14.45-1.66.75-.06.03,1.97-.8.97-.42-.27.1-.54.21-.81.32-1.13.42-2.28.76-3.44,1.07-1.98.52-3.94,1.08-5.96,1.45-.47.09-.93.16-1.4.23-1.57.25,2.33-.27.4-.06-.95.1-1.9.17-2.85.18-.77.01-1.54,0-2.31-.05-.41-.03-.81-.07-1.22-.11-.66-.06-1.62-.34,1.19.16-.26-.05-.53-.08-.79-.13-1.57-.28-3.07-.75-4.56-1.32-.99-.38,2.02.9,1.06.44-.18-.09-.37-.17-.55-.25-.37-.17-.73-.36-1.08-.55-.73-.39-1.44-.82-2.13-1.28-.36-.24-.71-.48-1.05-.73-1.5-1.1,1.47,1.2.3.24-.77-.63-1.52-1.28-2.25-1.97-1.47-1.39-2.84-2.88-4.13-4.43-.35-.42-.7-.84-1.04-1.27-.18-.22-.35-.44-.52-.66-.74-.93,1.09,1.44.56.73-.74-1-1.49-2-2.21-3.02-7.52-10.68-13.62-22.37-19.79-33.85-2.04-3.79-4.06-7.59-6.09-11.38-1.1-2.06-3.24-3.28-5.48-3.58-2.5-.34-4.4.48-6.3,2.06-.91.75-1.82,1.49-2.75,2.22-1.21.94.95-.73.61-.47-.21.16-.43.33-.64.49-.49.37-.99.74-1.49,1.11-1.96,1.43-3.96,2.79-6.01,4.08s-4.17,2.51-6.32,3.64c-1.07.56-2.16,1.1-3.25,1.61-.53.25-1.06.49-1.59.72-.28.12-.57.24-.85.37-.16.08,2.07-.85,1.15-.49-.14.06-.29.12-.43.18-4.35,1.77-8.81,3.01-13.44,3.77-.86.14,2.37-.28.91-.12-.25.03-.51.06-.76.08-.61.06-1.23.11-1.84.15-1.08.06-2.16.09-3.24.07-1.14-.02-2.29-.1-3.42-.22-.38-.04-1.47-.19.15.03s.53.07.15,0c-.56-.09-1.13-.2-1.68-.32-1.12-.24-2.23-.54-3.32-.89-.48-.16-.96-.32-1.43-.5-.27-.1-.54-.21-.81-.32-.96-.37,2.06.91.78.32-2.14-.99-4.17-2.15-6.08-3.53-.13-.09-.25-.19-.38-.28-.8-.57,1.06.84.95.74-.23-.22-.51-.4-.75-.6-.5-.41-1-.84-1.48-1.28-.94-.86-1.84-1.76-2.7-2.7-.48-.52-.94-1.06-1.4-1.6-.2-.24-.4-.49-.6-.74-.86-1.05,1.23,1.66.24.31-.85-1.17-1.68-2.35-2.45-3.58-1.8-2.86-3.35-5.87-4.72-8.95-.16-.37-.35-.74-.49-1.12,0,0,.78,1.89.35.81-.09-.22-.18-.44-.27-.66-.36-.91-.71-1.82-1.05-2.74-.69-1.88-1.32-3.79-1.9-5.71-1.3-4.29-2.37-8.65-3.25-13.04-.23-1.16-.46-2.33-.67-3.49-.17-.95-.53-4.4-.2-.82-.08-.88-.17-1.74-.14-2.62.01-.38.12-.81.09-1.19,0,.09-.44,2.46-.16,1.31.05-.22.09-.44.15-.67.09-.36.25-.7.35-1.06.09-.33-1.03,2.13-.49,1.18.11-.19.2-.4.31-.59.47-.8,1.45-1.52-.45.46.29-.3.54-.63.85-.92.81-.78,1.33-.87-.43.27.4-.26.79-.54,1.2-.78s.86-.45,1.29-.67c1.15-.56-1.27.5-.93.39.31-.1.61-.24.92-.35,1.19-.42,2.42-.75,3.66-1.02.68-.15,1.37-.28,2.05-.39.34-.06.68-.1,1.02-.16.87-.14-1.97.24-1.08.14.26-.03.52-.07.78-.1,1.79-.21,3.58-.34,5.37-.42,9.43-.45,18.98.11,28.35,1.22.55.07,1.09.13,1.64.2.31.04.63.1.94.12-.14,0-1.88-.26-.58-.08s2.53.36,3.8.56c2.49.39,4.96.82,7.44,1.29,5.08.96,10.13,2.07,15.15,3.29,21.08,5.14,41.65,12.21,61.93,19.9,5.07,1.92,10.13,3.89,15.18,5.88,2.49.99,4.98,1.98,7.46,3,.64.26,1.27.53,1.91.79.18.08,1.02.43.06.02-1.01-.42.04.02.29.13,1.26.54,2.52,1.08,3.78,1.63,9.5,4.17,18.84,8.69,28.01,13.55,16.39,8.69,32.27,18.42,47.28,29.33,1.64,1.19,3.27,2.4,4.89,3.63.41.31.81.62,1.22.93.18.14.41.36.6.46.11.06-1.39-1.08-.77-.6.78.61,1.57,1.22,2.34,1.84,2.89,2.29,5.73,4.63,8.5,7.04,4.58,3.98,9.03,8.15,13.09,12.66.79.87,1.56,1.76,2.31,2.66.36.44.72.88,1.08,1.32.41.51,1.16,1.59-.5-.66.17.23.34.45.51.68,1.21,1.62,2.45,2.89,4.48,3.45,1.8.49,4.19.27,5.78-.76,3.1-2,5.2-6.9,2.69-10.26-7.83-10.51-17.8-19.24-28.06-27.31-14.67-11.54-30.26-21.85-46.47-31.1-19.08-10.88-38.97-20.03-59.39-28.06-20.84-8.19-41.93-15.89-63.52-21.86-20.64-5.7-41.86-9.72-63.32-10.03-7.58-.11-15.7.02-23,2.3-5.15,1.61-10.47,4.63-12.79,9.77-1.2,2.66-1.87,5.38-1.8,8.33.08,3.86,1.04,7.79,1.83,11.55,1.86,8.82,4.52,17.42,8.27,25.62,5.08,11.09,13.27,21.84,24.73,26.84,5.36,2.34,10.89,3.65,16.77,3.77,5.26.11,10.62-.74,15.67-2.17,10.08-2.85,19.55-8.02,27.96-14.2,2.36-1.74,4.68-3.54,6.94-5.42l-11.78-1.52c7.04,13.18,13.89,26.55,21.88,39.2,5.32,8.42,11.32,16.93,19.73,22.53,7.48,4.97,16.19,5.8,24.86,4.4,10.45-1.69,19.61-6.6,28.26-12.5,4.49-3.07,8.86-6.32,13.36-9.38,1.93-1.31,3.88-2.59,5.92-3.73.82-.46,1.66-.88,2.51-1.28,1.37-.65-2.13.82-.44.2.41-.15.83-.29,1.26-.4.33-.09.67-.13,1-.21-2.56.63-1.89.25-1,.2,1.5-.09-1.7-.32-1.09-.17.13.03.26.07.38.1.88.27-2.19-1.08-1.2-.49s-1.78-1.62-.8-.61c.84.86-1.34-2-.58-.72s-.61-2.04-.3-.74c.23.94.53,1.87.79,2.79,2.16,7.59,4.65,15.09,7.68,22.38,5.37,12.91,12.29,26.27,23.43,35.17,1.43,1.14,2.9,2.47,4.59,3.22s3.38,1.48,5.15,1.99c2.7.78,5.61,1.19,8.42,1.14,5.34-.08,10.54-1.69,15.17-4.32,8.56-4.86,15.11-12.88,20.35-21.05,3.57-5.57,6.53-11.48,9.05-17.58.12-.29.24-.58.35-.87.66-1.71.13-4.26-.76-5.78s-2.69-3.04-4.48-3.45c-4.3-.98-7.7,1.31-9.23,5.24Z"/>
      </g>
      <g>
        <path class="cls-6" d="M719.85,904.67c-76.07,15.73-121.12,88.93-15.35,102.22,14.52,2.46,36.72,17.19,47.15,1.19,14.9-25.67,18.33-55.94-.62-80.58-8.89-9.7-16.27-24.89-31.18-22.83Z"/>
        <path class="cls-2" d="M717.86,897.43c-14.72,3.06-29.13,8.37-42.2,15.84-10.95,6.25-21.44,14.23-29.23,24.24-6.78,8.72-12.19,19.22-11.74,30.57.22,5.54,1.72,10.91,4.46,15.73,3.07,5.41,7.51,9.67,12.44,13.36,5.65,4.23,12.18,7.19,18.77,9.62,8.07,2.98,16.51,4.91,24.99,6.28,3.04.49,6.09.91,9.15,1.29l-1.99-.27c5.18.9,10.14,2.84,15.09,4.53,5.74,1.96,11.51,3.64,17.59,4.17,6.69.58,13.12-1.23,18.3-5.52,2.71-2.24,4.6-5.26,6.25-8.32,1.9-3.52,3.54-7.14,5.07-10.83,5.27-12.65,7.95-26.89,6.24-40.57-.97-7.78-3.01-15.06-6.36-22.16-1.47-3.11-3.2-6.1-5.16-8.93s-4.36-5.52-6.58-8.27c-3.46-4.29-6.7-8.83-10.75-12.61-5.14-4.8-11.12-7.99-18.19-8.57-1.39-.11-2.78-.05-4.16.13-2.07.27-3.77.66-5.3,2.2-1.3,1.3-2.28,3.44-2.2,5.3s.72,3.95,2.2,5.3c1.36,1.24,3.39,2.44,5.3,2.2,1.65-.21,3.29-.24,4.95-.05l-1.99-.27c1.62.22,3.18.65,4.69,1.27l-1.79-.76c1.2.52,2.35,1.13,3.44,1.85.25.17.5.34.75.52.29.21,1.36,1.02.22.15s-.17-.12.08.09c.28.23.55.47.82.71,2.08,1.86,3.93,3.95,5.71,6.09s3.54,4.45,5.31,6.67c.9,1.12,1.81,2.23,2.75,3.31.2.23.39.5.62.7.49.43-.64-.91-.6-.83.11.18.26.35.39.52.59.8,1.17,1.61,1.73,2.44,2.26,3.34,4.2,6.89,5.79,10.6l-.76-1.79c2.13,5.06,3.56,10.36,4.3,15.79l-.27-1.99c.76,5.9.7,11.85-.07,17.75l.27-1.99c-1.02,7.51-3.14,14.8-6.09,21.77l.76-1.79c-1.61,3.76-3.4,7.48-5.49,11-.25.41-.52.8-.79,1.2-.75,1.09,1.24-1.44.36-.49-.56.61-1.1,1.22-1.73,1.76-1.03.89.26-.35.6-.44-.3.08-.68.48-.95.65-.64.4-1.31.73-2,1.03l1.79-.76c-1.39.57-2.84.94-4.33,1.14l1.99-.27c-2.27.27-4.55.17-6.82-.13l1.99.27c-5.43-.77-10.64-2.58-15.81-4.36-2.53-.87-5.05-1.76-7.62-2.52-3.05-.91-6.05-1.42-9.21-1.84l1.99.27c-11.66-1.57-23.35-4-34.23-8.56l1.79.76c-4.5-1.9-8.87-4.18-12.82-7.07-.24-.17-.47-.35-.71-.53-.79-.59,1.75,1.39.75.57-.41-.34-.83-.67-1.23-1.01-.78-.66-1.53-1.36-2.25-2.08-.67-.67-1.31-1.36-1.92-2.08-.29-.34-.56-.68-.84-1.02,1.57,1.91.78,1.03.18.18-1.13-1.61-2.09-3.33-2.87-5.14l.76,1.79c-.91-2.16-1.53-4.43-1.85-6.76l.27,1.99c-.31-2.44-.29-4.9.04-7.34l-.27,1.99c.43-3.11,1.32-6.12,2.54-9.01l-.76,1.79c1.36-3.2,3.11-6.22,5.1-9.06.26-.37.52-.73.78-1.09.44-.6,1.71-2.18-.16.19.57-.72,1.15-1.44,1.75-2.15,1.28-1.52,2.63-2.98,4.04-4.39s2.93-2.84,4.47-4.18c.81-.71,1.63-1.4,2.47-2.07.41-.33.82-.66,1.23-.98.27-.21,1.08-.84-.08.06-1.24.96-.15.12.12-.08,3.6-2.72,7.37-5.2,11.27-7.47,4.76-2.76,9.7-5.2,14.76-7.34l-1.79.76c8.53-3.59,17.39-6.32,26.45-8.2,3.85-.8,6.43-5.54,5.24-9.23-1.32-4.07-5.1-6.1-9.23-5.24Z"/>
      </g>
      <g>
        <path class="cls-7" d="M599.16,658.82c-66.06-8.55-180.41-39.57-193.53-81.5,13.55-8.64,32.02-8,48.68-9.16,24.1-.12,29.4,36.17,39.29,52.89,4.12,8.03,8.93,4.45,15.71.97,29.87-15.47,64.87-47.11,78.55,3.75,3.48,7.59,5.06,27.81,11.3,33.05Z"/>
        <path class="cls-2" d="M599.16,651.32c-.64-.08-1.27-.17-1.91-.25l1.99.27c-16.62-2.23-33.12-5.35-49.47-9.06-18-4.09-35.85-8.94-53.36-14.77-9.55-3.18-19.01-6.67-28.29-10.58l1.79.76c-10.54-4.45-20.9-9.44-30.64-15.46-2.2-1.36-4.36-2.77-6.48-4.25-.98-.69-1.95-1.38-2.9-2.1-.23-.18-.47-.35-.7-.53-.13-.1-.26-.21-.4-.3-.23-.15,1.61,1.25,1.03.79-.48-.38-.97-.76-1.45-1.15-3.4-2.75-6.63-5.74-9.48-9.05-.37-.43-.73-.86-1.08-1.3-.17-.22-.34-.44-.52-.65-.13-.17,1.39,1.83.55.7-.64-.86-1.25-1.74-1.83-2.64-1.11-1.74-2.09-3.56-2.9-5.46l.76,1.79c-.38-.9-.71-1.81-1.01-2.74l-3.45,8.47c1.88-1.18,3.84-2.2,5.88-3.08l-1.79.76c5.32-2.24,10.97-3.46,16.68-4.23l-1.99.27c5.17-.68,10.38-1,15.59-1.27,2.56-.13,5.12-.26,7.68-.41,2.05-.12,4.02-.25,6.06.02l-1.99-.27c1.82.26,3.59.75,5.29,1.46l-1.79-.76c1.19.52,2.34,1.13,3.42,1.85.65.43,2.26,1.86.07-.03.5.43,1.02.83,1.51,1.28.94.85,1.82,1.77,2.64,2.73.49.57,2.08,2.72.3.3.39.54.79,1.07,1.17,1.61,3.31,4.76,5.78,10.06,8.03,15.39l-.76-1.79c2.31,5.49,4.36,11.08,6.67,16.57,1.24,2.95,2.49,5.9,3.99,8.73,1.88,3.54,4.08,7.28,7.85,9.07,4.91,2.33,9.62,1.2,14.31-1.01,2.89-1.36,5.72-2.92,8.52-4.46,5.27-2.9,10.42-6.02,15.63-9.04,5.68-3.3,11.43-6.52,17.48-9.09l-1.79.76c4.03-1.69,8.21-3.1,12.55-3.68l-1.99.27c2.23-.28,4.47-.34,6.7-.06l-1.99-.27c1.74.24,3.43.68,5.05,1.34l-1.79-.76c1.41.6,2.71,1.36,3.97,2.23s-1.58-1.31-.44-.33c.3.25.6.51.88.77.63.58,1.23,1.2,1.8,1.84.28.32.56.65.83.98.74.89-.55-.7-.6-.79.11.19.27.36.4.54.58.8,1.12,1.63,1.63,2.48,1.15,1.91,2.13,3.93,3.01,5.98l-.76-1.79c1.67,3.99,2.64,8.21,4.31,12.18l-.76-1.79c2.29,5.59,3.12,11.79,4.56,17.63.75,3.05,1.59,6.09,2.77,9,1.34,3.31,2.89,6.78,5.66,9.17,1.52,1.32,3.23,2.2,5.3,2.2,1.84,0,4.04-.82,5.3-2.2,2.58-2.81,3.17-7.87,0-10.61-.36-.31-.66-.66-.99-1-.74-.78,1.29,1.82.58.74-.15-.22-.3-.44-.44-.67-.63-1-1.14-2.08-1.6-3.17l.76,1.79c-3.9-9.42-4.24-19.93-8.43-29.24l.76,1.79c-2.43-8.98-6.07-18.34-12.79-25.03-5.31-5.28-12.37-8.19-19.85-8.23s-14.44,2.45-21.13,5.37-12.91,6.55-19.14,10.2c-3.59,2.11-7.17,4.23-10.8,6.28s-7.66,4.39-11.67,6.12l1.79-.76c-.98.41-1.98.75-3.04.9l1.99-.27c-.55.06-1.09.06-1.64,0l1.99.27c-.39-.07-.75-.17-1.12-.31l1.79.76c-.3-.13-.57-.31-.86-.46-.98-.47,1.51,1.47.57.41-.23-.26-.47-.54-.72-.78.82,1.1,1.01,1.33.57.7-.14-.2-.27-.41-.39-.62-.64-1.06-1.23-2.16-1.81-3.26-1.13-2.16-2.12-4.38-3.07-6.62l.76,1.79c-5.43-12.88-9.52-26.53-18.36-37.6-4.2-5.26-10.06-9.54-16.67-11.12-1.99-.48-4.06-.75-6.1-.83s-4.3.19-6.43.3c-4.8.26-9.6.46-14.39.86-11.32.94-22.96,2.84-32.74,9.01-2.73,1.72-4.47,5.25-3.45,8.47,3.4,10.76,11.25,19.51,19.94,26.42,10.99,8.74,23.27,15.55,36.01,21.37,14.95,6.84,30.42,12.52,46.1,17.44,15.79,4.96,31.82,9.17,47.97,12.77,14.58,3.25,29.27,6.01,44.07,8.09,2.22.31,4.45.61,6.68.9,1.76.23,4.11-1,5.3-2.2,1.3-1.3,2.28-3.44,2.2-5.3s-.72-3.95-2.2-5.3c-1.57-1.44-3.21-1.93-5.3-2.2Z"/>
      </g>
      <path class="cls-2" d="M829.06,554.34c-10.67,8.6-24.55,9.09-31,1.08-6.45-8-3.03-21.47,7.64-30.07,10.67-8.6,32.66-15.62,39.11-7.61,6.45,8-5.07,28-15.75,36.6Z"/>
    </g>
    <circle class="cls-11" cx="807.3" cy="807.3" r="791.5"/>
    <path class="cls-1" d="M1405.2,558.1c-65.96,154.87-226.42,264.2-413.9,264.2-246.32,0-446-188.71-446-421.5,0-65.13,15.63-126.8,43.54-181.86-259.94,90.35-446.54,337.78-446.54,628.86,0,367.55,297.51,665.5,664.5,665.5s664.5-297.95,664.5-665.5c0-103.84-23.75-202.12-66.1-289.7Z"/>
    <g class="cls-10">
      <path class="cls-9" d="M225.8,1328.8c153.54-5.37,304.48-42.83,449.09-93.9,48.53-17.12,96.6-36.14,144-56.26,63.36-26.94,125.78-56.42,187.84-87.24-201.74,134.99-432.52,236.75-675.57,263.53-34.96,3.35-70.17,5.03-105.36,3.88,0,0,0-30,0-30h0Z"/>
    </g>
  </g>
</svg>