<svg id="Layer_1" data-name="Layer 1" xmlns="http://www.w3.org/2000/svg" viewBox="0 0 591.69 354.31"><defs><style>.cls-1{fill:#131313;}.cls-2{fill:#01b9fd;}.cls-3{fill:#f6f6f6;}.cls-4{fill:#e0e0e0;}.cls-5{fill:#8d8d8d;}.cls-6{fill:#8f8f8f;}.cls-7{fill:#8e8e8e;}.cls-8{fill:#8c8c8c;}.cls-9{fill:#c4c4c4;}.cls-10{fill:#babdbe;}.cls-11{fill:#bdbebe;}.cls-12{fill:#bcbebe;}.cls-13{fill:#828282;}.cls-14{fill:#bdbdbd;}.cls-15{fill:#6dbfdf;}.cls-16{fill:#85c2da;}.cls-17{fill:#9ba9ae;}.cls-18{fill:#b6c3c7;}.cls-19{fill:#b2bcbf;}.cls-20{fill:#cdcdcd;}.cls-21{fill:#e9e9e9;}.cls-22{fill:#93b4c1;}.cls-23{fill:silver;}.cls-24{fill:#88c3da;}.cls-25{fill:#9b9b9b;}.cls-26{fill:#8ac3d9;}</style></defs><path class="cls-1" d="M753.78,703.43c1.38-6.34,2.73-12.63,4.13-18.91,1-4.54,1.88-9.11,3.19-13.56.75-2.54-1.29-3.32-2.23-4.76-6.14-9.4-12.38-18.74-18.57-28.11q-38.55-58.32-77-116.68c-2.08-3.17-4.11-3.76-7.64-2.52-22,7.72-44.14,15.23-66.22,22.82a13.55,13.55,0,0,1-1.33.52c-1.23.28-2.73,1.11-3.49-.54-.66-1.43.76-2.05,1.67-2.76q10.78-8.37,21.57-16.73,27.06-21,54.11-42.13c1.64-1.28,2.81-1.73,3.9.54a9.1,9.1,0,0,0,1.88,2.16q52.84,54,105.65,108c2,2.06,3,2.12,5.27.3q53-43.28,106.18-86.38c4.22-3.43,4.57-3.46,8.86-.24q49.61,37.36,99.21,74.73c1.82,1.38,2.75,1.65,4.5-.34q50.92-58.14,102-116.11,36.21-41.16,72.38-82.34A15.18,15.18,0,0,1,1173,379c.68-.62,1.33-1.6,2.42-.86,1.3.87.54,1.85,0,2.78-5.85,9.6-12.79,18.44-19.33,27.56q-67.3,93.9-134.8,187.65c-1.39,1.94-.1,3.6-1,5.5Q991,664.11,962,726.75c-.84,1.8-1.34,2.9-4.18,1.85-14.73-5.48-29.64-10.45-44.47-15.66a6.47,6.47,0,0,0-5.38.3c-10.56,5-22.08,8.51-31.62,15-10.29,7-19.43,3.12-29.07.84-29.57-7-59.08-14.22-88.63-21.33C756.23,707.13,754.06,706.41,753.78,703.43Z" transform="translate(-584.4 -377.87)"/><path class="cls-2" d="M785.53,612.71c3,2.8,7.06,2.16,10.64,2.81,10.17,1.85,20.41,3.28,30.62,4.84,8.6,1.32,17.2,2.57,25.79,3.88,6.63,1,13.24,2.06,19.86,3.1l25.39,4c3.25.51,6.51,1,9.76,1.51,1.61.27,2.24,1,1.41,2.72-2.65,5.5-5.21,11-7.73,16.61-4.27,9.42-8.42,18.9-12.72,28.3-4.8,10.47-10,20.78-14.49,31.37-2.31,5.4-5.94,10.29-6.51,16.49-.18,2-2.74,1.87-4.46,1.48-7-1.61-13.93-3.32-20.89-5-27.48-6.67-55-13.39-82.45-20-2.4-.57-3.1-1.22-2.51-3.79,4.32-19.05,8.44-38.16,12.69-57.23,2.89-13,5.9-25.93,9-39.63l5.25,6.33c-.25.79-.94,1-1.79,1.2C783.54,612.13,784.7,611.91,785.53,612.71Z" transform="translate(-584.4 -377.87)"/><path class="cls-2" d="M915.82,632.27l102.69-34.73L959.42,724.88c-6-11.44-11.77-22.42-17.52-33.41q-14.14-27-28.3-54.07a4.08,4.08,0,0,1-.41-3.7C913.5,632.18,915,632.8,915.82,632.27Z" transform="translate(-584.4 -377.87)"/><path class="cls-2" d="M796.44,596.08c-4.55,0-9.11,0-13.66.14-1.31,0-2.57-.18-3-1.39-.51-1.43,1-1.76,1.87-2.45,8.57-7,17.09-14,25.68-21,10.69-8.67,21.44-17.26,32.13-25.93q14.52-11.78,29-23.62c5.61-4.59,11.17-9.23,16.78-13.82a9.11,9.11,0,0,1,1.92-.83c1.46,10.22,2.91,20.23,4.32,30.25,2.52,18,4.95,36,7.62,54,.42,2.79-.06,3.47-2.87,3.43-9-.12-18,0-27,.08-3.25.5-6.53.11-9.8.23h-6.26c-1.38.1-2.79-.23-4.16.24l-32.35.25c-3.25.5-6.52.1-9.77.23h-6.26C799.22,595.94,797.81,595.61,796.44,596.08Z" transform="translate(-584.4 -377.87)"/><path class="cls-2" d="M663.29,494.16c0-2.75.06-5.51.13-8.26,0-.55,0-1.34.36-1.6.78-.61,1.29.25,1.75.72,3.56,3.55,7.31,6.94,10.57,10.76,5.91,6.92,12.66,13,19,19.43,15.78,16,31.74,31.86,47.15,48.21,10.58,11.23,21.78,21.82,32.5,32.9a6.25,6.25,0,0,1,1.48,6.24c-4.09,18.49-8.32,36.94-12.53,55.4,0,.09-.18.15-.61.47-.61-.89-1.27-1.77-1.85-2.7q-47.89-76.89-95.8-153.79c-.69-1.11-1.53-2.12-2.3-3.18A11.49,11.49,0,0,1,663.29,494.16Z" transform="translate(-584.4 -377.87)"/><path class="cls-2" d="M904.45,594.67c-2.27.66-2.21-1-2.41-2.42q-2-14-4-28-3.85-27.3-7.68-54.61a4.92,4.92,0,0,1,.19-3.49c5.55,4.13,11.06,8.19,16.52,12.3q24.11,18.09,48.18,36.21,17.91,13.49,35.79,27c1.33,1,1.27,1.75.46,3.76-3.2,8-9.3,8.74-16.42,8a5.77,5.77,0,0,0-.72,0c-3,.49-6.09.1-9.14.22-2.73.14-5.48-.29-8.2.27l-35.16.23c-2.11.48-4.24.1-6.35.22h-3.75C909.31,594.55,906.86,594.09,904.45,594.67Z" transform="translate(-584.4 -377.87)"/><path class="cls-2" d="M870.91,725.91l39.7-86.73c1.95,1.25,2.17,3.27,3,4.86q11.32,21.38,22.52,42.83c5.08,9.72,10.05,19.49,15.1,29.22,1,1.89,2,3.72,3.09,5.57.42.75.84,1.59.12,2.29s-1.3-.21-1.92-.43c-13.09-4.55-26.28-8.84-39.19-13.86-5-1.95-7.79,1.48-11.29,3-10.2,4.38-20.2,9.21-30.28,13.86Z" transform="translate(-584.4 -377.87)"/><path class="cls-2" d="M1147.7,414.47c-4.77,7.15-9.86,14-15,20.93-4.56,6.08-8.76,12.43-13.18,18.62q-9.4,13.2-18.9,26.35c-7.56,10.49-15.17,20.93-22.72,31.43q-14.48,20.13-28.89,40.32c-7.24,10.12-14.51,20.22-21.65,30.42-2.64,3.76-5.63,7.26-8,11.22-1.32,2.18-3,.92-4.2-.54-1.62-.54-3.3-.12-4.94-.26-1.66.12-3.34-.25-5,.24-4.08,0-8.15.1-12.22.09-.76,0-1.82.44-2.18-.59a2.53,2.53,0,0,1,.66-2.61c4.61-5.26,9.15-10.59,13.74-15.87,4.76-5.48,9.33-11.16,14.39-16.37,6.08-6.25,11.4-13.13,17.22-19.59,8.13-9,16-18.3,24-27.43,5.65-6.46,11.4-12.83,17.06-19.28,8.25-9.39,16.45-18.83,24.7-28.23,5.58-6.36,11.24-12.66,16.82-19q12.49-14.24,25-28.51a28.62,28.62,0,0,1,2.36-2.17A.86.86,0,0,1,1147.7,414.47Z" transform="translate(-584.4 -377.87)"/><path class="cls-2" d="M782.9,599.23l30.73-.27c3.11-.48,6.25-.1,9.37-.22,2.44.11,4.89-.24,7.32.2,11.94-1.14,23.91-.27,35.86-.7,2.11-.48,4.24-.1,6.36-.22h9.84c1.35-.1,2.73.23,4.07-.24,9.46-.43,9.45-.43,12.82,8.28,2.91,7.56,5.85,15.1,8.86,22.88-3.54,1.07-6.75-.15-9.9-.59-12.12-1.7-24.21-3.62-36.29-5.55-11.26-1.81-22.48-3.82-33.74-5.59-8.6-1.36-17.24-2.47-25.86-3.76-4.3-.65-8.58-1.47-12.88-2.15a3.2,3.2,0,0,1-2-1.41,41.25,41.25,0,0,1-6-8.33A1.88,1.88,0,0,1,782.9,599.23Z" transform="translate(-584.4 -377.87)"/><path class="cls-2" d="M1009.49,597.42c-10.11,3.43-20.23,6.88-30.35,10.28-15.15,5.09-30.36,10-45.42,15.31-6.84,2.43-14,4-20.52,7.34-1.18.61-1.39,0-1.74-.85-4.06-10.44-8.15-20.86-12.5-32H918.8c3-.5,6.09-.11,9.13-.23h6.9c1.39-.1,2.81.24,4.18-.24l32.35-.25c3.39-.7,6.87.28,10.25-.52,2.58.12,5.18-.63,7.76.06a14.39,14.39,0,0,0,5.7,0l13.66,0A1,1,0,0,1,1009.49,597.42Z" transform="translate(-584.4 -377.87)"/><path class="cls-2" d="M597.81,534q14.15-11,28.29-22.08,15.55-12.13,31.12-24.24a6.21,6.21,0,0,1,3.38-1.44c-.89,6.22-.48,12.34-1.16,18.38a47,47,0,0,0-.29,6.36c.06,2.7-.85,3.94-3.5,4.81-12.57,4.13-25.06,8.53-37.59,12.81-6.43,2.19-12.87,4.34-19.3,6.51A1.15,1.15,0,0,1,597.81,534Z" transform="translate(-584.4 -377.87)"/><path class="cls-2" d="M662.56,507.52V504l.65-.24q49.89,80.12,100,160.64c-2.4.2-2.54-1.06-3.09-1.89L667.66,522.68c-1.5-2.25-2.93-4.55-4.49-6.76a4.9,4.9,0,0,1-1.11-4C662.68,510.51,662,508.94,662.56,507.52Z" transform="translate(-584.4 -377.87)"/><path class="cls-3" d="M785.53,612.71c-1.83,0-3.75.46-5.26-1,.8-2.29,2.85.05,3.93-1.13C784.64,611.26,785.08,612,785.53,612.71Z" transform="translate(-584.4 -377.87)"/><path class="cls-4" d="M1147.7,414.47l-1-.85c1.26-1.5,2.3-3.18,4-4.32a.51.51,0,0,1,.84,0A19.39,19.39,0,0,1,1147.7,414.47Z" transform="translate(-584.4 -377.87)"/><path class="cls-5" d="M859.16,594.88h10.05c-3.34.91-6.75.59-10.14.51-.22-.16-.27-.29-.17-.39A.38.38,0,0,1,859.16,594.88Z" transform="translate(-584.4 -377.87)"/><path class="cls-6" d="M806.6,595.61h10c-3.33.88-6.72.6-10.1.5-.22-.14-.28-.26-.19-.37A.34.34,0,0,1,806.6,595.61Z" transform="translate(-584.4 -377.87)"/><path class="cls-7" d="M981.61,596.29c-3.36,1.34-6.83.42-10.25.52C974.74,595.9,978.18,596.23,981.61,596.29Z" transform="translate(-584.4 -377.87)"/><path class="cls-8" d="M964.87,593.45h9.47c-3.13.86-6.32.62-9.5.48Z" transform="translate(-584.4 -377.87)"/><path class="cls-7" d="M928.24,597.53H918.8c3.11-.85,6.27-.63,9.43-.47Z" transform="translate(-584.4 -377.87)"/><path class="cls-8" d="M823.13,599h-9.5c3.14-.87,6.34-.61,9.54-.48Z" transform="translate(-584.4 -377.87)"/><path class="cls-9" d="M597.81,534l1,1.11c-1.19,1.08-2.73,1-4.27,1.09C595.59,535.44,596.7,534.71,597.81,534Z" transform="translate(-584.4 -377.87)"/><path class="cls-10" d="M964.87,593.45a4,4,0,0,1,0,.49H957C959.55,592.64,962.24,593.56,964.87,593.45Z" transform="translate(-584.4 -377.87)"/><path class="cls-11" d="M928.24,597.53a3.69,3.69,0,0,1,0-.47l7.14,0c.24.13.32.25.22.36a.34.34,0,0,1-.26.15Z" transform="translate(-584.4 -377.87)"/><path class="cls-10" d="M823.13,599a4.22,4.22,0,0,1,0-.49c2.39.1,4.83-.74,7.15.46Z" transform="translate(-584.4 -377.87)"/><path class="cls-12" d="M904.45,594.67c2.31-1.25,4.78-.4,7.18-.52.24.13.32.25.23.36a.34.34,0,0,1-.26.16Z" transform="translate(-584.4 -377.87)"/><path class="cls-12" d="M882.8,598.25l-6.43,0c-.24-.13-.31-.25-.23-.36a.34.34,0,0,1,.26-.16h6.43c.25.12.33.24.24.34A.38.38,0,0,1,882.8,598.25Z" transform="translate(-584.4 -377.87)"/><path class="cls-11" d="M859.16,594.88a4.34,4.34,0,0,1-.09.52h-6.44c-.24-.14-.31-.26-.22-.37a.34.34,0,0,1,.26-.15Z" transform="translate(-584.4 -377.87)"/><path class="cls-13" d="M872.77,598.27l-6.59,0c2.15-.88,4.39-.55,6.62-.49q.33.19.21.36A.34.34,0,0,1,872.77,598.27Z" transform="translate(-584.4 -377.87)"/><path class="cls-13" d="M915.23,594.15l6.61,0c-2.16.88-4.41.55-6.63.49-.23-.13-.3-.25-.22-.36A.34.34,0,0,1,915.23,594.15Z" transform="translate(-584.4 -377.87)"/><path class="cls-14" d="M806.6,595.61a4.53,4.53,0,0,1-.06.5h-6.46c-.22-.15-.29-.27-.2-.38a.36.36,0,0,1,.26-.15Z" transform="translate(-584.4 -377.87)"/><path class="cls-15" d="M995.07,596.34a6.84,6.84,0,0,1-5.7,0Z" transform="translate(-584.4 -377.87)"/><path class="cls-16" d="M1005.24,593.2c1.61-.8,3.32-.59,5-.46l0,.48Z" transform="translate(-584.4 -377.87)"/><path class="cls-17" d="M663.29,494.16l-.12,4.6C662.1,497.2,662.62,495.68,663.29,494.16Z" transform="translate(-584.4 -377.87)"/><path class="cls-18" d="M1010.23,593.22c0-.16,0-.32,0-.48,1.65,0,3.37-.7,4.9.48Z" transform="translate(-584.4 -377.87)"/><path class="cls-19" d="M662.56,507.52c-.09,1.48.62,3.05-.5,4.41C661.91,510.42,661.72,508.91,662.56,507.52Z" transform="translate(-584.4 -377.87)"/><path class="cls-20" d="M1009.49,597.42l-.76-1.12,3-.14.12.54Z" transform="translate(-584.4 -377.87)"/><path class="cls-21" d="M782.9,599.23l-1.38,2.33c-.39-.5-1.33-.83-.8-1.65A2,2,0,0,1,782.9,599.23Z" transform="translate(-584.4 -377.87)"/><path class="cls-22" d="M915.82,632.27l-2.63,1.43C912.76,630.81,914.83,632.54,915.82,632.27Z" transform="translate(-584.4 -377.87)"/><path class="cls-23" d="M1151.5,409.28l-.84,0c.07-1.19,1.22-1.46,1.92-2.19C1152.91,408.19,1152.24,408.75,1151.5,409.28Z" transform="translate(-584.4 -377.87)"/><path class="cls-24" d="M935.33,597.55a4.38,4.38,0,0,0,0-.51l3.64,0C937.88,598,936.58,597.6,935.33,597.55Z" transform="translate(-584.4 -377.87)"/><path class="cls-25" d="M872.77,598.27a4.41,4.41,0,0,1,0-.52h3.6a2.27,2.27,0,0,0,0,.52Z" transform="translate(-584.4 -377.87)"/><path class="cls-24" d="M882.8,598.25a4,4,0,0,0,0-.49l3.61,0C885.32,598.68,884,598.33,882.8,598.25Z" transform="translate(-584.4 -377.87)"/><path class="cls-26" d="M800.14,595.58a4.52,4.52,0,0,0-.06.53l-3.64,0C797.57,595.17,798.88,595.55,800.14,595.58Z" transform="translate(-584.4 -377.87)"/><path class="cls-25" d="M915.23,594.15c0,.18,0,.35,0,.52H911.6a2.27,2.27,0,0,0,0-.52Z" transform="translate(-584.4 -377.87)"/><path class="cls-24" d="M852.67,594.87a4.38,4.38,0,0,0,0,.52l-3.64,0C850.12,594.45,851.42,594.82,852.67,594.87Z" transform="translate(-584.4 -377.87)"/></svg>