<svg id="Layer_1" data-name="Layer 1" xmlns="http://www.w3.org/2000/svg" viewBox="0 0 591.7 354.1"><defs><style>.cls-1{fill:#131313;}.cls-2{fill:#fdfdfd;}.cls-3{fill:#d2d2d2;}.cls-4{fill:#bcbcbc;}.cls-5{fill:silver;}</style></defs><path class="cls-1" d="M753.92,702.7c2-9.16,3.86-18.52,6.22-27.76,1-3.81.46-6.52-1.79-9.9q-47.8-71.74-95.2-143.78c-2-3-4-3.6-7.38-2.44-22.16,7.73-44.37,15.31-66.56,22.94-.45.16-.87.39-1.33.51-1.13.3-2.44,1-3.22-.43s.54-2.09,1.45-2.8q14-10.89,28.09-21.79,23.94-18.63,47.85-37.3c1.16-.91,2.21-1.53,3.37-.12,7.45,9.09,16.18,17,24.36,25.37,27.82,28.62,55.84,57.06,83.72,85.63,1.82,1.86,2.79,2.1,5,.31q53-43.29,106.19-86.38c4.4-3.57,4.64-3.61,9.12-.24q49.49,37.25,98.94,74.51c1.9,1.43,2.87,1.79,4.77-.38q48.15-55,96.54-109.91l77.6-88.27c.4-.45.78-.92,1.21-1.34.75-.71,1.47-1.86,2.67-.88s.29,1.91-.28,2.81c-9.4,14.71-20,28.53-30.2,42.71Q1083.3,510,1021.35,596c-1.41,2-.28,3.81-1.2,5.78q-29.21,62.33-58.07,124.81c-.94,2-1.53,3.06-4.43,2-14.52-5.36-29.22-10.22-43.8-15.44a7.56,7.56,0,0,0-6.36.31c-10.46,4.93-21.53,8.83-31.36,14.78-8.14,4.93-15.33,4.27-23.82,2.12-31.07-7.87-62.3-15.14-93.47-22.62C756.18,707.09,753.6,706.47,753.92,702.7Z" transform="translate(-584.4 -377.87)"/><path class="cls-2" d="M778.92,604.05c1.51,1.64,3,2.58,3.48,3.89,2.79,7.37,9.51,6.7,15.35,7.65,16.45,2.69,32.93,5.23,49.4,7.79,16,2.49,32,4.91,48,7.39,4,.62,8,1.63,12,1.94,3.06.23,2.52,1.39,1.63,3.3-4.73,10.24-9.39,20.51-14.09,30.77q-13.07,28.5-26.12,57a11.39,11.39,0,0,0-1.16,4.3c-.1,2-2.34,2.17-4.11,1.75-9.12-2.18-18.23-4.42-27.34-6.63-25.38-6.14-50.75-12.32-76.16-18.35-2.7-.64-2.93-1.46-2.34-4.06C764.66,668.85,771.67,636.85,778.92,604.05Z" transform="translate(-584.4 -377.87)"/><path class="cls-2" d="M1018.08,598.6,959.45,724.87C954.12,714.64,949.07,705,944,695.26L914.58,639c-2.77-5.28-2.64-5.5,2.89-7.36Q952.56,619.87,987.6,608c9-3,18-6,27-9C1015.62,598.65,1016.55,598.07,1018.08,598.6Z" transform="translate(-584.4 -377.87)"/><path class="cls-2" d="M887.09,506.94c2.21,15.53,4.36,30.54,6.49,45.56,1.86,13.12,3.66,26.26,5.58,39.37.31,2.1.14,2.9-2.33,2.92q-56.43.6-112.85,1.4c-.6,0-1.2-.05-1.8,0a2.42,2.42,0,0,1-2.41-1.23c-.6-1.15.64-1.62,1.32-2.18q51.64-42,103.3-83.88C885.12,508.32,885.91,507.8,887.09,506.94Z" transform="translate(-584.4 -377.87)"/><path class="cls-2" d="M763.58,659.45c-6.8-10.9-13.12-21-19.43-31.14-25.9-41.6-51.6-83.34-77.91-124.69-4.32-6.78-2.13-13-2.72-19.71,1.79.4,2.4,1.51,3.2,2.33Q721,541.55,775.24,596.85a4.31,4.31,0,0,1,1.2,4.66C772.14,620.47,768,639.47,763.58,659.45Z" transform="translate(-584.4 -377.87)"/><path class="cls-2" d="M890,505.51c9.11,6.83,17.8,13.31,26.47,19.84,24.91,18.77,49.78,37.6,74.76,56.27,2,1.51,1.77,2.29.38,3.79a27.67,27.67,0,0,0-2.53,3.78c-1.57,2.43-3.56,4.26-7.2,4.3q-37.94.33-75.88,1.26c-3,.07-3.87-.85-4.24-3.56q-4-29.51-8.12-59c-1.06-7.58-2.21-15.14-3.3-22.71C890.15,508.37,890.11,507.22,890,505.51Z" transform="translate(-584.4 -377.87)"/><path class="cls-2" d="M955.94,724.71c-8.21-2.85-15.47-5.35-22.72-7.88-6.16-2.16-12.37-4.18-18.43-6.6a9.52,9.52,0,0,0-8.81.37c-10.72,5.39-21.74,10.17-32.64,15.21-.77.35-1.45.85-2.52.36L911,638.64Z" transform="translate(-584.4 -377.87)"/><path class="cls-2" d="M1147.74,414.43c-7.81,11-15.59,22-23.44,32.93q-46.63,65-93.3,130-5.54,7.73-11.07,15.43c-1.16,1.64-2.1,3.48-4.25.78-.51-.64-2.27-.38-3.45-.38-7.19,0-14.38,0-21.8,0,.27-2.77,2.24-4.57,3.87-6.43q27.11-30.9,54.32-61.7,29.78-33.84,59.48-67.74,19.32-22,38.75-43.83C1147.61,413.36,1147.93,413.65,1147.74,414.43Z" transform="translate(-584.4 -377.87)"/><path class="cls-2" d="M908.51,629.88c-19.56-3.12-38.34-6.16-57.14-9.1-17.64-2.75-35.3-5.38-53-8.08-2.94-.45-5.88-.94-8.81-1.43-2-.35-2.81-2.12-3.78-3.55-1.75-2.58-5.78-5.26-4.59-7.73,1.12-2.3,5.74-.78,8.79-.83,34.14-.54,68.28-1,102.42-1.54,2.74,0,3.92.81,4.85,3.3C900.82,610.4,904.58,619.79,908.51,629.88Z" transform="translate(-584.4 -377.87)"/><path class="cls-2" d="M899,597.72l112.36-1.67.09.7q-22.5,7.63-45,15.25-24.94,8.43-49.91,16.81c-4.74,1.6-4.73,1.65-6.64-3.24C906.37,616.48,902.82,607.39,899,597.72Z" transform="translate(-584.4 -377.87)"/><path class="cls-2" d="M597.22,534.42l63.34-49.19c-.39,7.44-.73,14-1.09,20.66a9,9,0,0,0-.26,2.13c1.25,5.85-2.32,7.48-7,9-17.43,5.75-34.74,11.86-52.1,17.82a8,8,0,0,1-1.4.25C597.91,535.47,597.17,535.75,597.22,534.42Z" transform="translate(-584.4 -377.87)"/><path class="cls-2" d="M662.87,503.14,763.25,664.36c-2.07.39-2.28-.68-2.75-1.39q-48.62-73.53-97.26-147a6.37,6.37,0,0,1-1.24-4.33C662.26,509.05,662.53,506.48,662.87,503.14Z" transform="translate(-584.4 -377.87)"/><path class="cls-3" d="M1147.74,414.43c-.29-.31-.59-.62-.89-.92a17.48,17.48,0,0,1,3.77-4.23.52.52,0,0,1,.89,0A17.83,17.83,0,0,1,1147.74,414.43Z" transform="translate(-584.4 -377.87)"/><path class="cls-4" d="M597.22,534.42c.26.69.95.52,1.46.71-1.2,1-2.6,1.25-4.72,1.39Z" transform="translate(-584.4 -377.87)"/><path class="cls-5" d="M1151.51,409.3l-.89,0c.25-1,1-1.65,2.26-2.49A2.71,2.71,0,0,1,1151.51,409.3Z" transform="translate(-584.4 -377.87)"/></svg>